M48
; DRILL file KiCad 10.0.3 date 2026-06-13T22:54:47
; FORMAT={-:-/ absolute / metric / decimal}
; #@! TF.CreationDate,2026-06-13T22:54:47+02:00
; #@! TF.GenerationSoftware,Kicad,Pcbnew,10.0.3
; #@! TF.FileFunction,Plated,1,2,PTH
FMAT,2
METRIC
; #@! TA.AperFunction,Plated,PTH,ViaDrill
T1C0.300
; #@! TA.AperFunction,Plated,PTH,ComponentDrill
T2C0.800
; #@! TA.AperFunction,Plated,PTH,ComponentDrill
T3C1.000
; #@! TA.AperFunction,Plated,PTH,ComponentDrill
T4C1.020
%
G90
G05
T1
X135.5Y-68.5
X135.5Y-80.5
X135.5Y-92.0
X136.0Y-56.5
X145.5Y-85.5
X146.427Y-71.073
X146.5Y-64.0
X146.5Y-82.5
X146.5Y-84.0
X146.5Y-92.0
X148.0Y-111.0
X148.9Y-100.1
X149.5Y-67.0
X150.0Y-83.5
X150.0Y-100.7
X150.6Y-99.5
X151.4Y-98.9
X152.0Y-62.0
X152.0Y-100.7
X153.5Y-67.28
X153.5Y-77.5
X153.917Y-68.86
X153.971Y-84.084
X154.0Y-62.0
X154.0Y-107.5
X154.434Y-75.6
X154.5Y-69.798
X155.0Y-75.0
X155.0Y-87.0
X155.575Y-93.58
X155.682Y-68.88
X156.932Y-75.78
X156.934Y-77.004
X157.537Y-92.5
X158.133Y-75.799
X158.5Y-79.0
X158.504Y-76.508
X158.575Y-83.98
X158.812Y-62.0
X159.0Y-108.25
X159.5Y-96.5
X160.5Y-63.0
X160.5Y-98.0
X161.0Y-85.5
X161.5Y-69.4
X162.0Y-73.6
X162.0Y-96.5
X162.037Y-85.5
X162.208Y-99.208
X162.792Y-95.792
X163.0Y-71.9
X163.0Y-94.5
X163.399Y-88.5
X163.598Y-79.557
X163.999Y-82.5
X163.999Y-92.5
X164.0Y-93.5
X164.016Y-97.4
X164.876Y-73.776
X165.5Y-71.9
X166.0Y-95.5
X166.0Y-107.4
X166.5Y-75.0
X166.5Y-96.3
X166.5Y-98.0
X167.0Y-63.5
X167.0Y-88.0
X167.0Y-92.5
X167.5Y-65.4
X167.5Y-67.5
X167.5Y-97.0
X167.9Y-90.0
X168.0Y-75.0
X168.5Y-96.0
X168.807Y-71.9
X169.1Y-92.5
X169.376Y-73.724
X169.385Y-75.115
X169.5Y-71.5
X169.5Y-87.5
X169.5Y-90.0
X169.774Y-70.473
X169.826Y-69.674
X170.0Y-67.9
X170.0Y-74.399
X170.0Y-96.0
X170.4Y-104.5
X171.0Y-96.0
X171.4Y-79.0
X171.668Y-68.147
X172.0Y-80.5
X172.5Y-67.547
X172.5Y-96.0
X173.5Y-75.0
X173.5Y-97.5
X173.815Y-72.685
X174.0Y-69.281
X174.0Y-71.5
X174.0Y-102.0
X174.5Y-63.5
X174.5Y-103.0
X174.5Y-106.5
X175.0Y-74.5
X175.5Y-95.5
X177.5Y-75.0
X178.799Y-75.0
X179.0Y-96.0
X179.299Y-68.0
X179.943Y-103.557
X180.0Y-105.0
X180.5Y-65.0
X180.5Y-68.0
X182.0Y-62.0
X183.5Y-63.5
T2
X148.5Y-94.0
X148.5Y-97.5
T3
X151.0Y-59.885
X153.54Y-59.885
X160.0Y-59.885
X162.54Y-59.885
X169.0Y-59.885
X171.54Y-59.885
X175.225Y-113.5
X177.765Y-113.5
X178.0Y-59.885
X180.54Y-59.885
X182.5Y-102.725
X182.5Y-105.265
X182.5Y-111.0
X182.5Y-113.54
T4
X144.0Y-55.0
X144.0Y-57.54
X144.0Y-60.08
X144.0Y-62.62
X144.0Y-67.0
X144.0Y-69.54
X144.0Y-72.08
X144.0Y-74.62
X144.0Y-79.0
X144.0Y-81.54
X144.0Y-84.08
X144.0Y-86.62
X144.0Y-91.0
X144.0Y-93.54
X144.0Y-96.08
X144.0Y-98.62
M30
