%TF.GenerationSoftware,KiCad,Pcbnew,10.0.3*%
%TF.CreationDate,2026-06-13T22:55:22+02:00*%
%TF.ProjectId,main,6d61696e-2e6b-4696-9361-645f70636258,rev?*%
%TF.SameCoordinates,Original*%
%TF.FileFunction,AssemblyDrawing,Bot*%
%FSLAX46Y46*%
G04 Gerber Fmt 4.6, Leading zero omitted, Abs format (unit mm)*
G04 Created by KiCad (PCBNEW 10.0.3) date 2026-06-13 22:55:22*
%MOMM*%
%LPD*%
G01*
G04 APERTURE LIST*
%ADD10C,0.150000*%
%ADD11C,0.080000*%
%ADD12C,0.110000*%
%ADD13C,0.100000*%
G04 APERTURE END LIST*
D10*
X177727976Y-93954819D02*
X178299404Y-93954819D01*
X178013690Y-93954819D02*
X178013690Y-92954819D01*
X178013690Y-92954819D02*
X178108928Y-93097676D01*
X178108928Y-93097676D02*
X178204166Y-93192914D01*
X178204166Y-93192914D02*
X178299404Y-93240533D01*
X177299404Y-93954819D02*
X177299404Y-92954819D01*
X177299404Y-92954819D02*
X176727976Y-93954819D01*
X176727976Y-93954819D02*
X176727976Y-92954819D01*
X175823214Y-93288152D02*
X175823214Y-93954819D01*
X176061309Y-92907200D02*
X176299404Y-93621485D01*
X176299404Y-93621485D02*
X175680357Y-93621485D01*
X174775595Y-93954819D02*
X175347023Y-93954819D01*
X175061309Y-93954819D02*
X175061309Y-92954819D01*
X175061309Y-92954819D02*
X175156547Y-93097676D01*
X175156547Y-93097676D02*
X175251785Y-93192914D01*
X175251785Y-93192914D02*
X175347023Y-93240533D01*
X173918452Y-93288152D02*
X173918452Y-93954819D01*
X174156547Y-92907200D02*
X174394642Y-93621485D01*
X174394642Y-93621485D02*
X173775595Y-93621485D01*
X173251785Y-93383390D02*
X173347023Y-93335771D01*
X173347023Y-93335771D02*
X173394642Y-93288152D01*
X173394642Y-93288152D02*
X173442261Y-93192914D01*
X173442261Y-93192914D02*
X173442261Y-93145295D01*
X173442261Y-93145295D02*
X173394642Y-93050057D01*
X173394642Y-93050057D02*
X173347023Y-93002438D01*
X173347023Y-93002438D02*
X173251785Y-92954819D01*
X173251785Y-92954819D02*
X173061309Y-92954819D01*
X173061309Y-92954819D02*
X172966071Y-93002438D01*
X172966071Y-93002438D02*
X172918452Y-93050057D01*
X172918452Y-93050057D02*
X172870833Y-93145295D01*
X172870833Y-93145295D02*
X172870833Y-93192914D01*
X172870833Y-93192914D02*
X172918452Y-93288152D01*
X172918452Y-93288152D02*
X172966071Y-93335771D01*
X172966071Y-93335771D02*
X173061309Y-93383390D01*
X173061309Y-93383390D02*
X173251785Y-93383390D01*
X173251785Y-93383390D02*
X173347023Y-93431009D01*
X173347023Y-93431009D02*
X173394642Y-93478628D01*
X173394642Y-93478628D02*
X173442261Y-93573866D01*
X173442261Y-93573866D02*
X173442261Y-93764342D01*
X173442261Y-93764342D02*
X173394642Y-93859580D01*
X173394642Y-93859580D02*
X173347023Y-93907200D01*
X173347023Y-93907200D02*
X173251785Y-93954819D01*
X173251785Y-93954819D02*
X173061309Y-93954819D01*
X173061309Y-93954819D02*
X172966071Y-93907200D01*
X172966071Y-93907200D02*
X172918452Y-93859580D01*
X172918452Y-93859580D02*
X172870833Y-93764342D01*
X172870833Y-93764342D02*
X172870833Y-93573866D01*
X172870833Y-93573866D02*
X172918452Y-93478628D01*
X172918452Y-93478628D02*
X172966071Y-93431009D01*
X172966071Y-93431009D02*
X173061309Y-93383390D01*
X172537499Y-92954819D02*
X172299404Y-93954819D01*
X172299404Y-93954819D02*
X172108928Y-93240533D01*
X172108928Y-93240533D02*
X171918452Y-93954819D01*
X171918452Y-93954819D02*
X171680357Y-92954819D01*
X171347023Y-93907200D02*
X171204166Y-93954819D01*
X171204166Y-93954819D02*
X170966071Y-93954819D01*
X170966071Y-93954819D02*
X170870833Y-93907200D01*
X170870833Y-93907200D02*
X170823214Y-93859580D01*
X170823214Y-93859580D02*
X170775595Y-93764342D01*
X170775595Y-93764342D02*
X170775595Y-93669104D01*
X170775595Y-93669104D02*
X170823214Y-93573866D01*
X170823214Y-93573866D02*
X170870833Y-93526247D01*
X170870833Y-93526247D02*
X170966071Y-93478628D01*
X170966071Y-93478628D02*
X171156547Y-93431009D01*
X171156547Y-93431009D02*
X171251785Y-93383390D01*
X171251785Y-93383390D02*
X171299404Y-93335771D01*
X171299404Y-93335771D02*
X171347023Y-93240533D01*
X171347023Y-93240533D02*
X171347023Y-93145295D01*
X171347023Y-93145295D02*
X171299404Y-93050057D01*
X171299404Y-93050057D02*
X171251785Y-93002438D01*
X171251785Y-93002438D02*
X171156547Y-92954819D01*
X171156547Y-92954819D02*
X170918452Y-92954819D01*
X170918452Y-92954819D02*
X170775595Y-93002438D01*
X170347023Y-93573866D02*
X169585119Y-93573866D01*
X169108928Y-93954819D02*
X169108928Y-92954819D01*
X169108928Y-93431009D02*
X168537500Y-93431009D01*
X168537500Y-93954819D02*
X168537500Y-92954819D01*
X167537500Y-93002438D02*
X167632738Y-92954819D01*
X167632738Y-92954819D02*
X167775595Y-92954819D01*
X167775595Y-92954819D02*
X167918452Y-93002438D01*
X167918452Y-93002438D02*
X168013690Y-93097676D01*
X168013690Y-93097676D02*
X168061309Y-93192914D01*
X168061309Y-93192914D02*
X168108928Y-93383390D01*
X168108928Y-93383390D02*
X168108928Y-93526247D01*
X168108928Y-93526247D02*
X168061309Y-93716723D01*
X168061309Y-93716723D02*
X168013690Y-93811961D01*
X168013690Y-93811961D02*
X167918452Y-93907200D01*
X167918452Y-93907200D02*
X167775595Y-93954819D01*
X167775595Y-93954819D02*
X167680357Y-93954819D01*
X167680357Y-93954819D02*
X167537500Y-93907200D01*
X167537500Y-93907200D02*
X167489881Y-93859580D01*
X167489881Y-93859580D02*
X167489881Y-93526247D01*
X167489881Y-93526247D02*
X167680357Y-93526247D01*
X167156547Y-92954819D02*
X166537500Y-92954819D01*
X166537500Y-92954819D02*
X166870833Y-93335771D01*
X166870833Y-93335771D02*
X166727976Y-93335771D01*
X166727976Y-93335771D02*
X166632738Y-93383390D01*
X166632738Y-93383390D02*
X166585119Y-93431009D01*
X166585119Y-93431009D02*
X166537500Y-93526247D01*
X166537500Y-93526247D02*
X166537500Y-93764342D01*
X166537500Y-93764342D02*
X166585119Y-93859580D01*
X166585119Y-93859580D02*
X166632738Y-93907200D01*
X166632738Y-93907200D02*
X166727976Y-93954819D01*
X166727976Y-93954819D02*
X167013690Y-93954819D01*
X167013690Y-93954819D02*
X167108928Y-93907200D01*
X167108928Y-93907200D02*
X167156547Y-93859580D01*
X166347024Y-94050057D02*
X165585119Y-94050057D01*
X165394642Y-93669104D02*
X164918452Y-93669104D01*
X165489880Y-93954819D02*
X165156547Y-92954819D01*
X165156547Y-92954819D02*
X164823214Y-93954819D01*
X164489880Y-93573866D02*
X163727976Y-93573866D01*
X163061309Y-92954819D02*
X162966071Y-92954819D01*
X162966071Y-92954819D02*
X162870833Y-93002438D01*
X162870833Y-93002438D02*
X162823214Y-93050057D01*
X162823214Y-93050057D02*
X162775595Y-93145295D01*
X162775595Y-93145295D02*
X162727976Y-93335771D01*
X162727976Y-93335771D02*
X162727976Y-93573866D01*
X162727976Y-93573866D02*
X162775595Y-93764342D01*
X162775595Y-93764342D02*
X162823214Y-93859580D01*
X162823214Y-93859580D02*
X162870833Y-93907200D01*
X162870833Y-93907200D02*
X162966071Y-93954819D01*
X162966071Y-93954819D02*
X163061309Y-93954819D01*
X163061309Y-93954819D02*
X163156547Y-93907200D01*
X163156547Y-93907200D02*
X163204166Y-93859580D01*
X163204166Y-93859580D02*
X163251785Y-93764342D01*
X163251785Y-93764342D02*
X163299404Y-93573866D01*
X163299404Y-93573866D02*
X163299404Y-93335771D01*
X163299404Y-93335771D02*
X163251785Y-93145295D01*
X163251785Y-93145295D02*
X163204166Y-93050057D01*
X163204166Y-93050057D02*
X163156547Y-93002438D01*
X163156547Y-93002438D02*
X163061309Y-92954819D01*
X162156547Y-93383390D02*
X162251785Y-93335771D01*
X162251785Y-93335771D02*
X162299404Y-93288152D01*
X162299404Y-93288152D02*
X162347023Y-93192914D01*
X162347023Y-93192914D02*
X162347023Y-93145295D01*
X162347023Y-93145295D02*
X162299404Y-93050057D01*
X162299404Y-93050057D02*
X162251785Y-93002438D01*
X162251785Y-93002438D02*
X162156547Y-92954819D01*
X162156547Y-92954819D02*
X161966071Y-92954819D01*
X161966071Y-92954819D02*
X161870833Y-93002438D01*
X161870833Y-93002438D02*
X161823214Y-93050057D01*
X161823214Y-93050057D02*
X161775595Y-93145295D01*
X161775595Y-93145295D02*
X161775595Y-93192914D01*
X161775595Y-93192914D02*
X161823214Y-93288152D01*
X161823214Y-93288152D02*
X161870833Y-93335771D01*
X161870833Y-93335771D02*
X161966071Y-93383390D01*
X161966071Y-93383390D02*
X162156547Y-93383390D01*
X162156547Y-93383390D02*
X162251785Y-93431009D01*
X162251785Y-93431009D02*
X162299404Y-93478628D01*
X162299404Y-93478628D02*
X162347023Y-93573866D01*
X162347023Y-93573866D02*
X162347023Y-93764342D01*
X162347023Y-93764342D02*
X162299404Y-93859580D01*
X162299404Y-93859580D02*
X162251785Y-93907200D01*
X162251785Y-93907200D02*
X162156547Y-93954819D01*
X162156547Y-93954819D02*
X161966071Y-93954819D01*
X161966071Y-93954819D02*
X161870833Y-93907200D01*
X161870833Y-93907200D02*
X161823214Y-93859580D01*
X161823214Y-93859580D02*
X161775595Y-93764342D01*
X161775595Y-93764342D02*
X161775595Y-93573866D01*
X161775595Y-93573866D02*
X161823214Y-93478628D01*
X161823214Y-93478628D02*
X161870833Y-93431009D01*
X161870833Y-93431009D02*
X161966071Y-93383390D01*
X150727976Y-84254819D02*
X151299404Y-84254819D01*
X151013690Y-84254819D02*
X151013690Y-83254819D01*
X151013690Y-83254819D02*
X151108928Y-83397676D01*
X151108928Y-83397676D02*
X151204166Y-83492914D01*
X151204166Y-83492914D02*
X151299404Y-83540533D01*
X150108928Y-83254819D02*
X150013690Y-83254819D01*
X150013690Y-83254819D02*
X149918452Y-83302438D01*
X149918452Y-83302438D02*
X149870833Y-83350057D01*
X149870833Y-83350057D02*
X149823214Y-83445295D01*
X149823214Y-83445295D02*
X149775595Y-83635771D01*
X149775595Y-83635771D02*
X149775595Y-83873866D01*
X149775595Y-83873866D02*
X149823214Y-84064342D01*
X149823214Y-84064342D02*
X149870833Y-84159580D01*
X149870833Y-84159580D02*
X149918452Y-84207200D01*
X149918452Y-84207200D02*
X150013690Y-84254819D01*
X150013690Y-84254819D02*
X150108928Y-84254819D01*
X150108928Y-84254819D02*
X150204166Y-84207200D01*
X150204166Y-84207200D02*
X150251785Y-84159580D01*
X150251785Y-84159580D02*
X150299404Y-84064342D01*
X150299404Y-84064342D02*
X150347023Y-83873866D01*
X150347023Y-83873866D02*
X150347023Y-83635771D01*
X150347023Y-83635771D02*
X150299404Y-83445295D01*
X150299404Y-83445295D02*
X150251785Y-83350057D01*
X150251785Y-83350057D02*
X150204166Y-83302438D01*
X150204166Y-83302438D02*
X150108928Y-83254819D01*
D11*
X150858928Y-85659530D02*
X150882737Y-85683340D01*
X150882737Y-85683340D02*
X150954166Y-85707149D01*
X150954166Y-85707149D02*
X151001785Y-85707149D01*
X151001785Y-85707149D02*
X151073213Y-85683340D01*
X151073213Y-85683340D02*
X151120832Y-85635720D01*
X151120832Y-85635720D02*
X151144642Y-85588101D01*
X151144642Y-85588101D02*
X151168451Y-85492863D01*
X151168451Y-85492863D02*
X151168451Y-85421435D01*
X151168451Y-85421435D02*
X151144642Y-85326197D01*
X151144642Y-85326197D02*
X151120832Y-85278578D01*
X151120832Y-85278578D02*
X151073213Y-85230959D01*
X151073213Y-85230959D02*
X151001785Y-85207149D01*
X151001785Y-85207149D02*
X150954166Y-85207149D01*
X150954166Y-85207149D02*
X150882737Y-85230959D01*
X150882737Y-85230959D02*
X150858928Y-85254768D01*
X150668451Y-85254768D02*
X150644642Y-85230959D01*
X150644642Y-85230959D02*
X150597023Y-85207149D01*
X150597023Y-85207149D02*
X150477975Y-85207149D01*
X150477975Y-85207149D02*
X150430356Y-85230959D01*
X150430356Y-85230959D02*
X150406547Y-85254768D01*
X150406547Y-85254768D02*
X150382737Y-85302387D01*
X150382737Y-85302387D02*
X150382737Y-85350006D01*
X150382737Y-85350006D02*
X150406547Y-85421435D01*
X150406547Y-85421435D02*
X150692261Y-85707149D01*
X150692261Y-85707149D02*
X150382737Y-85707149D01*
X149954166Y-85373816D02*
X149954166Y-85707149D01*
X150073214Y-85183340D02*
X150192261Y-85540482D01*
X150192261Y-85540482D02*
X149882738Y-85540482D01*
D10*
X164799404Y-87954819D02*
X164704166Y-87954819D01*
X164704166Y-87954819D02*
X164608928Y-88002438D01*
X164608928Y-88002438D02*
X164561309Y-88050057D01*
X164561309Y-88050057D02*
X164513690Y-88145295D01*
X164513690Y-88145295D02*
X164466071Y-88335771D01*
X164466071Y-88335771D02*
X164466071Y-88573866D01*
X164466071Y-88573866D02*
X164513690Y-88764342D01*
X164513690Y-88764342D02*
X164561309Y-88859580D01*
X164561309Y-88859580D02*
X164608928Y-88907200D01*
X164608928Y-88907200D02*
X164704166Y-88954819D01*
X164704166Y-88954819D02*
X164799404Y-88954819D01*
X164799404Y-88954819D02*
X164894642Y-88907200D01*
X164894642Y-88907200D02*
X164942261Y-88859580D01*
X164942261Y-88859580D02*
X164989880Y-88764342D01*
X164989880Y-88764342D02*
X165037499Y-88573866D01*
X165037499Y-88573866D02*
X165037499Y-88335771D01*
X165037499Y-88335771D02*
X164989880Y-88145295D01*
X164989880Y-88145295D02*
X164942261Y-88050057D01*
X164942261Y-88050057D02*
X164894642Y-88002438D01*
X164894642Y-88002438D02*
X164799404Y-87954819D01*
X164037499Y-88859580D02*
X163989880Y-88907200D01*
X163989880Y-88907200D02*
X164037499Y-88954819D01*
X164037499Y-88954819D02*
X164085118Y-88907200D01*
X164085118Y-88907200D02*
X164037499Y-88859580D01*
X164037499Y-88859580D02*
X164037499Y-88954819D01*
X163037500Y-88954819D02*
X163608928Y-88954819D01*
X163323214Y-88954819D02*
X163323214Y-87954819D01*
X163323214Y-87954819D02*
X163418452Y-88097676D01*
X163418452Y-88097676D02*
X163513690Y-88192914D01*
X163513690Y-88192914D02*
X163608928Y-88240533D01*
D11*
X162217030Y-88141071D02*
X162240840Y-88117262D01*
X162240840Y-88117262D02*
X162264649Y-88045833D01*
X162264649Y-88045833D02*
X162264649Y-87998214D01*
X162264649Y-87998214D02*
X162240840Y-87926786D01*
X162240840Y-87926786D02*
X162193220Y-87879167D01*
X162193220Y-87879167D02*
X162145601Y-87855357D01*
X162145601Y-87855357D02*
X162050363Y-87831548D01*
X162050363Y-87831548D02*
X161978935Y-87831548D01*
X161978935Y-87831548D02*
X161883697Y-87855357D01*
X161883697Y-87855357D02*
X161836078Y-87879167D01*
X161836078Y-87879167D02*
X161788459Y-87926786D01*
X161788459Y-87926786D02*
X161764649Y-87998214D01*
X161764649Y-87998214D02*
X161764649Y-88045833D01*
X161764649Y-88045833D02*
X161788459Y-88117262D01*
X161788459Y-88117262D02*
X161812268Y-88141071D01*
X161812268Y-88331548D02*
X161788459Y-88355357D01*
X161788459Y-88355357D02*
X161764649Y-88402976D01*
X161764649Y-88402976D02*
X161764649Y-88522024D01*
X161764649Y-88522024D02*
X161788459Y-88569643D01*
X161788459Y-88569643D02*
X161812268Y-88593452D01*
X161812268Y-88593452D02*
X161859887Y-88617262D01*
X161859887Y-88617262D02*
X161907506Y-88617262D01*
X161907506Y-88617262D02*
X161978935Y-88593452D01*
X161978935Y-88593452D02*
X162264649Y-88307738D01*
X162264649Y-88307738D02*
X162264649Y-88617262D01*
X161764649Y-88926785D02*
X161764649Y-88974404D01*
X161764649Y-88974404D02*
X161788459Y-89022023D01*
X161788459Y-89022023D02*
X161812268Y-89045833D01*
X161812268Y-89045833D02*
X161859887Y-89069642D01*
X161859887Y-89069642D02*
X161955125Y-89093452D01*
X161955125Y-89093452D02*
X162074173Y-89093452D01*
X162074173Y-89093452D02*
X162169411Y-89069642D01*
X162169411Y-89069642D02*
X162217030Y-89045833D01*
X162217030Y-89045833D02*
X162240840Y-89022023D01*
X162240840Y-89022023D02*
X162264649Y-88974404D01*
X162264649Y-88974404D02*
X162264649Y-88926785D01*
X162264649Y-88926785D02*
X162240840Y-88879166D01*
X162240840Y-88879166D02*
X162217030Y-88855357D01*
X162217030Y-88855357D02*
X162169411Y-88831547D01*
X162169411Y-88831547D02*
X162074173Y-88807738D01*
X162074173Y-88807738D02*
X161955125Y-88807738D01*
X161955125Y-88807738D02*
X161859887Y-88831547D01*
X161859887Y-88831547D02*
X161812268Y-88855357D01*
X161812268Y-88855357D02*
X161788459Y-88879166D01*
X161788459Y-88879166D02*
X161764649Y-88926785D01*
D10*
X160761904Y-64454819D02*
X160666666Y-64454819D01*
X160666666Y-64454819D02*
X160571428Y-64502438D01*
X160571428Y-64502438D02*
X160523809Y-64550057D01*
X160523809Y-64550057D02*
X160476190Y-64645295D01*
X160476190Y-64645295D02*
X160428571Y-64835771D01*
X160428571Y-64835771D02*
X160428571Y-65073866D01*
X160428571Y-65073866D02*
X160476190Y-65264342D01*
X160476190Y-65264342D02*
X160523809Y-65359580D01*
X160523809Y-65359580D02*
X160571428Y-65407200D01*
X160571428Y-65407200D02*
X160666666Y-65454819D01*
X160666666Y-65454819D02*
X160761904Y-65454819D01*
X160761904Y-65454819D02*
X160857142Y-65407200D01*
X160857142Y-65407200D02*
X160904761Y-65359580D01*
X160904761Y-65359580D02*
X160952380Y-65264342D01*
X160952380Y-65264342D02*
X160999999Y-65073866D01*
X160999999Y-65073866D02*
X160999999Y-64835771D01*
X160999999Y-64835771D02*
X160952380Y-64645295D01*
X160952380Y-64645295D02*
X160904761Y-64550057D01*
X160904761Y-64550057D02*
X160857142Y-64502438D01*
X160857142Y-64502438D02*
X160761904Y-64454819D01*
X159999999Y-65359580D02*
X159952380Y-65407200D01*
X159952380Y-65407200D02*
X159999999Y-65454819D01*
X159999999Y-65454819D02*
X160047618Y-65407200D01*
X160047618Y-65407200D02*
X159999999Y-65359580D01*
X159999999Y-65359580D02*
X159999999Y-65454819D01*
X159000000Y-65454819D02*
X159571428Y-65454819D01*
X159285714Y-65454819D02*
X159285714Y-64454819D01*
X159285714Y-64454819D02*
X159380952Y-64597676D01*
X159380952Y-64597676D02*
X159476190Y-64692914D01*
X159476190Y-64692914D02*
X159571428Y-64740533D01*
D11*
X158179530Y-64916666D02*
X158203340Y-64892857D01*
X158203340Y-64892857D02*
X158227149Y-64821428D01*
X158227149Y-64821428D02*
X158227149Y-64773809D01*
X158227149Y-64773809D02*
X158203340Y-64702381D01*
X158203340Y-64702381D02*
X158155720Y-64654762D01*
X158155720Y-64654762D02*
X158108101Y-64630952D01*
X158108101Y-64630952D02*
X158012863Y-64607143D01*
X158012863Y-64607143D02*
X157941435Y-64607143D01*
X157941435Y-64607143D02*
X157846197Y-64630952D01*
X157846197Y-64630952D02*
X157798578Y-64654762D01*
X157798578Y-64654762D02*
X157750959Y-64702381D01*
X157750959Y-64702381D02*
X157727149Y-64773809D01*
X157727149Y-64773809D02*
X157727149Y-64821428D01*
X157727149Y-64821428D02*
X157750959Y-64892857D01*
X157750959Y-64892857D02*
X157774768Y-64916666D01*
X158227149Y-65154762D02*
X158227149Y-65250000D01*
X158227149Y-65250000D02*
X158203340Y-65297619D01*
X158203340Y-65297619D02*
X158179530Y-65321428D01*
X158179530Y-65321428D02*
X158108101Y-65369047D01*
X158108101Y-65369047D02*
X158012863Y-65392857D01*
X158012863Y-65392857D02*
X157822387Y-65392857D01*
X157822387Y-65392857D02*
X157774768Y-65369047D01*
X157774768Y-65369047D02*
X157750959Y-65345238D01*
X157750959Y-65345238D02*
X157727149Y-65297619D01*
X157727149Y-65297619D02*
X157727149Y-65202381D01*
X157727149Y-65202381D02*
X157750959Y-65154762D01*
X157750959Y-65154762D02*
X157774768Y-65130952D01*
X157774768Y-65130952D02*
X157822387Y-65107143D01*
X157822387Y-65107143D02*
X157941435Y-65107143D01*
X157941435Y-65107143D02*
X157989054Y-65130952D01*
X157989054Y-65130952D02*
X158012863Y-65154762D01*
X158012863Y-65154762D02*
X158036673Y-65202381D01*
X158036673Y-65202381D02*
X158036673Y-65297619D01*
X158036673Y-65297619D02*
X158012863Y-65345238D01*
X158012863Y-65345238D02*
X157989054Y-65369047D01*
X157989054Y-65369047D02*
X157941435Y-65392857D01*
D10*
X169690476Y-79288152D02*
X169690476Y-79954819D01*
X169928571Y-78907200D02*
X170166666Y-79621485D01*
X170166666Y-79621485D02*
X169547619Y-79621485D01*
X169166666Y-79954819D02*
X169166666Y-78954819D01*
X169071428Y-79573866D02*
X168785714Y-79954819D01*
X168785714Y-79288152D02*
X169166666Y-79669104D01*
X168452380Y-78954819D02*
X167785714Y-78954819D01*
X167785714Y-78954819D02*
X168214285Y-79954819D01*
D11*
X168678571Y-81727149D02*
X168511905Y-81489054D01*
X168392857Y-81727149D02*
X168392857Y-81227149D01*
X168392857Y-81227149D02*
X168583333Y-81227149D01*
X168583333Y-81227149D02*
X168630952Y-81250959D01*
X168630952Y-81250959D02*
X168654762Y-81274768D01*
X168654762Y-81274768D02*
X168678571Y-81322387D01*
X168678571Y-81322387D02*
X168678571Y-81393816D01*
X168678571Y-81393816D02*
X168654762Y-81441435D01*
X168654762Y-81441435D02*
X168630952Y-81465244D01*
X168630952Y-81465244D02*
X168583333Y-81489054D01*
X168583333Y-81489054D02*
X168392857Y-81489054D01*
X168869048Y-81274768D02*
X168892857Y-81250959D01*
X168892857Y-81250959D02*
X168940476Y-81227149D01*
X168940476Y-81227149D02*
X169059524Y-81227149D01*
X169059524Y-81227149D02*
X169107143Y-81250959D01*
X169107143Y-81250959D02*
X169130952Y-81274768D01*
X169130952Y-81274768D02*
X169154762Y-81322387D01*
X169154762Y-81322387D02*
X169154762Y-81370006D01*
X169154762Y-81370006D02*
X169130952Y-81441435D01*
X169130952Y-81441435D02*
X168845238Y-81727149D01*
X168845238Y-81727149D02*
X169154762Y-81727149D01*
X169583333Y-81393816D02*
X169583333Y-81727149D01*
X169464285Y-81203340D02*
X169345238Y-81560482D01*
X169345238Y-81560482D02*
X169654761Y-81560482D01*
D10*
X170251785Y-86454819D02*
X170251785Y-85454819D01*
X170251785Y-85454819D02*
X169918452Y-86169104D01*
X169918452Y-86169104D02*
X169585119Y-85454819D01*
X169585119Y-85454819D02*
X169585119Y-86454819D01*
X168537500Y-86359580D02*
X168585119Y-86407200D01*
X168585119Y-86407200D02*
X168727976Y-86454819D01*
X168727976Y-86454819D02*
X168823214Y-86454819D01*
X168823214Y-86454819D02*
X168966071Y-86407200D01*
X168966071Y-86407200D02*
X169061309Y-86311961D01*
X169061309Y-86311961D02*
X169108928Y-86216723D01*
X169108928Y-86216723D02*
X169156547Y-86026247D01*
X169156547Y-86026247D02*
X169156547Y-85883390D01*
X169156547Y-85883390D02*
X169108928Y-85692914D01*
X169108928Y-85692914D02*
X169061309Y-85597676D01*
X169061309Y-85597676D02*
X168966071Y-85502438D01*
X168966071Y-85502438D02*
X168823214Y-85454819D01*
X168823214Y-85454819D02*
X168727976Y-85454819D01*
X168727976Y-85454819D02*
X168585119Y-85502438D01*
X168585119Y-85502438D02*
X168537500Y-85550057D01*
X168108928Y-86454819D02*
X168108928Y-85454819D01*
X168108928Y-85454819D02*
X167727976Y-85454819D01*
X167727976Y-85454819D02*
X167632738Y-85502438D01*
X167632738Y-85502438D02*
X167585119Y-85550057D01*
X167585119Y-85550057D02*
X167537500Y-85645295D01*
X167537500Y-85645295D02*
X167537500Y-85788152D01*
X167537500Y-85788152D02*
X167585119Y-85883390D01*
X167585119Y-85883390D02*
X167632738Y-85931009D01*
X167632738Y-85931009D02*
X167727976Y-85978628D01*
X167727976Y-85978628D02*
X168108928Y-85978628D01*
X166585119Y-86454819D02*
X167156547Y-86454819D01*
X166870833Y-86454819D02*
X166870833Y-85454819D01*
X166870833Y-85454819D02*
X166966071Y-85597676D01*
X166966071Y-85597676D02*
X167061309Y-85692914D01*
X167061309Y-85692914D02*
X167156547Y-85740533D01*
X165727976Y-85454819D02*
X165918452Y-85454819D01*
X165918452Y-85454819D02*
X166013690Y-85502438D01*
X166013690Y-85502438D02*
X166061309Y-85550057D01*
X166061309Y-85550057D02*
X166156547Y-85692914D01*
X166156547Y-85692914D02*
X166204166Y-85883390D01*
X166204166Y-85883390D02*
X166204166Y-86264342D01*
X166204166Y-86264342D02*
X166156547Y-86359580D01*
X166156547Y-86359580D02*
X166108928Y-86407200D01*
X166108928Y-86407200D02*
X166013690Y-86454819D01*
X166013690Y-86454819D02*
X165823214Y-86454819D01*
X165823214Y-86454819D02*
X165727976Y-86407200D01*
X165727976Y-86407200D02*
X165680357Y-86359580D01*
X165680357Y-86359580D02*
X165632738Y-86264342D01*
X165632738Y-86264342D02*
X165632738Y-86026247D01*
X165632738Y-86026247D02*
X165680357Y-85931009D01*
X165680357Y-85931009D02*
X165727976Y-85883390D01*
X165727976Y-85883390D02*
X165823214Y-85835771D01*
X165823214Y-85835771D02*
X166013690Y-85835771D01*
X166013690Y-85835771D02*
X166108928Y-85883390D01*
X166108928Y-85883390D02*
X166156547Y-85931009D01*
X166156547Y-85931009D02*
X166204166Y-86026247D01*
X165299404Y-85454819D02*
X164680357Y-85454819D01*
X164680357Y-85454819D02*
X165013690Y-85835771D01*
X165013690Y-85835771D02*
X164870833Y-85835771D01*
X164870833Y-85835771D02*
X164775595Y-85883390D01*
X164775595Y-85883390D02*
X164727976Y-85931009D01*
X164727976Y-85931009D02*
X164680357Y-86026247D01*
X164680357Y-86026247D02*
X164680357Y-86264342D01*
X164680357Y-86264342D02*
X164727976Y-86359580D01*
X164727976Y-86359580D02*
X164775595Y-86407200D01*
X164775595Y-86407200D02*
X164870833Y-86454819D01*
X164870833Y-86454819D02*
X165156547Y-86454819D01*
X165156547Y-86454819D02*
X165251785Y-86407200D01*
X165251785Y-86407200D02*
X165299404Y-86359580D01*
X164347023Y-85454819D02*
X163727976Y-85454819D01*
X163727976Y-85454819D02*
X164061309Y-85835771D01*
X164061309Y-85835771D02*
X163918452Y-85835771D01*
X163918452Y-85835771D02*
X163823214Y-85883390D01*
X163823214Y-85883390D02*
X163775595Y-85931009D01*
X163775595Y-85931009D02*
X163727976Y-86026247D01*
X163727976Y-86026247D02*
X163727976Y-86264342D01*
X163727976Y-86264342D02*
X163775595Y-86359580D01*
X163775595Y-86359580D02*
X163823214Y-86407200D01*
X163823214Y-86407200D02*
X163918452Y-86454819D01*
X163918452Y-86454819D02*
X164204166Y-86454819D01*
X164204166Y-86454819D02*
X164299404Y-86407200D01*
X164299404Y-86407200D02*
X164347023Y-86359580D01*
X162775595Y-86454819D02*
X163347023Y-86454819D01*
X163061309Y-86454819D02*
X163061309Y-85454819D01*
X163061309Y-85454819D02*
X163156547Y-85597676D01*
X163156547Y-85597676D02*
X163251785Y-85692914D01*
X163251785Y-85692914D02*
X163347023Y-85740533D01*
X162489880Y-85454819D02*
X161918452Y-85454819D01*
X162204166Y-86454819D02*
X162204166Y-85454819D01*
X161585118Y-86073866D02*
X160823214Y-86073866D01*
X160347023Y-85931009D02*
X160013690Y-85931009D01*
X159870833Y-86454819D02*
X160347023Y-86454819D01*
X160347023Y-86454819D02*
X160347023Y-85454819D01*
X160347023Y-85454819D02*
X159870833Y-85454819D01*
X158727976Y-85407200D02*
X159585118Y-86692914D01*
X157823214Y-86359580D02*
X157870833Y-86407200D01*
X157870833Y-86407200D02*
X158013690Y-86454819D01*
X158013690Y-86454819D02*
X158108928Y-86454819D01*
X158108928Y-86454819D02*
X158251785Y-86407200D01*
X158251785Y-86407200D02*
X158347023Y-86311961D01*
X158347023Y-86311961D02*
X158394642Y-86216723D01*
X158394642Y-86216723D02*
X158442261Y-86026247D01*
X158442261Y-86026247D02*
X158442261Y-85883390D01*
X158442261Y-85883390D02*
X158394642Y-85692914D01*
X158394642Y-85692914D02*
X158347023Y-85597676D01*
X158347023Y-85597676D02*
X158251785Y-85502438D01*
X158251785Y-85502438D02*
X158108928Y-85454819D01*
X158108928Y-85454819D02*
X158013690Y-85454819D01*
X158013690Y-85454819D02*
X157870833Y-85502438D01*
X157870833Y-85502438D02*
X157823214Y-85550057D01*
X157394642Y-86454819D02*
X157394642Y-85454819D01*
X157394642Y-85931009D02*
X156823214Y-85931009D01*
X156823214Y-86454819D02*
X156823214Y-85454819D01*
D12*
X159586071Y-88107365D02*
X159586071Y-88690222D01*
X159586071Y-88690222D02*
X159551785Y-88758794D01*
X159551785Y-88758794D02*
X159517500Y-88793080D01*
X159517500Y-88793080D02*
X159448928Y-88827365D01*
X159448928Y-88827365D02*
X159311785Y-88827365D01*
X159311785Y-88827365D02*
X159243214Y-88793080D01*
X159243214Y-88793080D02*
X159208928Y-88758794D01*
X159208928Y-88758794D02*
X159174642Y-88690222D01*
X159174642Y-88690222D02*
X159174642Y-88107365D01*
X158488928Y-88107365D02*
X158831785Y-88107365D01*
X158831785Y-88107365D02*
X158866071Y-88450222D01*
X158866071Y-88450222D02*
X158831785Y-88415937D01*
X158831785Y-88415937D02*
X158763214Y-88381651D01*
X158763214Y-88381651D02*
X158591785Y-88381651D01*
X158591785Y-88381651D02*
X158523214Y-88415937D01*
X158523214Y-88415937D02*
X158488928Y-88450222D01*
X158488928Y-88450222D02*
X158454642Y-88518794D01*
X158454642Y-88518794D02*
X158454642Y-88690222D01*
X158454642Y-88690222D02*
X158488928Y-88758794D01*
X158488928Y-88758794D02*
X158523214Y-88793080D01*
X158523214Y-88793080D02*
X158591785Y-88827365D01*
X158591785Y-88827365D02*
X158763214Y-88827365D01*
X158763214Y-88827365D02*
X158831785Y-88793080D01*
X158831785Y-88793080D02*
X158866071Y-88758794D01*
D10*
X166180951Y-68404819D02*
X166180951Y-67404819D01*
X165704761Y-68404819D02*
X165704761Y-67404819D01*
X165704761Y-67404819D02*
X165133333Y-68404819D01*
X165133333Y-68404819D02*
X165133333Y-67404819D01*
X164704761Y-68119104D02*
X164228571Y-68119104D01*
X164799999Y-68404819D02*
X164466666Y-67404819D01*
X164466666Y-67404819D02*
X164133333Y-68404819D01*
X163847618Y-67500057D02*
X163799999Y-67452438D01*
X163799999Y-67452438D02*
X163704761Y-67404819D01*
X163704761Y-67404819D02*
X163466666Y-67404819D01*
X163466666Y-67404819D02*
X163371428Y-67452438D01*
X163371428Y-67452438D02*
X163323809Y-67500057D01*
X163323809Y-67500057D02*
X163276190Y-67595295D01*
X163276190Y-67595295D02*
X163276190Y-67690533D01*
X163276190Y-67690533D02*
X163323809Y-67833390D01*
X163323809Y-67833390D02*
X163895237Y-68404819D01*
X163895237Y-68404819D02*
X163276190Y-68404819D01*
X162895237Y-67500057D02*
X162847618Y-67452438D01*
X162847618Y-67452438D02*
X162752380Y-67404819D01*
X162752380Y-67404819D02*
X162514285Y-67404819D01*
X162514285Y-67404819D02*
X162419047Y-67452438D01*
X162419047Y-67452438D02*
X162371428Y-67500057D01*
X162371428Y-67500057D02*
X162323809Y-67595295D01*
X162323809Y-67595295D02*
X162323809Y-67690533D01*
X162323809Y-67690533D02*
X162371428Y-67833390D01*
X162371428Y-67833390D02*
X162942856Y-68404819D01*
X162942856Y-68404819D02*
X162323809Y-68404819D01*
X161466666Y-67404819D02*
X161657142Y-67404819D01*
X161657142Y-67404819D02*
X161752380Y-67452438D01*
X161752380Y-67452438D02*
X161799999Y-67500057D01*
X161799999Y-67500057D02*
X161895237Y-67642914D01*
X161895237Y-67642914D02*
X161942856Y-67833390D01*
X161942856Y-67833390D02*
X161942856Y-68214342D01*
X161942856Y-68214342D02*
X161895237Y-68309580D01*
X161895237Y-68309580D02*
X161847618Y-68357200D01*
X161847618Y-68357200D02*
X161752380Y-68404819D01*
X161752380Y-68404819D02*
X161561904Y-68404819D01*
X161561904Y-68404819D02*
X161466666Y-68357200D01*
X161466666Y-68357200D02*
X161419047Y-68309580D01*
X161419047Y-68309580D02*
X161371428Y-68214342D01*
X161371428Y-68214342D02*
X161371428Y-67976247D01*
X161371428Y-67976247D02*
X161419047Y-67881009D01*
X161419047Y-67881009D02*
X161466666Y-67833390D01*
X161466666Y-67833390D02*
X161561904Y-67785771D01*
X161561904Y-67785771D02*
X161752380Y-67785771D01*
X161752380Y-67785771D02*
X161847618Y-67833390D01*
X161847618Y-67833390D02*
X161895237Y-67881009D01*
X161895237Y-67881009D02*
X161942856Y-67976247D01*
D12*
X164371428Y-65091244D02*
X164371428Y-65698387D01*
X164371428Y-65698387D02*
X164335714Y-65769815D01*
X164335714Y-65769815D02*
X164300000Y-65805530D01*
X164300000Y-65805530D02*
X164228571Y-65841244D01*
X164228571Y-65841244D02*
X164085714Y-65841244D01*
X164085714Y-65841244D02*
X164014285Y-65805530D01*
X164014285Y-65805530D02*
X163978571Y-65769815D01*
X163978571Y-65769815D02*
X163942857Y-65698387D01*
X163942857Y-65698387D02*
X163942857Y-65091244D01*
X163264286Y-65091244D02*
X163407143Y-65091244D01*
X163407143Y-65091244D02*
X163478571Y-65126958D01*
X163478571Y-65126958D02*
X163514286Y-65162672D01*
X163514286Y-65162672D02*
X163585714Y-65269815D01*
X163585714Y-65269815D02*
X163621428Y-65412672D01*
X163621428Y-65412672D02*
X163621428Y-65698387D01*
X163621428Y-65698387D02*
X163585714Y-65769815D01*
X163585714Y-65769815D02*
X163550000Y-65805530D01*
X163550000Y-65805530D02*
X163478571Y-65841244D01*
X163478571Y-65841244D02*
X163335714Y-65841244D01*
X163335714Y-65841244D02*
X163264286Y-65805530D01*
X163264286Y-65805530D02*
X163228571Y-65769815D01*
X163228571Y-65769815D02*
X163192857Y-65698387D01*
X163192857Y-65698387D02*
X163192857Y-65519815D01*
X163192857Y-65519815D02*
X163228571Y-65448387D01*
X163228571Y-65448387D02*
X163264286Y-65412672D01*
X163264286Y-65412672D02*
X163335714Y-65376958D01*
X163335714Y-65376958D02*
X163478571Y-65376958D01*
X163478571Y-65376958D02*
X163550000Y-65412672D01*
X163550000Y-65412672D02*
X163585714Y-65448387D01*
X163585714Y-65448387D02*
X163621428Y-65519815D01*
D10*
X161704166Y-95788152D02*
X161704166Y-96454819D01*
X161942261Y-95407200D02*
X162180356Y-96121485D01*
X162180356Y-96121485D02*
X161561309Y-96121485D01*
X161180356Y-96454819D02*
X161180356Y-95454819D01*
X161085118Y-96073866D02*
X160799404Y-96454819D01*
X160799404Y-95788152D02*
X161180356Y-96169104D01*
X160180356Y-95454819D02*
X160085118Y-95454819D01*
X160085118Y-95454819D02*
X159989880Y-95502438D01*
X159989880Y-95502438D02*
X159942261Y-95550057D01*
X159942261Y-95550057D02*
X159894642Y-95645295D01*
X159894642Y-95645295D02*
X159847023Y-95835771D01*
X159847023Y-95835771D02*
X159847023Y-96073866D01*
X159847023Y-96073866D02*
X159894642Y-96264342D01*
X159894642Y-96264342D02*
X159942261Y-96359580D01*
X159942261Y-96359580D02*
X159989880Y-96407200D01*
X159989880Y-96407200D02*
X160085118Y-96454819D01*
X160085118Y-96454819D02*
X160180356Y-96454819D01*
X160180356Y-96454819D02*
X160275594Y-96407200D01*
X160275594Y-96407200D02*
X160323213Y-96359580D01*
X160323213Y-96359580D02*
X160370832Y-96264342D01*
X160370832Y-96264342D02*
X160418451Y-96073866D01*
X160418451Y-96073866D02*
X160418451Y-95835771D01*
X160418451Y-95835771D02*
X160370832Y-95645295D01*
X160370832Y-95645295D02*
X160323213Y-95550057D01*
X160323213Y-95550057D02*
X160275594Y-95502438D01*
X160275594Y-95502438D02*
X160180356Y-95454819D01*
X159466070Y-95550057D02*
X159418451Y-95502438D01*
X159418451Y-95502438D02*
X159323213Y-95454819D01*
X159323213Y-95454819D02*
X159085118Y-95454819D01*
X159085118Y-95454819D02*
X158989880Y-95502438D01*
X158989880Y-95502438D02*
X158942261Y-95550057D01*
X158942261Y-95550057D02*
X158894642Y-95645295D01*
X158894642Y-95645295D02*
X158894642Y-95740533D01*
X158894642Y-95740533D02*
X158942261Y-95883390D01*
X158942261Y-95883390D02*
X159513689Y-96454819D01*
X159513689Y-96454819D02*
X158894642Y-96454819D01*
D11*
X157714649Y-95678571D02*
X157476554Y-95511905D01*
X157714649Y-95392857D02*
X157214649Y-95392857D01*
X157214649Y-95392857D02*
X157214649Y-95583333D01*
X157214649Y-95583333D02*
X157238459Y-95630952D01*
X157238459Y-95630952D02*
X157262268Y-95654762D01*
X157262268Y-95654762D02*
X157309887Y-95678571D01*
X157309887Y-95678571D02*
X157381316Y-95678571D01*
X157381316Y-95678571D02*
X157428935Y-95654762D01*
X157428935Y-95654762D02*
X157452744Y-95630952D01*
X157452744Y-95630952D02*
X157476554Y-95583333D01*
X157476554Y-95583333D02*
X157476554Y-95392857D01*
X157262268Y-95869048D02*
X157238459Y-95892857D01*
X157238459Y-95892857D02*
X157214649Y-95940476D01*
X157214649Y-95940476D02*
X157214649Y-96059524D01*
X157214649Y-96059524D02*
X157238459Y-96107143D01*
X157238459Y-96107143D02*
X157262268Y-96130952D01*
X157262268Y-96130952D02*
X157309887Y-96154762D01*
X157309887Y-96154762D02*
X157357506Y-96154762D01*
X157357506Y-96154762D02*
X157428935Y-96130952D01*
X157428935Y-96130952D02*
X157714649Y-95845238D01*
X157714649Y-95845238D02*
X157714649Y-96154762D01*
X157428935Y-96440476D02*
X157405125Y-96392857D01*
X157405125Y-96392857D02*
X157381316Y-96369047D01*
X157381316Y-96369047D02*
X157333697Y-96345238D01*
X157333697Y-96345238D02*
X157309887Y-96345238D01*
X157309887Y-96345238D02*
X157262268Y-96369047D01*
X157262268Y-96369047D02*
X157238459Y-96392857D01*
X157238459Y-96392857D02*
X157214649Y-96440476D01*
X157214649Y-96440476D02*
X157214649Y-96535714D01*
X157214649Y-96535714D02*
X157238459Y-96583333D01*
X157238459Y-96583333D02*
X157262268Y-96607142D01*
X157262268Y-96607142D02*
X157309887Y-96630952D01*
X157309887Y-96630952D02*
X157333697Y-96630952D01*
X157333697Y-96630952D02*
X157381316Y-96607142D01*
X157381316Y-96607142D02*
X157405125Y-96583333D01*
X157405125Y-96583333D02*
X157428935Y-96535714D01*
X157428935Y-96535714D02*
X157428935Y-96440476D01*
X157428935Y-96440476D02*
X157452744Y-96392857D01*
X157452744Y-96392857D02*
X157476554Y-96369047D01*
X157476554Y-96369047D02*
X157524173Y-96345238D01*
X157524173Y-96345238D02*
X157619411Y-96345238D01*
X157619411Y-96345238D02*
X157667030Y-96369047D01*
X157667030Y-96369047D02*
X157690840Y-96392857D01*
X157690840Y-96392857D02*
X157714649Y-96440476D01*
X157714649Y-96440476D02*
X157714649Y-96535714D01*
X157714649Y-96535714D02*
X157690840Y-96583333D01*
X157690840Y-96583333D02*
X157667030Y-96607142D01*
X157667030Y-96607142D02*
X157619411Y-96630952D01*
X157619411Y-96630952D02*
X157524173Y-96630952D01*
X157524173Y-96630952D02*
X157476554Y-96607142D01*
X157476554Y-96607142D02*
X157452744Y-96583333D01*
X157452744Y-96583333D02*
X157428935Y-96535714D01*
D10*
X161071428Y-110454819D02*
X161642856Y-110454819D01*
X161357142Y-110454819D02*
X161357142Y-109454819D01*
X161357142Y-109454819D02*
X161452380Y-109597676D01*
X161452380Y-109597676D02*
X161547618Y-109692914D01*
X161547618Y-109692914D02*
X161642856Y-109740533D01*
X160452380Y-109454819D02*
X160357142Y-109454819D01*
X160357142Y-109454819D02*
X160261904Y-109502438D01*
X160261904Y-109502438D02*
X160214285Y-109550057D01*
X160214285Y-109550057D02*
X160166666Y-109645295D01*
X160166666Y-109645295D02*
X160119047Y-109835771D01*
X160119047Y-109835771D02*
X160119047Y-110073866D01*
X160119047Y-110073866D02*
X160166666Y-110264342D01*
X160166666Y-110264342D02*
X160214285Y-110359580D01*
X160214285Y-110359580D02*
X160261904Y-110407200D01*
X160261904Y-110407200D02*
X160357142Y-110454819D01*
X160357142Y-110454819D02*
X160452380Y-110454819D01*
X160452380Y-110454819D02*
X160547618Y-110407200D01*
X160547618Y-110407200D02*
X160595237Y-110359580D01*
X160595237Y-110359580D02*
X160642856Y-110264342D01*
X160642856Y-110264342D02*
X160690475Y-110073866D01*
X160690475Y-110073866D02*
X160690475Y-109835771D01*
X160690475Y-109835771D02*
X160642856Y-109645295D01*
X160642856Y-109645295D02*
X160595237Y-109550057D01*
X160595237Y-109550057D02*
X160547618Y-109502438D01*
X160547618Y-109502438D02*
X160452380Y-109454819D01*
X159499999Y-109454819D02*
X159404761Y-109454819D01*
X159404761Y-109454819D02*
X159309523Y-109502438D01*
X159309523Y-109502438D02*
X159261904Y-109550057D01*
X159261904Y-109550057D02*
X159214285Y-109645295D01*
X159214285Y-109645295D02*
X159166666Y-109835771D01*
X159166666Y-109835771D02*
X159166666Y-110073866D01*
X159166666Y-110073866D02*
X159214285Y-110264342D01*
X159214285Y-110264342D02*
X159261904Y-110359580D01*
X159261904Y-110359580D02*
X159309523Y-110407200D01*
X159309523Y-110407200D02*
X159404761Y-110454819D01*
X159404761Y-110454819D02*
X159499999Y-110454819D01*
X159499999Y-110454819D02*
X159595237Y-110407200D01*
X159595237Y-110407200D02*
X159642856Y-110359580D01*
X159642856Y-110359580D02*
X159690475Y-110264342D01*
X159690475Y-110264342D02*
X159738094Y-110073866D01*
X159738094Y-110073866D02*
X159738094Y-109835771D01*
X159738094Y-109835771D02*
X159690475Y-109645295D01*
X159690475Y-109645295D02*
X159642856Y-109550057D01*
X159642856Y-109550057D02*
X159595237Y-109502438D01*
X159595237Y-109502438D02*
X159499999Y-109454819D01*
X158738094Y-110454819D02*
X158738094Y-109454819D01*
X158642856Y-110073866D02*
X158357142Y-110454819D01*
X158357142Y-109788152D02*
X158738094Y-110169104D01*
D11*
X156821428Y-109977149D02*
X156988094Y-109739054D01*
X157107142Y-109977149D02*
X157107142Y-109477149D01*
X157107142Y-109477149D02*
X156916666Y-109477149D01*
X156916666Y-109477149D02*
X156869047Y-109500959D01*
X156869047Y-109500959D02*
X156845237Y-109524768D01*
X156845237Y-109524768D02*
X156821428Y-109572387D01*
X156821428Y-109572387D02*
X156821428Y-109643816D01*
X156821428Y-109643816D02*
X156845237Y-109691435D01*
X156845237Y-109691435D02*
X156869047Y-109715244D01*
X156869047Y-109715244D02*
X156916666Y-109739054D01*
X156916666Y-109739054D02*
X157107142Y-109739054D01*
X156654761Y-109477149D02*
X156345237Y-109477149D01*
X156345237Y-109477149D02*
X156511904Y-109667625D01*
X156511904Y-109667625D02*
X156440475Y-109667625D01*
X156440475Y-109667625D02*
X156392856Y-109691435D01*
X156392856Y-109691435D02*
X156369047Y-109715244D01*
X156369047Y-109715244D02*
X156345237Y-109762863D01*
X156345237Y-109762863D02*
X156345237Y-109881911D01*
X156345237Y-109881911D02*
X156369047Y-109929530D01*
X156369047Y-109929530D02*
X156392856Y-109953340D01*
X156392856Y-109953340D02*
X156440475Y-109977149D01*
X156440475Y-109977149D02*
X156583332Y-109977149D01*
X156583332Y-109977149D02*
X156630951Y-109953340D01*
X156630951Y-109953340D02*
X156654761Y-109929530D01*
X155916666Y-109477149D02*
X156011904Y-109477149D01*
X156011904Y-109477149D02*
X156059523Y-109500959D01*
X156059523Y-109500959D02*
X156083333Y-109524768D01*
X156083333Y-109524768D02*
X156130952Y-109596197D01*
X156130952Y-109596197D02*
X156154761Y-109691435D01*
X156154761Y-109691435D02*
X156154761Y-109881911D01*
X156154761Y-109881911D02*
X156130952Y-109929530D01*
X156130952Y-109929530D02*
X156107142Y-109953340D01*
X156107142Y-109953340D02*
X156059523Y-109977149D01*
X156059523Y-109977149D02*
X155964285Y-109977149D01*
X155964285Y-109977149D02*
X155916666Y-109953340D01*
X155916666Y-109953340D02*
X155892857Y-109929530D01*
X155892857Y-109929530D02*
X155869047Y-109881911D01*
X155869047Y-109881911D02*
X155869047Y-109762863D01*
X155869047Y-109762863D02*
X155892857Y-109715244D01*
X155892857Y-109715244D02*
X155916666Y-109691435D01*
X155916666Y-109691435D02*
X155964285Y-109667625D01*
X155964285Y-109667625D02*
X156059523Y-109667625D01*
X156059523Y-109667625D02*
X156107142Y-109691435D01*
X156107142Y-109691435D02*
X156130952Y-109715244D01*
X156130952Y-109715244D02*
X156154761Y-109762863D01*
D10*
X168119047Y-106454819D02*
X168119047Y-105454819D01*
X168119047Y-105454819D02*
X167785714Y-106169104D01*
X167785714Y-106169104D02*
X167452381Y-105454819D01*
X167452381Y-105454819D02*
X167452381Y-106454819D01*
X166976190Y-106454819D02*
X166976190Y-105454819D01*
X166976190Y-105454819D02*
X166642857Y-106169104D01*
X166642857Y-106169104D02*
X166309524Y-105454819D01*
X166309524Y-105454819D02*
X166309524Y-106454819D01*
X165500000Y-105931009D02*
X165833333Y-105931009D01*
X165833333Y-106454819D02*
X165833333Y-105454819D01*
X165833333Y-105454819D02*
X165357143Y-105454819D01*
X165119047Y-105454819D02*
X164547619Y-105454819D01*
X164833333Y-106454819D02*
X164833333Y-105454819D01*
X164214285Y-106454819D02*
X164214285Y-105454819D01*
X164214285Y-105454819D02*
X163833333Y-105454819D01*
X163833333Y-105454819D02*
X163738095Y-105502438D01*
X163738095Y-105502438D02*
X163690476Y-105550057D01*
X163690476Y-105550057D02*
X163642857Y-105645295D01*
X163642857Y-105645295D02*
X163642857Y-105788152D01*
X163642857Y-105788152D02*
X163690476Y-105883390D01*
X163690476Y-105883390D02*
X163738095Y-105931009D01*
X163738095Y-105931009D02*
X163833333Y-105978628D01*
X163833333Y-105978628D02*
X164214285Y-105978628D01*
X163309523Y-105454819D02*
X162690476Y-105454819D01*
X162690476Y-105454819D02*
X163023809Y-105835771D01*
X163023809Y-105835771D02*
X162880952Y-105835771D01*
X162880952Y-105835771D02*
X162785714Y-105883390D01*
X162785714Y-105883390D02*
X162738095Y-105931009D01*
X162738095Y-105931009D02*
X162690476Y-106026247D01*
X162690476Y-106026247D02*
X162690476Y-106264342D01*
X162690476Y-106264342D02*
X162738095Y-106359580D01*
X162738095Y-106359580D02*
X162785714Y-106407200D01*
X162785714Y-106407200D02*
X162880952Y-106454819D01*
X162880952Y-106454819D02*
X163166666Y-106454819D01*
X163166666Y-106454819D02*
X163261904Y-106407200D01*
X163261904Y-106407200D02*
X163309523Y-106359580D01*
X162357142Y-105454819D02*
X161738095Y-105454819D01*
X161738095Y-105454819D02*
X162071428Y-105835771D01*
X162071428Y-105835771D02*
X161928571Y-105835771D01*
X161928571Y-105835771D02*
X161833333Y-105883390D01*
X161833333Y-105883390D02*
X161785714Y-105931009D01*
X161785714Y-105931009D02*
X161738095Y-106026247D01*
X161738095Y-106026247D02*
X161738095Y-106264342D01*
X161738095Y-106264342D02*
X161785714Y-106359580D01*
X161785714Y-106359580D02*
X161833333Y-106407200D01*
X161833333Y-106407200D02*
X161928571Y-106454819D01*
X161928571Y-106454819D02*
X162214285Y-106454819D01*
X162214285Y-106454819D02*
X162309523Y-106407200D01*
X162309523Y-106407200D02*
X162357142Y-106359580D01*
X161404761Y-105454819D02*
X160785714Y-105454819D01*
X160785714Y-105454819D02*
X161119047Y-105835771D01*
X161119047Y-105835771D02*
X160976190Y-105835771D01*
X160976190Y-105835771D02*
X160880952Y-105883390D01*
X160880952Y-105883390D02*
X160833333Y-105931009D01*
X160833333Y-105931009D02*
X160785714Y-106026247D01*
X160785714Y-106026247D02*
X160785714Y-106264342D01*
X160785714Y-106264342D02*
X160833333Y-106359580D01*
X160833333Y-106359580D02*
X160880952Y-106407200D01*
X160880952Y-106407200D02*
X160976190Y-106454819D01*
X160976190Y-106454819D02*
X161261904Y-106454819D01*
X161261904Y-106454819D02*
X161357142Y-106407200D01*
X161357142Y-106407200D02*
X161404761Y-106359580D01*
X159928571Y-105788152D02*
X159928571Y-106454819D01*
X160166666Y-105407200D02*
X160404761Y-106121485D01*
X160404761Y-106121485D02*
X159785714Y-106121485D01*
X159404761Y-106454819D02*
X159404761Y-105454819D01*
X158833333Y-106454819D02*
X159261904Y-105883390D01*
X158833333Y-105454819D02*
X159404761Y-106026247D01*
D12*
X156518571Y-106508437D02*
X156587142Y-106474151D01*
X156587142Y-106474151D02*
X156655714Y-106405580D01*
X156655714Y-106405580D02*
X156758571Y-106302722D01*
X156758571Y-106302722D02*
X156827142Y-106268437D01*
X156827142Y-106268437D02*
X156895714Y-106268437D01*
X156861428Y-106439865D02*
X156930000Y-106405580D01*
X156930000Y-106405580D02*
X156998571Y-106337008D01*
X156998571Y-106337008D02*
X157032857Y-106199865D01*
X157032857Y-106199865D02*
X157032857Y-105959865D01*
X157032857Y-105959865D02*
X156998571Y-105822722D01*
X156998571Y-105822722D02*
X156930000Y-105754151D01*
X156930000Y-105754151D02*
X156861428Y-105719865D01*
X156861428Y-105719865D02*
X156724285Y-105719865D01*
X156724285Y-105719865D02*
X156655714Y-105754151D01*
X156655714Y-105754151D02*
X156587142Y-105822722D01*
X156587142Y-105822722D02*
X156552857Y-105959865D01*
X156552857Y-105959865D02*
X156552857Y-106199865D01*
X156552857Y-106199865D02*
X156587142Y-106337008D01*
X156587142Y-106337008D02*
X156655714Y-106405580D01*
X156655714Y-106405580D02*
X156724285Y-106439865D01*
X156724285Y-106439865D02*
X156861428Y-106439865D01*
X155867142Y-106439865D02*
X156278571Y-106439865D01*
X156072856Y-106439865D02*
X156072856Y-105719865D01*
X156072856Y-105719865D02*
X156141428Y-105822722D01*
X156141428Y-105822722D02*
X156209999Y-105891294D01*
X156209999Y-105891294D02*
X156278571Y-105925580D01*
D10*
X165108928Y-81954819D02*
X165680356Y-81954819D01*
X165394642Y-81954819D02*
X165394642Y-80954819D01*
X165394642Y-80954819D02*
X165489880Y-81097676D01*
X165489880Y-81097676D02*
X165585118Y-81192914D01*
X165585118Y-81192914D02*
X165680356Y-81240533D01*
X164727975Y-81050057D02*
X164680356Y-81002438D01*
X164680356Y-81002438D02*
X164585118Y-80954819D01*
X164585118Y-80954819D02*
X164347023Y-80954819D01*
X164347023Y-80954819D02*
X164251785Y-81002438D01*
X164251785Y-81002438D02*
X164204166Y-81050057D01*
X164204166Y-81050057D02*
X164156547Y-81145295D01*
X164156547Y-81145295D02*
X164156547Y-81240533D01*
X164156547Y-81240533D02*
X164204166Y-81383390D01*
X164204166Y-81383390D02*
X164775594Y-81954819D01*
X164775594Y-81954819D02*
X164156547Y-81954819D01*
X163299404Y-81288152D02*
X163299404Y-81954819D01*
X163537499Y-80907200D02*
X163775594Y-81621485D01*
X163775594Y-81621485D02*
X163156547Y-81621485D01*
X162775594Y-81954819D02*
X162775594Y-80954819D01*
X162680356Y-81573866D02*
X162394642Y-81954819D01*
X162394642Y-81288152D02*
X162775594Y-81669104D01*
D11*
X161358928Y-81727149D02*
X161525594Y-81489054D01*
X161644642Y-81727149D02*
X161644642Y-81227149D01*
X161644642Y-81227149D02*
X161454166Y-81227149D01*
X161454166Y-81227149D02*
X161406547Y-81250959D01*
X161406547Y-81250959D02*
X161382737Y-81274768D01*
X161382737Y-81274768D02*
X161358928Y-81322387D01*
X161358928Y-81322387D02*
X161358928Y-81393816D01*
X161358928Y-81393816D02*
X161382737Y-81441435D01*
X161382737Y-81441435D02*
X161406547Y-81465244D01*
X161406547Y-81465244D02*
X161454166Y-81489054D01*
X161454166Y-81489054D02*
X161644642Y-81489054D01*
X161168451Y-81274768D02*
X161144642Y-81250959D01*
X161144642Y-81250959D02*
X161097023Y-81227149D01*
X161097023Y-81227149D02*
X160977975Y-81227149D01*
X160977975Y-81227149D02*
X160930356Y-81250959D01*
X160930356Y-81250959D02*
X160906547Y-81274768D01*
X160906547Y-81274768D02*
X160882737Y-81322387D01*
X160882737Y-81322387D02*
X160882737Y-81370006D01*
X160882737Y-81370006D02*
X160906547Y-81441435D01*
X160906547Y-81441435D02*
X161192261Y-81727149D01*
X161192261Y-81727149D02*
X160882737Y-81727149D01*
X160406547Y-81727149D02*
X160692261Y-81727149D01*
X160549404Y-81727149D02*
X160549404Y-81227149D01*
X160549404Y-81227149D02*
X160597023Y-81298578D01*
X160597023Y-81298578D02*
X160644642Y-81346197D01*
X160644642Y-81346197D02*
X160692261Y-81370006D01*
D10*
X149690475Y-106567319D02*
X149690475Y-105567319D01*
X149690475Y-105567319D02*
X149119047Y-106567319D01*
X149119047Y-106567319D02*
X149119047Y-105567319D01*
X148738094Y-105567319D02*
X148071428Y-106567319D01*
X148071428Y-105567319D02*
X148738094Y-106567319D01*
X147833332Y-105567319D02*
X147499999Y-106567319D01*
X147499999Y-106567319D02*
X147166666Y-105567319D01*
X146404761Y-105900652D02*
X146404761Y-106567319D01*
X146642856Y-105519700D02*
X146880951Y-106233985D01*
X146880951Y-106233985D02*
X146261904Y-106233985D01*
X145690475Y-105567319D02*
X145595237Y-105567319D01*
X145595237Y-105567319D02*
X145499999Y-105614938D01*
X145499999Y-105614938D02*
X145452380Y-105662557D01*
X145452380Y-105662557D02*
X145404761Y-105757795D01*
X145404761Y-105757795D02*
X145357142Y-105948271D01*
X145357142Y-105948271D02*
X145357142Y-106186366D01*
X145357142Y-106186366D02*
X145404761Y-106376842D01*
X145404761Y-106376842D02*
X145452380Y-106472080D01*
X145452380Y-106472080D02*
X145499999Y-106519700D01*
X145499999Y-106519700D02*
X145595237Y-106567319D01*
X145595237Y-106567319D02*
X145690475Y-106567319D01*
X145690475Y-106567319D02*
X145785713Y-106519700D01*
X145785713Y-106519700D02*
X145833332Y-106472080D01*
X145833332Y-106472080D02*
X145880951Y-106376842D01*
X145880951Y-106376842D02*
X145928570Y-106186366D01*
X145928570Y-106186366D02*
X145928570Y-105948271D01*
X145928570Y-105948271D02*
X145880951Y-105757795D01*
X145880951Y-105757795D02*
X145833332Y-105662557D01*
X145833332Y-105662557D02*
X145785713Y-105614938D01*
X145785713Y-105614938D02*
X145690475Y-105567319D01*
X144928570Y-105567319D02*
X144928570Y-106376842D01*
X144928570Y-106376842D02*
X144880951Y-106472080D01*
X144880951Y-106472080D02*
X144833332Y-106519700D01*
X144833332Y-106519700D02*
X144738094Y-106567319D01*
X144738094Y-106567319D02*
X144547618Y-106567319D01*
X144547618Y-106567319D02*
X144452380Y-106519700D01*
X144452380Y-106519700D02*
X144404761Y-106472080D01*
X144404761Y-106472080D02*
X144357142Y-106376842D01*
X144357142Y-106376842D02*
X144357142Y-105567319D01*
X143880951Y-106567319D02*
X143880951Y-105567319D01*
X143880951Y-105567319D02*
X143309523Y-106567319D01*
X143309523Y-106567319D02*
X143309523Y-105567319D01*
X142261904Y-106567319D02*
X142595237Y-106091128D01*
X142833332Y-106567319D02*
X142833332Y-105567319D01*
X142833332Y-105567319D02*
X142452380Y-105567319D01*
X142452380Y-105567319D02*
X142357142Y-105614938D01*
X142357142Y-105614938D02*
X142309523Y-105662557D01*
X142309523Y-105662557D02*
X142261904Y-105757795D01*
X142261904Y-105757795D02*
X142261904Y-105900652D01*
X142261904Y-105900652D02*
X142309523Y-105995890D01*
X142309523Y-105995890D02*
X142357142Y-106043509D01*
X142357142Y-106043509D02*
X142452380Y-106091128D01*
X142452380Y-106091128D02*
X142833332Y-106091128D01*
D12*
X151568571Y-106508437D02*
X151637142Y-106474151D01*
X151637142Y-106474151D02*
X151705714Y-106405580D01*
X151705714Y-106405580D02*
X151808571Y-106302722D01*
X151808571Y-106302722D02*
X151877142Y-106268437D01*
X151877142Y-106268437D02*
X151945714Y-106268437D01*
X151911428Y-106439865D02*
X151980000Y-106405580D01*
X151980000Y-106405580D02*
X152048571Y-106337008D01*
X152048571Y-106337008D02*
X152082857Y-106199865D01*
X152082857Y-106199865D02*
X152082857Y-105959865D01*
X152082857Y-105959865D02*
X152048571Y-105822722D01*
X152048571Y-105822722D02*
X151980000Y-105754151D01*
X151980000Y-105754151D02*
X151911428Y-105719865D01*
X151911428Y-105719865D02*
X151774285Y-105719865D01*
X151774285Y-105719865D02*
X151705714Y-105754151D01*
X151705714Y-105754151D02*
X151637142Y-105822722D01*
X151637142Y-105822722D02*
X151602857Y-105959865D01*
X151602857Y-105959865D02*
X151602857Y-106199865D01*
X151602857Y-106199865D02*
X151637142Y-106337008D01*
X151637142Y-106337008D02*
X151705714Y-106405580D01*
X151705714Y-106405580D02*
X151774285Y-106439865D01*
X151774285Y-106439865D02*
X151911428Y-106439865D01*
X151328571Y-105788437D02*
X151294285Y-105754151D01*
X151294285Y-105754151D02*
X151225714Y-105719865D01*
X151225714Y-105719865D02*
X151054285Y-105719865D01*
X151054285Y-105719865D02*
X150985714Y-105754151D01*
X150985714Y-105754151D02*
X150951428Y-105788437D01*
X150951428Y-105788437D02*
X150917142Y-105857008D01*
X150917142Y-105857008D02*
X150917142Y-105925580D01*
X150917142Y-105925580D02*
X150951428Y-106028437D01*
X150951428Y-106028437D02*
X151362856Y-106439865D01*
X151362856Y-106439865D02*
X150917142Y-106439865D01*
D10*
X150521785Y-96454819D02*
X151093213Y-96454819D01*
X150807499Y-96454819D02*
X150807499Y-95454819D01*
X150807499Y-95454819D02*
X150902737Y-95597676D01*
X150902737Y-95597676D02*
X150997975Y-95692914D01*
X150997975Y-95692914D02*
X151093213Y-95740533D01*
D11*
X152667030Y-95678571D02*
X152690840Y-95654762D01*
X152690840Y-95654762D02*
X152714649Y-95583333D01*
X152714649Y-95583333D02*
X152714649Y-95535714D01*
X152714649Y-95535714D02*
X152690840Y-95464286D01*
X152690840Y-95464286D02*
X152643220Y-95416667D01*
X152643220Y-95416667D02*
X152595601Y-95392857D01*
X152595601Y-95392857D02*
X152500363Y-95369048D01*
X152500363Y-95369048D02*
X152428935Y-95369048D01*
X152428935Y-95369048D02*
X152333697Y-95392857D01*
X152333697Y-95392857D02*
X152286078Y-95416667D01*
X152286078Y-95416667D02*
X152238459Y-95464286D01*
X152238459Y-95464286D02*
X152214649Y-95535714D01*
X152214649Y-95535714D02*
X152214649Y-95583333D01*
X152214649Y-95583333D02*
X152238459Y-95654762D01*
X152238459Y-95654762D02*
X152262268Y-95678571D01*
X152262268Y-95869048D02*
X152238459Y-95892857D01*
X152238459Y-95892857D02*
X152214649Y-95940476D01*
X152214649Y-95940476D02*
X152214649Y-96059524D01*
X152214649Y-96059524D02*
X152238459Y-96107143D01*
X152238459Y-96107143D02*
X152262268Y-96130952D01*
X152262268Y-96130952D02*
X152309887Y-96154762D01*
X152309887Y-96154762D02*
X152357506Y-96154762D01*
X152357506Y-96154762D02*
X152428935Y-96130952D01*
X152428935Y-96130952D02*
X152714649Y-95845238D01*
X152714649Y-95845238D02*
X152714649Y-96154762D01*
X152214649Y-96607142D02*
X152214649Y-96369047D01*
X152214649Y-96369047D02*
X152452744Y-96345238D01*
X152452744Y-96345238D02*
X152428935Y-96369047D01*
X152428935Y-96369047D02*
X152405125Y-96416666D01*
X152405125Y-96416666D02*
X152405125Y-96535714D01*
X152405125Y-96535714D02*
X152428935Y-96583333D01*
X152428935Y-96583333D02*
X152452744Y-96607142D01*
X152452744Y-96607142D02*
X152500363Y-96630952D01*
X152500363Y-96630952D02*
X152619411Y-96630952D01*
X152619411Y-96630952D02*
X152667030Y-96607142D01*
X152667030Y-96607142D02*
X152690840Y-96583333D01*
X152690840Y-96583333D02*
X152714649Y-96535714D01*
X152714649Y-96535714D02*
X152714649Y-96416666D01*
X152714649Y-96416666D02*
X152690840Y-96369047D01*
X152690840Y-96369047D02*
X152667030Y-96345238D01*
D10*
X173875057Y-88833333D02*
X173827438Y-88880952D01*
X173827438Y-88880952D02*
X173779819Y-88976190D01*
X173779819Y-88976190D02*
X173779819Y-89214285D01*
X173779819Y-89214285D02*
X173827438Y-89309523D01*
X173827438Y-89309523D02*
X173875057Y-89357142D01*
X173875057Y-89357142D02*
X173970295Y-89404761D01*
X173970295Y-89404761D02*
X174065533Y-89404761D01*
X174065533Y-89404761D02*
X174208390Y-89357142D01*
X174208390Y-89357142D02*
X174779819Y-88785714D01*
X174779819Y-88785714D02*
X174779819Y-89404761D01*
X174779819Y-89833333D02*
X173779819Y-89833333D01*
X174398866Y-89928571D02*
X174779819Y-90214285D01*
X174113152Y-90214285D02*
X174494104Y-89833333D01*
X173875057Y-90595238D02*
X173827438Y-90642857D01*
X173827438Y-90642857D02*
X173779819Y-90738095D01*
X173779819Y-90738095D02*
X173779819Y-90976190D01*
X173779819Y-90976190D02*
X173827438Y-91071428D01*
X173827438Y-91071428D02*
X173875057Y-91119047D01*
X173875057Y-91119047D02*
X173970295Y-91166666D01*
X173970295Y-91166666D02*
X174065533Y-91166666D01*
X174065533Y-91166666D02*
X174208390Y-91119047D01*
X174208390Y-91119047D02*
X174779819Y-90547619D01*
X174779819Y-90547619D02*
X174779819Y-91166666D01*
D11*
X176227149Y-90321428D02*
X175989054Y-90488094D01*
X176227149Y-90607142D02*
X175727149Y-90607142D01*
X175727149Y-90607142D02*
X175727149Y-90416666D01*
X175727149Y-90416666D02*
X175750959Y-90369047D01*
X175750959Y-90369047D02*
X175774768Y-90345237D01*
X175774768Y-90345237D02*
X175822387Y-90321428D01*
X175822387Y-90321428D02*
X175893816Y-90321428D01*
X175893816Y-90321428D02*
X175941435Y-90345237D01*
X175941435Y-90345237D02*
X175965244Y-90369047D01*
X175965244Y-90369047D02*
X175989054Y-90416666D01*
X175989054Y-90416666D02*
X175989054Y-90607142D01*
X176227149Y-89845237D02*
X176227149Y-90130951D01*
X176227149Y-89988094D02*
X175727149Y-89988094D01*
X175727149Y-89988094D02*
X175798578Y-90035713D01*
X175798578Y-90035713D02*
X175846197Y-90083332D01*
X175846197Y-90083332D02*
X175870006Y-90130951D01*
X176227149Y-89369047D02*
X176227149Y-89654761D01*
X176227149Y-89511904D02*
X175727149Y-89511904D01*
X175727149Y-89511904D02*
X175798578Y-89559523D01*
X175798578Y-89559523D02*
X175846197Y-89607142D01*
X175846197Y-89607142D02*
X175870006Y-89654761D01*
D10*
X138104819Y-57928571D02*
X138104819Y-57357143D01*
X138104819Y-57642857D02*
X137104819Y-57642857D01*
X137104819Y-57642857D02*
X137247676Y-57547619D01*
X137247676Y-57547619D02*
X137342914Y-57452381D01*
X137342914Y-57452381D02*
X137390533Y-57357143D01*
X137104819Y-58547619D02*
X137104819Y-58642857D01*
X137104819Y-58642857D02*
X137152438Y-58738095D01*
X137152438Y-58738095D02*
X137200057Y-58785714D01*
X137200057Y-58785714D02*
X137295295Y-58833333D01*
X137295295Y-58833333D02*
X137485771Y-58880952D01*
X137485771Y-58880952D02*
X137723866Y-58880952D01*
X137723866Y-58880952D02*
X137914342Y-58833333D01*
X137914342Y-58833333D02*
X138009580Y-58785714D01*
X138009580Y-58785714D02*
X138057200Y-58738095D01*
X138057200Y-58738095D02*
X138104819Y-58642857D01*
X138104819Y-58642857D02*
X138104819Y-58547619D01*
X138104819Y-58547619D02*
X138057200Y-58452381D01*
X138057200Y-58452381D02*
X138009580Y-58404762D01*
X138009580Y-58404762D02*
X137914342Y-58357143D01*
X137914342Y-58357143D02*
X137723866Y-58309524D01*
X137723866Y-58309524D02*
X137485771Y-58309524D01*
X137485771Y-58309524D02*
X137295295Y-58357143D01*
X137295295Y-58357143D02*
X137200057Y-58404762D01*
X137200057Y-58404762D02*
X137152438Y-58452381D01*
X137152438Y-58452381D02*
X137104819Y-58547619D01*
X137104819Y-59500000D02*
X137104819Y-59595238D01*
X137104819Y-59595238D02*
X137152438Y-59690476D01*
X137152438Y-59690476D02*
X137200057Y-59738095D01*
X137200057Y-59738095D02*
X137295295Y-59785714D01*
X137295295Y-59785714D02*
X137485771Y-59833333D01*
X137485771Y-59833333D02*
X137723866Y-59833333D01*
X137723866Y-59833333D02*
X137914342Y-59785714D01*
X137914342Y-59785714D02*
X138009580Y-59738095D01*
X138009580Y-59738095D02*
X138057200Y-59690476D01*
X138057200Y-59690476D02*
X138104819Y-59595238D01*
X138104819Y-59595238D02*
X138104819Y-59500000D01*
X138104819Y-59500000D02*
X138057200Y-59404762D01*
X138057200Y-59404762D02*
X138009580Y-59357143D01*
X138009580Y-59357143D02*
X137914342Y-59309524D01*
X137914342Y-59309524D02*
X137723866Y-59261905D01*
X137723866Y-59261905D02*
X137485771Y-59261905D01*
X137485771Y-59261905D02*
X137295295Y-59309524D01*
X137295295Y-59309524D02*
X137200057Y-59357143D01*
X137200057Y-59357143D02*
X137152438Y-59404762D01*
X137152438Y-59404762D02*
X137104819Y-59500000D01*
X138104819Y-60261905D02*
X137104819Y-60261905D01*
X137723866Y-60357143D02*
X138104819Y-60642857D01*
X137438152Y-60642857D02*
X137819104Y-60261905D01*
D11*
X136227149Y-58678571D02*
X135989054Y-58511905D01*
X136227149Y-58392857D02*
X135727149Y-58392857D01*
X135727149Y-58392857D02*
X135727149Y-58583333D01*
X135727149Y-58583333D02*
X135750959Y-58630952D01*
X135750959Y-58630952D02*
X135774768Y-58654762D01*
X135774768Y-58654762D02*
X135822387Y-58678571D01*
X135822387Y-58678571D02*
X135893816Y-58678571D01*
X135893816Y-58678571D02*
X135941435Y-58654762D01*
X135941435Y-58654762D02*
X135965244Y-58630952D01*
X135965244Y-58630952D02*
X135989054Y-58583333D01*
X135989054Y-58583333D02*
X135989054Y-58392857D01*
X135774768Y-58869048D02*
X135750959Y-58892857D01*
X135750959Y-58892857D02*
X135727149Y-58940476D01*
X135727149Y-58940476D02*
X135727149Y-59059524D01*
X135727149Y-59059524D02*
X135750959Y-59107143D01*
X135750959Y-59107143D02*
X135774768Y-59130952D01*
X135774768Y-59130952D02*
X135822387Y-59154762D01*
X135822387Y-59154762D02*
X135870006Y-59154762D01*
X135870006Y-59154762D02*
X135941435Y-59130952D01*
X135941435Y-59130952D02*
X136227149Y-58845238D01*
X136227149Y-58845238D02*
X136227149Y-59154762D01*
X135727149Y-59321428D02*
X135727149Y-59630952D01*
X135727149Y-59630952D02*
X135917625Y-59464285D01*
X135917625Y-59464285D02*
X135917625Y-59535714D01*
X135917625Y-59535714D02*
X135941435Y-59583333D01*
X135941435Y-59583333D02*
X135965244Y-59607142D01*
X135965244Y-59607142D02*
X136012863Y-59630952D01*
X136012863Y-59630952D02*
X136131911Y-59630952D01*
X136131911Y-59630952D02*
X136179530Y-59607142D01*
X136179530Y-59607142D02*
X136203340Y-59583333D01*
X136203340Y-59583333D02*
X136227149Y-59535714D01*
X136227149Y-59535714D02*
X136227149Y-59392857D01*
X136227149Y-59392857D02*
X136203340Y-59345238D01*
X136203340Y-59345238D02*
X136179530Y-59321428D01*
D10*
X137604819Y-69928571D02*
X137604819Y-69357143D01*
X137604819Y-69642857D02*
X136604819Y-69642857D01*
X136604819Y-69642857D02*
X136747676Y-69547619D01*
X136747676Y-69547619D02*
X136842914Y-69452381D01*
X136842914Y-69452381D02*
X136890533Y-69357143D01*
X136604819Y-70547619D02*
X136604819Y-70642857D01*
X136604819Y-70642857D02*
X136652438Y-70738095D01*
X136652438Y-70738095D02*
X136700057Y-70785714D01*
X136700057Y-70785714D02*
X136795295Y-70833333D01*
X136795295Y-70833333D02*
X136985771Y-70880952D01*
X136985771Y-70880952D02*
X137223866Y-70880952D01*
X137223866Y-70880952D02*
X137414342Y-70833333D01*
X137414342Y-70833333D02*
X137509580Y-70785714D01*
X137509580Y-70785714D02*
X137557200Y-70738095D01*
X137557200Y-70738095D02*
X137604819Y-70642857D01*
X137604819Y-70642857D02*
X137604819Y-70547619D01*
X137604819Y-70547619D02*
X137557200Y-70452381D01*
X137557200Y-70452381D02*
X137509580Y-70404762D01*
X137509580Y-70404762D02*
X137414342Y-70357143D01*
X137414342Y-70357143D02*
X137223866Y-70309524D01*
X137223866Y-70309524D02*
X136985771Y-70309524D01*
X136985771Y-70309524D02*
X136795295Y-70357143D01*
X136795295Y-70357143D02*
X136700057Y-70404762D01*
X136700057Y-70404762D02*
X136652438Y-70452381D01*
X136652438Y-70452381D02*
X136604819Y-70547619D01*
X136604819Y-71500000D02*
X136604819Y-71595238D01*
X136604819Y-71595238D02*
X136652438Y-71690476D01*
X136652438Y-71690476D02*
X136700057Y-71738095D01*
X136700057Y-71738095D02*
X136795295Y-71785714D01*
X136795295Y-71785714D02*
X136985771Y-71833333D01*
X136985771Y-71833333D02*
X137223866Y-71833333D01*
X137223866Y-71833333D02*
X137414342Y-71785714D01*
X137414342Y-71785714D02*
X137509580Y-71738095D01*
X137509580Y-71738095D02*
X137557200Y-71690476D01*
X137557200Y-71690476D02*
X137604819Y-71595238D01*
X137604819Y-71595238D02*
X137604819Y-71500000D01*
X137604819Y-71500000D02*
X137557200Y-71404762D01*
X137557200Y-71404762D02*
X137509580Y-71357143D01*
X137509580Y-71357143D02*
X137414342Y-71309524D01*
X137414342Y-71309524D02*
X137223866Y-71261905D01*
X137223866Y-71261905D02*
X136985771Y-71261905D01*
X136985771Y-71261905D02*
X136795295Y-71309524D01*
X136795295Y-71309524D02*
X136700057Y-71357143D01*
X136700057Y-71357143D02*
X136652438Y-71404762D01*
X136652438Y-71404762D02*
X136604819Y-71500000D01*
X137604819Y-72261905D02*
X136604819Y-72261905D01*
X137223866Y-72357143D02*
X137604819Y-72642857D01*
X136938152Y-72642857D02*
X137319104Y-72261905D01*
D11*
X135727149Y-70678571D02*
X135489054Y-70511905D01*
X135727149Y-70392857D02*
X135227149Y-70392857D01*
X135227149Y-70392857D02*
X135227149Y-70583333D01*
X135227149Y-70583333D02*
X135250959Y-70630952D01*
X135250959Y-70630952D02*
X135274768Y-70654762D01*
X135274768Y-70654762D02*
X135322387Y-70678571D01*
X135322387Y-70678571D02*
X135393816Y-70678571D01*
X135393816Y-70678571D02*
X135441435Y-70654762D01*
X135441435Y-70654762D02*
X135465244Y-70630952D01*
X135465244Y-70630952D02*
X135489054Y-70583333D01*
X135489054Y-70583333D02*
X135489054Y-70392857D01*
X135727149Y-71154762D02*
X135727149Y-70869048D01*
X135727149Y-71011905D02*
X135227149Y-71011905D01*
X135227149Y-71011905D02*
X135298578Y-70964286D01*
X135298578Y-70964286D02*
X135346197Y-70916667D01*
X135346197Y-70916667D02*
X135370006Y-70869048D01*
X135274768Y-71345238D02*
X135250959Y-71369047D01*
X135250959Y-71369047D02*
X135227149Y-71416666D01*
X135227149Y-71416666D02*
X135227149Y-71535714D01*
X135227149Y-71535714D02*
X135250959Y-71583333D01*
X135250959Y-71583333D02*
X135274768Y-71607142D01*
X135274768Y-71607142D02*
X135322387Y-71630952D01*
X135322387Y-71630952D02*
X135370006Y-71630952D01*
X135370006Y-71630952D02*
X135441435Y-71607142D01*
X135441435Y-71607142D02*
X135727149Y-71321428D01*
X135727149Y-71321428D02*
X135727149Y-71630952D01*
D10*
X156204166Y-98454819D02*
X156394642Y-98454819D01*
X156394642Y-98454819D02*
X156489880Y-98502438D01*
X156489880Y-98502438D02*
X156537499Y-98550057D01*
X156537499Y-98550057D02*
X156632737Y-98692914D01*
X156632737Y-98692914D02*
X156680356Y-98883390D01*
X156680356Y-98883390D02*
X156680356Y-99264342D01*
X156680356Y-99264342D02*
X156632737Y-99359580D01*
X156632737Y-99359580D02*
X156585118Y-99407200D01*
X156585118Y-99407200D02*
X156489880Y-99454819D01*
X156489880Y-99454819D02*
X156299404Y-99454819D01*
X156299404Y-99454819D02*
X156204166Y-99407200D01*
X156204166Y-99407200D02*
X156156547Y-99359580D01*
X156156547Y-99359580D02*
X156108928Y-99264342D01*
X156108928Y-99264342D02*
X156108928Y-99026247D01*
X156108928Y-99026247D02*
X156156547Y-98931009D01*
X156156547Y-98931009D02*
X156204166Y-98883390D01*
X156204166Y-98883390D02*
X156299404Y-98835771D01*
X156299404Y-98835771D02*
X156489880Y-98835771D01*
X156489880Y-98835771D02*
X156585118Y-98883390D01*
X156585118Y-98883390D02*
X156632737Y-98931009D01*
X156632737Y-98931009D02*
X156680356Y-99026247D01*
X155156547Y-99454819D02*
X155727975Y-99454819D01*
X155442261Y-99454819D02*
X155442261Y-98454819D01*
X155442261Y-98454819D02*
X155537499Y-98597676D01*
X155537499Y-98597676D02*
X155632737Y-98692914D01*
X155632737Y-98692914D02*
X155727975Y-98740533D01*
X154727975Y-99454819D02*
X154727975Y-98454819D01*
X154632737Y-99073866D02*
X154347023Y-99454819D01*
X154347023Y-98788152D02*
X154727975Y-99169104D01*
X153870832Y-99454819D02*
X153680356Y-99454819D01*
X153680356Y-99454819D02*
X153585118Y-99407200D01*
X153585118Y-99407200D02*
X153537499Y-99359580D01*
X153537499Y-99359580D02*
X153442261Y-99216723D01*
X153442261Y-99216723D02*
X153394642Y-99026247D01*
X153394642Y-99026247D02*
X153394642Y-98645295D01*
X153394642Y-98645295D02*
X153442261Y-98550057D01*
X153442261Y-98550057D02*
X153489880Y-98502438D01*
X153489880Y-98502438D02*
X153585118Y-98454819D01*
X153585118Y-98454819D02*
X153775594Y-98454819D01*
X153775594Y-98454819D02*
X153870832Y-98502438D01*
X153870832Y-98502438D02*
X153918451Y-98550057D01*
X153918451Y-98550057D02*
X153966070Y-98645295D01*
X153966070Y-98645295D02*
X153966070Y-98883390D01*
X153966070Y-98883390D02*
X153918451Y-98978628D01*
X153918451Y-98978628D02*
X153870832Y-99026247D01*
X153870832Y-99026247D02*
X153775594Y-99073866D01*
X153775594Y-99073866D02*
X153585118Y-99073866D01*
X153585118Y-99073866D02*
X153489880Y-99026247D01*
X153489880Y-99026247D02*
X153442261Y-98978628D01*
X153442261Y-98978628D02*
X153394642Y-98883390D01*
D11*
X155264649Y-95678571D02*
X155026554Y-95511905D01*
X155264649Y-95392857D02*
X154764649Y-95392857D01*
X154764649Y-95392857D02*
X154764649Y-95583333D01*
X154764649Y-95583333D02*
X154788459Y-95630952D01*
X154788459Y-95630952D02*
X154812268Y-95654762D01*
X154812268Y-95654762D02*
X154859887Y-95678571D01*
X154859887Y-95678571D02*
X154931316Y-95678571D01*
X154931316Y-95678571D02*
X154978935Y-95654762D01*
X154978935Y-95654762D02*
X155002744Y-95630952D01*
X155002744Y-95630952D02*
X155026554Y-95583333D01*
X155026554Y-95583333D02*
X155026554Y-95392857D01*
X154812268Y-95869048D02*
X154788459Y-95892857D01*
X154788459Y-95892857D02*
X154764649Y-95940476D01*
X154764649Y-95940476D02*
X154764649Y-96059524D01*
X154764649Y-96059524D02*
X154788459Y-96107143D01*
X154788459Y-96107143D02*
X154812268Y-96130952D01*
X154812268Y-96130952D02*
X154859887Y-96154762D01*
X154859887Y-96154762D02*
X154907506Y-96154762D01*
X154907506Y-96154762D02*
X154978935Y-96130952D01*
X154978935Y-96130952D02*
X155264649Y-95845238D01*
X155264649Y-95845238D02*
X155264649Y-96154762D01*
X155264649Y-96392857D02*
X155264649Y-96488095D01*
X155264649Y-96488095D02*
X155240840Y-96535714D01*
X155240840Y-96535714D02*
X155217030Y-96559523D01*
X155217030Y-96559523D02*
X155145601Y-96607142D01*
X155145601Y-96607142D02*
X155050363Y-96630952D01*
X155050363Y-96630952D02*
X154859887Y-96630952D01*
X154859887Y-96630952D02*
X154812268Y-96607142D01*
X154812268Y-96607142D02*
X154788459Y-96583333D01*
X154788459Y-96583333D02*
X154764649Y-96535714D01*
X154764649Y-96535714D02*
X154764649Y-96440476D01*
X154764649Y-96440476D02*
X154788459Y-96392857D01*
X154788459Y-96392857D02*
X154812268Y-96369047D01*
X154812268Y-96369047D02*
X154859887Y-96345238D01*
X154859887Y-96345238D02*
X154978935Y-96345238D01*
X154978935Y-96345238D02*
X155026554Y-96369047D01*
X155026554Y-96369047D02*
X155050363Y-96392857D01*
X155050363Y-96392857D02*
X155074173Y-96440476D01*
X155074173Y-96440476D02*
X155074173Y-96535714D01*
X155074173Y-96535714D02*
X155050363Y-96583333D01*
X155050363Y-96583333D02*
X155026554Y-96607142D01*
X155026554Y-96607142D02*
X154978935Y-96630952D01*
D10*
X167619047Y-72954819D02*
X168190475Y-72954819D01*
X167904761Y-72954819D02*
X167904761Y-71954819D01*
X167904761Y-71954819D02*
X167999999Y-72097676D01*
X167999999Y-72097676D02*
X168095237Y-72192914D01*
X168095237Y-72192914D02*
X168190475Y-72240533D01*
X167190475Y-72954819D02*
X167190475Y-71954819D01*
X167095237Y-72573866D02*
X166809523Y-72954819D01*
X166809523Y-72288152D02*
X167190475Y-72669104D01*
D11*
X167727149Y-70178571D02*
X167489054Y-70011905D01*
X167727149Y-69892857D02*
X167227149Y-69892857D01*
X167227149Y-69892857D02*
X167227149Y-70083333D01*
X167227149Y-70083333D02*
X167250959Y-70130952D01*
X167250959Y-70130952D02*
X167274768Y-70154762D01*
X167274768Y-70154762D02*
X167322387Y-70178571D01*
X167322387Y-70178571D02*
X167393816Y-70178571D01*
X167393816Y-70178571D02*
X167441435Y-70154762D01*
X167441435Y-70154762D02*
X167465244Y-70130952D01*
X167465244Y-70130952D02*
X167489054Y-70083333D01*
X167489054Y-70083333D02*
X167489054Y-69892857D01*
X167227149Y-70345238D02*
X167227149Y-70654762D01*
X167227149Y-70654762D02*
X167417625Y-70488095D01*
X167417625Y-70488095D02*
X167417625Y-70559524D01*
X167417625Y-70559524D02*
X167441435Y-70607143D01*
X167441435Y-70607143D02*
X167465244Y-70630952D01*
X167465244Y-70630952D02*
X167512863Y-70654762D01*
X167512863Y-70654762D02*
X167631911Y-70654762D01*
X167631911Y-70654762D02*
X167679530Y-70630952D01*
X167679530Y-70630952D02*
X167703340Y-70607143D01*
X167703340Y-70607143D02*
X167727149Y-70559524D01*
X167727149Y-70559524D02*
X167727149Y-70416667D01*
X167727149Y-70416667D02*
X167703340Y-70369048D01*
X167703340Y-70369048D02*
X167679530Y-70345238D01*
X167227149Y-70821428D02*
X167227149Y-71130952D01*
X167227149Y-71130952D02*
X167417625Y-70964285D01*
X167417625Y-70964285D02*
X167417625Y-71035714D01*
X167417625Y-71035714D02*
X167441435Y-71083333D01*
X167441435Y-71083333D02*
X167465244Y-71107142D01*
X167465244Y-71107142D02*
X167512863Y-71130952D01*
X167512863Y-71130952D02*
X167631911Y-71130952D01*
X167631911Y-71130952D02*
X167679530Y-71107142D01*
X167679530Y-71107142D02*
X167703340Y-71083333D01*
X167703340Y-71083333D02*
X167727149Y-71035714D01*
X167727149Y-71035714D02*
X167727149Y-70892857D01*
X167727149Y-70892857D02*
X167703340Y-70845238D01*
X167703340Y-70845238D02*
X167679530Y-70821428D01*
D10*
X137604819Y-93928571D02*
X137604819Y-93357143D01*
X137604819Y-93642857D02*
X136604819Y-93642857D01*
X136604819Y-93642857D02*
X136747676Y-93547619D01*
X136747676Y-93547619D02*
X136842914Y-93452381D01*
X136842914Y-93452381D02*
X136890533Y-93357143D01*
X136604819Y-94547619D02*
X136604819Y-94642857D01*
X136604819Y-94642857D02*
X136652438Y-94738095D01*
X136652438Y-94738095D02*
X136700057Y-94785714D01*
X136700057Y-94785714D02*
X136795295Y-94833333D01*
X136795295Y-94833333D02*
X136985771Y-94880952D01*
X136985771Y-94880952D02*
X137223866Y-94880952D01*
X137223866Y-94880952D02*
X137414342Y-94833333D01*
X137414342Y-94833333D02*
X137509580Y-94785714D01*
X137509580Y-94785714D02*
X137557200Y-94738095D01*
X137557200Y-94738095D02*
X137604819Y-94642857D01*
X137604819Y-94642857D02*
X137604819Y-94547619D01*
X137604819Y-94547619D02*
X137557200Y-94452381D01*
X137557200Y-94452381D02*
X137509580Y-94404762D01*
X137509580Y-94404762D02*
X137414342Y-94357143D01*
X137414342Y-94357143D02*
X137223866Y-94309524D01*
X137223866Y-94309524D02*
X136985771Y-94309524D01*
X136985771Y-94309524D02*
X136795295Y-94357143D01*
X136795295Y-94357143D02*
X136700057Y-94404762D01*
X136700057Y-94404762D02*
X136652438Y-94452381D01*
X136652438Y-94452381D02*
X136604819Y-94547619D01*
X136604819Y-95500000D02*
X136604819Y-95595238D01*
X136604819Y-95595238D02*
X136652438Y-95690476D01*
X136652438Y-95690476D02*
X136700057Y-95738095D01*
X136700057Y-95738095D02*
X136795295Y-95785714D01*
X136795295Y-95785714D02*
X136985771Y-95833333D01*
X136985771Y-95833333D02*
X137223866Y-95833333D01*
X137223866Y-95833333D02*
X137414342Y-95785714D01*
X137414342Y-95785714D02*
X137509580Y-95738095D01*
X137509580Y-95738095D02*
X137557200Y-95690476D01*
X137557200Y-95690476D02*
X137604819Y-95595238D01*
X137604819Y-95595238D02*
X137604819Y-95500000D01*
X137604819Y-95500000D02*
X137557200Y-95404762D01*
X137557200Y-95404762D02*
X137509580Y-95357143D01*
X137509580Y-95357143D02*
X137414342Y-95309524D01*
X137414342Y-95309524D02*
X137223866Y-95261905D01*
X137223866Y-95261905D02*
X136985771Y-95261905D01*
X136985771Y-95261905D02*
X136795295Y-95309524D01*
X136795295Y-95309524D02*
X136700057Y-95357143D01*
X136700057Y-95357143D02*
X136652438Y-95404762D01*
X136652438Y-95404762D02*
X136604819Y-95500000D01*
X137604819Y-96261905D02*
X136604819Y-96261905D01*
X137223866Y-96357143D02*
X137604819Y-96642857D01*
X136938152Y-96642857D02*
X137319104Y-96261905D01*
D11*
X135727149Y-94678571D02*
X135489054Y-94511905D01*
X135727149Y-94392857D02*
X135227149Y-94392857D01*
X135227149Y-94392857D02*
X135227149Y-94583333D01*
X135227149Y-94583333D02*
X135250959Y-94630952D01*
X135250959Y-94630952D02*
X135274768Y-94654762D01*
X135274768Y-94654762D02*
X135322387Y-94678571D01*
X135322387Y-94678571D02*
X135393816Y-94678571D01*
X135393816Y-94678571D02*
X135441435Y-94654762D01*
X135441435Y-94654762D02*
X135465244Y-94630952D01*
X135465244Y-94630952D02*
X135489054Y-94583333D01*
X135489054Y-94583333D02*
X135489054Y-94392857D01*
X135727149Y-95154762D02*
X135727149Y-94869048D01*
X135727149Y-95011905D02*
X135227149Y-95011905D01*
X135227149Y-95011905D02*
X135298578Y-94964286D01*
X135298578Y-94964286D02*
X135346197Y-94916667D01*
X135346197Y-94916667D02*
X135370006Y-94869048D01*
X135727149Y-95392857D02*
X135727149Y-95488095D01*
X135727149Y-95488095D02*
X135703340Y-95535714D01*
X135703340Y-95535714D02*
X135679530Y-95559523D01*
X135679530Y-95559523D02*
X135608101Y-95607142D01*
X135608101Y-95607142D02*
X135512863Y-95630952D01*
X135512863Y-95630952D02*
X135322387Y-95630952D01*
X135322387Y-95630952D02*
X135274768Y-95607142D01*
X135274768Y-95607142D02*
X135250959Y-95583333D01*
X135250959Y-95583333D02*
X135227149Y-95535714D01*
X135227149Y-95535714D02*
X135227149Y-95440476D01*
X135227149Y-95440476D02*
X135250959Y-95392857D01*
X135250959Y-95392857D02*
X135274768Y-95369047D01*
X135274768Y-95369047D02*
X135322387Y-95345238D01*
X135322387Y-95345238D02*
X135441435Y-95345238D01*
X135441435Y-95345238D02*
X135489054Y-95369047D01*
X135489054Y-95369047D02*
X135512863Y-95392857D01*
X135512863Y-95392857D02*
X135536673Y-95440476D01*
X135536673Y-95440476D02*
X135536673Y-95535714D01*
X135536673Y-95535714D02*
X135512863Y-95583333D01*
X135512863Y-95583333D02*
X135489054Y-95607142D01*
X135489054Y-95607142D02*
X135441435Y-95630952D01*
D10*
X154190476Y-61954819D02*
X154761904Y-61954819D01*
X154476190Y-61954819D02*
X154476190Y-60954819D01*
X154476190Y-60954819D02*
X154571428Y-61097676D01*
X154571428Y-61097676D02*
X154666666Y-61192914D01*
X154666666Y-61192914D02*
X154761904Y-61240533D01*
X153571428Y-60954819D02*
X153476190Y-60954819D01*
X153476190Y-60954819D02*
X153380952Y-61002438D01*
X153380952Y-61002438D02*
X153333333Y-61050057D01*
X153333333Y-61050057D02*
X153285714Y-61145295D01*
X153285714Y-61145295D02*
X153238095Y-61335771D01*
X153238095Y-61335771D02*
X153238095Y-61573866D01*
X153238095Y-61573866D02*
X153285714Y-61764342D01*
X153285714Y-61764342D02*
X153333333Y-61859580D01*
X153333333Y-61859580D02*
X153380952Y-61907200D01*
X153380952Y-61907200D02*
X153476190Y-61954819D01*
X153476190Y-61954819D02*
X153571428Y-61954819D01*
X153571428Y-61954819D02*
X153666666Y-61907200D01*
X153666666Y-61907200D02*
X153714285Y-61859580D01*
X153714285Y-61859580D02*
X153761904Y-61764342D01*
X153761904Y-61764342D02*
X153809523Y-61573866D01*
X153809523Y-61573866D02*
X153809523Y-61335771D01*
X153809523Y-61335771D02*
X153761904Y-61145295D01*
X153761904Y-61145295D02*
X153714285Y-61050057D01*
X153714285Y-61050057D02*
X153666666Y-61002438D01*
X153666666Y-61002438D02*
X153571428Y-60954819D01*
D11*
X154321428Y-63727149D02*
X154488094Y-63489054D01*
X154607142Y-63727149D02*
X154607142Y-63227149D01*
X154607142Y-63227149D02*
X154416666Y-63227149D01*
X154416666Y-63227149D02*
X154369047Y-63250959D01*
X154369047Y-63250959D02*
X154345237Y-63274768D01*
X154345237Y-63274768D02*
X154321428Y-63322387D01*
X154321428Y-63322387D02*
X154321428Y-63393816D01*
X154321428Y-63393816D02*
X154345237Y-63441435D01*
X154345237Y-63441435D02*
X154369047Y-63465244D01*
X154369047Y-63465244D02*
X154416666Y-63489054D01*
X154416666Y-63489054D02*
X154607142Y-63489054D01*
X154154761Y-63227149D02*
X153845237Y-63227149D01*
X153845237Y-63227149D02*
X154011904Y-63417625D01*
X154011904Y-63417625D02*
X153940475Y-63417625D01*
X153940475Y-63417625D02*
X153892856Y-63441435D01*
X153892856Y-63441435D02*
X153869047Y-63465244D01*
X153869047Y-63465244D02*
X153845237Y-63512863D01*
X153845237Y-63512863D02*
X153845237Y-63631911D01*
X153845237Y-63631911D02*
X153869047Y-63679530D01*
X153869047Y-63679530D02*
X153892856Y-63703340D01*
X153892856Y-63703340D02*
X153940475Y-63727149D01*
X153940475Y-63727149D02*
X154083332Y-63727149D01*
X154083332Y-63727149D02*
X154130951Y-63703340D01*
X154130951Y-63703340D02*
X154154761Y-63679530D01*
X153369047Y-63727149D02*
X153654761Y-63727149D01*
X153511904Y-63727149D02*
X153511904Y-63227149D01*
X153511904Y-63227149D02*
X153559523Y-63298578D01*
X153559523Y-63298578D02*
X153607142Y-63346197D01*
X153607142Y-63346197D02*
X153654761Y-63370006D01*
D10*
X178190476Y-77638152D02*
X178190476Y-78304819D01*
X178428571Y-77257200D02*
X178666666Y-77971485D01*
X178666666Y-77971485D02*
X178047619Y-77971485D01*
X177666666Y-78304819D02*
X177666666Y-77304819D01*
X177571428Y-77923866D02*
X177285714Y-78304819D01*
X177285714Y-77638152D02*
X177666666Y-78019104D01*
X176952380Y-77304819D02*
X176285714Y-77304819D01*
X176285714Y-77304819D02*
X176714285Y-78304819D01*
D11*
X177583333Y-79727149D02*
X177749999Y-79489054D01*
X177869047Y-79727149D02*
X177869047Y-79227149D01*
X177869047Y-79227149D02*
X177678571Y-79227149D01*
X177678571Y-79227149D02*
X177630952Y-79250959D01*
X177630952Y-79250959D02*
X177607142Y-79274768D01*
X177607142Y-79274768D02*
X177583333Y-79322387D01*
X177583333Y-79322387D02*
X177583333Y-79393816D01*
X177583333Y-79393816D02*
X177607142Y-79441435D01*
X177607142Y-79441435D02*
X177630952Y-79465244D01*
X177630952Y-79465244D02*
X177678571Y-79489054D01*
X177678571Y-79489054D02*
X177869047Y-79489054D01*
X177345237Y-79727149D02*
X177249999Y-79727149D01*
X177249999Y-79727149D02*
X177202380Y-79703340D01*
X177202380Y-79703340D02*
X177178571Y-79679530D01*
X177178571Y-79679530D02*
X177130952Y-79608101D01*
X177130952Y-79608101D02*
X177107142Y-79512863D01*
X177107142Y-79512863D02*
X177107142Y-79322387D01*
X177107142Y-79322387D02*
X177130952Y-79274768D01*
X177130952Y-79274768D02*
X177154761Y-79250959D01*
X177154761Y-79250959D02*
X177202380Y-79227149D01*
X177202380Y-79227149D02*
X177297618Y-79227149D01*
X177297618Y-79227149D02*
X177345237Y-79250959D01*
X177345237Y-79250959D02*
X177369047Y-79274768D01*
X177369047Y-79274768D02*
X177392856Y-79322387D01*
X177392856Y-79322387D02*
X177392856Y-79441435D01*
X177392856Y-79441435D02*
X177369047Y-79489054D01*
X177369047Y-79489054D02*
X177345237Y-79512863D01*
X177345237Y-79512863D02*
X177297618Y-79536673D01*
X177297618Y-79536673D02*
X177202380Y-79536673D01*
X177202380Y-79536673D02*
X177154761Y-79512863D01*
X177154761Y-79512863D02*
X177130952Y-79489054D01*
X177130952Y-79489054D02*
X177107142Y-79441435D01*
D10*
X155227976Y-83954819D02*
X155799404Y-83954819D01*
X155513690Y-83954819D02*
X155513690Y-82954819D01*
X155513690Y-82954819D02*
X155608928Y-83097676D01*
X155608928Y-83097676D02*
X155704166Y-83192914D01*
X155704166Y-83192914D02*
X155799404Y-83240533D01*
X154608928Y-82954819D02*
X154513690Y-82954819D01*
X154513690Y-82954819D02*
X154418452Y-83002438D01*
X154418452Y-83002438D02*
X154370833Y-83050057D01*
X154370833Y-83050057D02*
X154323214Y-83145295D01*
X154323214Y-83145295D02*
X154275595Y-83335771D01*
X154275595Y-83335771D02*
X154275595Y-83573866D01*
X154275595Y-83573866D02*
X154323214Y-83764342D01*
X154323214Y-83764342D02*
X154370833Y-83859580D01*
X154370833Y-83859580D02*
X154418452Y-83907200D01*
X154418452Y-83907200D02*
X154513690Y-83954819D01*
X154513690Y-83954819D02*
X154608928Y-83954819D01*
X154608928Y-83954819D02*
X154704166Y-83907200D01*
X154704166Y-83907200D02*
X154751785Y-83859580D01*
X154751785Y-83859580D02*
X154799404Y-83764342D01*
X154799404Y-83764342D02*
X154847023Y-83573866D01*
X154847023Y-83573866D02*
X154847023Y-83335771D01*
X154847023Y-83335771D02*
X154799404Y-83145295D01*
X154799404Y-83145295D02*
X154751785Y-83050057D01*
X154751785Y-83050057D02*
X154704166Y-83002438D01*
X154704166Y-83002438D02*
X154608928Y-82954819D01*
D11*
X155358928Y-85669530D02*
X155382737Y-85693340D01*
X155382737Y-85693340D02*
X155454166Y-85717149D01*
X155454166Y-85717149D02*
X155501785Y-85717149D01*
X155501785Y-85717149D02*
X155573213Y-85693340D01*
X155573213Y-85693340D02*
X155620832Y-85645720D01*
X155620832Y-85645720D02*
X155644642Y-85598101D01*
X155644642Y-85598101D02*
X155668451Y-85502863D01*
X155668451Y-85502863D02*
X155668451Y-85431435D01*
X155668451Y-85431435D02*
X155644642Y-85336197D01*
X155644642Y-85336197D02*
X155620832Y-85288578D01*
X155620832Y-85288578D02*
X155573213Y-85240959D01*
X155573213Y-85240959D02*
X155501785Y-85217149D01*
X155501785Y-85217149D02*
X155454166Y-85217149D01*
X155454166Y-85217149D02*
X155382737Y-85240959D01*
X155382737Y-85240959D02*
X155358928Y-85264768D01*
X154882737Y-85717149D02*
X155168451Y-85717149D01*
X155025594Y-85717149D02*
X155025594Y-85217149D01*
X155025594Y-85217149D02*
X155073213Y-85288578D01*
X155073213Y-85288578D02*
X155120832Y-85336197D01*
X155120832Y-85336197D02*
X155168451Y-85360006D01*
X154716071Y-85217149D02*
X154382738Y-85217149D01*
X154382738Y-85217149D02*
X154597023Y-85717149D01*
D10*
X164132738Y-84454819D02*
X164704166Y-84454819D01*
X164418452Y-84454819D02*
X164418452Y-83454819D01*
X164418452Y-83454819D02*
X164513690Y-83597676D01*
X164513690Y-83597676D02*
X164608928Y-83692914D01*
X164608928Y-83692914D02*
X164704166Y-83740533D01*
X163513690Y-83454819D02*
X163418452Y-83454819D01*
X163418452Y-83454819D02*
X163323214Y-83502438D01*
X163323214Y-83502438D02*
X163275595Y-83550057D01*
X163275595Y-83550057D02*
X163227976Y-83645295D01*
X163227976Y-83645295D02*
X163180357Y-83835771D01*
X163180357Y-83835771D02*
X163180357Y-84073866D01*
X163180357Y-84073866D02*
X163227976Y-84264342D01*
X163227976Y-84264342D02*
X163275595Y-84359580D01*
X163275595Y-84359580D02*
X163323214Y-84407200D01*
X163323214Y-84407200D02*
X163418452Y-84454819D01*
X163418452Y-84454819D02*
X163513690Y-84454819D01*
X163513690Y-84454819D02*
X163608928Y-84407200D01*
X163608928Y-84407200D02*
X163656547Y-84359580D01*
X163656547Y-84359580D02*
X163704166Y-84264342D01*
X163704166Y-84264342D02*
X163751785Y-84073866D01*
X163751785Y-84073866D02*
X163751785Y-83835771D01*
X163751785Y-83835771D02*
X163704166Y-83645295D01*
X163704166Y-83645295D02*
X163656547Y-83550057D01*
X163656547Y-83550057D02*
X163608928Y-83502438D01*
X163608928Y-83502438D02*
X163513690Y-83454819D01*
X162751785Y-84454819D02*
X162751785Y-83454819D01*
X162656547Y-84073866D02*
X162370833Y-84454819D01*
X162370833Y-83788152D02*
X162751785Y-84169104D01*
D11*
X161358928Y-84227149D02*
X161525594Y-83989054D01*
X161644642Y-84227149D02*
X161644642Y-83727149D01*
X161644642Y-83727149D02*
X161454166Y-83727149D01*
X161454166Y-83727149D02*
X161406547Y-83750959D01*
X161406547Y-83750959D02*
X161382737Y-83774768D01*
X161382737Y-83774768D02*
X161358928Y-83822387D01*
X161358928Y-83822387D02*
X161358928Y-83893816D01*
X161358928Y-83893816D02*
X161382737Y-83941435D01*
X161382737Y-83941435D02*
X161406547Y-83965244D01*
X161406547Y-83965244D02*
X161454166Y-83989054D01*
X161454166Y-83989054D02*
X161644642Y-83989054D01*
X161168451Y-83774768D02*
X161144642Y-83750959D01*
X161144642Y-83750959D02*
X161097023Y-83727149D01*
X161097023Y-83727149D02*
X160977975Y-83727149D01*
X160977975Y-83727149D02*
X160930356Y-83750959D01*
X160930356Y-83750959D02*
X160906547Y-83774768D01*
X160906547Y-83774768D02*
X160882737Y-83822387D01*
X160882737Y-83822387D02*
X160882737Y-83870006D01*
X160882737Y-83870006D02*
X160906547Y-83941435D01*
X160906547Y-83941435D02*
X161192261Y-84227149D01*
X161192261Y-84227149D02*
X160882737Y-84227149D01*
X160692261Y-83774768D02*
X160668452Y-83750959D01*
X160668452Y-83750959D02*
X160620833Y-83727149D01*
X160620833Y-83727149D02*
X160501785Y-83727149D01*
X160501785Y-83727149D02*
X160454166Y-83750959D01*
X160454166Y-83750959D02*
X160430357Y-83774768D01*
X160430357Y-83774768D02*
X160406547Y-83822387D01*
X160406547Y-83822387D02*
X160406547Y-83870006D01*
X160406547Y-83870006D02*
X160430357Y-83941435D01*
X160430357Y-83941435D02*
X160716071Y-84227149D01*
X160716071Y-84227149D02*
X160406547Y-84227149D01*
D10*
X155227976Y-87454819D02*
X155799404Y-87454819D01*
X155513690Y-87454819D02*
X155513690Y-86454819D01*
X155513690Y-86454819D02*
X155608928Y-86597676D01*
X155608928Y-86597676D02*
X155704166Y-86692914D01*
X155704166Y-86692914D02*
X155799404Y-86740533D01*
X154608928Y-86454819D02*
X154513690Y-86454819D01*
X154513690Y-86454819D02*
X154418452Y-86502438D01*
X154418452Y-86502438D02*
X154370833Y-86550057D01*
X154370833Y-86550057D02*
X154323214Y-86645295D01*
X154323214Y-86645295D02*
X154275595Y-86835771D01*
X154275595Y-86835771D02*
X154275595Y-87073866D01*
X154275595Y-87073866D02*
X154323214Y-87264342D01*
X154323214Y-87264342D02*
X154370833Y-87359580D01*
X154370833Y-87359580D02*
X154418452Y-87407200D01*
X154418452Y-87407200D02*
X154513690Y-87454819D01*
X154513690Y-87454819D02*
X154608928Y-87454819D01*
X154608928Y-87454819D02*
X154704166Y-87407200D01*
X154704166Y-87407200D02*
X154751785Y-87359580D01*
X154751785Y-87359580D02*
X154799404Y-87264342D01*
X154799404Y-87264342D02*
X154847023Y-87073866D01*
X154847023Y-87073866D02*
X154847023Y-86835771D01*
X154847023Y-86835771D02*
X154799404Y-86645295D01*
X154799404Y-86645295D02*
X154751785Y-86550057D01*
X154751785Y-86550057D02*
X154704166Y-86502438D01*
X154704166Y-86502438D02*
X154608928Y-86454819D01*
D11*
X155358928Y-88679530D02*
X155382737Y-88703340D01*
X155382737Y-88703340D02*
X155454166Y-88727149D01*
X155454166Y-88727149D02*
X155501785Y-88727149D01*
X155501785Y-88727149D02*
X155573213Y-88703340D01*
X155573213Y-88703340D02*
X155620832Y-88655720D01*
X155620832Y-88655720D02*
X155644642Y-88608101D01*
X155644642Y-88608101D02*
X155668451Y-88512863D01*
X155668451Y-88512863D02*
X155668451Y-88441435D01*
X155668451Y-88441435D02*
X155644642Y-88346197D01*
X155644642Y-88346197D02*
X155620832Y-88298578D01*
X155620832Y-88298578D02*
X155573213Y-88250959D01*
X155573213Y-88250959D02*
X155501785Y-88227149D01*
X155501785Y-88227149D02*
X155454166Y-88227149D01*
X155454166Y-88227149D02*
X155382737Y-88250959D01*
X155382737Y-88250959D02*
X155358928Y-88274768D01*
X154882737Y-88727149D02*
X155168451Y-88727149D01*
X155025594Y-88727149D02*
X155025594Y-88227149D01*
X155025594Y-88227149D02*
X155073213Y-88298578D01*
X155073213Y-88298578D02*
X155120832Y-88346197D01*
X155120832Y-88346197D02*
X155168451Y-88370006D01*
X154597023Y-88441435D02*
X154644642Y-88417625D01*
X154644642Y-88417625D02*
X154668452Y-88393816D01*
X154668452Y-88393816D02*
X154692261Y-88346197D01*
X154692261Y-88346197D02*
X154692261Y-88322387D01*
X154692261Y-88322387D02*
X154668452Y-88274768D01*
X154668452Y-88274768D02*
X154644642Y-88250959D01*
X154644642Y-88250959D02*
X154597023Y-88227149D01*
X154597023Y-88227149D02*
X154501785Y-88227149D01*
X154501785Y-88227149D02*
X154454166Y-88250959D01*
X154454166Y-88250959D02*
X154430357Y-88274768D01*
X154430357Y-88274768D02*
X154406547Y-88322387D01*
X154406547Y-88322387D02*
X154406547Y-88346197D01*
X154406547Y-88346197D02*
X154430357Y-88393816D01*
X154430357Y-88393816D02*
X154454166Y-88417625D01*
X154454166Y-88417625D02*
X154501785Y-88441435D01*
X154501785Y-88441435D02*
X154597023Y-88441435D01*
X154597023Y-88441435D02*
X154644642Y-88465244D01*
X154644642Y-88465244D02*
X154668452Y-88489054D01*
X154668452Y-88489054D02*
X154692261Y-88536673D01*
X154692261Y-88536673D02*
X154692261Y-88631911D01*
X154692261Y-88631911D02*
X154668452Y-88679530D01*
X154668452Y-88679530D02*
X154644642Y-88703340D01*
X154644642Y-88703340D02*
X154597023Y-88727149D01*
X154597023Y-88727149D02*
X154501785Y-88727149D01*
X154501785Y-88727149D02*
X154454166Y-88703340D01*
X154454166Y-88703340D02*
X154430357Y-88679530D01*
X154430357Y-88679530D02*
X154406547Y-88631911D01*
X154406547Y-88631911D02*
X154406547Y-88536673D01*
X154406547Y-88536673D02*
X154430357Y-88489054D01*
X154430357Y-88489054D02*
X154454166Y-88465244D01*
X154454166Y-88465244D02*
X154501785Y-88441435D01*
D10*
X150727976Y-90274819D02*
X151299404Y-90274819D01*
X151013690Y-90274819D02*
X151013690Y-89274819D01*
X151013690Y-89274819D02*
X151108928Y-89417676D01*
X151108928Y-89417676D02*
X151204166Y-89512914D01*
X151204166Y-89512914D02*
X151299404Y-89560533D01*
X150108928Y-89274819D02*
X150013690Y-89274819D01*
X150013690Y-89274819D02*
X149918452Y-89322438D01*
X149918452Y-89322438D02*
X149870833Y-89370057D01*
X149870833Y-89370057D02*
X149823214Y-89465295D01*
X149823214Y-89465295D02*
X149775595Y-89655771D01*
X149775595Y-89655771D02*
X149775595Y-89893866D01*
X149775595Y-89893866D02*
X149823214Y-90084342D01*
X149823214Y-90084342D02*
X149870833Y-90179580D01*
X149870833Y-90179580D02*
X149918452Y-90227200D01*
X149918452Y-90227200D02*
X150013690Y-90274819D01*
X150013690Y-90274819D02*
X150108928Y-90274819D01*
X150108928Y-90274819D02*
X150204166Y-90227200D01*
X150204166Y-90227200D02*
X150251785Y-90179580D01*
X150251785Y-90179580D02*
X150299404Y-90084342D01*
X150299404Y-90084342D02*
X150347023Y-89893866D01*
X150347023Y-89893866D02*
X150347023Y-89655771D01*
X150347023Y-89655771D02*
X150299404Y-89465295D01*
X150299404Y-89465295D02*
X150251785Y-89370057D01*
X150251785Y-89370057D02*
X150204166Y-89322438D01*
X150204166Y-89322438D02*
X150108928Y-89274819D01*
D11*
X150858928Y-91679530D02*
X150882737Y-91703340D01*
X150882737Y-91703340D02*
X150954166Y-91727149D01*
X150954166Y-91727149D02*
X151001785Y-91727149D01*
X151001785Y-91727149D02*
X151073213Y-91703340D01*
X151073213Y-91703340D02*
X151120832Y-91655720D01*
X151120832Y-91655720D02*
X151144642Y-91608101D01*
X151144642Y-91608101D02*
X151168451Y-91512863D01*
X151168451Y-91512863D02*
X151168451Y-91441435D01*
X151168451Y-91441435D02*
X151144642Y-91346197D01*
X151144642Y-91346197D02*
X151120832Y-91298578D01*
X151120832Y-91298578D02*
X151073213Y-91250959D01*
X151073213Y-91250959D02*
X151001785Y-91227149D01*
X151001785Y-91227149D02*
X150954166Y-91227149D01*
X150954166Y-91227149D02*
X150882737Y-91250959D01*
X150882737Y-91250959D02*
X150858928Y-91274768D01*
X150668451Y-91274768D02*
X150644642Y-91250959D01*
X150644642Y-91250959D02*
X150597023Y-91227149D01*
X150597023Y-91227149D02*
X150477975Y-91227149D01*
X150477975Y-91227149D02*
X150430356Y-91250959D01*
X150430356Y-91250959D02*
X150406547Y-91274768D01*
X150406547Y-91274768D02*
X150382737Y-91322387D01*
X150382737Y-91322387D02*
X150382737Y-91370006D01*
X150382737Y-91370006D02*
X150406547Y-91441435D01*
X150406547Y-91441435D02*
X150692261Y-91727149D01*
X150692261Y-91727149D02*
X150382737Y-91727149D01*
X150192261Y-91274768D02*
X150168452Y-91250959D01*
X150168452Y-91250959D02*
X150120833Y-91227149D01*
X150120833Y-91227149D02*
X150001785Y-91227149D01*
X150001785Y-91227149D02*
X149954166Y-91250959D01*
X149954166Y-91250959D02*
X149930357Y-91274768D01*
X149930357Y-91274768D02*
X149906547Y-91322387D01*
X149906547Y-91322387D02*
X149906547Y-91370006D01*
X149906547Y-91370006D02*
X149930357Y-91441435D01*
X149930357Y-91441435D02*
X150216071Y-91727149D01*
X150216071Y-91727149D02*
X149906547Y-91727149D01*
D10*
X157166666Y-113454819D02*
X157738094Y-113454819D01*
X157452380Y-113454819D02*
X157452380Y-112454819D01*
X157452380Y-112454819D02*
X157547618Y-112597676D01*
X157547618Y-112597676D02*
X157642856Y-112692914D01*
X157642856Y-112692914D02*
X157738094Y-112740533D01*
X156547618Y-112454819D02*
X156452380Y-112454819D01*
X156452380Y-112454819D02*
X156357142Y-112502438D01*
X156357142Y-112502438D02*
X156309523Y-112550057D01*
X156309523Y-112550057D02*
X156261904Y-112645295D01*
X156261904Y-112645295D02*
X156214285Y-112835771D01*
X156214285Y-112835771D02*
X156214285Y-113073866D01*
X156214285Y-113073866D02*
X156261904Y-113264342D01*
X156261904Y-113264342D02*
X156309523Y-113359580D01*
X156309523Y-113359580D02*
X156357142Y-113407200D01*
X156357142Y-113407200D02*
X156452380Y-113454819D01*
X156452380Y-113454819D02*
X156547618Y-113454819D01*
X156547618Y-113454819D02*
X156642856Y-113407200D01*
X156642856Y-113407200D02*
X156690475Y-113359580D01*
X156690475Y-113359580D02*
X156738094Y-113264342D01*
X156738094Y-113264342D02*
X156785713Y-113073866D01*
X156785713Y-113073866D02*
X156785713Y-112835771D01*
X156785713Y-112835771D02*
X156738094Y-112645295D01*
X156738094Y-112645295D02*
X156690475Y-112550057D01*
X156690475Y-112550057D02*
X156642856Y-112502438D01*
X156642856Y-112502438D02*
X156547618Y-112454819D01*
X155595237Y-112454819D02*
X155499999Y-112454819D01*
X155499999Y-112454819D02*
X155404761Y-112502438D01*
X155404761Y-112502438D02*
X155357142Y-112550057D01*
X155357142Y-112550057D02*
X155309523Y-112645295D01*
X155309523Y-112645295D02*
X155261904Y-112835771D01*
X155261904Y-112835771D02*
X155261904Y-113073866D01*
X155261904Y-113073866D02*
X155309523Y-113264342D01*
X155309523Y-113264342D02*
X155357142Y-113359580D01*
X155357142Y-113359580D02*
X155404761Y-113407200D01*
X155404761Y-113407200D02*
X155499999Y-113454819D01*
X155499999Y-113454819D02*
X155595237Y-113454819D01*
X155595237Y-113454819D02*
X155690475Y-113407200D01*
X155690475Y-113407200D02*
X155738094Y-113359580D01*
X155738094Y-113359580D02*
X155785713Y-113264342D01*
X155785713Y-113264342D02*
X155833332Y-113073866D01*
X155833332Y-113073866D02*
X155833332Y-112835771D01*
X155833332Y-112835771D02*
X155785713Y-112645295D01*
X155785713Y-112645295D02*
X155738094Y-112550057D01*
X155738094Y-112550057D02*
X155690475Y-112502438D01*
X155690475Y-112502438D02*
X155595237Y-112454819D01*
D11*
X153821428Y-112977149D02*
X153988094Y-112739054D01*
X154107142Y-112977149D02*
X154107142Y-112477149D01*
X154107142Y-112477149D02*
X153916666Y-112477149D01*
X153916666Y-112477149D02*
X153869047Y-112500959D01*
X153869047Y-112500959D02*
X153845237Y-112524768D01*
X153845237Y-112524768D02*
X153821428Y-112572387D01*
X153821428Y-112572387D02*
X153821428Y-112643816D01*
X153821428Y-112643816D02*
X153845237Y-112691435D01*
X153845237Y-112691435D02*
X153869047Y-112715244D01*
X153869047Y-112715244D02*
X153916666Y-112739054D01*
X153916666Y-112739054D02*
X154107142Y-112739054D01*
X153654761Y-112477149D02*
X153345237Y-112477149D01*
X153345237Y-112477149D02*
X153511904Y-112667625D01*
X153511904Y-112667625D02*
X153440475Y-112667625D01*
X153440475Y-112667625D02*
X153392856Y-112691435D01*
X153392856Y-112691435D02*
X153369047Y-112715244D01*
X153369047Y-112715244D02*
X153345237Y-112762863D01*
X153345237Y-112762863D02*
X153345237Y-112881911D01*
X153345237Y-112881911D02*
X153369047Y-112929530D01*
X153369047Y-112929530D02*
X153392856Y-112953340D01*
X153392856Y-112953340D02*
X153440475Y-112977149D01*
X153440475Y-112977149D02*
X153583332Y-112977149D01*
X153583332Y-112977149D02*
X153630951Y-112953340D01*
X153630951Y-112953340D02*
X153654761Y-112929530D01*
X152892857Y-112477149D02*
X153130952Y-112477149D01*
X153130952Y-112477149D02*
X153154761Y-112715244D01*
X153154761Y-112715244D02*
X153130952Y-112691435D01*
X153130952Y-112691435D02*
X153083333Y-112667625D01*
X153083333Y-112667625D02*
X152964285Y-112667625D01*
X152964285Y-112667625D02*
X152916666Y-112691435D01*
X152916666Y-112691435D02*
X152892857Y-112715244D01*
X152892857Y-112715244D02*
X152869047Y-112762863D01*
X152869047Y-112762863D02*
X152869047Y-112881911D01*
X152869047Y-112881911D02*
X152892857Y-112929530D01*
X152892857Y-112929530D02*
X152916666Y-112953340D01*
X152916666Y-112953340D02*
X152964285Y-112977149D01*
X152964285Y-112977149D02*
X153083333Y-112977149D01*
X153083333Y-112977149D02*
X153130952Y-112953340D01*
X153130952Y-112953340D02*
X153154761Y-112929530D01*
D10*
X155227976Y-90454819D02*
X155799404Y-90454819D01*
X155513690Y-90454819D02*
X155513690Y-89454819D01*
X155513690Y-89454819D02*
X155608928Y-89597676D01*
X155608928Y-89597676D02*
X155704166Y-89692914D01*
X155704166Y-89692914D02*
X155799404Y-89740533D01*
X154608928Y-89454819D02*
X154513690Y-89454819D01*
X154513690Y-89454819D02*
X154418452Y-89502438D01*
X154418452Y-89502438D02*
X154370833Y-89550057D01*
X154370833Y-89550057D02*
X154323214Y-89645295D01*
X154323214Y-89645295D02*
X154275595Y-89835771D01*
X154275595Y-89835771D02*
X154275595Y-90073866D01*
X154275595Y-90073866D02*
X154323214Y-90264342D01*
X154323214Y-90264342D02*
X154370833Y-90359580D01*
X154370833Y-90359580D02*
X154418452Y-90407200D01*
X154418452Y-90407200D02*
X154513690Y-90454819D01*
X154513690Y-90454819D02*
X154608928Y-90454819D01*
X154608928Y-90454819D02*
X154704166Y-90407200D01*
X154704166Y-90407200D02*
X154751785Y-90359580D01*
X154751785Y-90359580D02*
X154799404Y-90264342D01*
X154799404Y-90264342D02*
X154847023Y-90073866D01*
X154847023Y-90073866D02*
X154847023Y-89835771D01*
X154847023Y-89835771D02*
X154799404Y-89645295D01*
X154799404Y-89645295D02*
X154751785Y-89550057D01*
X154751785Y-89550057D02*
X154704166Y-89502438D01*
X154704166Y-89502438D02*
X154608928Y-89454819D01*
D11*
X155358928Y-91689530D02*
X155382737Y-91713340D01*
X155382737Y-91713340D02*
X155454166Y-91737149D01*
X155454166Y-91737149D02*
X155501785Y-91737149D01*
X155501785Y-91737149D02*
X155573213Y-91713340D01*
X155573213Y-91713340D02*
X155620832Y-91665720D01*
X155620832Y-91665720D02*
X155644642Y-91618101D01*
X155644642Y-91618101D02*
X155668451Y-91522863D01*
X155668451Y-91522863D02*
X155668451Y-91451435D01*
X155668451Y-91451435D02*
X155644642Y-91356197D01*
X155644642Y-91356197D02*
X155620832Y-91308578D01*
X155620832Y-91308578D02*
X155573213Y-91260959D01*
X155573213Y-91260959D02*
X155501785Y-91237149D01*
X155501785Y-91237149D02*
X155454166Y-91237149D01*
X155454166Y-91237149D02*
X155382737Y-91260959D01*
X155382737Y-91260959D02*
X155358928Y-91284768D01*
X154882737Y-91737149D02*
X155168451Y-91737149D01*
X155025594Y-91737149D02*
X155025594Y-91237149D01*
X155025594Y-91237149D02*
X155073213Y-91308578D01*
X155073213Y-91308578D02*
X155120832Y-91356197D01*
X155120832Y-91356197D02*
X155168451Y-91380006D01*
X154644642Y-91737149D02*
X154549404Y-91737149D01*
X154549404Y-91737149D02*
X154501785Y-91713340D01*
X154501785Y-91713340D02*
X154477976Y-91689530D01*
X154477976Y-91689530D02*
X154430357Y-91618101D01*
X154430357Y-91618101D02*
X154406547Y-91522863D01*
X154406547Y-91522863D02*
X154406547Y-91332387D01*
X154406547Y-91332387D02*
X154430357Y-91284768D01*
X154430357Y-91284768D02*
X154454166Y-91260959D01*
X154454166Y-91260959D02*
X154501785Y-91237149D01*
X154501785Y-91237149D02*
X154597023Y-91237149D01*
X154597023Y-91237149D02*
X154644642Y-91260959D01*
X154644642Y-91260959D02*
X154668452Y-91284768D01*
X154668452Y-91284768D02*
X154692261Y-91332387D01*
X154692261Y-91332387D02*
X154692261Y-91451435D01*
X154692261Y-91451435D02*
X154668452Y-91499054D01*
X154668452Y-91499054D02*
X154644642Y-91522863D01*
X154644642Y-91522863D02*
X154597023Y-91546673D01*
X154597023Y-91546673D02*
X154501785Y-91546673D01*
X154501785Y-91546673D02*
X154454166Y-91522863D01*
X154454166Y-91522863D02*
X154430357Y-91499054D01*
X154430357Y-91499054D02*
X154406547Y-91451435D01*
D10*
X171756009Y-83690476D02*
X171803628Y-83833333D01*
X171803628Y-83833333D02*
X171851247Y-83880952D01*
X171851247Y-83880952D02*
X171946485Y-83928571D01*
X171946485Y-83928571D02*
X172089342Y-83928571D01*
X172089342Y-83928571D02*
X172184580Y-83880952D01*
X172184580Y-83880952D02*
X172232200Y-83833333D01*
X172232200Y-83833333D02*
X172279819Y-83738095D01*
X172279819Y-83738095D02*
X172279819Y-83357143D01*
X172279819Y-83357143D02*
X171279819Y-83357143D01*
X171279819Y-83357143D02*
X171279819Y-83690476D01*
X171279819Y-83690476D02*
X171327438Y-83785714D01*
X171327438Y-83785714D02*
X171375057Y-83833333D01*
X171375057Y-83833333D02*
X171470295Y-83880952D01*
X171470295Y-83880952D02*
X171565533Y-83880952D01*
X171565533Y-83880952D02*
X171660771Y-83833333D01*
X171660771Y-83833333D02*
X171708390Y-83785714D01*
X171708390Y-83785714D02*
X171756009Y-83690476D01*
X171756009Y-83690476D02*
X171756009Y-83357143D01*
X172184580Y-84928571D02*
X172232200Y-84880952D01*
X172232200Y-84880952D02*
X172279819Y-84738095D01*
X172279819Y-84738095D02*
X172279819Y-84642857D01*
X172279819Y-84642857D02*
X172232200Y-84500000D01*
X172232200Y-84500000D02*
X172136961Y-84404762D01*
X172136961Y-84404762D02*
X172041723Y-84357143D01*
X172041723Y-84357143D02*
X171851247Y-84309524D01*
X171851247Y-84309524D02*
X171708390Y-84309524D01*
X171708390Y-84309524D02*
X171517914Y-84357143D01*
X171517914Y-84357143D02*
X171422676Y-84404762D01*
X171422676Y-84404762D02*
X171327438Y-84500000D01*
X171327438Y-84500000D02*
X171279819Y-84642857D01*
X171279819Y-84642857D02*
X171279819Y-84738095D01*
X171279819Y-84738095D02*
X171327438Y-84880952D01*
X171327438Y-84880952D02*
X171375057Y-84928571D01*
X171279819Y-85214286D02*
X172279819Y-85547619D01*
X172279819Y-85547619D02*
X171279819Y-85880952D01*
X171279819Y-86119048D02*
X171279819Y-86785714D01*
X171279819Y-86785714D02*
X172279819Y-86357143D01*
X172279819Y-87690476D02*
X172279819Y-87119048D01*
X172279819Y-87404762D02*
X171279819Y-87404762D01*
X171279819Y-87404762D02*
X171422676Y-87309524D01*
X171422676Y-87309524D02*
X171517914Y-87214286D01*
X171517914Y-87214286D02*
X171565533Y-87119048D01*
D12*
X172395937Y-89931428D02*
X172361651Y-89862857D01*
X172361651Y-89862857D02*
X172293080Y-89794285D01*
X172293080Y-89794285D02*
X172190222Y-89691428D01*
X172190222Y-89691428D02*
X172155937Y-89622857D01*
X172155937Y-89622857D02*
X172155937Y-89554285D01*
X172327365Y-89588571D02*
X172293080Y-89520000D01*
X172293080Y-89520000D02*
X172224508Y-89451428D01*
X172224508Y-89451428D02*
X172087365Y-89417142D01*
X172087365Y-89417142D02*
X171847365Y-89417142D01*
X171847365Y-89417142D02*
X171710222Y-89451428D01*
X171710222Y-89451428D02*
X171641651Y-89520000D01*
X171641651Y-89520000D02*
X171607365Y-89588571D01*
X171607365Y-89588571D02*
X171607365Y-89725714D01*
X171607365Y-89725714D02*
X171641651Y-89794285D01*
X171641651Y-89794285D02*
X171710222Y-89862857D01*
X171710222Y-89862857D02*
X171847365Y-89897142D01*
X171847365Y-89897142D02*
X172087365Y-89897142D01*
X172087365Y-89897142D02*
X172224508Y-89862857D01*
X172224508Y-89862857D02*
X172293080Y-89794285D01*
X172293080Y-89794285D02*
X172327365Y-89725714D01*
X172327365Y-89725714D02*
X172327365Y-89588571D01*
X171847365Y-90514286D02*
X172327365Y-90514286D01*
X171573080Y-90342857D02*
X172087365Y-90171428D01*
X172087365Y-90171428D02*
X172087365Y-90617143D01*
D10*
X149071428Y-110454819D02*
X149642856Y-110454819D01*
X149357142Y-110454819D02*
X149357142Y-109454819D01*
X149357142Y-109454819D02*
X149452380Y-109597676D01*
X149452380Y-109597676D02*
X149547618Y-109692914D01*
X149547618Y-109692914D02*
X149642856Y-109740533D01*
X148452380Y-109454819D02*
X148357142Y-109454819D01*
X148357142Y-109454819D02*
X148261904Y-109502438D01*
X148261904Y-109502438D02*
X148214285Y-109550057D01*
X148214285Y-109550057D02*
X148166666Y-109645295D01*
X148166666Y-109645295D02*
X148119047Y-109835771D01*
X148119047Y-109835771D02*
X148119047Y-110073866D01*
X148119047Y-110073866D02*
X148166666Y-110264342D01*
X148166666Y-110264342D02*
X148214285Y-110359580D01*
X148214285Y-110359580D02*
X148261904Y-110407200D01*
X148261904Y-110407200D02*
X148357142Y-110454819D01*
X148357142Y-110454819D02*
X148452380Y-110454819D01*
X148452380Y-110454819D02*
X148547618Y-110407200D01*
X148547618Y-110407200D02*
X148595237Y-110359580D01*
X148595237Y-110359580D02*
X148642856Y-110264342D01*
X148642856Y-110264342D02*
X148690475Y-110073866D01*
X148690475Y-110073866D02*
X148690475Y-109835771D01*
X148690475Y-109835771D02*
X148642856Y-109645295D01*
X148642856Y-109645295D02*
X148595237Y-109550057D01*
X148595237Y-109550057D02*
X148547618Y-109502438D01*
X148547618Y-109502438D02*
X148452380Y-109454819D01*
X147499999Y-109454819D02*
X147404761Y-109454819D01*
X147404761Y-109454819D02*
X147309523Y-109502438D01*
X147309523Y-109502438D02*
X147261904Y-109550057D01*
X147261904Y-109550057D02*
X147214285Y-109645295D01*
X147214285Y-109645295D02*
X147166666Y-109835771D01*
X147166666Y-109835771D02*
X147166666Y-110073866D01*
X147166666Y-110073866D02*
X147214285Y-110264342D01*
X147214285Y-110264342D02*
X147261904Y-110359580D01*
X147261904Y-110359580D02*
X147309523Y-110407200D01*
X147309523Y-110407200D02*
X147404761Y-110454819D01*
X147404761Y-110454819D02*
X147499999Y-110454819D01*
X147499999Y-110454819D02*
X147595237Y-110407200D01*
X147595237Y-110407200D02*
X147642856Y-110359580D01*
X147642856Y-110359580D02*
X147690475Y-110264342D01*
X147690475Y-110264342D02*
X147738094Y-110073866D01*
X147738094Y-110073866D02*
X147738094Y-109835771D01*
X147738094Y-109835771D02*
X147690475Y-109645295D01*
X147690475Y-109645295D02*
X147642856Y-109550057D01*
X147642856Y-109550057D02*
X147595237Y-109502438D01*
X147595237Y-109502438D02*
X147499999Y-109454819D01*
X146738094Y-110454819D02*
X146738094Y-109454819D01*
X146642856Y-110073866D02*
X146357142Y-110454819D01*
X146357142Y-109788152D02*
X146738094Y-110169104D01*
D11*
X151821428Y-109977149D02*
X151988094Y-109739054D01*
X152107142Y-109977149D02*
X152107142Y-109477149D01*
X152107142Y-109477149D02*
X151916666Y-109477149D01*
X151916666Y-109477149D02*
X151869047Y-109500959D01*
X151869047Y-109500959D02*
X151845237Y-109524768D01*
X151845237Y-109524768D02*
X151821428Y-109572387D01*
X151821428Y-109572387D02*
X151821428Y-109643816D01*
X151821428Y-109643816D02*
X151845237Y-109691435D01*
X151845237Y-109691435D02*
X151869047Y-109715244D01*
X151869047Y-109715244D02*
X151916666Y-109739054D01*
X151916666Y-109739054D02*
X152107142Y-109739054D01*
X151654761Y-109477149D02*
X151345237Y-109477149D01*
X151345237Y-109477149D02*
X151511904Y-109667625D01*
X151511904Y-109667625D02*
X151440475Y-109667625D01*
X151440475Y-109667625D02*
X151392856Y-109691435D01*
X151392856Y-109691435D02*
X151369047Y-109715244D01*
X151369047Y-109715244D02*
X151345237Y-109762863D01*
X151345237Y-109762863D02*
X151345237Y-109881911D01*
X151345237Y-109881911D02*
X151369047Y-109929530D01*
X151369047Y-109929530D02*
X151392856Y-109953340D01*
X151392856Y-109953340D02*
X151440475Y-109977149D01*
X151440475Y-109977149D02*
X151583332Y-109977149D01*
X151583332Y-109977149D02*
X151630951Y-109953340D01*
X151630951Y-109953340D02*
X151654761Y-109929530D01*
X150916666Y-109643816D02*
X150916666Y-109977149D01*
X151035714Y-109453340D02*
X151154761Y-109810482D01*
X151154761Y-109810482D02*
X150845238Y-109810482D01*
D10*
X157592319Y-73928571D02*
X156592319Y-73928571D01*
X156592319Y-73928571D02*
X156592319Y-74309523D01*
X156592319Y-74309523D02*
X156639938Y-74404761D01*
X156639938Y-74404761D02*
X156687557Y-74452380D01*
X156687557Y-74452380D02*
X156782795Y-74499999D01*
X156782795Y-74499999D02*
X156925652Y-74499999D01*
X156925652Y-74499999D02*
X157020890Y-74452380D01*
X157020890Y-74452380D02*
X157068509Y-74404761D01*
X157068509Y-74404761D02*
X157116128Y-74309523D01*
X157116128Y-74309523D02*
X157116128Y-73928571D01*
X157592319Y-74928571D02*
X156592319Y-74928571D01*
X156592319Y-74928571D02*
X156592319Y-75166666D01*
X156592319Y-75166666D02*
X156639938Y-75309523D01*
X156639938Y-75309523D02*
X156735176Y-75404761D01*
X156735176Y-75404761D02*
X156830414Y-75452380D01*
X156830414Y-75452380D02*
X157020890Y-75499999D01*
X157020890Y-75499999D02*
X157163747Y-75499999D01*
X157163747Y-75499999D02*
X157354223Y-75452380D01*
X157354223Y-75452380D02*
X157449461Y-75404761D01*
X157449461Y-75404761D02*
X157544700Y-75309523D01*
X157544700Y-75309523D02*
X157592319Y-75166666D01*
X157592319Y-75166666D02*
X157592319Y-74928571D01*
X156592319Y-75833333D02*
X156592319Y-76452380D01*
X156592319Y-76452380D02*
X156973271Y-76119047D01*
X156973271Y-76119047D02*
X156973271Y-76261904D01*
X156973271Y-76261904D02*
X157020890Y-76357142D01*
X157020890Y-76357142D02*
X157068509Y-76404761D01*
X157068509Y-76404761D02*
X157163747Y-76452380D01*
X157163747Y-76452380D02*
X157401842Y-76452380D01*
X157401842Y-76452380D02*
X157497080Y-76404761D01*
X157497080Y-76404761D02*
X157544700Y-76357142D01*
X157544700Y-76357142D02*
X157592319Y-76261904D01*
X157592319Y-76261904D02*
X157592319Y-75976190D01*
X157592319Y-75976190D02*
X157544700Y-75880952D01*
X157544700Y-75880952D02*
X157497080Y-75833333D01*
X157544700Y-76833333D02*
X157592319Y-76976190D01*
X157592319Y-76976190D02*
X157592319Y-77214285D01*
X157592319Y-77214285D02*
X157544700Y-77309523D01*
X157544700Y-77309523D02*
X157497080Y-77357142D01*
X157497080Y-77357142D02*
X157401842Y-77404761D01*
X157401842Y-77404761D02*
X157306604Y-77404761D01*
X157306604Y-77404761D02*
X157211366Y-77357142D01*
X157211366Y-77357142D02*
X157163747Y-77309523D01*
X157163747Y-77309523D02*
X157116128Y-77214285D01*
X157116128Y-77214285D02*
X157068509Y-77023809D01*
X157068509Y-77023809D02*
X157020890Y-76928571D01*
X157020890Y-76928571D02*
X156973271Y-76880952D01*
X156973271Y-76880952D02*
X156878033Y-76833333D01*
X156878033Y-76833333D02*
X156782795Y-76833333D01*
X156782795Y-76833333D02*
X156687557Y-76880952D01*
X156687557Y-76880952D02*
X156639938Y-76928571D01*
X156639938Y-76928571D02*
X156592319Y-77023809D01*
X156592319Y-77023809D02*
X156592319Y-77261904D01*
X156592319Y-77261904D02*
X156639938Y-77404761D01*
X157592319Y-78357142D02*
X157592319Y-77785714D01*
X157592319Y-78071428D02*
X156592319Y-78071428D01*
X156592319Y-78071428D02*
X156735176Y-77976190D01*
X156735176Y-77976190D02*
X156830414Y-77880952D01*
X156830414Y-77880952D02*
X156878033Y-77785714D01*
X156687557Y-78738095D02*
X156639938Y-78785714D01*
X156639938Y-78785714D02*
X156592319Y-78880952D01*
X156592319Y-78880952D02*
X156592319Y-79119047D01*
X156592319Y-79119047D02*
X156639938Y-79214285D01*
X156639938Y-79214285D02*
X156687557Y-79261904D01*
X156687557Y-79261904D02*
X156782795Y-79309523D01*
X156782795Y-79309523D02*
X156878033Y-79309523D01*
X156878033Y-79309523D02*
X157020890Y-79261904D01*
X157020890Y-79261904D02*
X157592319Y-78690476D01*
X157592319Y-78690476D02*
X157592319Y-79309523D01*
X156592319Y-79928571D02*
X156592319Y-80023809D01*
X156592319Y-80023809D02*
X156639938Y-80119047D01*
X156639938Y-80119047D02*
X156687557Y-80166666D01*
X156687557Y-80166666D02*
X156782795Y-80214285D01*
X156782795Y-80214285D02*
X156973271Y-80261904D01*
X156973271Y-80261904D02*
X157211366Y-80261904D01*
X157211366Y-80261904D02*
X157401842Y-80214285D01*
X157401842Y-80214285D02*
X157497080Y-80166666D01*
X157497080Y-80166666D02*
X157544700Y-80119047D01*
X157544700Y-80119047D02*
X157592319Y-80023809D01*
X157592319Y-80023809D02*
X157592319Y-79928571D01*
X157592319Y-79928571D02*
X157544700Y-79833333D01*
X157544700Y-79833333D02*
X157497080Y-79785714D01*
X157497080Y-79785714D02*
X157401842Y-79738095D01*
X157401842Y-79738095D02*
X157211366Y-79690476D01*
X157211366Y-79690476D02*
X156973271Y-79690476D01*
X156973271Y-79690476D02*
X156782795Y-79738095D01*
X156782795Y-79738095D02*
X156687557Y-79785714D01*
X156687557Y-79785714D02*
X156639938Y-79833333D01*
X156639938Y-79833333D02*
X156592319Y-79928571D01*
X157592319Y-81166666D02*
X157592319Y-80690476D01*
X157592319Y-80690476D02*
X156592319Y-80690476D01*
X157687557Y-82166666D02*
X157639938Y-82071428D01*
X157639938Y-82071428D02*
X157544700Y-81976190D01*
X157544700Y-81976190D02*
X157401842Y-81833333D01*
X157401842Y-81833333D02*
X157354223Y-81738095D01*
X157354223Y-81738095D02*
X157354223Y-81642857D01*
X157592319Y-81690476D02*
X157544700Y-81595238D01*
X157544700Y-81595238D02*
X157449461Y-81500000D01*
X157449461Y-81500000D02*
X157258985Y-81452381D01*
X157258985Y-81452381D02*
X156925652Y-81452381D01*
X156925652Y-81452381D02*
X156735176Y-81500000D01*
X156735176Y-81500000D02*
X156639938Y-81595238D01*
X156639938Y-81595238D02*
X156592319Y-81690476D01*
X156592319Y-81690476D02*
X156592319Y-81880952D01*
X156592319Y-81880952D02*
X156639938Y-81976190D01*
X156639938Y-81976190D02*
X156735176Y-82071428D01*
X156735176Y-82071428D02*
X156925652Y-82119047D01*
X156925652Y-82119047D02*
X157258985Y-82119047D01*
X157258985Y-82119047D02*
X157449461Y-82071428D01*
X157449461Y-82071428D02*
X157544700Y-81976190D01*
X157544700Y-81976190D02*
X157592319Y-81880952D01*
X157592319Y-81880952D02*
X157592319Y-81690476D01*
X169050057Y-83333333D02*
X169002438Y-83380952D01*
X169002438Y-83380952D02*
X168954819Y-83476190D01*
X168954819Y-83476190D02*
X168954819Y-83714285D01*
X168954819Y-83714285D02*
X169002438Y-83809523D01*
X169002438Y-83809523D02*
X169050057Y-83857142D01*
X169050057Y-83857142D02*
X169145295Y-83904761D01*
X169145295Y-83904761D02*
X169240533Y-83904761D01*
X169240533Y-83904761D02*
X169383390Y-83857142D01*
X169383390Y-83857142D02*
X169954819Y-83285714D01*
X169954819Y-83285714D02*
X169954819Y-83904761D01*
X169954819Y-84333333D02*
X168954819Y-84333333D01*
X169573866Y-84428571D02*
X169954819Y-84714285D01*
X169288152Y-84714285D02*
X169669104Y-84333333D01*
X169050057Y-85095238D02*
X169002438Y-85142857D01*
X169002438Y-85142857D02*
X168954819Y-85238095D01*
X168954819Y-85238095D02*
X168954819Y-85476190D01*
X168954819Y-85476190D02*
X169002438Y-85571428D01*
X169002438Y-85571428D02*
X169050057Y-85619047D01*
X169050057Y-85619047D02*
X169145295Y-85666666D01*
X169145295Y-85666666D02*
X169240533Y-85666666D01*
X169240533Y-85666666D02*
X169383390Y-85619047D01*
X169383390Y-85619047D02*
X169954819Y-85047619D01*
X169954819Y-85047619D02*
X169954819Y-85666666D01*
D11*
X167727149Y-85321428D02*
X167489054Y-85488094D01*
X167727149Y-85607142D02*
X167227149Y-85607142D01*
X167227149Y-85607142D02*
X167227149Y-85416666D01*
X167227149Y-85416666D02*
X167250959Y-85369047D01*
X167250959Y-85369047D02*
X167274768Y-85345237D01*
X167274768Y-85345237D02*
X167322387Y-85321428D01*
X167322387Y-85321428D02*
X167393816Y-85321428D01*
X167393816Y-85321428D02*
X167441435Y-85345237D01*
X167441435Y-85345237D02*
X167465244Y-85369047D01*
X167465244Y-85369047D02*
X167489054Y-85416666D01*
X167489054Y-85416666D02*
X167489054Y-85607142D01*
X167727149Y-84845237D02*
X167727149Y-85130951D01*
X167727149Y-84988094D02*
X167227149Y-84988094D01*
X167227149Y-84988094D02*
X167298578Y-85035713D01*
X167298578Y-85035713D02*
X167346197Y-85083332D01*
X167346197Y-85083332D02*
X167370006Y-85130951D01*
X167227149Y-84678571D02*
X167227149Y-84369047D01*
X167227149Y-84369047D02*
X167417625Y-84535714D01*
X167417625Y-84535714D02*
X167417625Y-84464285D01*
X167417625Y-84464285D02*
X167441435Y-84416666D01*
X167441435Y-84416666D02*
X167465244Y-84392857D01*
X167465244Y-84392857D02*
X167512863Y-84369047D01*
X167512863Y-84369047D02*
X167631911Y-84369047D01*
X167631911Y-84369047D02*
X167679530Y-84392857D01*
X167679530Y-84392857D02*
X167703340Y-84416666D01*
X167703340Y-84416666D02*
X167727149Y-84464285D01*
X167727149Y-84464285D02*
X167727149Y-84607142D01*
X167727149Y-84607142D02*
X167703340Y-84654761D01*
X167703340Y-84654761D02*
X167679530Y-84678571D01*
D10*
X150727976Y-87264819D02*
X151299404Y-87264819D01*
X151013690Y-87264819D02*
X151013690Y-86264819D01*
X151013690Y-86264819D02*
X151108928Y-86407676D01*
X151108928Y-86407676D02*
X151204166Y-86502914D01*
X151204166Y-86502914D02*
X151299404Y-86550533D01*
X150108928Y-86264819D02*
X150013690Y-86264819D01*
X150013690Y-86264819D02*
X149918452Y-86312438D01*
X149918452Y-86312438D02*
X149870833Y-86360057D01*
X149870833Y-86360057D02*
X149823214Y-86455295D01*
X149823214Y-86455295D02*
X149775595Y-86645771D01*
X149775595Y-86645771D02*
X149775595Y-86883866D01*
X149775595Y-86883866D02*
X149823214Y-87074342D01*
X149823214Y-87074342D02*
X149870833Y-87169580D01*
X149870833Y-87169580D02*
X149918452Y-87217200D01*
X149918452Y-87217200D02*
X150013690Y-87264819D01*
X150013690Y-87264819D02*
X150108928Y-87264819D01*
X150108928Y-87264819D02*
X150204166Y-87217200D01*
X150204166Y-87217200D02*
X150251785Y-87169580D01*
X150251785Y-87169580D02*
X150299404Y-87074342D01*
X150299404Y-87074342D02*
X150347023Y-86883866D01*
X150347023Y-86883866D02*
X150347023Y-86645771D01*
X150347023Y-86645771D02*
X150299404Y-86455295D01*
X150299404Y-86455295D02*
X150251785Y-86360057D01*
X150251785Y-86360057D02*
X150204166Y-86312438D01*
X150204166Y-86312438D02*
X150108928Y-86264819D01*
D11*
X150858928Y-88669530D02*
X150882737Y-88693340D01*
X150882737Y-88693340D02*
X150954166Y-88717149D01*
X150954166Y-88717149D02*
X151001785Y-88717149D01*
X151001785Y-88717149D02*
X151073213Y-88693340D01*
X151073213Y-88693340D02*
X151120832Y-88645720D01*
X151120832Y-88645720D02*
X151144642Y-88598101D01*
X151144642Y-88598101D02*
X151168451Y-88502863D01*
X151168451Y-88502863D02*
X151168451Y-88431435D01*
X151168451Y-88431435D02*
X151144642Y-88336197D01*
X151144642Y-88336197D02*
X151120832Y-88288578D01*
X151120832Y-88288578D02*
X151073213Y-88240959D01*
X151073213Y-88240959D02*
X151001785Y-88217149D01*
X151001785Y-88217149D02*
X150954166Y-88217149D01*
X150954166Y-88217149D02*
X150882737Y-88240959D01*
X150882737Y-88240959D02*
X150858928Y-88264768D01*
X150668451Y-88264768D02*
X150644642Y-88240959D01*
X150644642Y-88240959D02*
X150597023Y-88217149D01*
X150597023Y-88217149D02*
X150477975Y-88217149D01*
X150477975Y-88217149D02*
X150430356Y-88240959D01*
X150430356Y-88240959D02*
X150406547Y-88264768D01*
X150406547Y-88264768D02*
X150382737Y-88312387D01*
X150382737Y-88312387D02*
X150382737Y-88360006D01*
X150382737Y-88360006D02*
X150406547Y-88431435D01*
X150406547Y-88431435D02*
X150692261Y-88717149D01*
X150692261Y-88717149D02*
X150382737Y-88717149D01*
X150216071Y-88217149D02*
X149906547Y-88217149D01*
X149906547Y-88217149D02*
X150073214Y-88407625D01*
X150073214Y-88407625D02*
X150001785Y-88407625D01*
X150001785Y-88407625D02*
X149954166Y-88431435D01*
X149954166Y-88431435D02*
X149930357Y-88455244D01*
X149930357Y-88455244D02*
X149906547Y-88502863D01*
X149906547Y-88502863D02*
X149906547Y-88621911D01*
X149906547Y-88621911D02*
X149930357Y-88669530D01*
X149930357Y-88669530D02*
X149954166Y-88693340D01*
X149954166Y-88693340D02*
X150001785Y-88717149D01*
X150001785Y-88717149D02*
X150144642Y-88717149D01*
X150144642Y-88717149D02*
X150192261Y-88693340D01*
X150192261Y-88693340D02*
X150216071Y-88669530D01*
D10*
X154190476Y-68104819D02*
X154761904Y-68104819D01*
X154476190Y-68104819D02*
X154476190Y-67104819D01*
X154476190Y-67104819D02*
X154571428Y-67247676D01*
X154571428Y-67247676D02*
X154666666Y-67342914D01*
X154666666Y-67342914D02*
X154761904Y-67390533D01*
X153571428Y-67104819D02*
X153476190Y-67104819D01*
X153476190Y-67104819D02*
X153380952Y-67152438D01*
X153380952Y-67152438D02*
X153333333Y-67200057D01*
X153333333Y-67200057D02*
X153285714Y-67295295D01*
X153285714Y-67295295D02*
X153238095Y-67485771D01*
X153238095Y-67485771D02*
X153238095Y-67723866D01*
X153238095Y-67723866D02*
X153285714Y-67914342D01*
X153285714Y-67914342D02*
X153333333Y-68009580D01*
X153333333Y-68009580D02*
X153380952Y-68057200D01*
X153380952Y-68057200D02*
X153476190Y-68104819D01*
X153476190Y-68104819D02*
X153571428Y-68104819D01*
X153571428Y-68104819D02*
X153666666Y-68057200D01*
X153666666Y-68057200D02*
X153714285Y-68009580D01*
X153714285Y-68009580D02*
X153761904Y-67914342D01*
X153761904Y-67914342D02*
X153809523Y-67723866D01*
X153809523Y-67723866D02*
X153809523Y-67485771D01*
X153809523Y-67485771D02*
X153761904Y-67295295D01*
X153761904Y-67295295D02*
X153714285Y-67200057D01*
X153714285Y-67200057D02*
X153666666Y-67152438D01*
X153666666Y-67152438D02*
X153571428Y-67104819D01*
D11*
X154321428Y-66227149D02*
X154488094Y-65989054D01*
X154607142Y-66227149D02*
X154607142Y-65727149D01*
X154607142Y-65727149D02*
X154416666Y-65727149D01*
X154416666Y-65727149D02*
X154369047Y-65750959D01*
X154369047Y-65750959D02*
X154345237Y-65774768D01*
X154345237Y-65774768D02*
X154321428Y-65822387D01*
X154321428Y-65822387D02*
X154321428Y-65893816D01*
X154321428Y-65893816D02*
X154345237Y-65941435D01*
X154345237Y-65941435D02*
X154369047Y-65965244D01*
X154369047Y-65965244D02*
X154416666Y-65989054D01*
X154416666Y-65989054D02*
X154607142Y-65989054D01*
X154154761Y-65727149D02*
X153845237Y-65727149D01*
X153845237Y-65727149D02*
X154011904Y-65917625D01*
X154011904Y-65917625D02*
X153940475Y-65917625D01*
X153940475Y-65917625D02*
X153892856Y-65941435D01*
X153892856Y-65941435D02*
X153869047Y-65965244D01*
X153869047Y-65965244D02*
X153845237Y-66012863D01*
X153845237Y-66012863D02*
X153845237Y-66131911D01*
X153845237Y-66131911D02*
X153869047Y-66179530D01*
X153869047Y-66179530D02*
X153892856Y-66203340D01*
X153892856Y-66203340D02*
X153940475Y-66227149D01*
X153940475Y-66227149D02*
X154083332Y-66227149D01*
X154083332Y-66227149D02*
X154130951Y-66203340D01*
X154130951Y-66203340D02*
X154154761Y-66179530D01*
X153654761Y-65774768D02*
X153630952Y-65750959D01*
X153630952Y-65750959D02*
X153583333Y-65727149D01*
X153583333Y-65727149D02*
X153464285Y-65727149D01*
X153464285Y-65727149D02*
X153416666Y-65750959D01*
X153416666Y-65750959D02*
X153392857Y-65774768D01*
X153392857Y-65774768D02*
X153369047Y-65822387D01*
X153369047Y-65822387D02*
X153369047Y-65870006D01*
X153369047Y-65870006D02*
X153392857Y-65941435D01*
X153392857Y-65941435D02*
X153678571Y-66227149D01*
X153678571Y-66227149D02*
X153369047Y-66227149D01*
D10*
X169690476Y-80438152D02*
X169690476Y-81104819D01*
X169928571Y-80057200D02*
X170166666Y-80771485D01*
X170166666Y-80771485D02*
X169547619Y-80771485D01*
X169166666Y-81104819D02*
X169166666Y-80104819D01*
X169071428Y-80723866D02*
X168785714Y-81104819D01*
X168785714Y-80438152D02*
X169166666Y-80819104D01*
X168452380Y-80104819D02*
X167785714Y-80104819D01*
X167785714Y-80104819D02*
X168214285Y-81104819D01*
D11*
X169321428Y-79227149D02*
X169488094Y-78989054D01*
X169607142Y-79227149D02*
X169607142Y-78727149D01*
X169607142Y-78727149D02*
X169416666Y-78727149D01*
X169416666Y-78727149D02*
X169369047Y-78750959D01*
X169369047Y-78750959D02*
X169345237Y-78774768D01*
X169345237Y-78774768D02*
X169321428Y-78822387D01*
X169321428Y-78822387D02*
X169321428Y-78893816D01*
X169321428Y-78893816D02*
X169345237Y-78941435D01*
X169345237Y-78941435D02*
X169369047Y-78965244D01*
X169369047Y-78965244D02*
X169416666Y-78989054D01*
X169416666Y-78989054D02*
X169607142Y-78989054D01*
X169130951Y-78774768D02*
X169107142Y-78750959D01*
X169107142Y-78750959D02*
X169059523Y-78727149D01*
X169059523Y-78727149D02*
X168940475Y-78727149D01*
X168940475Y-78727149D02*
X168892856Y-78750959D01*
X168892856Y-78750959D02*
X168869047Y-78774768D01*
X168869047Y-78774768D02*
X168845237Y-78822387D01*
X168845237Y-78822387D02*
X168845237Y-78870006D01*
X168845237Y-78870006D02*
X168869047Y-78941435D01*
X168869047Y-78941435D02*
X169154761Y-79227149D01*
X169154761Y-79227149D02*
X168845237Y-79227149D01*
X168392857Y-78727149D02*
X168630952Y-78727149D01*
X168630952Y-78727149D02*
X168654761Y-78965244D01*
X168654761Y-78965244D02*
X168630952Y-78941435D01*
X168630952Y-78941435D02*
X168583333Y-78917625D01*
X168583333Y-78917625D02*
X168464285Y-78917625D01*
X168464285Y-78917625D02*
X168416666Y-78941435D01*
X168416666Y-78941435D02*
X168392857Y-78965244D01*
X168392857Y-78965244D02*
X168369047Y-79012863D01*
X168369047Y-79012863D02*
X168369047Y-79131911D01*
X168369047Y-79131911D02*
X168392857Y-79179530D01*
X168392857Y-79179530D02*
X168416666Y-79203340D01*
X168416666Y-79203340D02*
X168464285Y-79227149D01*
X168464285Y-79227149D02*
X168583333Y-79227149D01*
X168583333Y-79227149D02*
X168630952Y-79203340D01*
X168630952Y-79203340D02*
X168654761Y-79179530D01*
D10*
X146324819Y-59071428D02*
X147324819Y-59309523D01*
X147324819Y-59309523D02*
X146610533Y-59499999D01*
X146610533Y-59499999D02*
X147324819Y-59690475D01*
X147324819Y-59690475D02*
X146324819Y-59928571D01*
X147277200Y-60261904D02*
X147324819Y-60404761D01*
X147324819Y-60404761D02*
X147324819Y-60642856D01*
X147324819Y-60642856D02*
X147277200Y-60738094D01*
X147277200Y-60738094D02*
X147229580Y-60785713D01*
X147229580Y-60785713D02*
X147134342Y-60833332D01*
X147134342Y-60833332D02*
X147039104Y-60833332D01*
X147039104Y-60833332D02*
X146943866Y-60785713D01*
X146943866Y-60785713D02*
X146896247Y-60738094D01*
X146896247Y-60738094D02*
X146848628Y-60642856D01*
X146848628Y-60642856D02*
X146801009Y-60452380D01*
X146801009Y-60452380D02*
X146753390Y-60357142D01*
X146753390Y-60357142D02*
X146705771Y-60309523D01*
X146705771Y-60309523D02*
X146610533Y-60261904D01*
X146610533Y-60261904D02*
X146515295Y-60261904D01*
X146515295Y-60261904D02*
X146420057Y-60309523D01*
X146420057Y-60309523D02*
X146372438Y-60357142D01*
X146372438Y-60357142D02*
X146324819Y-60452380D01*
X146324819Y-60452380D02*
X146324819Y-60690475D01*
X146324819Y-60690475D02*
X146372438Y-60833332D01*
X147324819Y-61738094D02*
X147324819Y-61261904D01*
X147324819Y-61261904D02*
X146324819Y-61261904D01*
X146420057Y-62023809D02*
X146372438Y-62071428D01*
X146372438Y-62071428D02*
X146324819Y-62166666D01*
X146324819Y-62166666D02*
X146324819Y-62404761D01*
X146324819Y-62404761D02*
X146372438Y-62499999D01*
X146372438Y-62499999D02*
X146420057Y-62547618D01*
X146420057Y-62547618D02*
X146515295Y-62595237D01*
X146515295Y-62595237D02*
X146610533Y-62595237D01*
X146610533Y-62595237D02*
X146753390Y-62547618D01*
X146753390Y-62547618D02*
X147324819Y-61976190D01*
X147324819Y-61976190D02*
X147324819Y-62595237D01*
X146324819Y-63499999D02*
X146324819Y-63023809D01*
X146324819Y-63023809D02*
X146801009Y-62976190D01*
X146801009Y-62976190D02*
X146753390Y-63023809D01*
X146753390Y-63023809D02*
X146705771Y-63119047D01*
X146705771Y-63119047D02*
X146705771Y-63357142D01*
X146705771Y-63357142D02*
X146753390Y-63452380D01*
X146753390Y-63452380D02*
X146801009Y-63499999D01*
X146801009Y-63499999D02*
X146896247Y-63547618D01*
X146896247Y-63547618D02*
X147134342Y-63547618D01*
X147134342Y-63547618D02*
X147229580Y-63499999D01*
X147229580Y-63499999D02*
X147277200Y-63452380D01*
X147277200Y-63452380D02*
X147324819Y-63357142D01*
X147324819Y-63357142D02*
X147324819Y-63119047D01*
X147324819Y-63119047D02*
X147277200Y-63023809D01*
X147277200Y-63023809D02*
X147229580Y-62976190D01*
X147324819Y-64499999D02*
X147324819Y-63928571D01*
X147324819Y-64214285D02*
X146324819Y-64214285D01*
X146324819Y-64214285D02*
X146467676Y-64119047D01*
X146467676Y-64119047D02*
X146562914Y-64023809D01*
X146562914Y-64023809D02*
X146610533Y-63928571D01*
X146420057Y-64880952D02*
X146372438Y-64928571D01*
X146372438Y-64928571D02*
X146324819Y-65023809D01*
X146324819Y-65023809D02*
X146324819Y-65261904D01*
X146324819Y-65261904D02*
X146372438Y-65357142D01*
X146372438Y-65357142D02*
X146420057Y-65404761D01*
X146420057Y-65404761D02*
X146515295Y-65452380D01*
X146515295Y-65452380D02*
X146610533Y-65452380D01*
X146610533Y-65452380D02*
X146753390Y-65404761D01*
X146753390Y-65404761D02*
X147324819Y-64833333D01*
X147324819Y-64833333D02*
X147324819Y-65452380D01*
X147324819Y-66452380D02*
X146848628Y-66119047D01*
X147324819Y-65880952D02*
X146324819Y-65880952D01*
X146324819Y-65880952D02*
X146324819Y-66261904D01*
X146324819Y-66261904D02*
X146372438Y-66357142D01*
X146372438Y-66357142D02*
X146420057Y-66404761D01*
X146420057Y-66404761D02*
X146515295Y-66452380D01*
X146515295Y-66452380D02*
X146658152Y-66452380D01*
X146658152Y-66452380D02*
X146753390Y-66404761D01*
X146753390Y-66404761D02*
X146801009Y-66357142D01*
X146801009Y-66357142D02*
X146848628Y-66261904D01*
X146848628Y-66261904D02*
X146848628Y-65880952D01*
X146324819Y-67071428D02*
X146324819Y-67166666D01*
X146324819Y-67166666D02*
X146372438Y-67261904D01*
X146372438Y-67261904D02*
X146420057Y-67309523D01*
X146420057Y-67309523D02*
X146515295Y-67357142D01*
X146515295Y-67357142D02*
X146705771Y-67404761D01*
X146705771Y-67404761D02*
X146943866Y-67404761D01*
X146943866Y-67404761D02*
X147134342Y-67357142D01*
X147134342Y-67357142D02*
X147229580Y-67309523D01*
X147229580Y-67309523D02*
X147277200Y-67261904D01*
X147277200Y-67261904D02*
X147324819Y-67166666D01*
X147324819Y-67166666D02*
X147324819Y-67071428D01*
X147324819Y-67071428D02*
X147277200Y-66976190D01*
X147277200Y-66976190D02*
X147229580Y-66928571D01*
X147229580Y-66928571D02*
X147134342Y-66880952D01*
X147134342Y-66880952D02*
X146943866Y-66833333D01*
X146943866Y-66833333D02*
X146705771Y-66833333D01*
X146705771Y-66833333D02*
X146515295Y-66880952D01*
X146515295Y-66880952D02*
X146420057Y-66928571D01*
X146420057Y-66928571D02*
X146372438Y-66976190D01*
X146372438Y-66976190D02*
X146324819Y-67071428D01*
X146658152Y-68261904D02*
X147324819Y-68261904D01*
X146277200Y-68023809D02*
X146991485Y-67785714D01*
X146991485Y-67785714D02*
X146991485Y-68404761D01*
X146324819Y-68690476D02*
X146324819Y-69357142D01*
X146324819Y-69357142D02*
X147324819Y-68928571D01*
X146324819Y-69928571D02*
X146324819Y-70023809D01*
X146324819Y-70023809D02*
X146372438Y-70119047D01*
X146372438Y-70119047D02*
X146420057Y-70166666D01*
X146420057Y-70166666D02*
X146515295Y-70214285D01*
X146515295Y-70214285D02*
X146705771Y-70261904D01*
X146705771Y-70261904D02*
X146943866Y-70261904D01*
X146943866Y-70261904D02*
X147134342Y-70214285D01*
X147134342Y-70214285D02*
X147229580Y-70166666D01*
X147229580Y-70166666D02*
X147277200Y-70119047D01*
X147277200Y-70119047D02*
X147324819Y-70023809D01*
X147324819Y-70023809D02*
X147324819Y-69928571D01*
X147324819Y-69928571D02*
X147277200Y-69833333D01*
X147277200Y-69833333D02*
X147229580Y-69785714D01*
X147229580Y-69785714D02*
X147134342Y-69738095D01*
X147134342Y-69738095D02*
X146943866Y-69690476D01*
X146943866Y-69690476D02*
X146705771Y-69690476D01*
X146705771Y-69690476D02*
X146515295Y-69738095D01*
X146515295Y-69738095D02*
X146420057Y-69785714D01*
X146420057Y-69785714D02*
X146372438Y-69833333D01*
X146372438Y-69833333D02*
X146324819Y-69928571D01*
X146801009Y-71023809D02*
X146801009Y-70690476D01*
X147324819Y-70690476D02*
X146324819Y-70690476D01*
X146324819Y-70690476D02*
X146324819Y-71166666D01*
X146801009Y-71547619D02*
X146801009Y-71880952D01*
X147324819Y-72023809D02*
X147324819Y-71547619D01*
X147324819Y-71547619D02*
X146324819Y-71547619D01*
X146324819Y-71547619D02*
X146324819Y-72023809D01*
X147039104Y-72404762D02*
X147039104Y-72880952D01*
X147324819Y-72309524D02*
X146324819Y-72642857D01*
X146324819Y-72642857D02*
X147324819Y-72976190D01*
X149954819Y-65357142D02*
X149478628Y-65023809D01*
X149954819Y-64785714D02*
X148954819Y-64785714D01*
X148954819Y-64785714D02*
X148954819Y-65166666D01*
X148954819Y-65166666D02*
X149002438Y-65261904D01*
X149002438Y-65261904D02*
X149050057Y-65309523D01*
X149050057Y-65309523D02*
X149145295Y-65357142D01*
X149145295Y-65357142D02*
X149288152Y-65357142D01*
X149288152Y-65357142D02*
X149383390Y-65309523D01*
X149383390Y-65309523D02*
X149431009Y-65261904D01*
X149431009Y-65261904D02*
X149478628Y-65166666D01*
X149478628Y-65166666D02*
X149478628Y-64785714D01*
X149954819Y-66309523D02*
X149954819Y-65738095D01*
X149954819Y-66023809D02*
X148954819Y-66023809D01*
X148954819Y-66023809D02*
X149097676Y-65928571D01*
X149097676Y-65928571D02*
X149192914Y-65833333D01*
X149192914Y-65833333D02*
X149240533Y-65738095D01*
X148954819Y-66642857D02*
X148954819Y-67309523D01*
X148954819Y-67309523D02*
X149954819Y-66880952D01*
X137604819Y-81928571D02*
X137604819Y-81357143D01*
X137604819Y-81642857D02*
X136604819Y-81642857D01*
X136604819Y-81642857D02*
X136747676Y-81547619D01*
X136747676Y-81547619D02*
X136842914Y-81452381D01*
X136842914Y-81452381D02*
X136890533Y-81357143D01*
X136604819Y-82547619D02*
X136604819Y-82642857D01*
X136604819Y-82642857D02*
X136652438Y-82738095D01*
X136652438Y-82738095D02*
X136700057Y-82785714D01*
X136700057Y-82785714D02*
X136795295Y-82833333D01*
X136795295Y-82833333D02*
X136985771Y-82880952D01*
X136985771Y-82880952D02*
X137223866Y-82880952D01*
X137223866Y-82880952D02*
X137414342Y-82833333D01*
X137414342Y-82833333D02*
X137509580Y-82785714D01*
X137509580Y-82785714D02*
X137557200Y-82738095D01*
X137557200Y-82738095D02*
X137604819Y-82642857D01*
X137604819Y-82642857D02*
X137604819Y-82547619D01*
X137604819Y-82547619D02*
X137557200Y-82452381D01*
X137557200Y-82452381D02*
X137509580Y-82404762D01*
X137509580Y-82404762D02*
X137414342Y-82357143D01*
X137414342Y-82357143D02*
X137223866Y-82309524D01*
X137223866Y-82309524D02*
X136985771Y-82309524D01*
X136985771Y-82309524D02*
X136795295Y-82357143D01*
X136795295Y-82357143D02*
X136700057Y-82404762D01*
X136700057Y-82404762D02*
X136652438Y-82452381D01*
X136652438Y-82452381D02*
X136604819Y-82547619D01*
X136604819Y-83500000D02*
X136604819Y-83595238D01*
X136604819Y-83595238D02*
X136652438Y-83690476D01*
X136652438Y-83690476D02*
X136700057Y-83738095D01*
X136700057Y-83738095D02*
X136795295Y-83785714D01*
X136795295Y-83785714D02*
X136985771Y-83833333D01*
X136985771Y-83833333D02*
X137223866Y-83833333D01*
X137223866Y-83833333D02*
X137414342Y-83785714D01*
X137414342Y-83785714D02*
X137509580Y-83738095D01*
X137509580Y-83738095D02*
X137557200Y-83690476D01*
X137557200Y-83690476D02*
X137604819Y-83595238D01*
X137604819Y-83595238D02*
X137604819Y-83500000D01*
X137604819Y-83500000D02*
X137557200Y-83404762D01*
X137557200Y-83404762D02*
X137509580Y-83357143D01*
X137509580Y-83357143D02*
X137414342Y-83309524D01*
X137414342Y-83309524D02*
X137223866Y-83261905D01*
X137223866Y-83261905D02*
X136985771Y-83261905D01*
X136985771Y-83261905D02*
X136795295Y-83309524D01*
X136795295Y-83309524D02*
X136700057Y-83357143D01*
X136700057Y-83357143D02*
X136652438Y-83404762D01*
X136652438Y-83404762D02*
X136604819Y-83500000D01*
X137604819Y-84261905D02*
X136604819Y-84261905D01*
X137223866Y-84357143D02*
X137604819Y-84642857D01*
X136938152Y-84642857D02*
X137319104Y-84261905D01*
D11*
X135727149Y-82678571D02*
X135489054Y-82511905D01*
X135727149Y-82392857D02*
X135227149Y-82392857D01*
X135227149Y-82392857D02*
X135227149Y-82583333D01*
X135227149Y-82583333D02*
X135250959Y-82630952D01*
X135250959Y-82630952D02*
X135274768Y-82654762D01*
X135274768Y-82654762D02*
X135322387Y-82678571D01*
X135322387Y-82678571D02*
X135393816Y-82678571D01*
X135393816Y-82678571D02*
X135441435Y-82654762D01*
X135441435Y-82654762D02*
X135465244Y-82630952D01*
X135465244Y-82630952D02*
X135489054Y-82583333D01*
X135489054Y-82583333D02*
X135489054Y-82392857D01*
X135727149Y-83154762D02*
X135727149Y-82869048D01*
X135727149Y-83011905D02*
X135227149Y-83011905D01*
X135227149Y-83011905D02*
X135298578Y-82964286D01*
X135298578Y-82964286D02*
X135346197Y-82916667D01*
X135346197Y-82916667D02*
X135370006Y-82869048D01*
X135441435Y-83440476D02*
X135417625Y-83392857D01*
X135417625Y-83392857D02*
X135393816Y-83369047D01*
X135393816Y-83369047D02*
X135346197Y-83345238D01*
X135346197Y-83345238D02*
X135322387Y-83345238D01*
X135322387Y-83345238D02*
X135274768Y-83369047D01*
X135274768Y-83369047D02*
X135250959Y-83392857D01*
X135250959Y-83392857D02*
X135227149Y-83440476D01*
X135227149Y-83440476D02*
X135227149Y-83535714D01*
X135227149Y-83535714D02*
X135250959Y-83583333D01*
X135250959Y-83583333D02*
X135274768Y-83607142D01*
X135274768Y-83607142D02*
X135322387Y-83630952D01*
X135322387Y-83630952D02*
X135346197Y-83630952D01*
X135346197Y-83630952D02*
X135393816Y-83607142D01*
X135393816Y-83607142D02*
X135417625Y-83583333D01*
X135417625Y-83583333D02*
X135441435Y-83535714D01*
X135441435Y-83535714D02*
X135441435Y-83440476D01*
X135441435Y-83440476D02*
X135465244Y-83392857D01*
X135465244Y-83392857D02*
X135489054Y-83369047D01*
X135489054Y-83369047D02*
X135536673Y-83345238D01*
X135536673Y-83345238D02*
X135631911Y-83345238D01*
X135631911Y-83345238D02*
X135679530Y-83369047D01*
X135679530Y-83369047D02*
X135703340Y-83392857D01*
X135703340Y-83392857D02*
X135727149Y-83440476D01*
X135727149Y-83440476D02*
X135727149Y-83535714D01*
X135727149Y-83535714D02*
X135703340Y-83583333D01*
X135703340Y-83583333D02*
X135679530Y-83607142D01*
X135679530Y-83607142D02*
X135631911Y-83630952D01*
X135631911Y-83630952D02*
X135536673Y-83630952D01*
X135536673Y-83630952D02*
X135489054Y-83607142D01*
X135489054Y-83607142D02*
X135465244Y-83583333D01*
X135465244Y-83583333D02*
X135441435Y-83535714D01*
D10*
X164180357Y-79454819D02*
X164751785Y-79454819D01*
X164466071Y-79454819D02*
X164466071Y-78454819D01*
X164466071Y-78454819D02*
X164561309Y-78597676D01*
X164561309Y-78597676D02*
X164656547Y-78692914D01*
X164656547Y-78692914D02*
X164751785Y-78740533D01*
X163561309Y-78454819D02*
X163466071Y-78454819D01*
X163466071Y-78454819D02*
X163370833Y-78502438D01*
X163370833Y-78502438D02*
X163323214Y-78550057D01*
X163323214Y-78550057D02*
X163275595Y-78645295D01*
X163275595Y-78645295D02*
X163227976Y-78835771D01*
X163227976Y-78835771D02*
X163227976Y-79073866D01*
X163227976Y-79073866D02*
X163275595Y-79264342D01*
X163275595Y-79264342D02*
X163323214Y-79359580D01*
X163323214Y-79359580D02*
X163370833Y-79407200D01*
X163370833Y-79407200D02*
X163466071Y-79454819D01*
X163466071Y-79454819D02*
X163561309Y-79454819D01*
X163561309Y-79454819D02*
X163656547Y-79407200D01*
X163656547Y-79407200D02*
X163704166Y-79359580D01*
X163704166Y-79359580D02*
X163751785Y-79264342D01*
X163751785Y-79264342D02*
X163799404Y-79073866D01*
X163799404Y-79073866D02*
X163799404Y-78835771D01*
X163799404Y-78835771D02*
X163751785Y-78645295D01*
X163751785Y-78645295D02*
X163704166Y-78550057D01*
X163704166Y-78550057D02*
X163656547Y-78502438D01*
X163656547Y-78502438D02*
X163561309Y-78454819D01*
X162799404Y-78788152D02*
X162799404Y-79788152D01*
X162799404Y-78835771D02*
X162704166Y-78788152D01*
X162704166Y-78788152D02*
X162513690Y-78788152D01*
X162513690Y-78788152D02*
X162418452Y-78835771D01*
X162418452Y-78835771D02*
X162370833Y-78883390D01*
X162370833Y-78883390D02*
X162323214Y-78978628D01*
X162323214Y-78978628D02*
X162323214Y-79264342D01*
X162323214Y-79264342D02*
X162370833Y-79359580D01*
X162370833Y-79359580D02*
X162418452Y-79407200D01*
X162418452Y-79407200D02*
X162513690Y-79454819D01*
X162513690Y-79454819D02*
X162704166Y-79454819D01*
X162704166Y-79454819D02*
X162799404Y-79407200D01*
D11*
X161358928Y-79179530D02*
X161382737Y-79203340D01*
X161382737Y-79203340D02*
X161454166Y-79227149D01*
X161454166Y-79227149D02*
X161501785Y-79227149D01*
X161501785Y-79227149D02*
X161573213Y-79203340D01*
X161573213Y-79203340D02*
X161620832Y-79155720D01*
X161620832Y-79155720D02*
X161644642Y-79108101D01*
X161644642Y-79108101D02*
X161668451Y-79012863D01*
X161668451Y-79012863D02*
X161668451Y-78941435D01*
X161668451Y-78941435D02*
X161644642Y-78846197D01*
X161644642Y-78846197D02*
X161620832Y-78798578D01*
X161620832Y-78798578D02*
X161573213Y-78750959D01*
X161573213Y-78750959D02*
X161501785Y-78727149D01*
X161501785Y-78727149D02*
X161454166Y-78727149D01*
X161454166Y-78727149D02*
X161382737Y-78750959D01*
X161382737Y-78750959D02*
X161358928Y-78774768D01*
X161168451Y-78774768D02*
X161144642Y-78750959D01*
X161144642Y-78750959D02*
X161097023Y-78727149D01*
X161097023Y-78727149D02*
X160977975Y-78727149D01*
X160977975Y-78727149D02*
X160930356Y-78750959D01*
X160930356Y-78750959D02*
X160906547Y-78774768D01*
X160906547Y-78774768D02*
X160882737Y-78822387D01*
X160882737Y-78822387D02*
X160882737Y-78870006D01*
X160882737Y-78870006D02*
X160906547Y-78941435D01*
X160906547Y-78941435D02*
X161192261Y-79227149D01*
X161192261Y-79227149D02*
X160882737Y-79227149D01*
X160406547Y-79227149D02*
X160692261Y-79227149D01*
X160549404Y-79227149D02*
X160549404Y-78727149D01*
X160549404Y-78727149D02*
X160597023Y-78798578D01*
X160597023Y-78798578D02*
X160644642Y-78846197D01*
X160644642Y-78846197D02*
X160692261Y-78870006D01*
%TO.C,D3*%
D13*
X159837500Y-92600000D02*
X159837500Y-94400000D01*
X159837500Y-94400000D02*
X161237500Y-94400000D01*
X160187500Y-93200000D02*
X160887500Y-93200000D01*
X160187500Y-93700000D02*
X160887500Y-93700000D01*
X160537500Y-93200000D02*
X160187500Y-93700000D01*
X160537500Y-93200000D02*
X160537500Y-93000000D01*
X160537500Y-93700000D02*
X160537500Y-93950000D01*
X160887500Y-93700000D02*
X160537500Y-93200000D01*
X161237500Y-92600000D02*
X159837500Y-92600000D01*
X161237500Y-94400000D02*
X161237500Y-92600000D01*
%TO.C,C24*%
X149537500Y-84855000D02*
X151537500Y-84855000D01*
X151537500Y-86105000D01*
X149537500Y-86105000D01*
X149537500Y-84855000D01*
%TO.C,C20*%
X161412500Y-87462500D02*
X162662500Y-87462500D01*
X162662500Y-89462500D01*
X161412500Y-89462500D01*
X161412500Y-87462500D01*
%TO.C,C9*%
X157375000Y-64000000D02*
X158625000Y-64000000D01*
X158625000Y-66000000D01*
X157375000Y-66000000D01*
X157375000Y-64000000D01*
%TO.C,R24*%
X168000000Y-80875000D02*
X170000000Y-80875000D01*
X170000000Y-82125000D01*
X168000000Y-82125000D01*
X168000000Y-80875000D01*
%TO.C,U5*%
X160487500Y-88900000D02*
X160487500Y-87700000D01*
X157587500Y-87700000D01*
X157587500Y-89300000D01*
X160087500Y-89300000D01*
X160487500Y-88900000D01*
%TO.C,U6*%
X164550000Y-64000000D02*
X162300000Y-64000000D01*
X162300000Y-67000000D01*
X165300000Y-67000000D01*
X165300000Y-64750000D01*
X164550000Y-64000000D01*
%TO.C,R28*%
X156862500Y-95000000D02*
X158112500Y-95000000D01*
X158112500Y-97000000D01*
X156862500Y-97000000D01*
X156862500Y-95000000D01*
%TO.C,R36*%
X155500000Y-109125000D02*
X157500000Y-109125000D01*
X157500000Y-110375000D01*
X155500000Y-110375000D01*
X155500000Y-109125000D01*
%TO.C,Q1*%
X157900000Y-106512500D02*
X157900000Y-105312500D01*
X155000000Y-105312500D01*
X155000000Y-106912500D01*
X157500000Y-106912500D01*
X157900000Y-106512500D01*
%TO.C,R21*%
X160037500Y-80875000D02*
X162037500Y-80875000D01*
X162037500Y-82125000D01*
X160037500Y-82125000D01*
X160037500Y-80875000D01*
%TO.C,Q2*%
X152950000Y-106512500D02*
X152950000Y-105312500D01*
X150050000Y-105312500D01*
X150050000Y-106912500D01*
X152550000Y-106912500D01*
X152950000Y-106512500D01*
%TO.C,C25*%
X151862500Y-95000000D02*
X153112500Y-95000000D01*
X153112500Y-97000000D01*
X151862500Y-97000000D01*
X151862500Y-95000000D01*
%TO.C,R11*%
X175375000Y-89000000D02*
X176625000Y-89000000D01*
X176625000Y-91000000D01*
X175375000Y-91000000D01*
X175375000Y-89000000D01*
%TO.C,R23*%
X135375000Y-58000000D02*
X136625000Y-58000000D01*
X136625000Y-60000000D01*
X135375000Y-60000000D01*
X135375000Y-58000000D01*
%TO.C,R12*%
X134875000Y-70000000D02*
X136125000Y-70000000D01*
X136125000Y-72000000D01*
X134875000Y-72000000D01*
X134875000Y-70000000D01*
%TO.C,R29*%
X154412500Y-95000000D02*
X155662500Y-95000000D01*
X155662500Y-97000000D01*
X154412500Y-97000000D01*
X154412500Y-95000000D01*
%TO.C,R33*%
X166875000Y-69500000D02*
X168125000Y-69500000D01*
X168125000Y-71500000D01*
X166875000Y-71500000D01*
X166875000Y-69500000D01*
%TO.C,R19*%
X134875000Y-94000000D02*
X136125000Y-94000000D01*
X136125000Y-96000000D01*
X134875000Y-96000000D01*
X134875000Y-94000000D01*
%TO.C,R31*%
X153000000Y-62875000D02*
X155000000Y-62875000D01*
X155000000Y-64125000D01*
X153000000Y-64125000D01*
X153000000Y-62875000D01*
%TO.C,R9*%
X176500000Y-78875000D02*
X178500000Y-78875000D01*
X178500000Y-80125000D01*
X176500000Y-80125000D01*
X176500000Y-78875000D01*
%TO.C,C17*%
X154037500Y-84865000D02*
X156037500Y-84865000D01*
X156037500Y-86115000D01*
X154037500Y-86115000D01*
X154037500Y-84865000D01*
%TO.C,R22*%
X160037500Y-83375000D02*
X162037500Y-83375000D01*
X162037500Y-84625000D01*
X160037500Y-84625000D01*
X160037500Y-83375000D01*
%TO.C,C18*%
X154037500Y-87875000D02*
X156037500Y-87875000D01*
X156037500Y-89125000D01*
X154037500Y-89125000D01*
X154037500Y-87875000D01*
%TO.C,C22*%
X149537500Y-90875000D02*
X151537500Y-90875000D01*
X151537500Y-92125000D01*
X149537500Y-92125000D01*
X149537500Y-90875000D01*
%TO.C,R35*%
X152500000Y-112125000D02*
X154500000Y-112125000D01*
X154500000Y-113375000D01*
X152500000Y-113375000D01*
X152500000Y-112125000D01*
%TO.C,C19*%
X154037500Y-90885000D02*
X156037500Y-90885000D01*
X156037500Y-92135000D01*
X154037500Y-92135000D01*
X154037500Y-90885000D01*
%TO.C,Q4*%
X172400000Y-88550000D02*
X171200000Y-88550000D01*
X171200000Y-91450000D01*
X172800000Y-91450000D01*
X172800000Y-88950000D01*
X172400000Y-88550000D01*
%TO.C,R34*%
X150500000Y-109125000D02*
X152500000Y-109125000D01*
X152500000Y-110375000D01*
X150500000Y-110375000D01*
X150500000Y-109125000D01*
%TO.C,R13*%
X166875000Y-84000000D02*
X168125000Y-84000000D01*
X168125000Y-86000000D01*
X166875000Y-86000000D01*
X166875000Y-84000000D01*
%TO.C,C23*%
X149537500Y-87865000D02*
X151537500Y-87865000D01*
X151537500Y-89115000D01*
X149537500Y-89115000D01*
X149537500Y-87865000D01*
%TO.C,R32*%
X153000000Y-65375000D02*
X155000000Y-65375000D01*
X155000000Y-66625000D01*
X153000000Y-66625000D01*
X153000000Y-65375000D01*
%TO.C,R25*%
X168000000Y-78375000D02*
X170000000Y-78375000D01*
X170000000Y-79625000D01*
X168000000Y-79625000D01*
X168000000Y-78375000D01*
%TO.C,R17*%
X147900000Y-62850000D02*
X151100000Y-62850000D01*
X151100000Y-69150000D01*
X147900000Y-69150000D01*
X147900000Y-62850000D01*
%TO.C,R18*%
X134875000Y-82000000D02*
X136125000Y-82000000D01*
X136125000Y-84000000D01*
X134875000Y-84000000D01*
X134875000Y-82000000D01*
%TO.C,C21*%
X160037500Y-78375000D02*
X162037500Y-78375000D01*
X162037500Y-79625000D01*
X160037500Y-79625000D01*
X160037500Y-78375000D01*
%TD*%
M02*
