%TF.GenerationSoftware,KiCad,Pcbnew,10.0.3*%
%TF.CreationDate,2026-06-13T22:55:19+02:00*%
%TF.ProjectId,main,6d61696e-2e6b-4696-9361-645f70636258,rev?*%
%TF.SameCoordinates,Original*%
%TF.FileFunction,Paste,Bot*%
%TF.FilePolarity,Positive*%
%FSLAX46Y46*%
G04 Gerber Fmt 4.6, Leading zero omitted, Abs format (unit mm)*
G04 Created by KiCad (PCBNEW 10.0.3) date 2026-06-13 22:55:19*
%MOMM*%
%LPD*%
G01*
G04 APERTURE LIST*
G04 Aperture macros list*
%AMRoundRect*
0 Rectangle with rounded corners*
0 $1 Rounding radius*
0 $2 $3 $4 $5 $6 $7 $8 $9 X,Y pos of 4 corners*
0 Add a 4 corners polygon primitive as box body*
4,1,4,$2,$3,$4,$5,$6,$7,$8,$9,$2,$3,0*
0 Add four circle primitives for the rounded corners*
1,1,$1+$1,$2,$3*
1,1,$1+$1,$4,$5*
1,1,$1+$1,$6,$7*
1,1,$1+$1,$8,$9*
0 Add four rect primitives between the rounded corners*
20,1,$1+$1,$2,$3,$4,$5,0*
20,1,$1+$1,$4,$5,$6,$7,0*
20,1,$1+$1,$6,$7,$8,$9,0*
20,1,$1+$1,$8,$9,$2,$3,0*%
G04 Aperture macros list end*
%ADD10RoundRect,0.250000X-0.250000X0.250000X-0.250000X-0.250000X0.250000X-0.250000X0.250000X0.250000X0*%
%ADD11RoundRect,0.250000X-0.337500X-0.475000X0.337500X-0.475000X0.337500X0.475000X-0.337500X0.475000X0*%
%ADD12RoundRect,0.250000X0.475000X-0.337500X0.475000X0.337500X-0.475000X0.337500X-0.475000X-0.337500X0*%
%ADD13RoundRect,0.250000X-0.475000X0.337500X-0.475000X-0.337500X0.475000X-0.337500X0.475000X0.337500X0*%
%ADD14RoundRect,0.250000X0.350000X0.450000X-0.350000X0.450000X-0.350000X-0.450000X0.350000X-0.450000X0*%
%ADD15RoundRect,0.150000X0.150000X-0.512500X0.150000X0.512500X-0.150000X0.512500X-0.150000X-0.512500X0*%
%ADD16RoundRect,0.075000X0.650000X0.075000X-0.650000X0.075000X-0.650000X-0.075000X0.650000X-0.075000X0*%
%ADD17RoundRect,0.250000X-0.450000X0.350000X-0.450000X-0.350000X0.450000X-0.350000X0.450000X0.350000X0*%
%ADD18RoundRect,0.250000X-0.350000X-0.450000X0.350000X-0.450000X0.350000X0.450000X-0.350000X0.450000X0*%
%ADD19RoundRect,0.250000X0.450000X-0.350000X0.450000X0.350000X-0.450000X0.350000X-0.450000X-0.350000X0*%
%ADD20RoundRect,0.250000X0.337500X0.475000X-0.337500X0.475000X-0.337500X-0.475000X0.337500X-0.475000X0*%
%ADD21RoundRect,0.150000X0.512500X0.150000X-0.512500X0.150000X-0.512500X-0.150000X0.512500X-0.150000X0*%
%ADD22R,1.800000X1.300000*%
%ADD23RoundRect,0.249999X1.425001X-0.450001X1.425001X0.450001X-1.425001X0.450001X-1.425001X-0.450001X0*%
G04 APERTURE END LIST*
D10*
%TO.C,D3*%
X160537500Y-92250000D03*
X160537500Y-94750000D03*
%TD*%
D11*
%TO.C,C24*%
X149500000Y-85480000D03*
X151575000Y-85480000D03*
%TD*%
D12*
%TO.C,C20*%
X162037500Y-89500000D03*
X162037500Y-87425000D03*
%TD*%
D13*
%TO.C,C9*%
X158000000Y-63962500D03*
X158000000Y-66037500D03*
%TD*%
D14*
%TO.C,R24*%
X170000000Y-81500000D03*
X168000000Y-81500000D03*
%TD*%
D15*
%TO.C,U5*%
X159987500Y-89637500D03*
X159037500Y-89637500D03*
X158087500Y-89637500D03*
X158087500Y-87362500D03*
X159037500Y-87362500D03*
X159987500Y-87362500D03*
%TD*%
D16*
%TO.C,U6*%
X166000000Y-64500000D03*
X166000000Y-65000000D03*
X166000000Y-65500000D03*
X166000000Y-66000000D03*
X166000000Y-66500000D03*
X161600000Y-66500000D03*
X161600000Y-66000000D03*
X161600000Y-65500000D03*
X161600000Y-65000000D03*
X161600000Y-64500000D03*
%TD*%
D17*
%TO.C,R28*%
X157487500Y-95000000D03*
X157487500Y-97000000D03*
%TD*%
D14*
%TO.C,R36*%
X157500000Y-109750000D03*
X155500000Y-109750000D03*
%TD*%
D15*
%TO.C,Q1*%
X157400000Y-107250000D03*
X155500000Y-107250000D03*
X156450000Y-104975000D03*
%TD*%
D18*
%TO.C,R21*%
X160037500Y-81500000D03*
X162037500Y-81500000D03*
%TD*%
D15*
%TO.C,Q2*%
X152450000Y-107250000D03*
X150550000Y-107250000D03*
X151500000Y-104975000D03*
%TD*%
D12*
%TO.C,C25*%
X152487500Y-97037500D03*
X152487500Y-94962500D03*
%TD*%
D17*
%TO.C,R11*%
X176000000Y-89000000D03*
X176000000Y-91000000D03*
%TD*%
%TO.C,R23*%
X136000000Y-58000000D03*
X136000000Y-60000000D03*
%TD*%
%TO.C,R12*%
X135500000Y-70000000D03*
X135500000Y-72000000D03*
%TD*%
D19*
%TO.C,R29*%
X155037500Y-97000000D03*
X155037500Y-95000000D03*
%TD*%
%TO.C,R33*%
X167500000Y-71500000D03*
X167500000Y-69500000D03*
%TD*%
D17*
%TO.C,R19*%
X135500000Y-94000000D03*
X135500000Y-96000000D03*
%TD*%
D14*
%TO.C,R31*%
X155000000Y-63500000D03*
X153000000Y-63500000D03*
%TD*%
D18*
%TO.C,R9*%
X176500000Y-79500000D03*
X178500000Y-79500000D03*
%TD*%
D20*
%TO.C,C17*%
X156075000Y-85490000D03*
X154000000Y-85490000D03*
%TD*%
D18*
%TO.C,R22*%
X160037500Y-84000000D03*
X162037500Y-84000000D03*
%TD*%
D20*
%TO.C,C18*%
X156075000Y-88500000D03*
X154000000Y-88500000D03*
%TD*%
D11*
%TO.C,C22*%
X149500000Y-91500000D03*
X151575000Y-91500000D03*
%TD*%
D18*
%TO.C,R35*%
X152500000Y-112750000D03*
X154500000Y-112750000D03*
%TD*%
D20*
%TO.C,C19*%
X156075000Y-91510000D03*
X154000000Y-91510000D03*
%TD*%
D21*
%TO.C,Q4*%
X173137500Y-89050000D03*
X173137500Y-90950000D03*
X170862500Y-90000000D03*
%TD*%
D18*
%TO.C,R34*%
X150500000Y-109750000D03*
X152500000Y-109750000D03*
%TD*%
D22*
%TO.C,D2*%
X157287500Y-81500000D03*
X154987500Y-81500000D03*
%TD*%
D19*
%TO.C,R13*%
X167500000Y-86000000D03*
X167500000Y-84000000D03*
%TD*%
D11*
%TO.C,C23*%
X149500000Y-88490000D03*
X151575000Y-88490000D03*
%TD*%
D14*
%TO.C,R32*%
X155000000Y-66000000D03*
X153000000Y-66000000D03*
%TD*%
%TO.C,R25*%
X170000000Y-79000000D03*
X168000000Y-79000000D03*
%TD*%
D23*
%TO.C,R17*%
X149500000Y-69050000D03*
X149500000Y-62950000D03*
%TD*%
D17*
%TO.C,R18*%
X135500000Y-82000000D03*
X135500000Y-84000000D03*
%TD*%
D20*
%TO.C,C21*%
X162075000Y-79000000D03*
X160000000Y-79000000D03*
%TD*%
M02*
