%TF.GenerationSoftware,KiCad,Pcbnew,10.0.3*%
%TF.CreationDate,2026-06-13T22:55:18+02:00*%
%TF.ProjectId,main,6d61696e-2e6b-4696-9361-645f70636258,rev?*%
%TF.SameCoordinates,Original*%
%TF.FileFunction,Copper,L1,Top*%
%TF.FilePolarity,Positive*%
%FSLAX46Y46*%
G04 Gerber Fmt 4.6, Leading zero omitted, Abs format (unit mm)*
G04 Created by KiCad (PCBNEW 10.0.3) date 2026-06-13 22:55:18*
%MOMM*%
%LPD*%
G01*
G04 APERTURE LIST*
G04 Aperture macros list*
%AMRoundRect*
0 Rectangle with rounded corners*
0 $1 Rounding radius*
0 $2 $3 $4 $5 $6 $7 $8 $9 X,Y pos of 4 corners*
0 Add a 4 corners polygon primitive as box body*
4,1,4,$2,$3,$4,$5,$6,$7,$8,$9,$2,$3,0*
0 Add four circle primitives for the rounded corners*
1,1,$1+$1,$2,$3*
1,1,$1+$1,$4,$5*
1,1,$1+$1,$6,$7*
1,1,$1+$1,$8,$9*
0 Add four rect primitives between the rounded corners*
20,1,$1+$1,$2,$3,$4,$5,0*
20,1,$1+$1,$4,$5,$6,$7,0*
20,1,$1+$1,$6,$7,$8,$9,0*
20,1,$1+$1,$8,$9,$2,$3,0*%
G04 Aperture macros list end*
%TA.AperFunction,Conductor*%
%ADD10C,0.200000*%
%TD*%
%TA.AperFunction,SMDPad,CuDef*%
%ADD11RoundRect,0.150000X0.350000X-0.700000X0.350000X0.700000X-0.350000X0.700000X-0.350000X-0.700000X0*%
%TD*%
%TA.AperFunction,ComponentPad*%
%ADD12R,2.030000X1.730000*%
%TD*%
%TA.AperFunction,ComponentPad*%
%ADD13O,2.030000X1.730000*%
%TD*%
%TA.AperFunction,SMDPad,CuDef*%
%ADD14RoundRect,0.250000X0.350000X0.450000X-0.350000X0.450000X-0.350000X-0.450000X0.350000X-0.450000X0*%
%TD*%
%TA.AperFunction,SMDPad,CuDef*%
%ADD15RoundRect,0.250000X-0.350000X-0.450000X0.350000X-0.450000X0.350000X0.450000X-0.350000X0.450000X0*%
%TD*%
%TA.AperFunction,ComponentPad*%
%ADD16R,1.700000X1.700000*%
%TD*%
%TA.AperFunction,ComponentPad*%
%ADD17C,1.700000*%
%TD*%
%TA.AperFunction,SMDPad,CuDef*%
%ADD18R,5.500000X3.850000*%
%TD*%
%TA.AperFunction,SMDPad,CuDef*%
%ADD19RoundRect,0.150000X-0.512500X-0.150000X0.512500X-0.150000X0.512500X0.150000X-0.512500X0.150000X0*%
%TD*%
%TA.AperFunction,SMDPad,CuDef*%
%ADD20RoundRect,0.150000X-0.700000X-0.350000X0.700000X-0.350000X0.700000X0.350000X-0.700000X0.350000X0*%
%TD*%
%TA.AperFunction,SMDPad,CuDef*%
%ADD21RoundRect,0.250000X-0.337500X-0.475000X0.337500X-0.475000X0.337500X0.475000X-0.337500X0.475000X0*%
%TD*%
%TA.AperFunction,SMDPad,CuDef*%
%ADD22RoundRect,0.250000X0.450000X-0.350000X0.450000X0.350000X-0.450000X0.350000X-0.450000X-0.350000X0*%
%TD*%
%TA.AperFunction,SMDPad,CuDef*%
%ADD23RoundRect,0.250000X0.475000X-0.337500X0.475000X0.337500X-0.475000X0.337500X-0.475000X-0.337500X0*%
%TD*%
%TA.AperFunction,SMDPad,CuDef*%
%ADD24RoundRect,0.150000X0.150000X-0.512500X0.150000X0.512500X-0.150000X0.512500X-0.150000X-0.512500X0*%
%TD*%
%TA.AperFunction,SMDPad,CuDef*%
%ADD25RoundRect,0.250000X-0.475000X0.337500X-0.475000X-0.337500X0.475000X-0.337500X0.475000X0.337500X0*%
%TD*%
%TA.AperFunction,SMDPad,CuDef*%
%ADD26O,1.350000X0.299999*%
%TD*%
%TA.AperFunction,SMDPad,CuDef*%
%ADD27RoundRect,0.250000X-0.450000X0.350000X-0.450000X-0.350000X0.450000X-0.350000X0.450000X0.350000X0*%
%TD*%
%TA.AperFunction,SMDPad,CuDef*%
%ADD28R,0.900000X1.500000*%
%TD*%
%TA.AperFunction,SMDPad,CuDef*%
%ADD29R,0.312473X1.256505*%
%TD*%
%TA.AperFunction,SMDPad,CuDef*%
%ADD30R,0.750000X5.000000*%
%TD*%
%TA.AperFunction,SMDPad,CuDef*%
%ADD31R,3.000000X1.000000*%
%TD*%
%TA.AperFunction,SMDPad,CuDef*%
%ADD32R,2.500000X1.000000*%
%TD*%
%TA.AperFunction,SMDPad,CuDef*%
%ADD33R,0.750000X3.000000*%
%TD*%
%TA.AperFunction,SMDPad,CuDef*%
%ADD34RoundRect,0.250000X0.450000X-0.325000X0.450000X0.325000X-0.450000X0.325000X-0.450000X-0.325000X0*%
%TD*%
%TA.AperFunction,SMDPad,CuDef*%
%ADD35RoundRect,0.150000X-0.350000X0.700000X-0.350000X-0.700000X0.350000X-0.700000X0.350000X0.700000X0*%
%TD*%
%TA.AperFunction,ComponentPad*%
%ADD36RoundRect,0.250000X0.550000X-0.550000X0.550000X0.550000X-0.550000X0.550000X-0.550000X-0.550000X0*%
%TD*%
%TA.AperFunction,ComponentPad*%
%ADD37C,1.600000*%
%TD*%
%TA.AperFunction,ViaPad*%
%ADD38C,0.600000*%
%TD*%
G04 APERTURE END LIST*
D10*
%TO.N,GND*%
X141500000Y-106500000D02*
X142000000Y-108500000D01*
X151500000Y-108500000D01*
X152000000Y-106500000D01*
X149500000Y-106500000D01*
X148500000Y-107500000D01*
X145500000Y-107500000D01*
X144500000Y-106500000D01*
X141500000Y-106500000D01*
%TA.AperFunction,Conductor*%
G36*
X145500000Y-107500000D02*
G01*
X148500000Y-107500000D01*
X149500000Y-106500000D01*
X152000000Y-106500000D01*
X151500000Y-108500000D01*
X142000000Y-108500000D01*
X141500000Y-106500000D01*
X144500000Y-106500000D01*
X145500000Y-107500000D01*
G37*
%TD.AperFunction*%
X143000000Y-54000000D02*
X143000000Y-56000000D01*
X139500000Y-57000000D01*
X139500000Y-66000000D01*
X143000000Y-66500000D01*
X143000000Y-68000000D01*
X139500000Y-69000000D01*
X139500000Y-78000000D01*
X143000000Y-78500000D01*
X143000000Y-80000000D01*
X139500000Y-80500000D01*
X139500000Y-90000000D01*
X143000000Y-90500000D01*
X143000000Y-92000000D01*
X139500000Y-92500000D01*
X139500000Y-99000000D01*
X144500000Y-102000000D01*
X141500000Y-102000000D01*
X140500000Y-101000000D01*
X137500000Y-99000000D01*
X137500000Y-54000000D01*
X143000000Y-54000000D01*
%TA.AperFunction,Conductor*%
G36*
X143000000Y-56000000D02*
G01*
X139500000Y-57000000D01*
X139500000Y-66000000D01*
X143000000Y-66500000D01*
X143000000Y-68000000D01*
X139500000Y-69000000D01*
X139500000Y-78000000D01*
X143000000Y-78500000D01*
X143000000Y-80000000D01*
X139500000Y-80500000D01*
X139500000Y-90000000D01*
X143000000Y-90500000D01*
X143000000Y-92000000D01*
X139500000Y-92500000D01*
X139500000Y-99000000D01*
X144500000Y-102000000D01*
X141500000Y-102000000D01*
X140500000Y-101000000D01*
X137500000Y-99000000D01*
X137500000Y-54000000D01*
X143000000Y-54000000D01*
X143000000Y-56000000D01*
G37*
%TD.AperFunction*%
%TD*%
D11*
%TO.P,SW3,1,1_1*%
%TO.N,Net-(U1-IO9)*%
X163630834Y-105642292D03*
X163630834Y-99342292D03*
%TO.P,SW3,2,2_2*%
%TO.N,AGND*%
X167430834Y-105642292D03*
X167430834Y-99342292D03*
%TD*%
D12*
%TO.P,J8,1,GND_1*%
%TO.N,GND*%
X144000000Y-55000000D03*
D13*
%TO.P,J8,2,VCC_2*%
%TO.N,/fans/INA/BusOut*%
X144000000Y-57540000D03*
%TO.P,J8,3,TAHO_3*%
%TO.N,Net-(J8-TAHO)*%
X144000000Y-60080000D03*
%TO.P,J8,4,PMW_4*%
%TO.N,Net-(J5-PMW)*%
X144000000Y-62620000D03*
%TD*%
D14*
%TO.P,R4,1*%
%TO.N,Net-(U4-AIN3)*%
X171275000Y-66000000D03*
%TO.P,R4,2*%
%TO.N,Net-(J4-Pin_2)*%
X169275000Y-66000000D03*
%TD*%
D15*
%TO.P,R30,1*%
%TO.N,SCL*%
X182000000Y-67500000D03*
%TO.P,R30,2*%
%TO.N,3.3*%
X184000000Y-67500000D03*
%TD*%
D16*
%TO.P,J2,1,Pin_1_1*%
%TO.N,3.3*%
X151000000Y-59885000D03*
D17*
%TO.P,J2,2,Pin_2_2*%
%TO.N,Net-(J2-Pin_2)*%
X153540000Y-59885000D03*
%TD*%
D16*
%TO.P,J4,1,Pin_1_1*%
%TO.N,3.3*%
X169000000Y-59885000D03*
D17*
%TO.P,J4,2,Pin_2_2*%
%TO.N,Net-(J4-Pin_2)*%
X171540000Y-59885000D03*
%TD*%
D16*
%TO.P,J9,1,Pin_1_1*%
%TO.N,AGND*%
X175225000Y-113500000D03*
D17*
%TO.P,J9,2,Pin_2_2*%
%TO.N,3.3*%
X177765000Y-113500000D03*
%TD*%
D15*
%TO.P,R20,1*%
%TO.N,SDA*%
X182000000Y-65000000D03*
%TO.P,R20,2*%
%TO.N,3.3*%
X184000000Y-65000000D03*
%TD*%
D18*
%TO.P,L1,1,1_1*%
%TO.N,Net-(D2-K)*%
X155000000Y-89950000D03*
%TO.P,L1,2,2_2*%
%TO.N,/fans/INA/BusIn*%
X155000000Y-80050000D03*
%TD*%
D19*
%TO.P,U2,1,IN_1*%
%TO.N,+5*%
X175261500Y-69281250D03*
%TO.P,U2,2,GND_2*%
%TO.N,AGND*%
X175261500Y-70231250D03*
%TO.P,U2,3,EN_3*%
%TO.N,+5*%
X175261500Y-71181250D03*
%TO.P,U2,4,NC_4*%
%TO.N,unconnected-(U2-NC-Pad4)*%
X177536500Y-71181250D03*
%TO.P,U2,5,OUT_5*%
%TO.N,3.3*%
X177536500Y-69281250D03*
%TD*%
D20*
%TO.P,SW2,1,1_1*%
%TO.N,Net-(U1-EN)*%
X164342292Y-110630834D03*
X170642292Y-110630834D03*
%TO.P,SW2,2,2_2*%
%TO.N,AGND*%
X164342292Y-114430834D03*
X170642292Y-114430834D03*
%TD*%
D14*
%TO.P,R3,1*%
%TO.N,Net-(U4-AIN2)*%
X178312500Y-66000000D03*
%TO.P,R3,2*%
%TO.N,Net-(J3-Pin_2)*%
X176312500Y-66000000D03*
%TD*%
D21*
%TO.P,C2,1*%
%TO.N,Net-(J3-Pin_2)*%
X176275000Y-63500000D03*
%TO.P,C2,2*%
%TO.N,AGND*%
X178350000Y-63500000D03*
%TD*%
D14*
%TO.P,R27,1*%
%TO.N,AGND*%
X178500000Y-103000000D03*
%TO.P,R27,2*%
%TO.N,Net-(Q3-G)*%
X176500000Y-103000000D03*
%TD*%
D22*
%TO.P,R10,1*%
%TO.N,3.3*%
X154331920Y-73279587D03*
%TO.P,R10,2*%
%TO.N,Net-(U3-EN)*%
X154331920Y-71279587D03*
%TD*%
D23*
%TO.P,C6,1*%
%TO.N,AGND*%
X172399000Y-71268750D03*
%TO.P,C6,2*%
%TO.N,+5*%
X172399000Y-69193750D03*
%TD*%
D24*
%TO.P,Q3,1,G_1*%
%TO.N,Net-(Q3-G)*%
X176550000Y-100637500D03*
%TO.P,Q3,2,S_2*%
%TO.N,AGND*%
X178450000Y-100637500D03*
%TO.P,Q3,3,D_3*%
%TO.N,Net-(BZ1--)*%
X177500000Y-98362500D03*
%TD*%
D22*
%TO.P,R5,1*%
%TO.N,AGND*%
X165775000Y-61000000D03*
%TO.P,R5,2*%
%TO.N,Net-(J1-Pin_2)*%
X165775000Y-59000000D03*
%TD*%
D21*
%TO.P,C4,1*%
%TO.N,Net-(J1-Pin_2)*%
X162237500Y-63460000D03*
%TO.P,C4,2*%
%TO.N,AGND*%
X164312500Y-63460000D03*
%TD*%
D25*
%TO.P,C8,1*%
%TO.N,AGND*%
X151831920Y-71167087D03*
%TO.P,C8,2*%
%TO.N,3.3*%
X151831920Y-73242087D03*
%TD*%
D22*
%TO.P,R7,1*%
%TO.N,AGND*%
X183775000Y-61000000D03*
%TO.P,R7,2*%
%TO.N,Net-(J3-Pin_2)*%
X183775000Y-59000000D03*
%TD*%
D16*
%TO.P,J10,1,Pin_1_1*%
%TO.N,/esp/TXD*%
X182500000Y-111000000D03*
D17*
%TO.P,J10,2,Pin_2_2*%
%TO.N,/esp/RXD*%
X182500000Y-113540000D03*
%TD*%
D12*
%TO.P,J7,1,GND_1*%
%TO.N,GND*%
X144000000Y-91000000D03*
D13*
%TO.P,J7,2,VCC_2*%
%TO.N,/fans/INA/BusOut*%
X144000000Y-93540000D03*
%TO.P,J7,3,TAHO_3*%
%TO.N,Net-(J7-TAHO)*%
X144000000Y-96080000D03*
%TO.P,J7,4,PMW_4*%
%TO.N,Net-(J5-PMW)*%
X144000000Y-98620000D03*
%TD*%
D25*
%TO.P,C7,1*%
%TO.N,AGND*%
X149331920Y-71204587D03*
%TO.P,C7,2*%
%TO.N,3.3*%
X149331920Y-73279587D03*
%TD*%
D26*
%TO.P,U4,1,ADDR_1*%
%TO.N,AGND*%
X163775001Y-68499999D03*
%TO.P,U4,2,ALERT/RDY_2*%
%TO.N,unconnected-(U4-ALERT{slash}RDY-Pad2)*%
X163775001Y-68999998D03*
%TO.P,U4,3,GND_3*%
%TO.N,AGND*%
X163775001Y-69500000D03*
%TO.P,U4,4,AIN0_4*%
%TO.N,Net-(U4-AIN0)*%
X163775001Y-69999999D03*
%TO.P,U4,5,AIN1_5*%
%TO.N,Net-(U4-AIN1)*%
X163775001Y-70500001D03*
%TO.P,U4,6,AIN2_6*%
%TO.N,Net-(U4-AIN2)*%
X168225002Y-70500001D03*
%TO.P,U4,7,AIN3_7*%
%TO.N,Net-(U4-AIN3)*%
X168225002Y-69999999D03*
%TO.P,U4,8,VDD_8*%
%TO.N,3.3*%
X168225002Y-69500000D03*
%TO.P,U4,9,SDA_9*%
%TO.N,SDA*%
X168225002Y-68999998D03*
%TO.P,U4,10,SCL_10*%
%TO.N,SCL*%
X168225002Y-68499999D03*
%TD*%
D12*
%TO.P,J5,1,GND_1*%
%TO.N,GND*%
X144000000Y-79000000D03*
D13*
%TO.P,J5,2,VCC_2*%
%TO.N,/fans/INA/BusOut*%
X144000000Y-81540000D03*
%TO.P,J5,3,TAHO_3*%
%TO.N,Net-(J5-TAHO)*%
X144000000Y-84080000D03*
%TO.P,J5,4,PMW_4*%
%TO.N,Net-(J5-PMW)*%
X144000000Y-86620000D03*
%TD*%
D27*
%TO.P,R15,1*%
%TO.N,Net-(U1-IO1)*%
X179000000Y-108500000D03*
%TO.P,R15,2*%
%TO.N,Net-(D1-A)*%
X179000000Y-110500000D03*
%TD*%
D28*
%TO.P,U1,1,3V3_1*%
%TO.N,3.3*%
X178799000Y-76481250D03*
%TO.P,U1,2,EN_2*%
%TO.N,Net-(U1-EN)*%
X177299000Y-76481250D03*
%TO.P,U1,3,IO4_3*%
%TO.N,SCL*%
X175799000Y-76481250D03*
%TO.P,U1,4,IO5_4*%
%TO.N,SDA*%
X174299000Y-76481250D03*
%TO.P,U1,5,IO6_5*%
%TO.N,/esp/CTRL1*%
X172799000Y-76481250D03*
%TO.P,U1,6,IO7_6*%
%TO.N,/esp/CTRL2*%
X171299000Y-76481250D03*
%TO.P,U1,7,IO8_7*%
%TO.N,/esp/INA_a*%
X169799000Y-76481250D03*
%TO.P,U1,8,IO9_8*%
%TO.N,Net-(U1-IO9)*%
X168299000Y-76481250D03*
%TO.P,U1,9,GND_9*%
%TO.N,AGND*%
X166799000Y-76481250D03*
%TO.P,U1,10,IO10_10*%
%TO.N,/esp/PMW_2*%
X166799000Y-93981250D03*
%TO.P,U1,11,IO20/RXD_11*%
%TO.N,/esp/RXD*%
X168299000Y-93981250D03*
%TO.P,U1,12,IO21/TXD_12*%
%TO.N,/esp/TXD*%
X169799000Y-93981250D03*
%TO.P,U1,13,IO18_13*%
%TO.N,/esp/SPEED*%
X171299000Y-93981250D03*
%TO.P,U1,14,IO19_14*%
%TO.N,Net-(U1-IO19)*%
X172799000Y-93981250D03*
%TO.P,U1,15,IO3_15*%
%TO.N,/esp/fan_on*%
X174299000Y-93981250D03*
%TO.P,U1,16,IO2_16*%
%TO.N,/esp/PMW_4*%
X175799000Y-93981250D03*
%TO.P,U1,17,IO1_17*%
%TO.N,Net-(U1-IO1)*%
X177299000Y-93981250D03*
%TO.P,U1,18,IO0_18*%
%TO.N,Net-(U1-IO0)*%
X178799000Y-93981250D03*
%TD*%
D21*
%TO.P,C3,1*%
%TO.N,Net-(J2-Pin_2)*%
X155237500Y-63500000D03*
%TO.P,C3,2*%
%TO.N,AGND*%
X157312500Y-63500000D03*
%TD*%
%TO.P,C1,1*%
%TO.N,Net-(J4-Pin_2)*%
X169237500Y-63500000D03*
%TO.P,C1,2*%
%TO.N,AGND*%
X171312500Y-63500000D03*
%TD*%
D14*
%TO.P,R2,1*%
%TO.N,Net-(U4-AIN1)*%
X157275000Y-66000000D03*
%TO.P,R2,2*%
%TO.N,Net-(J2-Pin_2)*%
X155275000Y-66000000D03*
%TD*%
D22*
%TO.P,R8,1*%
%TO.N,AGND*%
X174775000Y-61000000D03*
%TO.P,R8,2*%
%TO.N,Net-(J4-Pin_2)*%
X174775000Y-59000000D03*
%TD*%
D16*
%TO.P,J3,1,Pin_1_1*%
%TO.N,3.3*%
X178000000Y-59885000D03*
D17*
%TO.P,J3,2,Pin_2_2*%
%TO.N,Net-(J3-Pin_2)*%
X180540000Y-59885000D03*
%TD*%
D29*
%TO.P,U3,1,A0_1*%
%TO.N,/esp/CTRL1*%
X158331921Y-70228730D03*
%TO.P,U3,2,S1_2*%
%TO.N,Net-(J8-TAHO)*%
X157831919Y-70228730D03*
%TO.P,U3,3,GND_3*%
%TO.N,AGND*%
X157331920Y-70228730D03*
%TO.P,U3,4,S3_4*%
%TO.N,Net-(J6-TAHO)*%
X156831921Y-70228730D03*
%TO.P,U3,5,EN_5*%
%TO.N,Net-(U3-EN)*%
X156331919Y-70228730D03*
%TO.P,U3,6,VDD_6*%
%TO.N,3.3*%
X156331919Y-74330444D03*
%TO.P,U3,7,S4_7*%
%TO.N,Net-(J5-TAHO)*%
X156831921Y-74330444D03*
%TO.P,U3,8,D_8*%
%TO.N,Net-(U3-D)*%
X157331920Y-74330444D03*
%TO.P,U3,9,S2_9*%
%TO.N,Net-(J7-TAHO)*%
X157831919Y-74330444D03*
%TO.P,U3,10,A1_10*%
%TO.N,/esp/CTRL2*%
X158331921Y-74330444D03*
%TD*%
D30*
%TO.P,J11,1,+12_1*%
%TO.N,+12*%
X155800000Y-104250000D03*
X154520000Y-104250000D03*
D31*
X154500000Y-106250000D03*
D30*
X153240000Y-104250000D03*
%TO.P,J11,2,GND_2*%
%TO.N,GND*%
X151960000Y-104250000D03*
D32*
X150500000Y-106250000D03*
D30*
X149400000Y-104250000D03*
%TO.P,J11,3,+5_3*%
%TO.N,+5*%
X148120000Y-104250000D03*
X146840000Y-104250000D03*
D31*
X146700000Y-106250000D03*
D30*
X145560000Y-104250000D03*
%TO.P,J11,4,AGND_4*%
%TO.N,GND*%
X144280000Y-104250000D03*
D31*
X143000000Y-106250000D03*
D30*
X143000000Y-104250000D03*
X141720000Y-104250000D03*
D33*
%TO.P,J11,5*%
%TO.N,N/C*%
X150680000Y-103250000D03*
D30*
%TO.P,J11,6*%
X140440000Y-104250000D03*
%TO.P,J11,7*%
X139160000Y-104250000D03*
%TO.P,J11,8*%
X137880000Y-104250000D03*
%TD*%
D34*
%TO.P,D1,1,K_1*%
%TO.N,AGND*%
X176500000Y-110525000D03*
%TO.P,D1,2,A_2*%
%TO.N,Net-(D1-A)*%
X176500000Y-108475000D03*
%TD*%
D16*
%TO.P,J1,1,Pin_1_1*%
%TO.N,3.3*%
X160000000Y-59885000D03*
D17*
%TO.P,J1,2,Pin_2_2*%
%TO.N,Net-(J1-Pin_2)*%
X162540000Y-59885000D03*
%TD*%
D35*
%TO.P,SW1,1,1_1*%
%TO.N,Net-(R16-Pad2)*%
X172869167Y-99342292D03*
X172869167Y-105642292D03*
%TO.P,SW1,2,2_2*%
%TO.N,AGND*%
X169069167Y-99342292D03*
X169069167Y-105642292D03*
%TD*%
D22*
%TO.P,R6,1*%
%TO.N,AGND*%
X156775000Y-61000000D03*
%TO.P,R6,2*%
%TO.N,Net-(J2-Pin_2)*%
X156775000Y-59000000D03*
%TD*%
D15*
%TO.P,R26,1*%
%TO.N,Net-(Q3-G)*%
X176500000Y-105500000D03*
%TO.P,R26,2*%
%TO.N,Net-(U1-IO0)*%
X178500000Y-105500000D03*
%TD*%
D36*
%TO.P,C10,1*%
%TO.N,GND*%
X148500000Y-97500000D03*
D37*
%TO.P,C10,2*%
%TO.N,/fans/INA/BusOut*%
X148500000Y-94000000D03*
%TD*%
D27*
%TO.P,R16,1*%
%TO.N,Net-(U1-IO19)*%
X174000000Y-108500000D03*
%TO.P,R16,2*%
%TO.N,Net-(R16-Pad2)*%
X174000000Y-110500000D03*
%TD*%
D21*
%TO.P,C5,1*%
%TO.N,AGND*%
X176361500Y-73500000D03*
%TO.P,C5,2*%
%TO.N,3.3*%
X178436500Y-73500000D03*
%TD*%
D12*
%TO.P,J6,1,GND_1*%
%TO.N,GND*%
X144000000Y-67000000D03*
D13*
%TO.P,J6,2,VCC_2*%
%TO.N,/fans/INA/BusOut*%
X144000000Y-69540000D03*
%TO.P,J6,3,TAHO_3*%
%TO.N,Net-(J6-TAHO)*%
X144000000Y-72080000D03*
%TO.P,J6,4,PMW_4*%
%TO.N,Net-(J5-PMW)*%
X144000000Y-74620000D03*
%TD*%
D27*
%TO.P,R14,1*%
%TO.N,3.3*%
X163000000Y-75000000D03*
%TO.P,R14,2*%
%TO.N,Net-(U3-D)*%
X163000000Y-77000000D03*
%TD*%
D14*
%TO.P,R1,1*%
%TO.N,Net-(U4-AIN0)*%
X164275000Y-65960000D03*
%TO.P,R1,2*%
%TO.N,Net-(J1-Pin_2)*%
X162275000Y-65960000D03*
%TD*%
D16*
%TO.P,BZ1,1,+_1*%
%TO.N,3.3*%
X182500000Y-102725000D03*
D17*
%TO.P,BZ1,2,-_2*%
%TO.N,Net-(BZ1--)*%
X182500000Y-105265000D03*
%TD*%
D38*
%TO.N,Net-(U1-IO9)*%
X162792185Y-95792185D03*
X167000000Y-88000000D03*
X163399000Y-88500000D03*
X172000000Y-80500000D03*
X169500000Y-87500000D03*
X164015628Y-97400000D03*
X168000000Y-75000000D03*
X171400000Y-79000000D03*
%TO.N,AGND*%
X161500000Y-69399999D03*
X153500000Y-67279587D03*
X166500000Y-98000000D03*
X170000000Y-74399000D03*
X170400000Y-104500000D03*
X179943235Y-103556765D03*
X151400000Y-98900000D03*
X158812500Y-62000000D03*
X166500000Y-75000000D03*
X162000000Y-96500000D03*
X169100000Y-92500000D03*
X173815125Y-72684875D03*
X152000000Y-100700000D03*
X174500000Y-103000000D03*
X167000000Y-92500000D03*
X174500000Y-106500000D03*
X164875735Y-73775735D03*
X154000000Y-62000000D03*
X164000000Y-93500000D03*
X154500000Y-69798337D03*
%TO.N,GND*%
X150000000Y-100700000D03*
X135500000Y-80500000D03*
X153971250Y-84083750D03*
X135500000Y-92000000D03*
X158575000Y-83980000D03*
X135500000Y-68500000D03*
X136000000Y-56500000D03*
%TO.N,/fans/INA/BusOut*%
X146500000Y-64000000D03*
X146427103Y-71072897D03*
X146500000Y-84000000D03*
X146500000Y-92000000D03*
%TO.N,Net-(J5-PMW)*%
X148900000Y-100100000D03*
X166500000Y-96300003D03*
X167900000Y-90000000D03*
X145500000Y-85500000D03*
X146500000Y-82500000D03*
X169500000Y-90000000D03*
%TO.N,Net-(U4-AIN3)*%
X169773638Y-70472568D03*
X170000000Y-67899999D03*
%TO.N,Net-(J4-Pin_2)*%
X167000000Y-63500000D03*
%TO.N,SCL*%
X179299000Y-68000000D03*
X175000000Y-74500000D03*
X180500000Y-68000000D03*
%TO.N,3.3*%
X158503944Y-76507534D03*
X171667848Y-68146578D03*
X163598000Y-79557470D03*
X162000000Y-73600000D03*
X183500000Y-63500000D03*
X168807178Y-71900000D03*
X163000000Y-71900000D03*
X169825734Y-69674264D03*
X156934060Y-77004073D03*
X162207815Y-99207815D03*
X178799000Y-75000000D03*
X166000000Y-107400000D03*
X163999000Y-92500000D03*
X165500000Y-71900000D03*
X182000000Y-62000000D03*
%TO.N,SDA*%
X173500000Y-75000000D03*
X180500000Y-65000000D03*
%TO.N,Net-(D2-K)*%
X161000000Y-85500000D03*
%TO.N,/fans/INA/BusIn*%
X152000000Y-62000000D03*
X150000000Y-83500000D03*
X149500000Y-67000000D03*
X153500000Y-77500000D03*
X158500000Y-79000000D03*
%TO.N,+5*%
X174000000Y-69281250D03*
X174000000Y-71500000D03*
X150600000Y-99500000D03*
X169375735Y-73724265D03*
%TO.N,Net-(U1-EN)*%
X173500000Y-97500000D03*
X177500000Y-75000000D03*
%TO.N,Net-(U4-AIN2)*%
X169500000Y-71500000D03*
X172500000Y-67546578D03*
%TO.N,Net-(J3-Pin_2)*%
X174500000Y-63500000D03*
%TO.N,Net-(J1-Pin_2)*%
X160500000Y-63000000D03*
%TO.N,/esp/TXD*%
X170000000Y-96000000D03*
%TO.N,/esp/RXD*%
X168500000Y-96000000D03*
%TO.N,Net-(J7-TAHO)*%
X158132919Y-75798772D03*
X154434313Y-75600000D03*
%TO.N,Net-(J5-TAHO)*%
X155000000Y-75000000D03*
X156931919Y-75779587D03*
%TO.N,/esp/INA_a*%
X169384610Y-75115390D03*
%TO.N,/esp/PMW_2*%
X163000000Y-94500000D03*
X166000000Y-95500000D03*
X159500000Y-96500000D03*
%TO.N,/esp/SPEED*%
X171000000Y-96000000D03*
%TO.N,Net-(U1-IO19)*%
X172500000Y-96000000D03*
X174000000Y-102000000D03*
%TO.N,/esp/fan_on*%
X167500000Y-97000000D03*
%TO.N,/esp/PMW_4*%
X175500000Y-95500000D03*
%TO.N,Net-(U1-IO0)*%
X179000000Y-96000000D03*
X180000000Y-105000000D03*
%TO.N,Net-(J6-TAHO)*%
X155681920Y-68879587D03*
X153916677Y-68859521D03*
%TO.N,Net-(U3-D)*%
X163999000Y-82500000D03*
%TO.N,+12*%
X154000000Y-107500000D03*
%TO.N,Net-(U5-V_{FB})*%
X157537500Y-92500000D03*
X162037500Y-85500000D03*
X155575000Y-93580000D03*
%TO.N,Net-(Q1-D)*%
X160500000Y-98000000D03*
X155000000Y-87000000D03*
%TO.N,Net-(U6-~{Alert})*%
X167500000Y-67500000D03*
X167500000Y-65400000D03*
%TO.N,Net-(Q1-G)*%
X148000000Y-111000000D03*
X159000000Y-108250000D03*
%TD*%
%TO.N,Net-(U1-IO9)*%
D10*
X163630834Y-97784794D02*
X164015628Y-97400000D01*
X171400000Y-79900000D02*
X172000000Y-80500000D01*
X163630834Y-105642292D02*
X163630834Y-99342292D01*
X169000000Y-88000000D02*
X169500000Y-87500000D01*
X167000000Y-88000000D02*
X169000000Y-88000000D01*
X163399000Y-94050471D02*
X163600000Y-94251471D01*
X163496357Y-99207815D02*
X163630834Y-99342292D01*
X163600000Y-94251471D02*
X163600000Y-94984370D01*
X163630834Y-99342292D02*
X163630834Y-97784794D01*
X163600000Y-94984370D02*
X162792185Y-95792185D01*
X171400000Y-79000000D02*
X171400000Y-79900000D01*
X163399000Y-88500000D02*
X163399000Y-94050471D01*
X168000000Y-76182250D02*
X168299000Y-76481250D01*
X168000000Y-75000000D02*
X168000000Y-76182250D01*
%TO.N,AGND*%
X162400000Y-68499999D02*
X161500000Y-69399999D01*
X175225000Y-113500000D02*
X175225000Y-111800000D01*
X170642292Y-114430834D02*
X174294166Y-114430834D01*
X172399000Y-71268750D02*
X173815125Y-72684875D01*
X182000000Y-63500000D02*
X178350000Y-63500000D01*
X162852500Y-62000000D02*
X158812500Y-62000000D01*
X156267266Y-68279587D02*
X155220413Y-68279587D01*
X157331920Y-70228730D02*
X157331920Y-69344241D01*
X167430834Y-105642292D02*
X169069167Y-105642292D01*
X149331920Y-71204587D02*
X151794420Y-71204587D01*
X169069167Y-105642292D02*
X169257708Y-105642292D01*
X164599000Y-94833900D02*
X162000000Y-97432900D01*
X151599000Y-99099000D02*
X151400000Y-98900000D01*
X163775001Y-69500000D02*
X161600001Y-69500000D01*
X164342292Y-114430834D02*
X170642292Y-114430834D01*
X165775000Y-61225000D02*
X164312500Y-62687500D01*
X172399000Y-71268750D02*
X173436500Y-70231250D01*
X157775000Y-62000000D02*
X156775000Y-61000000D01*
X169069167Y-99342292D02*
X169069167Y-105642292D01*
X171312500Y-63500000D02*
X169812500Y-62000000D01*
X162000000Y-96500000D02*
X162000000Y-97432900D01*
X167430834Y-98930834D02*
X166500000Y-98000000D01*
X152000000Y-100700000D02*
X151960000Y-100740000D01*
X161716450Y-97716450D02*
X160333900Y-99099000D01*
X169812500Y-62000000D02*
X166775000Y-62000000D01*
X158812500Y-62000000D02*
X157312500Y-63500000D01*
X174294166Y-114430834D02*
X175225000Y-113500000D01*
X151794420Y-71204587D02*
X151831920Y-71167087D01*
X175850000Y-61000000D02*
X174775000Y-61000000D01*
X164000000Y-93500000D02*
X164000000Y-93901000D01*
X164312500Y-62687500D02*
X164312500Y-63460000D01*
X176361500Y-73500000D02*
X175774000Y-73500000D01*
X161600001Y-69500000D02*
X161500000Y-69399999D01*
X178450000Y-102950000D02*
X178500000Y-103000000D01*
X178500000Y-103000000D02*
X179386470Y-103000000D01*
X157331920Y-69344241D02*
X156267266Y-68279587D01*
X179386470Y-103000000D02*
X179943235Y-103556765D01*
X153500000Y-99099000D02*
X151599000Y-99099000D01*
X163775001Y-68499999D02*
X162400000Y-68499999D01*
X178450000Y-100637500D02*
X178450000Y-102950000D01*
X167430834Y-99342292D02*
X169069167Y-99342292D01*
X164599000Y-74052470D02*
X164599000Y-93500000D01*
X173815125Y-72684875D02*
X174630250Y-73500000D01*
X166500000Y-75000000D02*
X167101000Y-74399000D01*
X162000000Y-97432900D02*
X161716450Y-97716450D01*
X167000000Y-92500000D02*
X169100000Y-92500000D01*
X183775000Y-61000000D02*
X183775000Y-61725000D01*
X154500000Y-69000000D02*
X155220413Y-68279587D01*
X167101000Y-74399000D02*
X170000000Y-74399000D01*
X153500000Y-67279587D02*
X153500000Y-62500000D01*
X173812500Y-61000000D02*
X171312500Y-63500000D01*
X154500000Y-69798337D02*
X154500000Y-69000000D01*
X164599000Y-93500000D02*
X164599000Y-94500000D01*
X183775000Y-61725000D02*
X182000000Y-63500000D01*
X169257708Y-105642292D02*
X170400000Y-104500000D01*
X166775000Y-62000000D02*
X165775000Y-61000000D01*
X167430834Y-99342292D02*
X167430834Y-98930834D01*
X173436500Y-70231250D02*
X175261500Y-70231250D01*
X165775000Y-61000000D02*
X165775000Y-61225000D01*
X166799000Y-76481250D02*
X166799000Y-75299000D01*
X158812500Y-62000000D02*
X157775000Y-62000000D01*
X164000000Y-93901000D02*
X164599000Y-94500000D01*
X160333900Y-99099000D02*
X153500000Y-99099000D01*
X174630250Y-73500000D02*
X176361500Y-73500000D01*
X164599000Y-94500000D02*
X164599000Y-94833900D01*
X164875735Y-73775735D02*
X164599000Y-74052470D01*
X154500000Y-69798337D02*
X153200670Y-69798337D01*
X178350000Y-63500000D02*
X175850000Y-61000000D01*
X153500000Y-62500000D02*
X154000000Y-62000000D01*
X153200670Y-69798337D02*
X151831920Y-71167087D01*
X164312500Y-63460000D02*
X162852500Y-62000000D01*
X167430834Y-99342292D02*
X167430834Y-105642292D01*
X166799000Y-75299000D02*
X166500000Y-75000000D01*
X175225000Y-111800000D02*
X176500000Y-110525000D01*
X174775000Y-61000000D02*
X173812500Y-61000000D01*
X174500000Y-103000000D02*
X174500000Y-106500000D01*
%TO.N,GND*%
X144000000Y-79000000D02*
X137000000Y-79000000D01*
X136500000Y-91000000D02*
X135500000Y-92000000D01*
X137500000Y-55000000D02*
X144000000Y-55000000D01*
X135500000Y-68500000D02*
X137000000Y-67000000D01*
X143000000Y-106500000D02*
X143000000Y-106250000D01*
X137000000Y-67000000D02*
X144000000Y-67000000D01*
X158575000Y-83980000D02*
X154075000Y-83980000D01*
X137000000Y-79000000D02*
X135500000Y-80500000D01*
X149400000Y-104250000D02*
X149400000Y-101300000D01*
X149400000Y-101300000D02*
X150000000Y-100700000D01*
X144000000Y-91000000D02*
X136500000Y-91000000D01*
X154075000Y-83980000D02*
X153971250Y-84083750D01*
X144280000Y-101720000D02*
X148500000Y-97500000D01*
X144280000Y-104250000D02*
X144280000Y-101720000D01*
X150500000Y-106500000D02*
X150500000Y-106250000D01*
X136000000Y-56500000D02*
X137500000Y-55000000D01*
%TO.N,/fans/INA/BusOut*%
X146500000Y-67040000D02*
X146500000Y-64000000D01*
X147000000Y-71767794D02*
X147000000Y-78500000D01*
X144000000Y-69540000D02*
X146500000Y-67040000D01*
X144000000Y-81500000D02*
X144000000Y-81540000D01*
X146427103Y-71072897D02*
X146427103Y-71194897D01*
X146500000Y-92000000D02*
X146500000Y-84000000D01*
X144960000Y-93540000D02*
X144000000Y-93540000D01*
X146500000Y-92000000D02*
X144960000Y-93540000D01*
X146427103Y-71194897D02*
X147000000Y-71767794D01*
X147000000Y-78500000D02*
X144000000Y-81500000D01*
%TO.N,Net-(J8-TAHO)*%
X156715796Y-67879587D02*
X148379587Y-67879587D01*
X148000000Y-64000000D02*
X144080000Y-60080000D01*
X157831919Y-70228730D02*
X157831919Y-68995710D01*
X148379587Y-67879587D02*
X148000000Y-67500000D01*
X157831919Y-68995710D02*
X157389218Y-68553009D01*
X157389218Y-68553009D02*
X156715796Y-67879587D01*
X144080000Y-60080000D02*
X144000000Y-60080000D01*
X148000000Y-67500000D02*
X148000000Y-64000000D01*
%TO.N,Net-(J5-PMW)*%
X145500000Y-83500000D02*
X146500000Y-82500000D01*
X160467100Y-100100000D02*
X164267097Y-96300003D01*
X145500000Y-85500000D02*
X145500000Y-83500000D01*
X148900000Y-100100000D02*
X160467100Y-100100000D01*
X169500000Y-90000000D02*
X167900000Y-90000000D01*
X164267097Y-96300003D02*
X166500000Y-96300003D01*
%TO.N,Net-(U4-AIN3)*%
X171275000Y-66624999D02*
X171275000Y-66000000D01*
X169773753Y-70472453D02*
X169773753Y-70470812D01*
X170000000Y-67899999D02*
X171275000Y-66624999D01*
X169773638Y-70472568D02*
X169773753Y-70472453D01*
X169773753Y-70470812D02*
X169302940Y-69999999D01*
X170900000Y-66000000D02*
X171275000Y-66000000D01*
X169302940Y-69999999D02*
X168225002Y-69999999D01*
%TO.N,Net-(J4-Pin_2)*%
X167000000Y-63500000D02*
X169237500Y-63500000D01*
X172425000Y-59000000D02*
X174775000Y-59000000D01*
X171540000Y-59885000D02*
X172425000Y-59000000D01*
X169237500Y-63500000D02*
X169237500Y-64262500D01*
X169275000Y-64300000D02*
X169275000Y-66000000D01*
X169237500Y-64262500D02*
X169275000Y-64300000D01*
%TO.N,SCL*%
X180500000Y-68000000D02*
X179299000Y-68000000D01*
X182000000Y-67500000D02*
X181000000Y-67500000D01*
X175000000Y-74500000D02*
X174500000Y-74000000D01*
X171000000Y-69000000D02*
X170499999Y-68499999D01*
X171000000Y-72500000D02*
X171000000Y-69000000D01*
X175000000Y-74500000D02*
X175799000Y-75299000D01*
X170499999Y-68499999D02*
X168225002Y-68499999D01*
X181000000Y-67500000D02*
X180500000Y-68000000D01*
X174500000Y-74000000D02*
X172500000Y-74000000D01*
X172500000Y-74000000D02*
X171000000Y-72500000D01*
X175799000Y-75299000D02*
X175799000Y-76481250D01*
%TO.N,3.3*%
X178799000Y-75000000D02*
X178799000Y-73862500D01*
X178799000Y-73862500D02*
X178436500Y-73500000D01*
X176401828Y-68146578D02*
X177536500Y-69281250D01*
X162207815Y-106707815D02*
X163000000Y-107500000D01*
X162385000Y-57500000D02*
X167000000Y-57500000D01*
X180115000Y-62000000D02*
X178000000Y-59885000D01*
X156331919Y-74330444D02*
X156331919Y-76401932D01*
X182000000Y-62000000D02*
X180115000Y-62000000D01*
X160000000Y-59885000D02*
X162385000Y-57500000D01*
X156331919Y-76401932D02*
X156934060Y-77004073D01*
X181256250Y-70243750D02*
X184000000Y-67500000D01*
X165500000Y-71900000D02*
X168807178Y-71900000D01*
X184000000Y-65000000D02*
X184000000Y-67500000D01*
X153385000Y-57500000D02*
X157615000Y-57500000D01*
X162000000Y-74000000D02*
X163000000Y-75000000D01*
X157615000Y-57500000D02*
X160000000Y-59885000D01*
X169651470Y-69500000D02*
X169825734Y-69674264D01*
X163398000Y-79757470D02*
X163598000Y-79557470D01*
X178799000Y-76481250D02*
X178799000Y-75000000D01*
X163000000Y-71900000D02*
X165500000Y-71900000D01*
X149331920Y-73279587D02*
X154331920Y-73279587D01*
X163000000Y-107500000D02*
X165900000Y-107500000D01*
X163999000Y-92500000D02*
X164000000Y-92500000D01*
X163398000Y-83200000D02*
X163398000Y-79757470D01*
X154331920Y-73279587D02*
X155601000Y-74548667D01*
X158503944Y-76507534D02*
X159092466Y-76507534D01*
X171667848Y-68146578D02*
X176401828Y-68146578D01*
X168225002Y-69500000D02*
X169651470Y-69500000D01*
X164198000Y-84000000D02*
X163398000Y-83200000D01*
X162207815Y-99207815D02*
X162207815Y-106707815D01*
X178499000Y-70243750D02*
X178499000Y-73437500D01*
X178499000Y-70243750D02*
X181256250Y-70243750D01*
X167000000Y-57500000D02*
X169000000Y-59500000D01*
X184000000Y-65000000D02*
X184000000Y-64000000D01*
X159092466Y-76507534D02*
X162000000Y-73600000D01*
X165900000Y-107500000D02*
X166000000Y-107400000D01*
X164000000Y-92500000D02*
X164198000Y-92302000D01*
X169000000Y-59500000D02*
X169000000Y-59885000D01*
X184000000Y-64000000D02*
X183500000Y-63500000D01*
X169000000Y-59885000D02*
X171385000Y-57500000D01*
X162000000Y-73600000D02*
X162000000Y-74000000D01*
X175615000Y-57500000D02*
X178000000Y-59885000D01*
X155601000Y-75671013D02*
X156934060Y-77004073D01*
X155601000Y-74548667D02*
X155601000Y-75671013D01*
X177536500Y-69281250D02*
X178499000Y-70243750D01*
X171385000Y-57500000D02*
X175615000Y-57500000D01*
X178499000Y-73437500D02*
X178436500Y-73500000D01*
X164198000Y-92302000D02*
X164198000Y-84000000D01*
X151000000Y-59885000D02*
X153385000Y-57500000D01*
%TO.N,Net-(J2-Pin_2)*%
X155275000Y-61620000D02*
X155275000Y-66000000D01*
X154425000Y-59000000D02*
X156775000Y-59000000D01*
X153540000Y-59885000D02*
X154425000Y-59000000D01*
X153540000Y-59885000D02*
X155275000Y-61620000D01*
%TO.N,SDA*%
X174299000Y-75201000D02*
X174299000Y-76481250D01*
X169999998Y-68999998D02*
X170500000Y-69500000D01*
X168225002Y-68999998D02*
X169999998Y-68999998D01*
X170500000Y-69500000D02*
X170500000Y-72565685D01*
X173500000Y-75000000D02*
X174098000Y-75000000D01*
X170500000Y-72565685D02*
X172934315Y-75000000D01*
X172934315Y-75000000D02*
X173500000Y-75000000D01*
X182000000Y-65000000D02*
X180500000Y-65000000D01*
X174098000Y-75000000D02*
X174299000Y-75201000D01*
%TO.N,Net-(D2-K)*%
X155000000Y-89950000D02*
X156550000Y-89950000D01*
X156550000Y-89950000D02*
X161000000Y-85500000D01*
%TO.N,/fans/INA/BusIn*%
X155000000Y-80050000D02*
X153500000Y-78550000D01*
X150000000Y-83500000D02*
X153450000Y-80050000D01*
X149500000Y-67000000D02*
X149500000Y-64500000D01*
X155000000Y-80050000D02*
X156050000Y-79000000D01*
X149500000Y-64500000D02*
X152000000Y-62000000D01*
X156050000Y-79000000D02*
X158500000Y-79000000D01*
X153500000Y-78550000D02*
X153500000Y-77500000D01*
X153450000Y-80050000D02*
X155000000Y-80050000D01*
%TO.N,+5*%
X148000000Y-100067100D02*
X148567100Y-99500000D01*
X169151470Y-73500000D02*
X169375735Y-73724265D01*
X148120000Y-100447100D02*
X148000000Y-100327100D01*
X165000000Y-74500000D02*
X166000000Y-73500000D01*
X175261500Y-71181250D02*
X174318750Y-71181250D01*
X150000000Y-99500000D02*
X150500000Y-99500000D01*
X165000000Y-95000000D02*
X165000000Y-74500000D01*
X150000000Y-99500000D02*
X160500000Y-99500000D01*
X148120000Y-104250000D02*
X148120000Y-100447100D01*
X175261500Y-69281250D02*
X174000000Y-69281250D01*
X148567100Y-99500000D02*
X150000000Y-99500000D01*
X174000000Y-69281250D02*
X172486500Y-69281250D01*
X172486500Y-69281250D02*
X172399000Y-69193750D01*
X148000000Y-100327100D02*
X148000000Y-100067100D01*
X160500000Y-99500000D02*
X165000000Y-95000000D01*
X174318750Y-71181250D02*
X174000000Y-71500000D01*
X166000000Y-73500000D02*
X169151470Y-73500000D01*
%TO.N,Net-(U1-EN)*%
X171000000Y-98500000D02*
X171000000Y-105000000D01*
X172000000Y-97500000D02*
X171000000Y-98500000D01*
X171000000Y-105000000D02*
X170642292Y-105357708D01*
X173500000Y-97500000D02*
X172000000Y-97500000D01*
X177000000Y-76182250D02*
X177299000Y-76481250D01*
X177299000Y-76481250D02*
X177299000Y-75201000D01*
X164342292Y-110630834D02*
X170642292Y-110630834D01*
X177299000Y-75201000D02*
X177500000Y-75000000D01*
X170642292Y-105357708D02*
X170642292Y-110630834D01*
%TO.N,Net-(U4-AIN2)*%
X168500001Y-70500001D02*
X169500000Y-71500000D01*
X172500000Y-67546578D02*
X172546578Y-67500000D01*
X172546578Y-67500000D02*
X176812500Y-67500000D01*
X176812500Y-67500000D02*
X178312500Y-66000000D01*
X168225002Y-70500001D02*
X168500001Y-70500001D01*
%TO.N,Net-(J3-Pin_2)*%
X176275000Y-63500000D02*
X176275000Y-65962500D01*
X180540000Y-59885000D02*
X181425000Y-59000000D01*
X176275000Y-65962500D02*
X176312500Y-66000000D01*
X174500000Y-63500000D02*
X176275000Y-63500000D01*
X181425000Y-59000000D02*
X183775000Y-59000000D01*
%TO.N,Net-(Q3-G)*%
X176550000Y-105450000D02*
X176500000Y-105500000D01*
X176550000Y-100637500D02*
X176550000Y-105450000D01*
%TO.N,Net-(U3-EN)*%
X155500000Y-69500000D02*
X155500000Y-70111507D01*
X155500000Y-70111507D02*
X154331920Y-71279587D01*
X156331919Y-70228730D02*
X156331919Y-69831919D01*
X156000000Y-69500000D02*
X155500000Y-69500000D01*
X156331919Y-69831919D02*
X156000000Y-69500000D01*
%TO.N,Net-(BZ1--)*%
X179051000Y-99913500D02*
X177500000Y-98362500D01*
X182500000Y-105265000D02*
X179051000Y-101816000D01*
X179051000Y-101816000D02*
X179051000Y-99913500D01*
%TO.N,Net-(J1-Pin_2)*%
X161777500Y-63000000D02*
X162237500Y-63460000D01*
X160500000Y-63000000D02*
X161777500Y-63000000D01*
X162540000Y-59885000D02*
X163425000Y-59000000D01*
X163425000Y-59000000D02*
X165775000Y-59000000D01*
X162237500Y-65922500D02*
X162275000Y-65960000D01*
X162237500Y-63460000D02*
X162237500Y-65922500D01*
%TO.N,/esp/TXD*%
X169799000Y-95799000D02*
X169799000Y-93981250D01*
X170000000Y-96000000D02*
X169799000Y-95799000D01*
%TO.N,/esp/RXD*%
X168299000Y-95799000D02*
X168500000Y-96000000D01*
X168299000Y-93981250D02*
X168299000Y-95799000D01*
%TO.N,Net-(J7-TAHO)*%
X154434313Y-75600000D02*
X149400000Y-75600000D01*
X147500000Y-81500000D02*
X147500000Y-92580000D01*
X157831919Y-75149832D02*
X157933919Y-75251832D01*
X157933919Y-75251832D02*
X157933919Y-75599772D01*
X149400000Y-75600000D02*
X148500000Y-76500000D01*
X147500000Y-92580000D02*
X144000000Y-96080000D01*
X148500000Y-80500000D02*
X147500000Y-81500000D01*
X157831919Y-74330444D02*
X157831919Y-75149832D01*
X157933919Y-75599772D02*
X158132919Y-75798772D01*
X148500000Y-76500000D02*
X148500000Y-80500000D01*
%TO.N,Net-(U4-AIN0)*%
X162735000Y-67500000D02*
X164275000Y-65960000D01*
X160000000Y-68934314D02*
X160000000Y-68000000D01*
X160500000Y-67500000D02*
X162735000Y-67500000D01*
X160000000Y-68000000D02*
X160500000Y-67500000D01*
X163775001Y-69999999D02*
X161065685Y-69999999D01*
X161065685Y-69999999D02*
X160000000Y-68934314D01*
%TO.N,Net-(U4-AIN1)*%
X161000001Y-70500001D02*
X157275000Y-66775000D01*
X157275000Y-66775000D02*
X157275000Y-66000000D01*
X163775001Y-70500001D02*
X161000001Y-70500001D01*
%TO.N,Net-(J5-TAHO)*%
X155000000Y-75000000D02*
X148500000Y-75000000D01*
X156831921Y-75679589D02*
X156931919Y-75779587D01*
X148000000Y-80080000D02*
X144000000Y-84080000D01*
X156831921Y-74330444D02*
X156831921Y-75679589D01*
X148500000Y-75000000D02*
X148000000Y-75500000D01*
X148000000Y-75500000D02*
X148000000Y-80080000D01*
%TO.N,Net-(U1-IO1)*%
X177299000Y-94931250D02*
X177299000Y-93981250D01*
X175902000Y-106501000D02*
X175000000Y-105599000D01*
X175000000Y-104500000D02*
X175101000Y-104399000D01*
X175101000Y-97129250D02*
X177299000Y-94931250D01*
X177001000Y-106501000D02*
X175902000Y-106501000D01*
X175000000Y-105599000D02*
X175000000Y-104500000D01*
X175101000Y-104399000D02*
X175101000Y-97129250D01*
X179000000Y-108500000D02*
X177001000Y-106501000D01*
%TO.N,Net-(D1-A)*%
X179000000Y-110500000D02*
X178525000Y-110500000D01*
X178525000Y-110500000D02*
X176500000Y-108475000D01*
%TO.N,/esp/CTRL1*%
X158331921Y-69168079D02*
X158500000Y-69000000D01*
X169868629Y-72500000D02*
X172799000Y-75430371D01*
X158934314Y-69000000D02*
X162434314Y-72500000D01*
X158331921Y-70228730D02*
X158331921Y-69168079D01*
X158500000Y-69000000D02*
X158934314Y-69000000D01*
X172799000Y-75430371D02*
X172799000Y-76481250D01*
X162434314Y-72500000D02*
X169868629Y-72500000D01*
%TO.N,/esp/CTRL2*%
X161500000Y-73000000D02*
X169500000Y-73000000D01*
X158331921Y-74330444D02*
X158331921Y-75149246D01*
X158331921Y-75149246D02*
X158562262Y-75379587D01*
X171299000Y-74799000D02*
X171299000Y-76481250D01*
X159120413Y-75379587D02*
X161500000Y-73000000D01*
X169500000Y-73000000D02*
X171299000Y-74799000D01*
X158562262Y-75379587D02*
X159120413Y-75379587D01*
%TO.N,/esp/INA_a*%
X169799000Y-76481250D02*
X169799000Y-75529780D01*
X169799000Y-75529780D02*
X169384610Y-75115390D01*
%TO.N,/esp/PMW_2*%
X167000000Y-94182250D02*
X166799000Y-93981250D01*
X166000000Y-95500000D02*
X167000000Y-94500000D01*
X159500000Y-96500000D02*
X161000000Y-96500000D01*
X167000000Y-94500000D02*
X167000000Y-94182250D01*
X161000000Y-96500000D02*
X163000000Y-94500000D01*
%TO.N,/esp/SPEED*%
X171000000Y-95500000D02*
X171299000Y-95201000D01*
X171000000Y-96000000D02*
X171000000Y-95500000D01*
X171299000Y-95201000D02*
X171299000Y-93981250D01*
%TO.N,Net-(U1-IO19)*%
X173899000Y-108399000D02*
X174000000Y-108500000D01*
X172799000Y-93981250D02*
X172799000Y-95701000D01*
X173899000Y-102101000D02*
X173899000Y-108399000D01*
X174000000Y-102000000D02*
X173899000Y-102101000D01*
X172799000Y-95701000D02*
X172500000Y-96000000D01*
%TO.N,/esp/fan_on*%
X174500000Y-95500000D02*
X174500000Y-94182250D01*
X174500000Y-95500000D02*
X173000000Y-97000000D01*
X174500000Y-94182250D02*
X174299000Y-93981250D01*
X167500000Y-97000000D02*
X173000000Y-97000000D01*
%TO.N,/esp/PMW_4*%
X175799000Y-93981250D02*
X175799000Y-95201000D01*
X175799000Y-95201000D02*
X175500000Y-95500000D01*
%TO.N,Net-(U1-IO0)*%
X178500000Y-105500000D02*
X179500000Y-105500000D01*
X179500000Y-105500000D02*
X180000000Y-105000000D01*
X179000000Y-96000000D02*
X178799000Y-95799000D01*
X178799000Y-95799000D02*
X178799000Y-93981250D01*
%TO.N,Net-(J6-TAHO)*%
X147080000Y-69000000D02*
X144000000Y-72080000D01*
X156831921Y-69409928D02*
X156301580Y-68879587D01*
X153776198Y-69000000D02*
X147080000Y-69000000D01*
X156301580Y-68879587D02*
X155681920Y-68879587D01*
X153916677Y-68859521D02*
X153776198Y-69000000D01*
X156831921Y-70228730D02*
X156831921Y-69409928D01*
%TO.N,Net-(U3-D)*%
X157331920Y-74330444D02*
X157331920Y-75216933D01*
X162892466Y-77107534D02*
X158140453Y-77107534D01*
X164198000Y-82301000D02*
X164198000Y-78198000D01*
X157532919Y-75417932D02*
X157532919Y-76500000D01*
X157331920Y-75216933D02*
X157532919Y-75417932D01*
X158140453Y-77107534D02*
X157532919Y-76500000D01*
X163000000Y-77000000D02*
X162892466Y-77107534D01*
X164198000Y-78198000D02*
X163000000Y-77000000D01*
X163999000Y-82500000D02*
X164198000Y-82301000D01*
%TO.N,+12*%
X154000000Y-106750000D02*
X154500000Y-106250000D01*
X154000000Y-107500000D02*
X154000000Y-106750000D01*
%TO.N,Net-(R16-Pad2)*%
X172869167Y-99342292D02*
X172869167Y-105642292D01*
X172869167Y-109369167D02*
X174000000Y-110500000D01*
X172869167Y-105642292D02*
X172869167Y-109369167D01*
%TO.N,Net-(U5-V_{FB})*%
X155575000Y-93580000D02*
X155655000Y-93500000D01*
X162037500Y-89462500D02*
X159000000Y-92500000D01*
X162037500Y-85500000D02*
X162037500Y-89462500D01*
X156537500Y-93500000D02*
X157537500Y-92500000D01*
X155655000Y-93500000D02*
X156537500Y-93500000D01*
X159000000Y-92500000D02*
X157537500Y-92500000D01*
%TO.N,Net-(Q1-D)*%
X153000000Y-98500000D02*
X160000000Y-98500000D01*
X152000000Y-87000000D02*
X151000000Y-88000000D01*
X151000000Y-96500000D02*
X153000000Y-98500000D01*
X155000000Y-87000000D02*
X152000000Y-87000000D01*
X151000000Y-88000000D02*
X151000000Y-96500000D01*
X160000000Y-98500000D02*
X160500000Y-98000000D01*
%TO.N,Net-(U6-~{Alert})*%
X167500000Y-67500000D02*
X167500000Y-65400000D01*
%TO.N,Net-(Q1-G)*%
X157250000Y-110000000D02*
X159000000Y-108250000D01*
X149000000Y-110000000D02*
X157250000Y-110000000D01*
X148000000Y-111000000D02*
X149000000Y-110000000D01*
%TD*%
M02*
