%TF.GenerationSoftware,KiCad,Pcbnew,10.0.3*%
%TF.CreationDate,2026-06-15T13:46:08+02:00*%
%TF.ProjectId,main,6d61696e-2e6b-4696-9361-645f70636258,rev?*%
%TF.SameCoordinates,Original*%
%TF.FileFunction,AssemblyDrawing,Top*%
%FSLAX46Y46*%
G04 Gerber Fmt 4.6, Leading zero omitted, Abs format (unit mm)*
G04 Created by KiCad (PCBNEW 10.0.3) date 2026-06-15 13:46:08*
%MOMM*%
%LPD*%
G01*
G04 APERTURE LIST*
%ADD10C,0.150000*%
%ADD11C,0.080000*%
%ADD12C,0.110000*%
%ADD13C,0.100000*%
%ADD14C,0.127000*%
G04 APERTURE END LIST*
D10*
X145204819Y-57183333D02*
X145919104Y-57183333D01*
X145919104Y-57183333D02*
X146061961Y-57230952D01*
X146061961Y-57230952D02*
X146157200Y-57326190D01*
X146157200Y-57326190D02*
X146204819Y-57469047D01*
X146204819Y-57469047D02*
X146204819Y-57564285D01*
X145633390Y-56564285D02*
X145585771Y-56659523D01*
X145585771Y-56659523D02*
X145538152Y-56707142D01*
X145538152Y-56707142D02*
X145442914Y-56754761D01*
X145442914Y-56754761D02*
X145395295Y-56754761D01*
X145395295Y-56754761D02*
X145300057Y-56707142D01*
X145300057Y-56707142D02*
X145252438Y-56659523D01*
X145252438Y-56659523D02*
X145204819Y-56564285D01*
X145204819Y-56564285D02*
X145204819Y-56373809D01*
X145204819Y-56373809D02*
X145252438Y-56278571D01*
X145252438Y-56278571D02*
X145300057Y-56230952D01*
X145300057Y-56230952D02*
X145395295Y-56183333D01*
X145395295Y-56183333D02*
X145442914Y-56183333D01*
X145442914Y-56183333D02*
X145538152Y-56230952D01*
X145538152Y-56230952D02*
X145585771Y-56278571D01*
X145585771Y-56278571D02*
X145633390Y-56373809D01*
X145633390Y-56373809D02*
X145633390Y-56564285D01*
X145633390Y-56564285D02*
X145681009Y-56659523D01*
X145681009Y-56659523D02*
X145728628Y-56707142D01*
X145728628Y-56707142D02*
X145823866Y-56754761D01*
X145823866Y-56754761D02*
X146014342Y-56754761D01*
X146014342Y-56754761D02*
X146109580Y-56707142D01*
X146109580Y-56707142D02*
X146157200Y-56659523D01*
X146157200Y-56659523D02*
X146204819Y-56564285D01*
X146204819Y-56564285D02*
X146204819Y-56373809D01*
X146204819Y-56373809D02*
X146157200Y-56278571D01*
X146157200Y-56278571D02*
X146109580Y-56230952D01*
X146109580Y-56230952D02*
X146014342Y-56183333D01*
X146014342Y-56183333D02*
X145823866Y-56183333D01*
X145823866Y-56183333D02*
X145728628Y-56230952D01*
X145728628Y-56230952D02*
X145681009Y-56278571D01*
X145681009Y-56278571D02*
X145633390Y-56373809D01*
X166214286Y-62954819D02*
X166833333Y-62954819D01*
X166833333Y-62954819D02*
X166500000Y-63335771D01*
X166500000Y-63335771D02*
X166642857Y-63335771D01*
X166642857Y-63335771D02*
X166738095Y-63383390D01*
X166738095Y-63383390D02*
X166785714Y-63431009D01*
X166785714Y-63431009D02*
X166833333Y-63526247D01*
X166833333Y-63526247D02*
X166833333Y-63764342D01*
X166833333Y-63764342D02*
X166785714Y-63859580D01*
X166785714Y-63859580D02*
X166738095Y-63907200D01*
X166738095Y-63907200D02*
X166642857Y-63954819D01*
X166642857Y-63954819D02*
X166357143Y-63954819D01*
X166357143Y-63954819D02*
X166261905Y-63907200D01*
X166261905Y-63907200D02*
X166214286Y-63859580D01*
X167166667Y-62954819D02*
X167785714Y-62954819D01*
X167785714Y-62954819D02*
X167452381Y-63335771D01*
X167452381Y-63335771D02*
X167595238Y-63335771D01*
X167595238Y-63335771D02*
X167690476Y-63383390D01*
X167690476Y-63383390D02*
X167738095Y-63431009D01*
X167738095Y-63431009D02*
X167785714Y-63526247D01*
X167785714Y-63526247D02*
X167785714Y-63764342D01*
X167785714Y-63764342D02*
X167738095Y-63859580D01*
X167738095Y-63859580D02*
X167690476Y-63907200D01*
X167690476Y-63907200D02*
X167595238Y-63954819D01*
X167595238Y-63954819D02*
X167309524Y-63954819D01*
X167309524Y-63954819D02*
X167214286Y-63907200D01*
X167214286Y-63907200D02*
X167166667Y-63859580D01*
X168404762Y-62954819D02*
X168500000Y-62954819D01*
X168500000Y-62954819D02*
X168595238Y-63002438D01*
X168595238Y-63002438D02*
X168642857Y-63050057D01*
X168642857Y-63050057D02*
X168690476Y-63145295D01*
X168690476Y-63145295D02*
X168738095Y-63335771D01*
X168738095Y-63335771D02*
X168738095Y-63573866D01*
X168738095Y-63573866D02*
X168690476Y-63764342D01*
X168690476Y-63764342D02*
X168642857Y-63859580D01*
X168642857Y-63859580D02*
X168595238Y-63907200D01*
X168595238Y-63907200D02*
X168500000Y-63954819D01*
X168500000Y-63954819D02*
X168404762Y-63954819D01*
X168404762Y-63954819D02*
X168309524Y-63907200D01*
X168309524Y-63907200D02*
X168261905Y-63859580D01*
X168261905Y-63859580D02*
X168214286Y-63764342D01*
X168214286Y-63764342D02*
X168166667Y-63573866D01*
X168166667Y-63573866D02*
X168166667Y-63335771D01*
X168166667Y-63335771D02*
X168214286Y-63145295D01*
X168214286Y-63145295D02*
X168261905Y-63050057D01*
X168261905Y-63050057D02*
X168309524Y-63002438D01*
X168309524Y-63002438D02*
X168404762Y-62954819D01*
D11*
X170191666Y-66227149D02*
X170025000Y-65989054D01*
X169905952Y-66227149D02*
X169905952Y-65727149D01*
X169905952Y-65727149D02*
X170096428Y-65727149D01*
X170096428Y-65727149D02*
X170144047Y-65750959D01*
X170144047Y-65750959D02*
X170167857Y-65774768D01*
X170167857Y-65774768D02*
X170191666Y-65822387D01*
X170191666Y-65822387D02*
X170191666Y-65893816D01*
X170191666Y-65893816D02*
X170167857Y-65941435D01*
X170167857Y-65941435D02*
X170144047Y-65965244D01*
X170144047Y-65965244D02*
X170096428Y-65989054D01*
X170096428Y-65989054D02*
X169905952Y-65989054D01*
X170620238Y-65893816D02*
X170620238Y-66227149D01*
X170501190Y-65703340D02*
X170382143Y-66060482D01*
X170382143Y-66060482D02*
X170691666Y-66060482D01*
D10*
X185809523Y-67288152D02*
X185809523Y-67954819D01*
X185571428Y-66907200D02*
X185333333Y-67621485D01*
X185333333Y-67621485D02*
X185952380Y-67621485D01*
X186333333Y-67954819D02*
X186333333Y-66954819D01*
X186428571Y-67573866D02*
X186714285Y-67954819D01*
X186714285Y-67288152D02*
X186333333Y-67669104D01*
X187047619Y-66954819D02*
X187714285Y-66954819D01*
X187714285Y-66954819D02*
X187285714Y-67954819D01*
D11*
X182678571Y-67727149D02*
X182511905Y-67489054D01*
X182392857Y-67727149D02*
X182392857Y-67227149D01*
X182392857Y-67227149D02*
X182583333Y-67227149D01*
X182583333Y-67227149D02*
X182630952Y-67250959D01*
X182630952Y-67250959D02*
X182654762Y-67274768D01*
X182654762Y-67274768D02*
X182678571Y-67322387D01*
X182678571Y-67322387D02*
X182678571Y-67393816D01*
X182678571Y-67393816D02*
X182654762Y-67441435D01*
X182654762Y-67441435D02*
X182630952Y-67465244D01*
X182630952Y-67465244D02*
X182583333Y-67489054D01*
X182583333Y-67489054D02*
X182392857Y-67489054D01*
X182845238Y-67227149D02*
X183154762Y-67227149D01*
X183154762Y-67227149D02*
X182988095Y-67417625D01*
X182988095Y-67417625D02*
X183059524Y-67417625D01*
X183059524Y-67417625D02*
X183107143Y-67441435D01*
X183107143Y-67441435D02*
X183130952Y-67465244D01*
X183130952Y-67465244D02*
X183154762Y-67512863D01*
X183154762Y-67512863D02*
X183154762Y-67631911D01*
X183154762Y-67631911D02*
X183130952Y-67679530D01*
X183130952Y-67679530D02*
X183107143Y-67703340D01*
X183107143Y-67703340D02*
X183059524Y-67727149D01*
X183059524Y-67727149D02*
X182916667Y-67727149D01*
X182916667Y-67727149D02*
X182869048Y-67703340D01*
X182869048Y-67703340D02*
X182845238Y-67679530D01*
X183464285Y-67227149D02*
X183511904Y-67227149D01*
X183511904Y-67227149D02*
X183559523Y-67250959D01*
X183559523Y-67250959D02*
X183583333Y-67274768D01*
X183583333Y-67274768D02*
X183607142Y-67322387D01*
X183607142Y-67322387D02*
X183630952Y-67417625D01*
X183630952Y-67417625D02*
X183630952Y-67536673D01*
X183630952Y-67536673D02*
X183607142Y-67631911D01*
X183607142Y-67631911D02*
X183583333Y-67679530D01*
X183583333Y-67679530D02*
X183559523Y-67703340D01*
X183559523Y-67703340D02*
X183511904Y-67727149D01*
X183511904Y-67727149D02*
X183464285Y-67727149D01*
X183464285Y-67727149D02*
X183416666Y-67703340D01*
X183416666Y-67703340D02*
X183392857Y-67679530D01*
X183392857Y-67679530D02*
X183369047Y-67631911D01*
X183369047Y-67631911D02*
X183345238Y-67536673D01*
X183345238Y-67536673D02*
X183345238Y-67417625D01*
X183345238Y-67417625D02*
X183369047Y-67322387D01*
X183369047Y-67322387D02*
X183392857Y-67274768D01*
X183392857Y-67274768D02*
X183416666Y-67250959D01*
X183416666Y-67250959D02*
X183464285Y-67227149D01*
D10*
X151936666Y-56569819D02*
X151936666Y-57284104D01*
X151936666Y-57284104D02*
X151889047Y-57426961D01*
X151889047Y-57426961D02*
X151793809Y-57522200D01*
X151793809Y-57522200D02*
X151650952Y-57569819D01*
X151650952Y-57569819D02*
X151555714Y-57569819D01*
X152365238Y-56665057D02*
X152412857Y-56617438D01*
X152412857Y-56617438D02*
X152508095Y-56569819D01*
X152508095Y-56569819D02*
X152746190Y-56569819D01*
X152746190Y-56569819D02*
X152841428Y-56617438D01*
X152841428Y-56617438D02*
X152889047Y-56665057D01*
X152889047Y-56665057D02*
X152936666Y-56760295D01*
X152936666Y-56760295D02*
X152936666Y-56855533D01*
X152936666Y-56855533D02*
X152889047Y-56998390D01*
X152889047Y-56998390D02*
X152317619Y-57569819D01*
X152317619Y-57569819D02*
X152936666Y-57569819D01*
X169936666Y-56569819D02*
X169936666Y-57284104D01*
X169936666Y-57284104D02*
X169889047Y-57426961D01*
X169889047Y-57426961D02*
X169793809Y-57522200D01*
X169793809Y-57522200D02*
X169650952Y-57569819D01*
X169650952Y-57569819D02*
X169555714Y-57569819D01*
X170841428Y-56903152D02*
X170841428Y-57569819D01*
X170603333Y-56522200D02*
X170365238Y-57236485D01*
X170365238Y-57236485D02*
X170984285Y-57236485D01*
X176161666Y-112954819D02*
X176161666Y-113669104D01*
X176161666Y-113669104D02*
X176114047Y-113811961D01*
X176114047Y-113811961D02*
X176018809Y-113907200D01*
X176018809Y-113907200D02*
X175875952Y-113954819D01*
X175875952Y-113954819D02*
X175780714Y-113954819D01*
X176685476Y-113954819D02*
X176875952Y-113954819D01*
X176875952Y-113954819D02*
X176971190Y-113907200D01*
X176971190Y-113907200D02*
X177018809Y-113859580D01*
X177018809Y-113859580D02*
X177114047Y-113716723D01*
X177114047Y-113716723D02*
X177161666Y-113526247D01*
X177161666Y-113526247D02*
X177161666Y-113145295D01*
X177161666Y-113145295D02*
X177114047Y-113050057D01*
X177114047Y-113050057D02*
X177066428Y-113002438D01*
X177066428Y-113002438D02*
X176971190Y-112954819D01*
X176971190Y-112954819D02*
X176780714Y-112954819D01*
X176780714Y-112954819D02*
X176685476Y-113002438D01*
X176685476Y-113002438D02*
X176637857Y-113050057D01*
X176637857Y-113050057D02*
X176590238Y-113145295D01*
X176590238Y-113145295D02*
X176590238Y-113383390D01*
X176590238Y-113383390D02*
X176637857Y-113478628D01*
X176637857Y-113478628D02*
X176685476Y-113526247D01*
X176685476Y-113526247D02*
X176780714Y-113573866D01*
X176780714Y-113573866D02*
X176971190Y-113573866D01*
X176971190Y-113573866D02*
X177066428Y-113526247D01*
X177066428Y-113526247D02*
X177114047Y-113478628D01*
X177114047Y-113478628D02*
X177161666Y-113383390D01*
X185809523Y-64788152D02*
X185809523Y-65454819D01*
X185571428Y-64407200D02*
X185333333Y-65121485D01*
X185333333Y-65121485D02*
X185952380Y-65121485D01*
X186333333Y-65454819D02*
X186333333Y-64454819D01*
X186428571Y-65073866D02*
X186714285Y-65454819D01*
X186714285Y-64788152D02*
X186333333Y-65169104D01*
X187047619Y-64454819D02*
X187714285Y-64454819D01*
X187714285Y-64454819D02*
X187285714Y-65454819D01*
D11*
X182678571Y-65227149D02*
X182511905Y-64989054D01*
X182392857Y-65227149D02*
X182392857Y-64727149D01*
X182392857Y-64727149D02*
X182583333Y-64727149D01*
X182583333Y-64727149D02*
X182630952Y-64750959D01*
X182630952Y-64750959D02*
X182654762Y-64774768D01*
X182654762Y-64774768D02*
X182678571Y-64822387D01*
X182678571Y-64822387D02*
X182678571Y-64893816D01*
X182678571Y-64893816D02*
X182654762Y-64941435D01*
X182654762Y-64941435D02*
X182630952Y-64965244D01*
X182630952Y-64965244D02*
X182583333Y-64989054D01*
X182583333Y-64989054D02*
X182392857Y-64989054D01*
X182869048Y-64774768D02*
X182892857Y-64750959D01*
X182892857Y-64750959D02*
X182940476Y-64727149D01*
X182940476Y-64727149D02*
X183059524Y-64727149D01*
X183059524Y-64727149D02*
X183107143Y-64750959D01*
X183107143Y-64750959D02*
X183130952Y-64774768D01*
X183130952Y-64774768D02*
X183154762Y-64822387D01*
X183154762Y-64822387D02*
X183154762Y-64870006D01*
X183154762Y-64870006D02*
X183130952Y-64941435D01*
X183130952Y-64941435D02*
X182845238Y-65227149D01*
X182845238Y-65227149D02*
X183154762Y-65227149D01*
X183464285Y-64727149D02*
X183511904Y-64727149D01*
X183511904Y-64727149D02*
X183559523Y-64750959D01*
X183559523Y-64750959D02*
X183583333Y-64774768D01*
X183583333Y-64774768D02*
X183607142Y-64822387D01*
X183607142Y-64822387D02*
X183630952Y-64917625D01*
X183630952Y-64917625D02*
X183630952Y-65036673D01*
X183630952Y-65036673D02*
X183607142Y-65131911D01*
X183607142Y-65131911D02*
X183583333Y-65179530D01*
X183583333Y-65179530D02*
X183559523Y-65203340D01*
X183559523Y-65203340D02*
X183511904Y-65227149D01*
X183511904Y-65227149D02*
X183464285Y-65227149D01*
X183464285Y-65227149D02*
X183416666Y-65203340D01*
X183416666Y-65203340D02*
X183392857Y-65179530D01*
X183392857Y-65179530D02*
X183369047Y-65131911D01*
X183369047Y-65131911D02*
X183345238Y-65036673D01*
X183345238Y-65036673D02*
X183345238Y-64917625D01*
X183345238Y-64917625D02*
X183369047Y-64822387D01*
X183369047Y-64822387D02*
X183392857Y-64774768D01*
X183392857Y-64774768D02*
X183416666Y-64750959D01*
X183416666Y-64750959D02*
X183464285Y-64727149D01*
D10*
X178071429Y-69954819D02*
X178642857Y-69954819D01*
X178357143Y-70954819D02*
X178357143Y-69954819D01*
X178976191Y-70954819D02*
X178976191Y-69954819D01*
X178976191Y-69954819D02*
X179357143Y-69954819D01*
X179357143Y-69954819D02*
X179452381Y-70002438D01*
X179452381Y-70002438D02*
X179500000Y-70050057D01*
X179500000Y-70050057D02*
X179547619Y-70145295D01*
X179547619Y-70145295D02*
X179547619Y-70288152D01*
X179547619Y-70288152D02*
X179500000Y-70383390D01*
X179500000Y-70383390D02*
X179452381Y-70431009D01*
X179452381Y-70431009D02*
X179357143Y-70478628D01*
X179357143Y-70478628D02*
X178976191Y-70478628D01*
X179928572Y-70907200D02*
X180071429Y-70954819D01*
X180071429Y-70954819D02*
X180309524Y-70954819D01*
X180309524Y-70954819D02*
X180404762Y-70907200D01*
X180404762Y-70907200D02*
X180452381Y-70859580D01*
X180452381Y-70859580D02*
X180500000Y-70764342D01*
X180500000Y-70764342D02*
X180500000Y-70669104D01*
X180500000Y-70669104D02*
X180452381Y-70573866D01*
X180452381Y-70573866D02*
X180404762Y-70526247D01*
X180404762Y-70526247D02*
X180309524Y-70478628D01*
X180309524Y-70478628D02*
X180119048Y-70431009D01*
X180119048Y-70431009D02*
X180023810Y-70383390D01*
X180023810Y-70383390D02*
X179976191Y-70335771D01*
X179976191Y-70335771D02*
X179928572Y-70240533D01*
X179928572Y-70240533D02*
X179928572Y-70145295D01*
X179928572Y-70145295D02*
X179976191Y-70050057D01*
X179976191Y-70050057D02*
X180023810Y-70002438D01*
X180023810Y-70002438D02*
X180119048Y-69954819D01*
X180119048Y-69954819D02*
X180357143Y-69954819D01*
X180357143Y-69954819D02*
X180500000Y-70002438D01*
X180833334Y-69954819D02*
X181500000Y-69954819D01*
X181500000Y-69954819D02*
X181071429Y-70954819D01*
X181833334Y-70669104D02*
X182309524Y-70669104D01*
X181738096Y-70954819D02*
X182071429Y-69954819D01*
X182071429Y-69954819D02*
X182404762Y-70954819D01*
X182928572Y-69954819D02*
X183023810Y-69954819D01*
X183023810Y-69954819D02*
X183119048Y-70002438D01*
X183119048Y-70002438D02*
X183166667Y-70050057D01*
X183166667Y-70050057D02*
X183214286Y-70145295D01*
X183214286Y-70145295D02*
X183261905Y-70335771D01*
X183261905Y-70335771D02*
X183261905Y-70573866D01*
X183261905Y-70573866D02*
X183214286Y-70764342D01*
X183214286Y-70764342D02*
X183166667Y-70859580D01*
X183166667Y-70859580D02*
X183119048Y-70907200D01*
X183119048Y-70907200D02*
X183023810Y-70954819D01*
X183023810Y-70954819D02*
X182928572Y-70954819D01*
X182928572Y-70954819D02*
X182833334Y-70907200D01*
X182833334Y-70907200D02*
X182785715Y-70859580D01*
X182785715Y-70859580D02*
X182738096Y-70764342D01*
X182738096Y-70764342D02*
X182690477Y-70573866D01*
X182690477Y-70573866D02*
X182690477Y-70335771D01*
X182690477Y-70335771D02*
X182738096Y-70145295D01*
X182738096Y-70145295D02*
X182785715Y-70050057D01*
X182785715Y-70050057D02*
X182833334Y-70002438D01*
X182833334Y-70002438D02*
X182928572Y-69954819D01*
X183642858Y-70050057D02*
X183690477Y-70002438D01*
X183690477Y-70002438D02*
X183785715Y-69954819D01*
X183785715Y-69954819D02*
X184023810Y-69954819D01*
X184023810Y-69954819D02*
X184119048Y-70002438D01*
X184119048Y-70002438D02*
X184166667Y-70050057D01*
X184166667Y-70050057D02*
X184214286Y-70145295D01*
X184214286Y-70145295D02*
X184214286Y-70240533D01*
X184214286Y-70240533D02*
X184166667Y-70383390D01*
X184166667Y-70383390D02*
X183595239Y-70954819D01*
X183595239Y-70954819D02*
X184214286Y-70954819D01*
X184642858Y-70573866D02*
X185404763Y-70573866D01*
X185785715Y-69954819D02*
X186404762Y-69954819D01*
X186404762Y-69954819D02*
X186071429Y-70335771D01*
X186071429Y-70335771D02*
X186214286Y-70335771D01*
X186214286Y-70335771D02*
X186309524Y-70383390D01*
X186309524Y-70383390D02*
X186357143Y-70431009D01*
X186357143Y-70431009D02*
X186404762Y-70526247D01*
X186404762Y-70526247D02*
X186404762Y-70764342D01*
X186404762Y-70764342D02*
X186357143Y-70859580D01*
X186357143Y-70859580D02*
X186309524Y-70907200D01*
X186309524Y-70907200D02*
X186214286Y-70954819D01*
X186214286Y-70954819D02*
X185928572Y-70954819D01*
X185928572Y-70954819D02*
X185833334Y-70907200D01*
X185833334Y-70907200D02*
X185785715Y-70859580D01*
X186833334Y-70859580D02*
X186880953Y-70907200D01*
X186880953Y-70907200D02*
X186833334Y-70954819D01*
X186833334Y-70954819D02*
X186785715Y-70907200D01*
X186785715Y-70907200D02*
X186833334Y-70859580D01*
X186833334Y-70859580D02*
X186833334Y-70954819D01*
X187214286Y-69954819D02*
X187833333Y-69954819D01*
X187833333Y-69954819D02*
X187500000Y-70335771D01*
X187500000Y-70335771D02*
X187642857Y-70335771D01*
X187642857Y-70335771D02*
X187738095Y-70383390D01*
X187738095Y-70383390D02*
X187785714Y-70431009D01*
X187785714Y-70431009D02*
X187833333Y-70526247D01*
X187833333Y-70526247D02*
X187833333Y-70764342D01*
X187833333Y-70764342D02*
X187785714Y-70859580D01*
X187785714Y-70859580D02*
X187738095Y-70907200D01*
X187738095Y-70907200D02*
X187642857Y-70954819D01*
X187642857Y-70954819D02*
X187357143Y-70954819D01*
X187357143Y-70954819D02*
X187261905Y-70907200D01*
X187261905Y-70907200D02*
X187214286Y-70859580D01*
D12*
X176006365Y-70779821D02*
X176589222Y-70779821D01*
X176589222Y-70779821D02*
X176657794Y-70745535D01*
X176657794Y-70745535D02*
X176692080Y-70711250D01*
X176692080Y-70711250D02*
X176726365Y-70642678D01*
X176726365Y-70642678D02*
X176726365Y-70505535D01*
X176726365Y-70505535D02*
X176692080Y-70436964D01*
X176692080Y-70436964D02*
X176657794Y-70402678D01*
X176657794Y-70402678D02*
X176589222Y-70368392D01*
X176589222Y-70368392D02*
X176006365Y-70368392D01*
X176074937Y-70059821D02*
X176040651Y-70025535D01*
X176040651Y-70025535D02*
X176006365Y-69956964D01*
X176006365Y-69956964D02*
X176006365Y-69785535D01*
X176006365Y-69785535D02*
X176040651Y-69716964D01*
X176040651Y-69716964D02*
X176074937Y-69682678D01*
X176074937Y-69682678D02*
X176143508Y-69648392D01*
X176143508Y-69648392D02*
X176212080Y-69648392D01*
X176212080Y-69648392D02*
X176314937Y-69682678D01*
X176314937Y-69682678D02*
X176726365Y-70094106D01*
X176726365Y-70094106D02*
X176726365Y-69648392D01*
D10*
X173214286Y-62954819D02*
X173833333Y-62954819D01*
X173833333Y-62954819D02*
X173500000Y-63335771D01*
X173500000Y-63335771D02*
X173642857Y-63335771D01*
X173642857Y-63335771D02*
X173738095Y-63383390D01*
X173738095Y-63383390D02*
X173785714Y-63431009D01*
X173785714Y-63431009D02*
X173833333Y-63526247D01*
X173833333Y-63526247D02*
X173833333Y-63764342D01*
X173833333Y-63764342D02*
X173785714Y-63859580D01*
X173785714Y-63859580D02*
X173738095Y-63907200D01*
X173738095Y-63907200D02*
X173642857Y-63954819D01*
X173642857Y-63954819D02*
X173357143Y-63954819D01*
X173357143Y-63954819D02*
X173261905Y-63907200D01*
X173261905Y-63907200D02*
X173214286Y-63859580D01*
X174166667Y-62954819D02*
X174785714Y-62954819D01*
X174785714Y-62954819D02*
X174452381Y-63335771D01*
X174452381Y-63335771D02*
X174595238Y-63335771D01*
X174595238Y-63335771D02*
X174690476Y-63383390D01*
X174690476Y-63383390D02*
X174738095Y-63431009D01*
X174738095Y-63431009D02*
X174785714Y-63526247D01*
X174785714Y-63526247D02*
X174785714Y-63764342D01*
X174785714Y-63764342D02*
X174738095Y-63859580D01*
X174738095Y-63859580D02*
X174690476Y-63907200D01*
X174690476Y-63907200D02*
X174595238Y-63954819D01*
X174595238Y-63954819D02*
X174309524Y-63954819D01*
X174309524Y-63954819D02*
X174214286Y-63907200D01*
X174214286Y-63907200D02*
X174166667Y-63859580D01*
X175404762Y-62954819D02*
X175500000Y-62954819D01*
X175500000Y-62954819D02*
X175595238Y-63002438D01*
X175595238Y-63002438D02*
X175642857Y-63050057D01*
X175642857Y-63050057D02*
X175690476Y-63145295D01*
X175690476Y-63145295D02*
X175738095Y-63335771D01*
X175738095Y-63335771D02*
X175738095Y-63573866D01*
X175738095Y-63573866D02*
X175690476Y-63764342D01*
X175690476Y-63764342D02*
X175642857Y-63859580D01*
X175642857Y-63859580D02*
X175595238Y-63907200D01*
X175595238Y-63907200D02*
X175500000Y-63954819D01*
X175500000Y-63954819D02*
X175404762Y-63954819D01*
X175404762Y-63954819D02*
X175309524Y-63907200D01*
X175309524Y-63907200D02*
X175261905Y-63859580D01*
X175261905Y-63859580D02*
X175214286Y-63764342D01*
X175214286Y-63764342D02*
X175166667Y-63573866D01*
X175166667Y-63573866D02*
X175166667Y-63335771D01*
X175166667Y-63335771D02*
X175214286Y-63145295D01*
X175214286Y-63145295D02*
X175261905Y-63050057D01*
X175261905Y-63050057D02*
X175309524Y-63002438D01*
X175309524Y-63002438D02*
X175404762Y-62954819D01*
D11*
X177229166Y-66227149D02*
X177062500Y-65989054D01*
X176943452Y-66227149D02*
X176943452Y-65727149D01*
X176943452Y-65727149D02*
X177133928Y-65727149D01*
X177133928Y-65727149D02*
X177181547Y-65750959D01*
X177181547Y-65750959D02*
X177205357Y-65774768D01*
X177205357Y-65774768D02*
X177229166Y-65822387D01*
X177229166Y-65822387D02*
X177229166Y-65893816D01*
X177229166Y-65893816D02*
X177205357Y-65941435D01*
X177205357Y-65941435D02*
X177181547Y-65965244D01*
X177181547Y-65965244D02*
X177133928Y-65989054D01*
X177133928Y-65989054D02*
X176943452Y-65989054D01*
X177395833Y-65727149D02*
X177705357Y-65727149D01*
X177705357Y-65727149D02*
X177538690Y-65917625D01*
X177538690Y-65917625D02*
X177610119Y-65917625D01*
X177610119Y-65917625D02*
X177657738Y-65941435D01*
X177657738Y-65941435D02*
X177681547Y-65965244D01*
X177681547Y-65965244D02*
X177705357Y-66012863D01*
X177705357Y-66012863D02*
X177705357Y-66131911D01*
X177705357Y-66131911D02*
X177681547Y-66179530D01*
X177681547Y-66179530D02*
X177657738Y-66203340D01*
X177657738Y-66203340D02*
X177610119Y-66227149D01*
X177610119Y-66227149D02*
X177467262Y-66227149D01*
X177467262Y-66227149D02*
X177419643Y-66203340D01*
X177419643Y-66203340D02*
X177395833Y-66179530D01*
D10*
X173238095Y-65454819D02*
X173333333Y-65454819D01*
X173333333Y-65454819D02*
X173428571Y-65502438D01*
X173428571Y-65502438D02*
X173476190Y-65550057D01*
X173476190Y-65550057D02*
X173523809Y-65645295D01*
X173523809Y-65645295D02*
X173571428Y-65835771D01*
X173571428Y-65835771D02*
X173571428Y-66073866D01*
X173571428Y-66073866D02*
X173523809Y-66264342D01*
X173523809Y-66264342D02*
X173476190Y-66359580D01*
X173476190Y-66359580D02*
X173428571Y-66407200D01*
X173428571Y-66407200D02*
X173333333Y-66454819D01*
X173333333Y-66454819D02*
X173238095Y-66454819D01*
X173238095Y-66454819D02*
X173142857Y-66407200D01*
X173142857Y-66407200D02*
X173095238Y-66359580D01*
X173095238Y-66359580D02*
X173047619Y-66264342D01*
X173047619Y-66264342D02*
X173000000Y-66073866D01*
X173000000Y-66073866D02*
X173000000Y-65835771D01*
X173000000Y-65835771D02*
X173047619Y-65645295D01*
X173047619Y-65645295D02*
X173095238Y-65550057D01*
X173095238Y-65550057D02*
X173142857Y-65502438D01*
X173142857Y-65502438D02*
X173238095Y-65454819D01*
X174000000Y-66359580D02*
X174047619Y-66407200D01*
X174047619Y-66407200D02*
X174000000Y-66454819D01*
X174000000Y-66454819D02*
X173952381Y-66407200D01*
X173952381Y-66407200D02*
X174000000Y-66359580D01*
X174000000Y-66359580D02*
X174000000Y-66454819D01*
X174999999Y-66454819D02*
X174428571Y-66454819D01*
X174714285Y-66454819D02*
X174714285Y-65454819D01*
X174714285Y-65454819D02*
X174619047Y-65597676D01*
X174619047Y-65597676D02*
X174523809Y-65692914D01*
X174523809Y-65692914D02*
X174428571Y-65740533D01*
D11*
X177229166Y-63679530D02*
X177205357Y-63703340D01*
X177205357Y-63703340D02*
X177133928Y-63727149D01*
X177133928Y-63727149D02*
X177086309Y-63727149D01*
X177086309Y-63727149D02*
X177014881Y-63703340D01*
X177014881Y-63703340D02*
X176967262Y-63655720D01*
X176967262Y-63655720D02*
X176943452Y-63608101D01*
X176943452Y-63608101D02*
X176919643Y-63512863D01*
X176919643Y-63512863D02*
X176919643Y-63441435D01*
X176919643Y-63441435D02*
X176943452Y-63346197D01*
X176943452Y-63346197D02*
X176967262Y-63298578D01*
X176967262Y-63298578D02*
X177014881Y-63250959D01*
X177014881Y-63250959D02*
X177086309Y-63227149D01*
X177086309Y-63227149D02*
X177133928Y-63227149D01*
X177133928Y-63227149D02*
X177205357Y-63250959D01*
X177205357Y-63250959D02*
X177229166Y-63274768D01*
X177419643Y-63274768D02*
X177443452Y-63250959D01*
X177443452Y-63250959D02*
X177491071Y-63227149D01*
X177491071Y-63227149D02*
X177610119Y-63227149D01*
X177610119Y-63227149D02*
X177657738Y-63250959D01*
X177657738Y-63250959D02*
X177681547Y-63274768D01*
X177681547Y-63274768D02*
X177705357Y-63322387D01*
X177705357Y-63322387D02*
X177705357Y-63370006D01*
X177705357Y-63370006D02*
X177681547Y-63441435D01*
X177681547Y-63441435D02*
X177395833Y-63727149D01*
X177395833Y-63727149D02*
X177705357Y-63727149D01*
D10*
X173428571Y-103454819D02*
X172857143Y-103454819D01*
X173142857Y-103454819D02*
X173142857Y-102454819D01*
X173142857Y-102454819D02*
X173047619Y-102597676D01*
X173047619Y-102597676D02*
X172952381Y-102692914D01*
X172952381Y-102692914D02*
X172857143Y-102740533D01*
X174047619Y-102454819D02*
X174142857Y-102454819D01*
X174142857Y-102454819D02*
X174238095Y-102502438D01*
X174238095Y-102502438D02*
X174285714Y-102550057D01*
X174285714Y-102550057D02*
X174333333Y-102645295D01*
X174333333Y-102645295D02*
X174380952Y-102835771D01*
X174380952Y-102835771D02*
X174380952Y-103073866D01*
X174380952Y-103073866D02*
X174333333Y-103264342D01*
X174333333Y-103264342D02*
X174285714Y-103359580D01*
X174285714Y-103359580D02*
X174238095Y-103407200D01*
X174238095Y-103407200D02*
X174142857Y-103454819D01*
X174142857Y-103454819D02*
X174047619Y-103454819D01*
X174047619Y-103454819D02*
X173952381Y-103407200D01*
X173952381Y-103407200D02*
X173904762Y-103359580D01*
X173904762Y-103359580D02*
X173857143Y-103264342D01*
X173857143Y-103264342D02*
X173809524Y-103073866D01*
X173809524Y-103073866D02*
X173809524Y-102835771D01*
X173809524Y-102835771D02*
X173857143Y-102645295D01*
X173857143Y-102645295D02*
X173904762Y-102550057D01*
X173904762Y-102550057D02*
X173952381Y-102502438D01*
X173952381Y-102502438D02*
X174047619Y-102454819D01*
X175000000Y-102454819D02*
X175095238Y-102454819D01*
X175095238Y-102454819D02*
X175190476Y-102502438D01*
X175190476Y-102502438D02*
X175238095Y-102550057D01*
X175238095Y-102550057D02*
X175285714Y-102645295D01*
X175285714Y-102645295D02*
X175333333Y-102835771D01*
X175333333Y-102835771D02*
X175333333Y-103073866D01*
X175333333Y-103073866D02*
X175285714Y-103264342D01*
X175285714Y-103264342D02*
X175238095Y-103359580D01*
X175238095Y-103359580D02*
X175190476Y-103407200D01*
X175190476Y-103407200D02*
X175095238Y-103454819D01*
X175095238Y-103454819D02*
X175000000Y-103454819D01*
X175000000Y-103454819D02*
X174904762Y-103407200D01*
X174904762Y-103407200D02*
X174857143Y-103359580D01*
X174857143Y-103359580D02*
X174809524Y-103264342D01*
X174809524Y-103264342D02*
X174761905Y-103073866D01*
X174761905Y-103073866D02*
X174761905Y-102835771D01*
X174761905Y-102835771D02*
X174809524Y-102645295D01*
X174809524Y-102645295D02*
X174857143Y-102550057D01*
X174857143Y-102550057D02*
X174904762Y-102502438D01*
X174904762Y-102502438D02*
X175000000Y-102454819D01*
X175761905Y-103454819D02*
X175761905Y-102454819D01*
X175857143Y-103073866D02*
X176142857Y-103454819D01*
X176142857Y-102788152D02*
X175761905Y-103169104D01*
D11*
X177178571Y-103227149D02*
X177011905Y-102989054D01*
X176892857Y-103227149D02*
X176892857Y-102727149D01*
X176892857Y-102727149D02*
X177083333Y-102727149D01*
X177083333Y-102727149D02*
X177130952Y-102750959D01*
X177130952Y-102750959D02*
X177154762Y-102774768D01*
X177154762Y-102774768D02*
X177178571Y-102822387D01*
X177178571Y-102822387D02*
X177178571Y-102893816D01*
X177178571Y-102893816D02*
X177154762Y-102941435D01*
X177154762Y-102941435D02*
X177130952Y-102965244D01*
X177130952Y-102965244D02*
X177083333Y-102989054D01*
X177083333Y-102989054D02*
X176892857Y-102989054D01*
X177369048Y-102774768D02*
X177392857Y-102750959D01*
X177392857Y-102750959D02*
X177440476Y-102727149D01*
X177440476Y-102727149D02*
X177559524Y-102727149D01*
X177559524Y-102727149D02*
X177607143Y-102750959D01*
X177607143Y-102750959D02*
X177630952Y-102774768D01*
X177630952Y-102774768D02*
X177654762Y-102822387D01*
X177654762Y-102822387D02*
X177654762Y-102870006D01*
X177654762Y-102870006D02*
X177630952Y-102941435D01*
X177630952Y-102941435D02*
X177345238Y-103227149D01*
X177345238Y-103227149D02*
X177654762Y-103227149D01*
X177821428Y-102727149D02*
X178154761Y-102727149D01*
X178154761Y-102727149D02*
X177940476Y-103227149D01*
D10*
X154954819Y-76571428D02*
X154954819Y-77142856D01*
X154954819Y-76857142D02*
X153954819Y-76857142D01*
X153954819Y-76857142D02*
X154097676Y-76952380D01*
X154097676Y-76952380D02*
X154192914Y-77047618D01*
X154192914Y-77047618D02*
X154240533Y-77142856D01*
X153954819Y-75952380D02*
X153954819Y-75857142D01*
X153954819Y-75857142D02*
X154002438Y-75761904D01*
X154002438Y-75761904D02*
X154050057Y-75714285D01*
X154050057Y-75714285D02*
X154145295Y-75666666D01*
X154145295Y-75666666D02*
X154335771Y-75619047D01*
X154335771Y-75619047D02*
X154573866Y-75619047D01*
X154573866Y-75619047D02*
X154764342Y-75666666D01*
X154764342Y-75666666D02*
X154859580Y-75714285D01*
X154859580Y-75714285D02*
X154907200Y-75761904D01*
X154907200Y-75761904D02*
X154954819Y-75857142D01*
X154954819Y-75857142D02*
X154954819Y-75952380D01*
X154954819Y-75952380D02*
X154907200Y-76047618D01*
X154907200Y-76047618D02*
X154859580Y-76095237D01*
X154859580Y-76095237D02*
X154764342Y-76142856D01*
X154764342Y-76142856D02*
X154573866Y-76190475D01*
X154573866Y-76190475D02*
X154335771Y-76190475D01*
X154335771Y-76190475D02*
X154145295Y-76142856D01*
X154145295Y-76142856D02*
X154050057Y-76095237D01*
X154050057Y-76095237D02*
X154002438Y-76047618D01*
X154002438Y-76047618D02*
X153954819Y-75952380D01*
X153954819Y-74999999D02*
X153954819Y-74904761D01*
X153954819Y-74904761D02*
X154002438Y-74809523D01*
X154002438Y-74809523D02*
X154050057Y-74761904D01*
X154050057Y-74761904D02*
X154145295Y-74714285D01*
X154145295Y-74714285D02*
X154335771Y-74666666D01*
X154335771Y-74666666D02*
X154573866Y-74666666D01*
X154573866Y-74666666D02*
X154764342Y-74714285D01*
X154764342Y-74714285D02*
X154859580Y-74761904D01*
X154859580Y-74761904D02*
X154907200Y-74809523D01*
X154907200Y-74809523D02*
X154954819Y-74904761D01*
X154954819Y-74904761D02*
X154954819Y-74999999D01*
X154954819Y-74999999D02*
X154907200Y-75095237D01*
X154907200Y-75095237D02*
X154859580Y-75142856D01*
X154859580Y-75142856D02*
X154764342Y-75190475D01*
X154764342Y-75190475D02*
X154573866Y-75238094D01*
X154573866Y-75238094D02*
X154335771Y-75238094D01*
X154335771Y-75238094D02*
X154145295Y-75190475D01*
X154145295Y-75190475D02*
X154050057Y-75142856D01*
X154050057Y-75142856D02*
X154002438Y-75095237D01*
X154002438Y-75095237D02*
X153954819Y-74999999D01*
X154954819Y-74238094D02*
X153954819Y-74238094D01*
X154573866Y-74142856D02*
X154954819Y-73857142D01*
X154288152Y-73857142D02*
X154669104Y-74238094D01*
D11*
X154559069Y-72601015D02*
X154320974Y-72767681D01*
X154559069Y-72886729D02*
X154059069Y-72886729D01*
X154059069Y-72886729D02*
X154059069Y-72696253D01*
X154059069Y-72696253D02*
X154082879Y-72648634D01*
X154082879Y-72648634D02*
X154106688Y-72624824D01*
X154106688Y-72624824D02*
X154154307Y-72601015D01*
X154154307Y-72601015D02*
X154225736Y-72601015D01*
X154225736Y-72601015D02*
X154273355Y-72624824D01*
X154273355Y-72624824D02*
X154297164Y-72648634D01*
X154297164Y-72648634D02*
X154320974Y-72696253D01*
X154320974Y-72696253D02*
X154320974Y-72886729D01*
X154559069Y-72124824D02*
X154559069Y-72410538D01*
X154559069Y-72267681D02*
X154059069Y-72267681D01*
X154059069Y-72267681D02*
X154130498Y-72315300D01*
X154130498Y-72315300D02*
X154178117Y-72362919D01*
X154178117Y-72362919D02*
X154201926Y-72410538D01*
X154059069Y-71815301D02*
X154059069Y-71767682D01*
X154059069Y-71767682D02*
X154082879Y-71720063D01*
X154082879Y-71720063D02*
X154106688Y-71696253D01*
X154106688Y-71696253D02*
X154154307Y-71672444D01*
X154154307Y-71672444D02*
X154249545Y-71648634D01*
X154249545Y-71648634D02*
X154368593Y-71648634D01*
X154368593Y-71648634D02*
X154463831Y-71672444D01*
X154463831Y-71672444D02*
X154511450Y-71696253D01*
X154511450Y-71696253D02*
X154535260Y-71720063D01*
X154535260Y-71720063D02*
X154559069Y-71767682D01*
X154559069Y-71767682D02*
X154559069Y-71815301D01*
X154559069Y-71815301D02*
X154535260Y-71862920D01*
X154535260Y-71862920D02*
X154511450Y-71886729D01*
X154511450Y-71886729D02*
X154463831Y-71910539D01*
X154463831Y-71910539D02*
X154368593Y-71934348D01*
X154368593Y-71934348D02*
X154249545Y-71934348D01*
X154249545Y-71934348D02*
X154154307Y-71910539D01*
X154154307Y-71910539D02*
X154106688Y-71886729D01*
X154106688Y-71886729D02*
X154082879Y-71862920D01*
X154082879Y-71862920D02*
X154059069Y-71815301D01*
D10*
X172785714Y-72954819D02*
X172214286Y-72954819D01*
X172500000Y-72954819D02*
X172500000Y-71954819D01*
X172500000Y-71954819D02*
X172404762Y-72097676D01*
X172404762Y-72097676D02*
X172309524Y-72192914D01*
X172309524Y-72192914D02*
X172214286Y-72240533D01*
D11*
X172578530Y-70314583D02*
X172602340Y-70338392D01*
X172602340Y-70338392D02*
X172626149Y-70409821D01*
X172626149Y-70409821D02*
X172626149Y-70457440D01*
X172626149Y-70457440D02*
X172602340Y-70528868D01*
X172602340Y-70528868D02*
X172554720Y-70576487D01*
X172554720Y-70576487D02*
X172507101Y-70600297D01*
X172507101Y-70600297D02*
X172411863Y-70624106D01*
X172411863Y-70624106D02*
X172340435Y-70624106D01*
X172340435Y-70624106D02*
X172245197Y-70600297D01*
X172245197Y-70600297D02*
X172197578Y-70576487D01*
X172197578Y-70576487D02*
X172149959Y-70528868D01*
X172149959Y-70528868D02*
X172126149Y-70457440D01*
X172126149Y-70457440D02*
X172126149Y-70409821D01*
X172126149Y-70409821D02*
X172149959Y-70338392D01*
X172149959Y-70338392D02*
X172173768Y-70314583D01*
X172126149Y-69886011D02*
X172126149Y-69981249D01*
X172126149Y-69981249D02*
X172149959Y-70028868D01*
X172149959Y-70028868D02*
X172173768Y-70052678D01*
X172173768Y-70052678D02*
X172245197Y-70100297D01*
X172245197Y-70100297D02*
X172340435Y-70124106D01*
X172340435Y-70124106D02*
X172530911Y-70124106D01*
X172530911Y-70124106D02*
X172578530Y-70100297D01*
X172578530Y-70100297D02*
X172602340Y-70076487D01*
X172602340Y-70076487D02*
X172626149Y-70028868D01*
X172626149Y-70028868D02*
X172626149Y-69933630D01*
X172626149Y-69933630D02*
X172602340Y-69886011D01*
X172602340Y-69886011D02*
X172578530Y-69862202D01*
X172578530Y-69862202D02*
X172530911Y-69838392D01*
X172530911Y-69838392D02*
X172411863Y-69838392D01*
X172411863Y-69838392D02*
X172364244Y-69862202D01*
X172364244Y-69862202D02*
X172340435Y-69886011D01*
X172340435Y-69886011D02*
X172316625Y-69933630D01*
X172316625Y-69933630D02*
X172316625Y-70028868D01*
X172316625Y-70028868D02*
X172340435Y-70076487D01*
X172340435Y-70076487D02*
X172364244Y-70100297D01*
X172364244Y-70100297D02*
X172411863Y-70124106D01*
D10*
X174309524Y-97954819D02*
X174309524Y-96954819D01*
X174309524Y-96954819D02*
X174880952Y-97954819D01*
X174880952Y-97954819D02*
X174880952Y-96954819D01*
X175261905Y-96954819D02*
X175928571Y-97954819D01*
X175928571Y-96954819D02*
X175261905Y-97954819D01*
X176166667Y-96954819D02*
X176500000Y-97954819D01*
X176500000Y-97954819D02*
X176833333Y-96954819D01*
X177595238Y-97288152D02*
X177595238Y-97954819D01*
X177357143Y-96907200D02*
X177119048Y-97621485D01*
X177119048Y-97621485D02*
X177738095Y-97621485D01*
X178309524Y-96954819D02*
X178404762Y-96954819D01*
X178404762Y-96954819D02*
X178500000Y-97002438D01*
X178500000Y-97002438D02*
X178547619Y-97050057D01*
X178547619Y-97050057D02*
X178595238Y-97145295D01*
X178595238Y-97145295D02*
X178642857Y-97335771D01*
X178642857Y-97335771D02*
X178642857Y-97573866D01*
X178642857Y-97573866D02*
X178595238Y-97764342D01*
X178595238Y-97764342D02*
X178547619Y-97859580D01*
X178547619Y-97859580D02*
X178500000Y-97907200D01*
X178500000Y-97907200D02*
X178404762Y-97954819D01*
X178404762Y-97954819D02*
X178309524Y-97954819D01*
X178309524Y-97954819D02*
X178214286Y-97907200D01*
X178214286Y-97907200D02*
X178166667Y-97859580D01*
X178166667Y-97859580D02*
X178119048Y-97764342D01*
X178119048Y-97764342D02*
X178071429Y-97573866D01*
X178071429Y-97573866D02*
X178071429Y-97335771D01*
X178071429Y-97335771D02*
X178119048Y-97145295D01*
X178119048Y-97145295D02*
X178166667Y-97050057D01*
X178166667Y-97050057D02*
X178214286Y-97002438D01*
X178214286Y-97002438D02*
X178309524Y-96954819D01*
X179071429Y-96954819D02*
X179071429Y-97764342D01*
X179071429Y-97764342D02*
X179119048Y-97859580D01*
X179119048Y-97859580D02*
X179166667Y-97907200D01*
X179166667Y-97907200D02*
X179261905Y-97954819D01*
X179261905Y-97954819D02*
X179452381Y-97954819D01*
X179452381Y-97954819D02*
X179547619Y-97907200D01*
X179547619Y-97907200D02*
X179595238Y-97859580D01*
X179595238Y-97859580D02*
X179642857Y-97764342D01*
X179642857Y-97764342D02*
X179642857Y-96954819D01*
X180119048Y-97954819D02*
X180119048Y-96954819D01*
X180119048Y-96954819D02*
X180690476Y-97954819D01*
X180690476Y-97954819D02*
X180690476Y-96954819D01*
X181738095Y-97954819D02*
X181404762Y-97478628D01*
X181166667Y-97954819D02*
X181166667Y-96954819D01*
X181166667Y-96954819D02*
X181547619Y-96954819D01*
X181547619Y-96954819D02*
X181642857Y-97002438D01*
X181642857Y-97002438D02*
X181690476Y-97050057D01*
X181690476Y-97050057D02*
X181738095Y-97145295D01*
X181738095Y-97145295D02*
X181738095Y-97288152D01*
X181738095Y-97288152D02*
X181690476Y-97383390D01*
X181690476Y-97383390D02*
X181642857Y-97431009D01*
X181642857Y-97431009D02*
X181547619Y-97478628D01*
X181547619Y-97478628D02*
X181166667Y-97478628D01*
D12*
X177431428Y-99895937D02*
X177362857Y-99861651D01*
X177362857Y-99861651D02*
X177294285Y-99793080D01*
X177294285Y-99793080D02*
X177191428Y-99690222D01*
X177191428Y-99690222D02*
X177122857Y-99655937D01*
X177122857Y-99655937D02*
X177054285Y-99655937D01*
X177088571Y-99827365D02*
X177020000Y-99793080D01*
X177020000Y-99793080D02*
X176951428Y-99724508D01*
X176951428Y-99724508D02*
X176917142Y-99587365D01*
X176917142Y-99587365D02*
X176917142Y-99347365D01*
X176917142Y-99347365D02*
X176951428Y-99210222D01*
X176951428Y-99210222D02*
X177020000Y-99141651D01*
X177020000Y-99141651D02*
X177088571Y-99107365D01*
X177088571Y-99107365D02*
X177225714Y-99107365D01*
X177225714Y-99107365D02*
X177294285Y-99141651D01*
X177294285Y-99141651D02*
X177362857Y-99210222D01*
X177362857Y-99210222D02*
X177397142Y-99347365D01*
X177397142Y-99347365D02*
X177397142Y-99587365D01*
X177397142Y-99587365D02*
X177362857Y-99724508D01*
X177362857Y-99724508D02*
X177294285Y-99793080D01*
X177294285Y-99793080D02*
X177225714Y-99827365D01*
X177225714Y-99827365D02*
X177088571Y-99827365D01*
X177637143Y-99107365D02*
X178082857Y-99107365D01*
X178082857Y-99107365D02*
X177842857Y-99381651D01*
X177842857Y-99381651D02*
X177945714Y-99381651D01*
X177945714Y-99381651D02*
X178014286Y-99415937D01*
X178014286Y-99415937D02*
X178048571Y-99450222D01*
X178048571Y-99450222D02*
X178082857Y-99518794D01*
X178082857Y-99518794D02*
X178082857Y-99690222D01*
X178082857Y-99690222D02*
X178048571Y-99758794D01*
X178048571Y-99758794D02*
X178014286Y-99793080D01*
X178014286Y-99793080D02*
X177945714Y-99827365D01*
X177945714Y-99827365D02*
X177740000Y-99827365D01*
X177740000Y-99827365D02*
X177671428Y-99793080D01*
X177671428Y-99793080D02*
X177637143Y-99758794D01*
D10*
X167213152Y-60690476D02*
X167879819Y-60690476D01*
X166832200Y-60928571D02*
X167546485Y-61166666D01*
X167546485Y-61166666D02*
X167546485Y-60547619D01*
X167879819Y-60166666D02*
X166879819Y-60166666D01*
X167498866Y-60071428D02*
X167879819Y-59785714D01*
X167213152Y-59785714D02*
X167594104Y-60166666D01*
X166879819Y-59452380D02*
X166879819Y-58785714D01*
X166879819Y-58785714D02*
X167879819Y-59214285D01*
D11*
X166002149Y-60083333D02*
X165764054Y-60249999D01*
X166002149Y-60369047D02*
X165502149Y-60369047D01*
X165502149Y-60369047D02*
X165502149Y-60178571D01*
X165502149Y-60178571D02*
X165525959Y-60130952D01*
X165525959Y-60130952D02*
X165549768Y-60107142D01*
X165549768Y-60107142D02*
X165597387Y-60083333D01*
X165597387Y-60083333D02*
X165668816Y-60083333D01*
X165668816Y-60083333D02*
X165716435Y-60107142D01*
X165716435Y-60107142D02*
X165740244Y-60130952D01*
X165740244Y-60130952D02*
X165764054Y-60178571D01*
X165764054Y-60178571D02*
X165764054Y-60369047D01*
X165502149Y-59630952D02*
X165502149Y-59869047D01*
X165502149Y-59869047D02*
X165740244Y-59892856D01*
X165740244Y-59892856D02*
X165716435Y-59869047D01*
X165716435Y-59869047D02*
X165692625Y-59821428D01*
X165692625Y-59821428D02*
X165692625Y-59702380D01*
X165692625Y-59702380D02*
X165716435Y-59654761D01*
X165716435Y-59654761D02*
X165740244Y-59630952D01*
X165740244Y-59630952D02*
X165787863Y-59607142D01*
X165787863Y-59607142D02*
X165906911Y-59607142D01*
X165906911Y-59607142D02*
X165954530Y-59630952D01*
X165954530Y-59630952D02*
X165978340Y-59654761D01*
X165978340Y-59654761D02*
X166002149Y-59702380D01*
X166002149Y-59702380D02*
X166002149Y-59821428D01*
X166002149Y-59821428D02*
X165978340Y-59869047D01*
X165978340Y-59869047D02*
X165954530Y-59892856D01*
D10*
X159238095Y-65454819D02*
X159333333Y-65454819D01*
X159333333Y-65454819D02*
X159428571Y-65502438D01*
X159428571Y-65502438D02*
X159476190Y-65550057D01*
X159476190Y-65550057D02*
X159523809Y-65645295D01*
X159523809Y-65645295D02*
X159571428Y-65835771D01*
X159571428Y-65835771D02*
X159571428Y-66073866D01*
X159571428Y-66073866D02*
X159523809Y-66264342D01*
X159523809Y-66264342D02*
X159476190Y-66359580D01*
X159476190Y-66359580D02*
X159428571Y-66407200D01*
X159428571Y-66407200D02*
X159333333Y-66454819D01*
X159333333Y-66454819D02*
X159238095Y-66454819D01*
X159238095Y-66454819D02*
X159142857Y-66407200D01*
X159142857Y-66407200D02*
X159095238Y-66359580D01*
X159095238Y-66359580D02*
X159047619Y-66264342D01*
X159047619Y-66264342D02*
X159000000Y-66073866D01*
X159000000Y-66073866D02*
X159000000Y-65835771D01*
X159000000Y-65835771D02*
X159047619Y-65645295D01*
X159047619Y-65645295D02*
X159095238Y-65550057D01*
X159095238Y-65550057D02*
X159142857Y-65502438D01*
X159142857Y-65502438D02*
X159238095Y-65454819D01*
X160000000Y-66359580D02*
X160047619Y-66407200D01*
X160047619Y-66407200D02*
X160000000Y-66454819D01*
X160000000Y-66454819D02*
X159952381Y-66407200D01*
X159952381Y-66407200D02*
X160000000Y-66359580D01*
X160000000Y-66359580D02*
X160000000Y-66454819D01*
X160999999Y-66454819D02*
X160428571Y-66454819D01*
X160714285Y-66454819D02*
X160714285Y-65454819D01*
X160714285Y-65454819D02*
X160619047Y-65597676D01*
X160619047Y-65597676D02*
X160523809Y-65692914D01*
X160523809Y-65692914D02*
X160428571Y-65740533D01*
D11*
X163191666Y-63639530D02*
X163167857Y-63663340D01*
X163167857Y-63663340D02*
X163096428Y-63687149D01*
X163096428Y-63687149D02*
X163048809Y-63687149D01*
X163048809Y-63687149D02*
X162977381Y-63663340D01*
X162977381Y-63663340D02*
X162929762Y-63615720D01*
X162929762Y-63615720D02*
X162905952Y-63568101D01*
X162905952Y-63568101D02*
X162882143Y-63472863D01*
X162882143Y-63472863D02*
X162882143Y-63401435D01*
X162882143Y-63401435D02*
X162905952Y-63306197D01*
X162905952Y-63306197D02*
X162929762Y-63258578D01*
X162929762Y-63258578D02*
X162977381Y-63210959D01*
X162977381Y-63210959D02*
X163048809Y-63187149D01*
X163048809Y-63187149D02*
X163096428Y-63187149D01*
X163096428Y-63187149D02*
X163167857Y-63210959D01*
X163167857Y-63210959D02*
X163191666Y-63234768D01*
X163620238Y-63353816D02*
X163620238Y-63687149D01*
X163501190Y-63163340D02*
X163382143Y-63520482D01*
X163382143Y-63520482D02*
X163691666Y-63520482D01*
D10*
X151454819Y-75761904D02*
X151454819Y-75666666D01*
X151454819Y-75666666D02*
X151502438Y-75571428D01*
X151502438Y-75571428D02*
X151550057Y-75523809D01*
X151550057Y-75523809D02*
X151645295Y-75476190D01*
X151645295Y-75476190D02*
X151835771Y-75428571D01*
X151835771Y-75428571D02*
X152073866Y-75428571D01*
X152073866Y-75428571D02*
X152264342Y-75476190D01*
X152264342Y-75476190D02*
X152359580Y-75523809D01*
X152359580Y-75523809D02*
X152407200Y-75571428D01*
X152407200Y-75571428D02*
X152454819Y-75666666D01*
X152454819Y-75666666D02*
X152454819Y-75761904D01*
X152454819Y-75761904D02*
X152407200Y-75857142D01*
X152407200Y-75857142D02*
X152359580Y-75904761D01*
X152359580Y-75904761D02*
X152264342Y-75952380D01*
X152264342Y-75952380D02*
X152073866Y-75999999D01*
X152073866Y-75999999D02*
X151835771Y-75999999D01*
X151835771Y-75999999D02*
X151645295Y-75952380D01*
X151645295Y-75952380D02*
X151550057Y-75904761D01*
X151550057Y-75904761D02*
X151502438Y-75857142D01*
X151502438Y-75857142D02*
X151454819Y-75761904D01*
X152359580Y-74999999D02*
X152407200Y-74952380D01*
X152407200Y-74952380D02*
X152454819Y-74999999D01*
X152454819Y-74999999D02*
X152407200Y-75047618D01*
X152407200Y-75047618D02*
X152359580Y-74999999D01*
X152359580Y-74999999D02*
X152454819Y-74999999D01*
X152454819Y-74000000D02*
X152454819Y-74571428D01*
X152454819Y-74285714D02*
X151454819Y-74285714D01*
X151454819Y-74285714D02*
X151597676Y-74380952D01*
X151597676Y-74380952D02*
X151692914Y-74476190D01*
X151692914Y-74476190D02*
X151740533Y-74571428D01*
D11*
X152011450Y-72287920D02*
X152035260Y-72311729D01*
X152035260Y-72311729D02*
X152059069Y-72383158D01*
X152059069Y-72383158D02*
X152059069Y-72430777D01*
X152059069Y-72430777D02*
X152035260Y-72502205D01*
X152035260Y-72502205D02*
X151987640Y-72549824D01*
X151987640Y-72549824D02*
X151940021Y-72573634D01*
X151940021Y-72573634D02*
X151844783Y-72597443D01*
X151844783Y-72597443D02*
X151773355Y-72597443D01*
X151773355Y-72597443D02*
X151678117Y-72573634D01*
X151678117Y-72573634D02*
X151630498Y-72549824D01*
X151630498Y-72549824D02*
X151582879Y-72502205D01*
X151582879Y-72502205D02*
X151559069Y-72430777D01*
X151559069Y-72430777D02*
X151559069Y-72383158D01*
X151559069Y-72383158D02*
X151582879Y-72311729D01*
X151582879Y-72311729D02*
X151606688Y-72287920D01*
X151773355Y-72002205D02*
X151749545Y-72049824D01*
X151749545Y-72049824D02*
X151725736Y-72073634D01*
X151725736Y-72073634D02*
X151678117Y-72097443D01*
X151678117Y-72097443D02*
X151654307Y-72097443D01*
X151654307Y-72097443D02*
X151606688Y-72073634D01*
X151606688Y-72073634D02*
X151582879Y-72049824D01*
X151582879Y-72049824D02*
X151559069Y-72002205D01*
X151559069Y-72002205D02*
X151559069Y-71906967D01*
X151559069Y-71906967D02*
X151582879Y-71859348D01*
X151582879Y-71859348D02*
X151606688Y-71835539D01*
X151606688Y-71835539D02*
X151654307Y-71811729D01*
X151654307Y-71811729D02*
X151678117Y-71811729D01*
X151678117Y-71811729D02*
X151725736Y-71835539D01*
X151725736Y-71835539D02*
X151749545Y-71859348D01*
X151749545Y-71859348D02*
X151773355Y-71906967D01*
X151773355Y-71906967D02*
X151773355Y-72002205D01*
X151773355Y-72002205D02*
X151797164Y-72049824D01*
X151797164Y-72049824D02*
X151820974Y-72073634D01*
X151820974Y-72073634D02*
X151868593Y-72097443D01*
X151868593Y-72097443D02*
X151963831Y-72097443D01*
X151963831Y-72097443D02*
X152011450Y-72073634D01*
X152011450Y-72073634D02*
X152035260Y-72049824D01*
X152035260Y-72049824D02*
X152059069Y-72002205D01*
X152059069Y-72002205D02*
X152059069Y-71906967D01*
X152059069Y-71906967D02*
X152035260Y-71859348D01*
X152035260Y-71859348D02*
X152011450Y-71835539D01*
X152011450Y-71835539D02*
X151963831Y-71811729D01*
X151963831Y-71811729D02*
X151868593Y-71811729D01*
X151868593Y-71811729D02*
X151820974Y-71835539D01*
X151820974Y-71835539D02*
X151797164Y-71859348D01*
X151797164Y-71859348D02*
X151773355Y-71906967D01*
D10*
X185213152Y-60690476D02*
X185879819Y-60690476D01*
X184832200Y-60928571D02*
X185546485Y-61166666D01*
X185546485Y-61166666D02*
X185546485Y-60547619D01*
X185879819Y-60166666D02*
X184879819Y-60166666D01*
X185498866Y-60071428D02*
X185879819Y-59785714D01*
X185213152Y-59785714D02*
X185594104Y-60166666D01*
X184879819Y-59452380D02*
X184879819Y-58785714D01*
X184879819Y-58785714D02*
X185879819Y-59214285D01*
D11*
X184002149Y-60083333D02*
X183764054Y-60249999D01*
X184002149Y-60369047D02*
X183502149Y-60369047D01*
X183502149Y-60369047D02*
X183502149Y-60178571D01*
X183502149Y-60178571D02*
X183525959Y-60130952D01*
X183525959Y-60130952D02*
X183549768Y-60107142D01*
X183549768Y-60107142D02*
X183597387Y-60083333D01*
X183597387Y-60083333D02*
X183668816Y-60083333D01*
X183668816Y-60083333D02*
X183716435Y-60107142D01*
X183716435Y-60107142D02*
X183740244Y-60130952D01*
X183740244Y-60130952D02*
X183764054Y-60178571D01*
X183764054Y-60178571D02*
X183764054Y-60369047D01*
X183502149Y-59916666D02*
X183502149Y-59583333D01*
X183502149Y-59583333D02*
X184002149Y-59797618D01*
D10*
X181954819Y-113079523D02*
X182669104Y-113079523D01*
X182669104Y-113079523D02*
X182811961Y-113127142D01*
X182811961Y-113127142D02*
X182907200Y-113222380D01*
X182907200Y-113222380D02*
X182954819Y-113365237D01*
X182954819Y-113365237D02*
X182954819Y-113460475D01*
X182954819Y-112079523D02*
X182954819Y-112650951D01*
X182954819Y-112365237D02*
X181954819Y-112365237D01*
X181954819Y-112365237D02*
X182097676Y-112460475D01*
X182097676Y-112460475D02*
X182192914Y-112555713D01*
X182192914Y-112555713D02*
X182240533Y-112650951D01*
X181954819Y-111460475D02*
X181954819Y-111365237D01*
X181954819Y-111365237D02*
X182002438Y-111269999D01*
X182002438Y-111269999D02*
X182050057Y-111222380D01*
X182050057Y-111222380D02*
X182145295Y-111174761D01*
X182145295Y-111174761D02*
X182335771Y-111127142D01*
X182335771Y-111127142D02*
X182573866Y-111127142D01*
X182573866Y-111127142D02*
X182764342Y-111174761D01*
X182764342Y-111174761D02*
X182859580Y-111222380D01*
X182859580Y-111222380D02*
X182907200Y-111269999D01*
X182907200Y-111269999D02*
X182954819Y-111365237D01*
X182954819Y-111365237D02*
X182954819Y-111460475D01*
X182954819Y-111460475D02*
X182907200Y-111555713D01*
X182907200Y-111555713D02*
X182859580Y-111603332D01*
X182859580Y-111603332D02*
X182764342Y-111650951D01*
X182764342Y-111650951D02*
X182573866Y-111698570D01*
X182573866Y-111698570D02*
X182335771Y-111698570D01*
X182335771Y-111698570D02*
X182145295Y-111650951D01*
X182145295Y-111650951D02*
X182050057Y-111603332D01*
X182050057Y-111603332D02*
X182002438Y-111555713D01*
X182002438Y-111555713D02*
X181954819Y-111460475D01*
X145204819Y-93183333D02*
X145919104Y-93183333D01*
X145919104Y-93183333D02*
X146061961Y-93230952D01*
X146061961Y-93230952D02*
X146157200Y-93326190D01*
X146157200Y-93326190D02*
X146204819Y-93469047D01*
X146204819Y-93469047D02*
X146204819Y-93564285D01*
X145204819Y-92802380D02*
X145204819Y-92135714D01*
X145204819Y-92135714D02*
X146204819Y-92564285D01*
X149954819Y-74214285D02*
X149954819Y-74785713D01*
X149954819Y-74499999D02*
X148954819Y-74499999D01*
X148954819Y-74499999D02*
X149097676Y-74595237D01*
X149097676Y-74595237D02*
X149192914Y-74690475D01*
X149192914Y-74690475D02*
X149240533Y-74785713D01*
D11*
X149511450Y-72325420D02*
X149535260Y-72349229D01*
X149535260Y-72349229D02*
X149559069Y-72420658D01*
X149559069Y-72420658D02*
X149559069Y-72468277D01*
X149559069Y-72468277D02*
X149535260Y-72539705D01*
X149535260Y-72539705D02*
X149487640Y-72587324D01*
X149487640Y-72587324D02*
X149440021Y-72611134D01*
X149440021Y-72611134D02*
X149344783Y-72634943D01*
X149344783Y-72634943D02*
X149273355Y-72634943D01*
X149273355Y-72634943D02*
X149178117Y-72611134D01*
X149178117Y-72611134D02*
X149130498Y-72587324D01*
X149130498Y-72587324D02*
X149082879Y-72539705D01*
X149082879Y-72539705D02*
X149059069Y-72468277D01*
X149059069Y-72468277D02*
X149059069Y-72420658D01*
X149059069Y-72420658D02*
X149082879Y-72349229D01*
X149082879Y-72349229D02*
X149106688Y-72325420D01*
X149059069Y-72158753D02*
X149059069Y-71825420D01*
X149059069Y-71825420D02*
X149559069Y-72039705D01*
D10*
X161166667Y-72169104D02*
X161642857Y-72169104D01*
X161071429Y-72454819D02*
X161404762Y-71454819D01*
X161404762Y-71454819D02*
X161738095Y-72454819D01*
X162071429Y-72454819D02*
X162071429Y-71454819D01*
X162071429Y-71454819D02*
X162309524Y-71454819D01*
X162309524Y-71454819D02*
X162452381Y-71502438D01*
X162452381Y-71502438D02*
X162547619Y-71597676D01*
X162547619Y-71597676D02*
X162595238Y-71692914D01*
X162595238Y-71692914D02*
X162642857Y-71883390D01*
X162642857Y-71883390D02*
X162642857Y-72026247D01*
X162642857Y-72026247D02*
X162595238Y-72216723D01*
X162595238Y-72216723D02*
X162547619Y-72311961D01*
X162547619Y-72311961D02*
X162452381Y-72407200D01*
X162452381Y-72407200D02*
X162309524Y-72454819D01*
X162309524Y-72454819D02*
X162071429Y-72454819D01*
X163023810Y-72407200D02*
X163166667Y-72454819D01*
X163166667Y-72454819D02*
X163404762Y-72454819D01*
X163404762Y-72454819D02*
X163500000Y-72407200D01*
X163500000Y-72407200D02*
X163547619Y-72359580D01*
X163547619Y-72359580D02*
X163595238Y-72264342D01*
X163595238Y-72264342D02*
X163595238Y-72169104D01*
X163595238Y-72169104D02*
X163547619Y-72073866D01*
X163547619Y-72073866D02*
X163500000Y-72026247D01*
X163500000Y-72026247D02*
X163404762Y-71978628D01*
X163404762Y-71978628D02*
X163214286Y-71931009D01*
X163214286Y-71931009D02*
X163119048Y-71883390D01*
X163119048Y-71883390D02*
X163071429Y-71835771D01*
X163071429Y-71835771D02*
X163023810Y-71740533D01*
X163023810Y-71740533D02*
X163023810Y-71645295D01*
X163023810Y-71645295D02*
X163071429Y-71550057D01*
X163071429Y-71550057D02*
X163119048Y-71502438D01*
X163119048Y-71502438D02*
X163214286Y-71454819D01*
X163214286Y-71454819D02*
X163452381Y-71454819D01*
X163452381Y-71454819D02*
X163595238Y-71502438D01*
X164547619Y-72454819D02*
X163976191Y-72454819D01*
X164261905Y-72454819D02*
X164261905Y-71454819D01*
X164261905Y-71454819D02*
X164166667Y-71597676D01*
X164166667Y-71597676D02*
X164071429Y-71692914D01*
X164071429Y-71692914D02*
X163976191Y-71740533D01*
X165500000Y-72454819D02*
X164928572Y-72454819D01*
X165214286Y-72454819D02*
X165214286Y-71454819D01*
X165214286Y-71454819D02*
X165119048Y-71597676D01*
X165119048Y-71597676D02*
X165023810Y-71692914D01*
X165023810Y-71692914D02*
X164928572Y-71740533D01*
X166452381Y-72454819D02*
X165880953Y-72454819D01*
X166166667Y-72454819D02*
X166166667Y-71454819D01*
X166166667Y-71454819D02*
X166071429Y-71597676D01*
X166071429Y-71597676D02*
X165976191Y-71692914D01*
X165976191Y-71692914D02*
X165880953Y-71740533D01*
X167357143Y-71454819D02*
X166880953Y-71454819D01*
X166880953Y-71454819D02*
X166833334Y-71931009D01*
X166833334Y-71931009D02*
X166880953Y-71883390D01*
X166880953Y-71883390D02*
X166976191Y-71835771D01*
X166976191Y-71835771D02*
X167214286Y-71835771D01*
X167214286Y-71835771D02*
X167309524Y-71883390D01*
X167309524Y-71883390D02*
X167357143Y-71931009D01*
X167357143Y-71931009D02*
X167404762Y-72026247D01*
X167404762Y-72026247D02*
X167404762Y-72264342D01*
X167404762Y-72264342D02*
X167357143Y-72359580D01*
X167357143Y-72359580D02*
X167309524Y-72407200D01*
X167309524Y-72407200D02*
X167214286Y-72454819D01*
X167214286Y-72454819D02*
X166976191Y-72454819D01*
X166976191Y-72454819D02*
X166880953Y-72407200D01*
X166880953Y-72407200D02*
X166833334Y-72359580D01*
X167833334Y-72454819D02*
X167833334Y-71454819D01*
X168309524Y-72454819D02*
X168309524Y-71454819D01*
X168309524Y-71454819D02*
X168547619Y-71454819D01*
X168547619Y-71454819D02*
X168690476Y-71502438D01*
X168690476Y-71502438D02*
X168785714Y-71597676D01*
X168785714Y-71597676D02*
X168833333Y-71692914D01*
X168833333Y-71692914D02*
X168880952Y-71883390D01*
X168880952Y-71883390D02*
X168880952Y-72026247D01*
X168880952Y-72026247D02*
X168833333Y-72216723D01*
X168833333Y-72216723D02*
X168785714Y-72311961D01*
X168785714Y-72311961D02*
X168690476Y-72407200D01*
X168690476Y-72407200D02*
X168547619Y-72454819D01*
X168547619Y-72454819D02*
X168309524Y-72454819D01*
X169833333Y-71502438D02*
X169738095Y-71454819D01*
X169738095Y-71454819D02*
X169595238Y-71454819D01*
X169595238Y-71454819D02*
X169452381Y-71502438D01*
X169452381Y-71502438D02*
X169357143Y-71597676D01*
X169357143Y-71597676D02*
X169309524Y-71692914D01*
X169309524Y-71692914D02*
X169261905Y-71883390D01*
X169261905Y-71883390D02*
X169261905Y-72026247D01*
X169261905Y-72026247D02*
X169309524Y-72216723D01*
X169309524Y-72216723D02*
X169357143Y-72311961D01*
X169357143Y-72311961D02*
X169452381Y-72407200D01*
X169452381Y-72407200D02*
X169595238Y-72454819D01*
X169595238Y-72454819D02*
X169690476Y-72454819D01*
X169690476Y-72454819D02*
X169833333Y-72407200D01*
X169833333Y-72407200D02*
X169880952Y-72359580D01*
X169880952Y-72359580D02*
X169880952Y-72026247D01*
X169880952Y-72026247D02*
X169690476Y-72026247D01*
X170261905Y-72407200D02*
X170404762Y-72454819D01*
X170404762Y-72454819D02*
X170642857Y-72454819D01*
X170642857Y-72454819D02*
X170738095Y-72407200D01*
X170738095Y-72407200D02*
X170785714Y-72359580D01*
X170785714Y-72359580D02*
X170833333Y-72264342D01*
X170833333Y-72264342D02*
X170833333Y-72169104D01*
X170833333Y-72169104D02*
X170785714Y-72073866D01*
X170785714Y-72073866D02*
X170738095Y-72026247D01*
X170738095Y-72026247D02*
X170642857Y-71978628D01*
X170642857Y-71978628D02*
X170452381Y-71931009D01*
X170452381Y-71931009D02*
X170357143Y-71883390D01*
X170357143Y-71883390D02*
X170309524Y-71835771D01*
X170309524Y-71835771D02*
X170261905Y-71740533D01*
X170261905Y-71740533D02*
X170261905Y-71645295D01*
X170261905Y-71645295D02*
X170309524Y-71550057D01*
X170309524Y-71550057D02*
X170357143Y-71502438D01*
X170357143Y-71502438D02*
X170452381Y-71454819D01*
X170452381Y-71454819D02*
X170690476Y-71454819D01*
X170690476Y-71454819D02*
X170833333Y-71502438D01*
X165238095Y-68954819D02*
X165238095Y-69764342D01*
X165238095Y-69764342D02*
X165285714Y-69859580D01*
X165285714Y-69859580D02*
X165333333Y-69907200D01*
X165333333Y-69907200D02*
X165428571Y-69954819D01*
X165428571Y-69954819D02*
X165619047Y-69954819D01*
X165619047Y-69954819D02*
X165714285Y-69907200D01*
X165714285Y-69907200D02*
X165761904Y-69859580D01*
X165761904Y-69859580D02*
X165809523Y-69764342D01*
X165809523Y-69764342D02*
X165809523Y-68954819D01*
X166714285Y-69288152D02*
X166714285Y-69954819D01*
X166476190Y-68907200D02*
X166238095Y-69621485D01*
X166238095Y-69621485D02*
X166857142Y-69621485D01*
X145204819Y-81183333D02*
X145919104Y-81183333D01*
X145919104Y-81183333D02*
X146061961Y-81230952D01*
X146061961Y-81230952D02*
X146157200Y-81326190D01*
X146157200Y-81326190D02*
X146204819Y-81469047D01*
X146204819Y-81469047D02*
X146204819Y-81564285D01*
X145204819Y-80230952D02*
X145204819Y-80707142D01*
X145204819Y-80707142D02*
X145681009Y-80754761D01*
X145681009Y-80754761D02*
X145633390Y-80707142D01*
X145633390Y-80707142D02*
X145585771Y-80611904D01*
X145585771Y-80611904D02*
X145585771Y-80373809D01*
X145585771Y-80373809D02*
X145633390Y-80278571D01*
X145633390Y-80278571D02*
X145681009Y-80230952D01*
X145681009Y-80230952D02*
X145776247Y-80183333D01*
X145776247Y-80183333D02*
X146014342Y-80183333D01*
X146014342Y-80183333D02*
X146109580Y-80230952D01*
X146109580Y-80230952D02*
X146157200Y-80278571D01*
X146157200Y-80278571D02*
X146204819Y-80373809D01*
X146204819Y-80373809D02*
X146204819Y-80611904D01*
X146204819Y-80611904D02*
X146157200Y-80707142D01*
X146157200Y-80707142D02*
X146109580Y-80754761D01*
X178880952Y-107954819D02*
X178309524Y-107954819D01*
X178595238Y-107954819D02*
X178595238Y-106954819D01*
X178595238Y-106954819D02*
X178500000Y-107097676D01*
X178500000Y-107097676D02*
X178404762Y-107192914D01*
X178404762Y-107192914D02*
X178309524Y-107240533D01*
X179309524Y-107954819D02*
X179309524Y-106954819D01*
X179404762Y-107573866D02*
X179690476Y-107954819D01*
X179690476Y-107288152D02*
X179309524Y-107669104D01*
D11*
X179227149Y-109821428D02*
X178989054Y-109988094D01*
X179227149Y-110107142D02*
X178727149Y-110107142D01*
X178727149Y-110107142D02*
X178727149Y-109916666D01*
X178727149Y-109916666D02*
X178750959Y-109869047D01*
X178750959Y-109869047D02*
X178774768Y-109845237D01*
X178774768Y-109845237D02*
X178822387Y-109821428D01*
X178822387Y-109821428D02*
X178893816Y-109821428D01*
X178893816Y-109821428D02*
X178941435Y-109845237D01*
X178941435Y-109845237D02*
X178965244Y-109869047D01*
X178965244Y-109869047D02*
X178989054Y-109916666D01*
X178989054Y-109916666D02*
X178989054Y-110107142D01*
X179227149Y-109345237D02*
X179227149Y-109630951D01*
X179227149Y-109488094D02*
X178727149Y-109488094D01*
X178727149Y-109488094D02*
X178798578Y-109535713D01*
X178798578Y-109535713D02*
X178846197Y-109583332D01*
X178846197Y-109583332D02*
X178870006Y-109630951D01*
X178727149Y-108892857D02*
X178727149Y-109130952D01*
X178727149Y-109130952D02*
X178965244Y-109154761D01*
X178965244Y-109154761D02*
X178941435Y-109130952D01*
X178941435Y-109130952D02*
X178917625Y-109083333D01*
X178917625Y-109083333D02*
X178917625Y-108964285D01*
X178917625Y-108964285D02*
X178941435Y-108916666D01*
X178941435Y-108916666D02*
X178965244Y-108892857D01*
X178965244Y-108892857D02*
X179012863Y-108869047D01*
X179012863Y-108869047D02*
X179131911Y-108869047D01*
X179131911Y-108869047D02*
X179179530Y-108892857D01*
X179179530Y-108892857D02*
X179203340Y-108916666D01*
X179203340Y-108916666D02*
X179227149Y-108964285D01*
X179227149Y-108964285D02*
X179227149Y-109083333D01*
X179227149Y-109083333D02*
X179203340Y-109130952D01*
X179203340Y-109130952D02*
X179179530Y-109154761D01*
D10*
X172253819Y-85993154D02*
X173063342Y-85993154D01*
X173063342Y-85993154D02*
X173158580Y-85945535D01*
X173158580Y-85945535D02*
X173206200Y-85897916D01*
X173206200Y-85897916D02*
X173253819Y-85802678D01*
X173253819Y-85802678D02*
X173253819Y-85612202D01*
X173253819Y-85612202D02*
X173206200Y-85516964D01*
X173206200Y-85516964D02*
X173158580Y-85469345D01*
X173158580Y-85469345D02*
X173063342Y-85421726D01*
X173063342Y-85421726D02*
X172253819Y-85421726D01*
X173253819Y-84421726D02*
X173253819Y-84993154D01*
X173253819Y-84707440D02*
X172253819Y-84707440D01*
X172253819Y-84707440D02*
X172396676Y-84802678D01*
X172396676Y-84802678D02*
X172491914Y-84897916D01*
X172491914Y-84897916D02*
X172539533Y-84993154D01*
X152238095Y-65454819D02*
X152333333Y-65454819D01*
X152333333Y-65454819D02*
X152428571Y-65502438D01*
X152428571Y-65502438D02*
X152476190Y-65550057D01*
X152476190Y-65550057D02*
X152523809Y-65645295D01*
X152523809Y-65645295D02*
X152571428Y-65835771D01*
X152571428Y-65835771D02*
X152571428Y-66073866D01*
X152571428Y-66073866D02*
X152523809Y-66264342D01*
X152523809Y-66264342D02*
X152476190Y-66359580D01*
X152476190Y-66359580D02*
X152428571Y-66407200D01*
X152428571Y-66407200D02*
X152333333Y-66454819D01*
X152333333Y-66454819D02*
X152238095Y-66454819D01*
X152238095Y-66454819D02*
X152142857Y-66407200D01*
X152142857Y-66407200D02*
X152095238Y-66359580D01*
X152095238Y-66359580D02*
X152047619Y-66264342D01*
X152047619Y-66264342D02*
X152000000Y-66073866D01*
X152000000Y-66073866D02*
X152000000Y-65835771D01*
X152000000Y-65835771D02*
X152047619Y-65645295D01*
X152047619Y-65645295D02*
X152095238Y-65550057D01*
X152095238Y-65550057D02*
X152142857Y-65502438D01*
X152142857Y-65502438D02*
X152238095Y-65454819D01*
X153000000Y-66359580D02*
X153047619Y-66407200D01*
X153047619Y-66407200D02*
X153000000Y-66454819D01*
X153000000Y-66454819D02*
X152952381Y-66407200D01*
X152952381Y-66407200D02*
X153000000Y-66359580D01*
X153000000Y-66359580D02*
X153000000Y-66454819D01*
X153999999Y-66454819D02*
X153428571Y-66454819D01*
X153714285Y-66454819D02*
X153714285Y-65454819D01*
X153714285Y-65454819D02*
X153619047Y-65597676D01*
X153619047Y-65597676D02*
X153523809Y-65692914D01*
X153523809Y-65692914D02*
X153428571Y-65740533D01*
D11*
X156191666Y-63679530D02*
X156167857Y-63703340D01*
X156167857Y-63703340D02*
X156096428Y-63727149D01*
X156096428Y-63727149D02*
X156048809Y-63727149D01*
X156048809Y-63727149D02*
X155977381Y-63703340D01*
X155977381Y-63703340D02*
X155929762Y-63655720D01*
X155929762Y-63655720D02*
X155905952Y-63608101D01*
X155905952Y-63608101D02*
X155882143Y-63512863D01*
X155882143Y-63512863D02*
X155882143Y-63441435D01*
X155882143Y-63441435D02*
X155905952Y-63346197D01*
X155905952Y-63346197D02*
X155929762Y-63298578D01*
X155929762Y-63298578D02*
X155977381Y-63250959D01*
X155977381Y-63250959D02*
X156048809Y-63227149D01*
X156048809Y-63227149D02*
X156096428Y-63227149D01*
X156096428Y-63227149D02*
X156167857Y-63250959D01*
X156167857Y-63250959D02*
X156191666Y-63274768D01*
X156358333Y-63227149D02*
X156667857Y-63227149D01*
X156667857Y-63227149D02*
X156501190Y-63417625D01*
X156501190Y-63417625D02*
X156572619Y-63417625D01*
X156572619Y-63417625D02*
X156620238Y-63441435D01*
X156620238Y-63441435D02*
X156644047Y-63465244D01*
X156644047Y-63465244D02*
X156667857Y-63512863D01*
X156667857Y-63512863D02*
X156667857Y-63631911D01*
X156667857Y-63631911D02*
X156644047Y-63679530D01*
X156644047Y-63679530D02*
X156620238Y-63703340D01*
X156620238Y-63703340D02*
X156572619Y-63727149D01*
X156572619Y-63727149D02*
X156429762Y-63727149D01*
X156429762Y-63727149D02*
X156382143Y-63703340D01*
X156382143Y-63703340D02*
X156358333Y-63679530D01*
D10*
X166238095Y-65454819D02*
X166333333Y-65454819D01*
X166333333Y-65454819D02*
X166428571Y-65502438D01*
X166428571Y-65502438D02*
X166476190Y-65550057D01*
X166476190Y-65550057D02*
X166523809Y-65645295D01*
X166523809Y-65645295D02*
X166571428Y-65835771D01*
X166571428Y-65835771D02*
X166571428Y-66073866D01*
X166571428Y-66073866D02*
X166523809Y-66264342D01*
X166523809Y-66264342D02*
X166476190Y-66359580D01*
X166476190Y-66359580D02*
X166428571Y-66407200D01*
X166428571Y-66407200D02*
X166333333Y-66454819D01*
X166333333Y-66454819D02*
X166238095Y-66454819D01*
X166238095Y-66454819D02*
X166142857Y-66407200D01*
X166142857Y-66407200D02*
X166095238Y-66359580D01*
X166095238Y-66359580D02*
X166047619Y-66264342D01*
X166047619Y-66264342D02*
X166000000Y-66073866D01*
X166000000Y-66073866D02*
X166000000Y-65835771D01*
X166000000Y-65835771D02*
X166047619Y-65645295D01*
X166047619Y-65645295D02*
X166095238Y-65550057D01*
X166095238Y-65550057D02*
X166142857Y-65502438D01*
X166142857Y-65502438D02*
X166238095Y-65454819D01*
X167000000Y-66359580D02*
X167047619Y-66407200D01*
X167047619Y-66407200D02*
X167000000Y-66454819D01*
X167000000Y-66454819D02*
X166952381Y-66407200D01*
X166952381Y-66407200D02*
X167000000Y-66359580D01*
X167000000Y-66359580D02*
X167000000Y-66454819D01*
X167999999Y-66454819D02*
X167428571Y-66454819D01*
X167714285Y-66454819D02*
X167714285Y-65454819D01*
X167714285Y-65454819D02*
X167619047Y-65597676D01*
X167619047Y-65597676D02*
X167523809Y-65692914D01*
X167523809Y-65692914D02*
X167428571Y-65740533D01*
D11*
X170191666Y-63679530D02*
X170167857Y-63703340D01*
X170167857Y-63703340D02*
X170096428Y-63727149D01*
X170096428Y-63727149D02*
X170048809Y-63727149D01*
X170048809Y-63727149D02*
X169977381Y-63703340D01*
X169977381Y-63703340D02*
X169929762Y-63655720D01*
X169929762Y-63655720D02*
X169905952Y-63608101D01*
X169905952Y-63608101D02*
X169882143Y-63512863D01*
X169882143Y-63512863D02*
X169882143Y-63441435D01*
X169882143Y-63441435D02*
X169905952Y-63346197D01*
X169905952Y-63346197D02*
X169929762Y-63298578D01*
X169929762Y-63298578D02*
X169977381Y-63250959D01*
X169977381Y-63250959D02*
X170048809Y-63227149D01*
X170048809Y-63227149D02*
X170096428Y-63227149D01*
X170096428Y-63227149D02*
X170167857Y-63250959D01*
X170167857Y-63250959D02*
X170191666Y-63274768D01*
X170667857Y-63727149D02*
X170382143Y-63727149D01*
X170525000Y-63727149D02*
X170525000Y-63227149D01*
X170525000Y-63227149D02*
X170477381Y-63298578D01*
X170477381Y-63298578D02*
X170429762Y-63346197D01*
X170429762Y-63346197D02*
X170382143Y-63370006D01*
D10*
X152214286Y-62954819D02*
X152833333Y-62954819D01*
X152833333Y-62954819D02*
X152500000Y-63335771D01*
X152500000Y-63335771D02*
X152642857Y-63335771D01*
X152642857Y-63335771D02*
X152738095Y-63383390D01*
X152738095Y-63383390D02*
X152785714Y-63431009D01*
X152785714Y-63431009D02*
X152833333Y-63526247D01*
X152833333Y-63526247D02*
X152833333Y-63764342D01*
X152833333Y-63764342D02*
X152785714Y-63859580D01*
X152785714Y-63859580D02*
X152738095Y-63907200D01*
X152738095Y-63907200D02*
X152642857Y-63954819D01*
X152642857Y-63954819D02*
X152357143Y-63954819D01*
X152357143Y-63954819D02*
X152261905Y-63907200D01*
X152261905Y-63907200D02*
X152214286Y-63859580D01*
X153166667Y-62954819D02*
X153785714Y-62954819D01*
X153785714Y-62954819D02*
X153452381Y-63335771D01*
X153452381Y-63335771D02*
X153595238Y-63335771D01*
X153595238Y-63335771D02*
X153690476Y-63383390D01*
X153690476Y-63383390D02*
X153738095Y-63431009D01*
X153738095Y-63431009D02*
X153785714Y-63526247D01*
X153785714Y-63526247D02*
X153785714Y-63764342D01*
X153785714Y-63764342D02*
X153738095Y-63859580D01*
X153738095Y-63859580D02*
X153690476Y-63907200D01*
X153690476Y-63907200D02*
X153595238Y-63954819D01*
X153595238Y-63954819D02*
X153309524Y-63954819D01*
X153309524Y-63954819D02*
X153214286Y-63907200D01*
X153214286Y-63907200D02*
X153166667Y-63859580D01*
X154404762Y-62954819D02*
X154500000Y-62954819D01*
X154500000Y-62954819D02*
X154595238Y-63002438D01*
X154595238Y-63002438D02*
X154642857Y-63050057D01*
X154642857Y-63050057D02*
X154690476Y-63145295D01*
X154690476Y-63145295D02*
X154738095Y-63335771D01*
X154738095Y-63335771D02*
X154738095Y-63573866D01*
X154738095Y-63573866D02*
X154690476Y-63764342D01*
X154690476Y-63764342D02*
X154642857Y-63859580D01*
X154642857Y-63859580D02*
X154595238Y-63907200D01*
X154595238Y-63907200D02*
X154500000Y-63954819D01*
X154500000Y-63954819D02*
X154404762Y-63954819D01*
X154404762Y-63954819D02*
X154309524Y-63907200D01*
X154309524Y-63907200D02*
X154261905Y-63859580D01*
X154261905Y-63859580D02*
X154214286Y-63764342D01*
X154214286Y-63764342D02*
X154166667Y-63573866D01*
X154166667Y-63573866D02*
X154166667Y-63335771D01*
X154166667Y-63335771D02*
X154214286Y-63145295D01*
X154214286Y-63145295D02*
X154261905Y-63050057D01*
X154261905Y-63050057D02*
X154309524Y-63002438D01*
X154309524Y-63002438D02*
X154404762Y-62954819D01*
D11*
X156191666Y-66227149D02*
X156025000Y-65989054D01*
X155905952Y-66227149D02*
X155905952Y-65727149D01*
X155905952Y-65727149D02*
X156096428Y-65727149D01*
X156096428Y-65727149D02*
X156144047Y-65750959D01*
X156144047Y-65750959D02*
X156167857Y-65774768D01*
X156167857Y-65774768D02*
X156191666Y-65822387D01*
X156191666Y-65822387D02*
X156191666Y-65893816D01*
X156191666Y-65893816D02*
X156167857Y-65941435D01*
X156167857Y-65941435D02*
X156144047Y-65965244D01*
X156144047Y-65965244D02*
X156096428Y-65989054D01*
X156096428Y-65989054D02*
X155905952Y-65989054D01*
X156382143Y-65774768D02*
X156405952Y-65750959D01*
X156405952Y-65750959D02*
X156453571Y-65727149D01*
X156453571Y-65727149D02*
X156572619Y-65727149D01*
X156572619Y-65727149D02*
X156620238Y-65750959D01*
X156620238Y-65750959D02*
X156644047Y-65774768D01*
X156644047Y-65774768D02*
X156667857Y-65822387D01*
X156667857Y-65822387D02*
X156667857Y-65870006D01*
X156667857Y-65870006D02*
X156644047Y-65941435D01*
X156644047Y-65941435D02*
X156358333Y-66227149D01*
X156358333Y-66227149D02*
X156667857Y-66227149D01*
D10*
X176213152Y-60690476D02*
X176879819Y-60690476D01*
X175832200Y-60928571D02*
X176546485Y-61166666D01*
X176546485Y-61166666D02*
X176546485Y-60547619D01*
X176879819Y-60166666D02*
X175879819Y-60166666D01*
X176498866Y-60071428D02*
X176879819Y-59785714D01*
X176213152Y-59785714D02*
X176594104Y-60166666D01*
X175879819Y-59452380D02*
X175879819Y-58785714D01*
X175879819Y-58785714D02*
X176879819Y-59214285D01*
D11*
X175002149Y-60083333D02*
X174764054Y-60249999D01*
X175002149Y-60369047D02*
X174502149Y-60369047D01*
X174502149Y-60369047D02*
X174502149Y-60178571D01*
X174502149Y-60178571D02*
X174525959Y-60130952D01*
X174525959Y-60130952D02*
X174549768Y-60107142D01*
X174549768Y-60107142D02*
X174597387Y-60083333D01*
X174597387Y-60083333D02*
X174668816Y-60083333D01*
X174668816Y-60083333D02*
X174716435Y-60107142D01*
X174716435Y-60107142D02*
X174740244Y-60130952D01*
X174740244Y-60130952D02*
X174764054Y-60178571D01*
X174764054Y-60178571D02*
X174764054Y-60369047D01*
X174716435Y-59797618D02*
X174692625Y-59845237D01*
X174692625Y-59845237D02*
X174668816Y-59869047D01*
X174668816Y-59869047D02*
X174621197Y-59892856D01*
X174621197Y-59892856D02*
X174597387Y-59892856D01*
X174597387Y-59892856D02*
X174549768Y-59869047D01*
X174549768Y-59869047D02*
X174525959Y-59845237D01*
X174525959Y-59845237D02*
X174502149Y-59797618D01*
X174502149Y-59797618D02*
X174502149Y-59702380D01*
X174502149Y-59702380D02*
X174525959Y-59654761D01*
X174525959Y-59654761D02*
X174549768Y-59630952D01*
X174549768Y-59630952D02*
X174597387Y-59607142D01*
X174597387Y-59607142D02*
X174621197Y-59607142D01*
X174621197Y-59607142D02*
X174668816Y-59630952D01*
X174668816Y-59630952D02*
X174692625Y-59654761D01*
X174692625Y-59654761D02*
X174716435Y-59702380D01*
X174716435Y-59702380D02*
X174716435Y-59797618D01*
X174716435Y-59797618D02*
X174740244Y-59845237D01*
X174740244Y-59845237D02*
X174764054Y-59869047D01*
X174764054Y-59869047D02*
X174811673Y-59892856D01*
X174811673Y-59892856D02*
X174906911Y-59892856D01*
X174906911Y-59892856D02*
X174954530Y-59869047D01*
X174954530Y-59869047D02*
X174978340Y-59845237D01*
X174978340Y-59845237D02*
X175002149Y-59797618D01*
X175002149Y-59797618D02*
X175002149Y-59702380D01*
X175002149Y-59702380D02*
X174978340Y-59654761D01*
X174978340Y-59654761D02*
X174954530Y-59630952D01*
X174954530Y-59630952D02*
X174906911Y-59607142D01*
X174906911Y-59607142D02*
X174811673Y-59607142D01*
X174811673Y-59607142D02*
X174764054Y-59630952D01*
X174764054Y-59630952D02*
X174740244Y-59654761D01*
X174740244Y-59654761D02*
X174716435Y-59702380D01*
D10*
X178936666Y-56569819D02*
X178936666Y-57284104D01*
X178936666Y-57284104D02*
X178889047Y-57426961D01*
X178889047Y-57426961D02*
X178793809Y-57522200D01*
X178793809Y-57522200D02*
X178650952Y-57569819D01*
X178650952Y-57569819D02*
X178555714Y-57569819D01*
X179317619Y-56569819D02*
X179936666Y-56569819D01*
X179936666Y-56569819D02*
X179603333Y-56950771D01*
X179603333Y-56950771D02*
X179746190Y-56950771D01*
X179746190Y-56950771D02*
X179841428Y-56998390D01*
X179841428Y-56998390D02*
X179889047Y-57046009D01*
X179889047Y-57046009D02*
X179936666Y-57141247D01*
X179936666Y-57141247D02*
X179936666Y-57379342D01*
X179936666Y-57379342D02*
X179889047Y-57474580D01*
X179889047Y-57474580D02*
X179841428Y-57522200D01*
X179841428Y-57522200D02*
X179746190Y-57569819D01*
X179746190Y-57569819D02*
X179460476Y-57569819D01*
X179460476Y-57569819D02*
X179365238Y-57522200D01*
X179365238Y-57522200D02*
X179317619Y-57474580D01*
X156954819Y-86238094D02*
X156954819Y-85666666D01*
X157954819Y-85952380D02*
X156954819Y-85952380D01*
X157954819Y-85333332D02*
X156954819Y-85333332D01*
X156954819Y-85333332D02*
X157669104Y-84999999D01*
X157669104Y-84999999D02*
X156954819Y-84666666D01*
X156954819Y-84666666D02*
X157954819Y-84666666D01*
X156954819Y-84190475D02*
X157764342Y-84190475D01*
X157764342Y-84190475D02*
X157859580Y-84142856D01*
X157859580Y-84142856D02*
X157907200Y-84095237D01*
X157907200Y-84095237D02*
X157954819Y-83999999D01*
X157954819Y-83999999D02*
X157954819Y-83809523D01*
X157954819Y-83809523D02*
X157907200Y-83714285D01*
X157907200Y-83714285D02*
X157859580Y-83666666D01*
X157859580Y-83666666D02*
X157764342Y-83619047D01*
X157764342Y-83619047D02*
X156954819Y-83619047D01*
X156954819Y-83238094D02*
X157954819Y-82571428D01*
X156954819Y-82571428D02*
X157954819Y-83238094D01*
X157954819Y-81666666D02*
X157954819Y-82238094D01*
X157954819Y-81952380D02*
X156954819Y-81952380D01*
X156954819Y-81952380D02*
X157097676Y-82047618D01*
X157097676Y-82047618D02*
X157192914Y-82142856D01*
X157192914Y-82142856D02*
X157240533Y-82238094D01*
X157954819Y-80714285D02*
X157954819Y-81285713D01*
X157954819Y-80999999D02*
X156954819Y-80999999D01*
X156954819Y-80999999D02*
X157097676Y-81095237D01*
X157097676Y-81095237D02*
X157192914Y-81190475D01*
X157192914Y-81190475D02*
X157240533Y-81285713D01*
X156954819Y-80095237D02*
X156954819Y-79999999D01*
X156954819Y-79999999D02*
X157002438Y-79904761D01*
X157002438Y-79904761D02*
X157050057Y-79857142D01*
X157050057Y-79857142D02*
X157145295Y-79809523D01*
X157145295Y-79809523D02*
X157335771Y-79761904D01*
X157335771Y-79761904D02*
X157573866Y-79761904D01*
X157573866Y-79761904D02*
X157764342Y-79809523D01*
X157764342Y-79809523D02*
X157859580Y-79857142D01*
X157859580Y-79857142D02*
X157907200Y-79904761D01*
X157907200Y-79904761D02*
X157954819Y-79999999D01*
X157954819Y-79999999D02*
X157954819Y-80095237D01*
X157954819Y-80095237D02*
X157907200Y-80190475D01*
X157907200Y-80190475D02*
X157859580Y-80238094D01*
X157859580Y-80238094D02*
X157764342Y-80285713D01*
X157764342Y-80285713D02*
X157573866Y-80333332D01*
X157573866Y-80333332D02*
X157335771Y-80333332D01*
X157335771Y-80333332D02*
X157145295Y-80285713D01*
X157145295Y-80285713D02*
X157050057Y-80238094D01*
X157050057Y-80238094D02*
X157002438Y-80190475D01*
X157002438Y-80190475D02*
X156954819Y-80095237D01*
X157288152Y-78904761D02*
X157954819Y-78904761D01*
X156907200Y-79142856D02*
X157621485Y-79380951D01*
X157621485Y-79380951D02*
X157621485Y-78761904D01*
X157954819Y-78380951D02*
X156954819Y-78380951D01*
X156954819Y-78380951D02*
X156954819Y-78142856D01*
X156954819Y-78142856D02*
X157002438Y-77999999D01*
X157002438Y-77999999D02*
X157097676Y-77904761D01*
X157097676Y-77904761D02*
X157192914Y-77857142D01*
X157192914Y-77857142D02*
X157383390Y-77809523D01*
X157383390Y-77809523D02*
X157526247Y-77809523D01*
X157526247Y-77809523D02*
X157716723Y-77857142D01*
X157716723Y-77857142D02*
X157811961Y-77904761D01*
X157811961Y-77904761D02*
X157907200Y-77999999D01*
X157907200Y-77999999D02*
X157954819Y-78142856D01*
X157954819Y-78142856D02*
X157954819Y-78380951D01*
X157002438Y-76857142D02*
X156954819Y-76952380D01*
X156954819Y-76952380D02*
X156954819Y-77095237D01*
X156954819Y-77095237D02*
X157002438Y-77238094D01*
X157002438Y-77238094D02*
X157097676Y-77333332D01*
X157097676Y-77333332D02*
X157192914Y-77380951D01*
X157192914Y-77380951D02*
X157383390Y-77428570D01*
X157383390Y-77428570D02*
X157526247Y-77428570D01*
X157526247Y-77428570D02*
X157716723Y-77380951D01*
X157716723Y-77380951D02*
X157811961Y-77333332D01*
X157811961Y-77333332D02*
X157907200Y-77238094D01*
X157907200Y-77238094D02*
X157954819Y-77095237D01*
X157954819Y-77095237D02*
X157954819Y-76999999D01*
X157954819Y-76999999D02*
X157907200Y-76857142D01*
X157907200Y-76857142D02*
X157859580Y-76809523D01*
X157859580Y-76809523D02*
X157526247Y-76809523D01*
X157526247Y-76809523D02*
X157526247Y-76999999D01*
X157907200Y-76428570D02*
X157954819Y-76285713D01*
X157954819Y-76285713D02*
X157954819Y-76047618D01*
X157954819Y-76047618D02*
X157907200Y-75952380D01*
X157907200Y-75952380D02*
X157859580Y-75904761D01*
X157859580Y-75904761D02*
X157764342Y-75857142D01*
X157764342Y-75857142D02*
X157669104Y-75857142D01*
X157669104Y-75857142D02*
X157573866Y-75904761D01*
X157573866Y-75904761D02*
X157526247Y-75952380D01*
X157526247Y-75952380D02*
X157478628Y-76047618D01*
X157478628Y-76047618D02*
X157431009Y-76238094D01*
X157431009Y-76238094D02*
X157383390Y-76333332D01*
X157383390Y-76333332D02*
X157335771Y-76380951D01*
X157335771Y-76380951D02*
X157240533Y-76428570D01*
X157240533Y-76428570D02*
X157145295Y-76428570D01*
X157145295Y-76428570D02*
X157050057Y-76380951D01*
X157050057Y-76380951D02*
X157002438Y-76333332D01*
X157002438Y-76333332D02*
X156954819Y-76238094D01*
X156954819Y-76238094D02*
X156954819Y-75999999D01*
X156954819Y-75999999D02*
X157002438Y-75857142D01*
X157954819Y-74857142D02*
X157478628Y-75190475D01*
X157954819Y-75428570D02*
X156954819Y-75428570D01*
X156954819Y-75428570D02*
X156954819Y-75047618D01*
X156954819Y-75047618D02*
X157002438Y-74952380D01*
X157002438Y-74952380D02*
X157050057Y-74904761D01*
X157050057Y-74904761D02*
X157145295Y-74857142D01*
X157145295Y-74857142D02*
X157288152Y-74857142D01*
X157288152Y-74857142D02*
X157383390Y-74904761D01*
X157383390Y-74904761D02*
X157431009Y-74952380D01*
X157431009Y-74952380D02*
X157478628Y-75047618D01*
X157478628Y-75047618D02*
X157478628Y-75428570D01*
X157877100Y-71517682D02*
X157067577Y-71517682D01*
X157067577Y-71517682D02*
X156972339Y-71565301D01*
X156972339Y-71565301D02*
X156924720Y-71612920D01*
X156924720Y-71612920D02*
X156877100Y-71708158D01*
X156877100Y-71708158D02*
X156877100Y-71898634D01*
X156877100Y-71898634D02*
X156924720Y-71993872D01*
X156924720Y-71993872D02*
X156972339Y-72041491D01*
X156972339Y-72041491D02*
X157067577Y-72089110D01*
X157067577Y-72089110D02*
X157877100Y-72089110D01*
X157877100Y-72470063D02*
X157877100Y-73089110D01*
X157877100Y-73089110D02*
X157496148Y-72755777D01*
X157496148Y-72755777D02*
X157496148Y-72898634D01*
X157496148Y-72898634D02*
X157448529Y-72993872D01*
X157448529Y-72993872D02*
X157400910Y-73041491D01*
X157400910Y-73041491D02*
X157305672Y-73089110D01*
X157305672Y-73089110D02*
X157067577Y-73089110D01*
X157067577Y-73089110D02*
X156972339Y-73041491D01*
X156972339Y-73041491D02*
X156924720Y-72993872D01*
X156924720Y-72993872D02*
X156877100Y-72898634D01*
X156877100Y-72898634D02*
X156877100Y-72612920D01*
X156877100Y-72612920D02*
X156924720Y-72517682D01*
X156924720Y-72517682D02*
X156972339Y-72470063D01*
D11*
X176727149Y-109869047D02*
X176227149Y-109869047D01*
X176227149Y-109869047D02*
X176227149Y-109749999D01*
X176227149Y-109749999D02*
X176250959Y-109678571D01*
X176250959Y-109678571D02*
X176298578Y-109630952D01*
X176298578Y-109630952D02*
X176346197Y-109607142D01*
X176346197Y-109607142D02*
X176441435Y-109583333D01*
X176441435Y-109583333D02*
X176512863Y-109583333D01*
X176512863Y-109583333D02*
X176608101Y-109607142D01*
X176608101Y-109607142D02*
X176655720Y-109630952D01*
X176655720Y-109630952D02*
X176703340Y-109678571D01*
X176703340Y-109678571D02*
X176727149Y-109749999D01*
X176727149Y-109749999D02*
X176727149Y-109869047D01*
X176727149Y-109107142D02*
X176727149Y-109392856D01*
X176727149Y-109249999D02*
X176227149Y-109249999D01*
X176227149Y-109249999D02*
X176298578Y-109297618D01*
X176298578Y-109297618D02*
X176346197Y-109345237D01*
X176346197Y-109345237D02*
X176370006Y-109392856D01*
D10*
X160936666Y-56569819D02*
X160936666Y-57284104D01*
X160936666Y-57284104D02*
X160889047Y-57426961D01*
X160889047Y-57426961D02*
X160793809Y-57522200D01*
X160793809Y-57522200D02*
X160650952Y-57569819D01*
X160650952Y-57569819D02*
X160555714Y-57569819D01*
X161936666Y-57569819D02*
X161365238Y-57569819D01*
X161650952Y-57569819D02*
X161650952Y-56569819D01*
X161650952Y-56569819D02*
X161555714Y-56712676D01*
X161555714Y-56712676D02*
X161460476Y-56807914D01*
X161460476Y-56807914D02*
X161365238Y-56855533D01*
X158213152Y-60690476D02*
X158879819Y-60690476D01*
X157832200Y-60928571D02*
X158546485Y-61166666D01*
X158546485Y-61166666D02*
X158546485Y-60547619D01*
X158879819Y-60166666D02*
X157879819Y-60166666D01*
X158498866Y-60071428D02*
X158879819Y-59785714D01*
X158213152Y-59785714D02*
X158594104Y-60166666D01*
X157879819Y-59452380D02*
X157879819Y-58785714D01*
X157879819Y-58785714D02*
X158879819Y-59214285D01*
D11*
X157002149Y-60083333D02*
X156764054Y-60249999D01*
X157002149Y-60369047D02*
X156502149Y-60369047D01*
X156502149Y-60369047D02*
X156502149Y-60178571D01*
X156502149Y-60178571D02*
X156525959Y-60130952D01*
X156525959Y-60130952D02*
X156549768Y-60107142D01*
X156549768Y-60107142D02*
X156597387Y-60083333D01*
X156597387Y-60083333D02*
X156668816Y-60083333D01*
X156668816Y-60083333D02*
X156716435Y-60107142D01*
X156716435Y-60107142D02*
X156740244Y-60130952D01*
X156740244Y-60130952D02*
X156764054Y-60178571D01*
X156764054Y-60178571D02*
X156764054Y-60369047D01*
X156502149Y-59654761D02*
X156502149Y-59749999D01*
X156502149Y-59749999D02*
X156525959Y-59797618D01*
X156525959Y-59797618D02*
X156549768Y-59821428D01*
X156549768Y-59821428D02*
X156621197Y-59869047D01*
X156621197Y-59869047D02*
X156716435Y-59892856D01*
X156716435Y-59892856D02*
X156906911Y-59892856D01*
X156906911Y-59892856D02*
X156954530Y-59869047D01*
X156954530Y-59869047D02*
X156978340Y-59845237D01*
X156978340Y-59845237D02*
X157002149Y-59797618D01*
X157002149Y-59797618D02*
X157002149Y-59702380D01*
X157002149Y-59702380D02*
X156978340Y-59654761D01*
X156978340Y-59654761D02*
X156954530Y-59630952D01*
X156954530Y-59630952D02*
X156906911Y-59607142D01*
X156906911Y-59607142D02*
X156787863Y-59607142D01*
X156787863Y-59607142D02*
X156740244Y-59630952D01*
X156740244Y-59630952D02*
X156716435Y-59654761D01*
X156716435Y-59654761D02*
X156692625Y-59702380D01*
X156692625Y-59702380D02*
X156692625Y-59797618D01*
X156692625Y-59797618D02*
X156716435Y-59845237D01*
X156716435Y-59845237D02*
X156740244Y-59869047D01*
X156740244Y-59869047D02*
X156787863Y-59892856D01*
D10*
X173833333Y-105954819D02*
X173261905Y-105954819D01*
X173547619Y-105954819D02*
X173547619Y-104954819D01*
X173547619Y-104954819D02*
X173452381Y-105097676D01*
X173452381Y-105097676D02*
X173357143Y-105192914D01*
X173357143Y-105192914D02*
X173261905Y-105240533D01*
X174452381Y-104954819D02*
X174547619Y-104954819D01*
X174547619Y-104954819D02*
X174642857Y-105002438D01*
X174642857Y-105002438D02*
X174690476Y-105050057D01*
X174690476Y-105050057D02*
X174738095Y-105145295D01*
X174738095Y-105145295D02*
X174785714Y-105335771D01*
X174785714Y-105335771D02*
X174785714Y-105573866D01*
X174785714Y-105573866D02*
X174738095Y-105764342D01*
X174738095Y-105764342D02*
X174690476Y-105859580D01*
X174690476Y-105859580D02*
X174642857Y-105907200D01*
X174642857Y-105907200D02*
X174547619Y-105954819D01*
X174547619Y-105954819D02*
X174452381Y-105954819D01*
X174452381Y-105954819D02*
X174357143Y-105907200D01*
X174357143Y-105907200D02*
X174309524Y-105859580D01*
X174309524Y-105859580D02*
X174261905Y-105764342D01*
X174261905Y-105764342D02*
X174214286Y-105573866D01*
X174214286Y-105573866D02*
X174214286Y-105335771D01*
X174214286Y-105335771D02*
X174261905Y-105145295D01*
X174261905Y-105145295D02*
X174309524Y-105050057D01*
X174309524Y-105050057D02*
X174357143Y-105002438D01*
X174357143Y-105002438D02*
X174452381Y-104954819D01*
X175404762Y-104954819D02*
X175500000Y-104954819D01*
X175500000Y-104954819D02*
X175595238Y-105002438D01*
X175595238Y-105002438D02*
X175642857Y-105050057D01*
X175642857Y-105050057D02*
X175690476Y-105145295D01*
X175690476Y-105145295D02*
X175738095Y-105335771D01*
X175738095Y-105335771D02*
X175738095Y-105573866D01*
X175738095Y-105573866D02*
X175690476Y-105764342D01*
X175690476Y-105764342D02*
X175642857Y-105859580D01*
X175642857Y-105859580D02*
X175595238Y-105907200D01*
X175595238Y-105907200D02*
X175500000Y-105954819D01*
X175500000Y-105954819D02*
X175404762Y-105954819D01*
X175404762Y-105954819D02*
X175309524Y-105907200D01*
X175309524Y-105907200D02*
X175261905Y-105859580D01*
X175261905Y-105859580D02*
X175214286Y-105764342D01*
X175214286Y-105764342D02*
X175166667Y-105573866D01*
X175166667Y-105573866D02*
X175166667Y-105335771D01*
X175166667Y-105335771D02*
X175214286Y-105145295D01*
X175214286Y-105145295D02*
X175261905Y-105050057D01*
X175261905Y-105050057D02*
X175309524Y-105002438D01*
X175309524Y-105002438D02*
X175404762Y-104954819D01*
D11*
X177178571Y-105727149D02*
X177011905Y-105489054D01*
X176892857Y-105727149D02*
X176892857Y-105227149D01*
X176892857Y-105227149D02*
X177083333Y-105227149D01*
X177083333Y-105227149D02*
X177130952Y-105250959D01*
X177130952Y-105250959D02*
X177154762Y-105274768D01*
X177154762Y-105274768D02*
X177178571Y-105322387D01*
X177178571Y-105322387D02*
X177178571Y-105393816D01*
X177178571Y-105393816D02*
X177154762Y-105441435D01*
X177154762Y-105441435D02*
X177130952Y-105465244D01*
X177130952Y-105465244D02*
X177083333Y-105489054D01*
X177083333Y-105489054D02*
X176892857Y-105489054D01*
X177369048Y-105274768D02*
X177392857Y-105250959D01*
X177392857Y-105250959D02*
X177440476Y-105227149D01*
X177440476Y-105227149D02*
X177559524Y-105227149D01*
X177559524Y-105227149D02*
X177607143Y-105250959D01*
X177607143Y-105250959D02*
X177630952Y-105274768D01*
X177630952Y-105274768D02*
X177654762Y-105322387D01*
X177654762Y-105322387D02*
X177654762Y-105370006D01*
X177654762Y-105370006D02*
X177630952Y-105441435D01*
X177630952Y-105441435D02*
X177345238Y-105727149D01*
X177345238Y-105727149D02*
X177654762Y-105727149D01*
X178083333Y-105227149D02*
X177988095Y-105227149D01*
X177988095Y-105227149D02*
X177940476Y-105250959D01*
X177940476Y-105250959D02*
X177916666Y-105274768D01*
X177916666Y-105274768D02*
X177869047Y-105346197D01*
X177869047Y-105346197D02*
X177845238Y-105441435D01*
X177845238Y-105441435D02*
X177845238Y-105631911D01*
X177845238Y-105631911D02*
X177869047Y-105679530D01*
X177869047Y-105679530D02*
X177892857Y-105703340D01*
X177892857Y-105703340D02*
X177940476Y-105727149D01*
X177940476Y-105727149D02*
X178035714Y-105727149D01*
X178035714Y-105727149D02*
X178083333Y-105703340D01*
X178083333Y-105703340D02*
X178107142Y-105679530D01*
X178107142Y-105679530D02*
X178130952Y-105631911D01*
X178130952Y-105631911D02*
X178130952Y-105512863D01*
X178130952Y-105512863D02*
X178107142Y-105465244D01*
X178107142Y-105465244D02*
X178083333Y-105441435D01*
X178083333Y-105441435D02*
X178035714Y-105417625D01*
X178035714Y-105417625D02*
X177940476Y-105417625D01*
X177940476Y-105417625D02*
X177892857Y-105441435D01*
X177892857Y-105441435D02*
X177869047Y-105465244D01*
X177869047Y-105465244D02*
X177845238Y-105512863D01*
D10*
X154109580Y-99321429D02*
X154157200Y-99369048D01*
X154157200Y-99369048D02*
X154204819Y-99511905D01*
X154204819Y-99511905D02*
X154204819Y-99607143D01*
X154204819Y-99607143D02*
X154157200Y-99750000D01*
X154157200Y-99750000D02*
X154061961Y-99845238D01*
X154061961Y-99845238D02*
X153966723Y-99892857D01*
X153966723Y-99892857D02*
X153776247Y-99940476D01*
X153776247Y-99940476D02*
X153633390Y-99940476D01*
X153633390Y-99940476D02*
X153442914Y-99892857D01*
X153442914Y-99892857D02*
X153347676Y-99845238D01*
X153347676Y-99845238D02*
X153252438Y-99750000D01*
X153252438Y-99750000D02*
X153204819Y-99607143D01*
X153204819Y-99607143D02*
X153204819Y-99511905D01*
X153204819Y-99511905D02*
X153252438Y-99369048D01*
X153252438Y-99369048D02*
X153300057Y-99321429D01*
X154300057Y-99130953D02*
X154300057Y-98369048D01*
X154157200Y-98178571D02*
X154204819Y-98035714D01*
X154204819Y-98035714D02*
X154204819Y-97797619D01*
X154204819Y-97797619D02*
X154157200Y-97702381D01*
X154157200Y-97702381D02*
X154109580Y-97654762D01*
X154109580Y-97654762D02*
X154014342Y-97607143D01*
X154014342Y-97607143D02*
X153919104Y-97607143D01*
X153919104Y-97607143D02*
X153823866Y-97654762D01*
X153823866Y-97654762D02*
X153776247Y-97702381D01*
X153776247Y-97702381D02*
X153728628Y-97797619D01*
X153728628Y-97797619D02*
X153681009Y-97988095D01*
X153681009Y-97988095D02*
X153633390Y-98083333D01*
X153633390Y-98083333D02*
X153585771Y-98130952D01*
X153585771Y-98130952D02*
X153490533Y-98178571D01*
X153490533Y-98178571D02*
X153395295Y-98178571D01*
X153395295Y-98178571D02*
X153300057Y-98130952D01*
X153300057Y-98130952D02*
X153252438Y-98083333D01*
X153252438Y-98083333D02*
X153204819Y-97988095D01*
X153204819Y-97988095D02*
X153204819Y-97750000D01*
X153204819Y-97750000D02*
X153252438Y-97607143D01*
X154204819Y-97178571D02*
X153538152Y-97178571D01*
X153633390Y-97178571D02*
X153585771Y-97130952D01*
X153585771Y-97130952D02*
X153538152Y-97035714D01*
X153538152Y-97035714D02*
X153538152Y-96892857D01*
X153538152Y-96892857D02*
X153585771Y-96797619D01*
X153585771Y-96797619D02*
X153681009Y-96750000D01*
X153681009Y-96750000D02*
X154204819Y-96750000D01*
X153681009Y-96750000D02*
X153585771Y-96702381D01*
X153585771Y-96702381D02*
X153538152Y-96607143D01*
X153538152Y-96607143D02*
X153538152Y-96464286D01*
X153538152Y-96464286D02*
X153585771Y-96369047D01*
X153585771Y-96369047D02*
X153681009Y-96321428D01*
X153681009Y-96321428D02*
X154204819Y-96321428D01*
X154204819Y-95416667D02*
X153681009Y-95416667D01*
X153681009Y-95416667D02*
X153585771Y-95464286D01*
X153585771Y-95464286D02*
X153538152Y-95559524D01*
X153538152Y-95559524D02*
X153538152Y-95750000D01*
X153538152Y-95750000D02*
X153585771Y-95845238D01*
X154157200Y-95416667D02*
X154204819Y-95511905D01*
X154204819Y-95511905D02*
X154204819Y-95750000D01*
X154204819Y-95750000D02*
X154157200Y-95845238D01*
X154157200Y-95845238D02*
X154061961Y-95892857D01*
X154061961Y-95892857D02*
X153966723Y-95892857D01*
X153966723Y-95892857D02*
X153871485Y-95845238D01*
X153871485Y-95845238D02*
X153823866Y-95750000D01*
X153823866Y-95750000D02*
X153823866Y-95511905D01*
X153823866Y-95511905D02*
X153776247Y-95416667D01*
X154204819Y-94797619D02*
X154157200Y-94892857D01*
X154157200Y-94892857D02*
X154061961Y-94940476D01*
X154061961Y-94940476D02*
X153204819Y-94940476D01*
X154204819Y-94273809D02*
X154157200Y-94369047D01*
X154157200Y-94369047D02*
X154061961Y-94416666D01*
X154061961Y-94416666D02*
X153204819Y-94416666D01*
X154300057Y-94130952D02*
X154300057Y-93369047D01*
X153204819Y-93130951D02*
X154014342Y-93130951D01*
X154014342Y-93130951D02*
X154109580Y-93083332D01*
X154109580Y-93083332D02*
X154157200Y-93035713D01*
X154157200Y-93035713D02*
X154204819Y-92940475D01*
X154204819Y-92940475D02*
X154204819Y-92749999D01*
X154204819Y-92749999D02*
X154157200Y-92654761D01*
X154157200Y-92654761D02*
X154109580Y-92607142D01*
X154109580Y-92607142D02*
X154014342Y-92559523D01*
X154014342Y-92559523D02*
X153204819Y-92559523D01*
X154157200Y-92130951D02*
X154204819Y-91988094D01*
X154204819Y-91988094D02*
X154204819Y-91749999D01*
X154204819Y-91749999D02*
X154157200Y-91654761D01*
X154157200Y-91654761D02*
X154109580Y-91607142D01*
X154109580Y-91607142D02*
X154014342Y-91559523D01*
X154014342Y-91559523D02*
X153919104Y-91559523D01*
X153919104Y-91559523D02*
X153823866Y-91607142D01*
X153823866Y-91607142D02*
X153776247Y-91654761D01*
X153776247Y-91654761D02*
X153728628Y-91749999D01*
X153728628Y-91749999D02*
X153681009Y-91940475D01*
X153681009Y-91940475D02*
X153633390Y-92035713D01*
X153633390Y-92035713D02*
X153585771Y-92083332D01*
X153585771Y-92083332D02*
X153490533Y-92130951D01*
X153490533Y-92130951D02*
X153395295Y-92130951D01*
X153395295Y-92130951D02*
X153300057Y-92083332D01*
X153300057Y-92083332D02*
X153252438Y-92035713D01*
X153252438Y-92035713D02*
X153204819Y-91940475D01*
X153204819Y-91940475D02*
X153204819Y-91702380D01*
X153204819Y-91702380D02*
X153252438Y-91559523D01*
X172230952Y-109954819D02*
X171659524Y-109954819D01*
X171945238Y-109954819D02*
X171945238Y-108954819D01*
X171945238Y-108954819D02*
X171850000Y-109097676D01*
X171850000Y-109097676D02*
X171754762Y-109192914D01*
X171754762Y-109192914D02*
X171659524Y-109240533D01*
X172659524Y-109954819D02*
X172659524Y-108954819D01*
X172754762Y-109573866D02*
X173040476Y-109954819D01*
X173040476Y-109288152D02*
X172659524Y-109669104D01*
D11*
X174227149Y-109821428D02*
X173989054Y-109988094D01*
X174227149Y-110107142D02*
X173727149Y-110107142D01*
X173727149Y-110107142D02*
X173727149Y-109916666D01*
X173727149Y-109916666D02*
X173750959Y-109869047D01*
X173750959Y-109869047D02*
X173774768Y-109845237D01*
X173774768Y-109845237D02*
X173822387Y-109821428D01*
X173822387Y-109821428D02*
X173893816Y-109821428D01*
X173893816Y-109821428D02*
X173941435Y-109845237D01*
X173941435Y-109845237D02*
X173965244Y-109869047D01*
X173965244Y-109869047D02*
X173989054Y-109916666D01*
X173989054Y-109916666D02*
X173989054Y-110107142D01*
X174227149Y-109345237D02*
X174227149Y-109630951D01*
X174227149Y-109488094D02*
X173727149Y-109488094D01*
X173727149Y-109488094D02*
X173798578Y-109535713D01*
X173798578Y-109535713D02*
X173846197Y-109583332D01*
X173846197Y-109583332D02*
X173870006Y-109630951D01*
X173727149Y-108916666D02*
X173727149Y-109011904D01*
X173727149Y-109011904D02*
X173750959Y-109059523D01*
X173750959Y-109059523D02*
X173774768Y-109083333D01*
X173774768Y-109083333D02*
X173846197Y-109130952D01*
X173846197Y-109130952D02*
X173941435Y-109154761D01*
X173941435Y-109154761D02*
X174131911Y-109154761D01*
X174131911Y-109154761D02*
X174179530Y-109130952D01*
X174179530Y-109130952D02*
X174203340Y-109107142D01*
X174203340Y-109107142D02*
X174227149Y-109059523D01*
X174227149Y-109059523D02*
X174227149Y-108964285D01*
X174227149Y-108964285D02*
X174203340Y-108916666D01*
X174203340Y-108916666D02*
X174179530Y-108892857D01*
X174179530Y-108892857D02*
X174131911Y-108869047D01*
X174131911Y-108869047D02*
X174012863Y-108869047D01*
X174012863Y-108869047D02*
X173965244Y-108892857D01*
X173965244Y-108892857D02*
X173941435Y-108916666D01*
X173941435Y-108916666D02*
X173917625Y-108964285D01*
X173917625Y-108964285D02*
X173917625Y-109059523D01*
X173917625Y-109059523D02*
X173941435Y-109107142D01*
X173941435Y-109107142D02*
X173965244Y-109130952D01*
X173965244Y-109130952D02*
X174012863Y-109154761D01*
D10*
X179976190Y-73288152D02*
X179976190Y-73954819D01*
X179738095Y-72907200D02*
X179500000Y-73621485D01*
X179500000Y-73621485D02*
X180119047Y-73621485D01*
X180500000Y-73859580D02*
X180547619Y-73907200D01*
X180547619Y-73907200D02*
X180500000Y-73954819D01*
X180500000Y-73954819D02*
X180452381Y-73907200D01*
X180452381Y-73907200D02*
X180500000Y-73859580D01*
X180500000Y-73859580D02*
X180500000Y-73954819D01*
X180880952Y-72954819D02*
X181547618Y-72954819D01*
X181547618Y-72954819D02*
X181119047Y-73954819D01*
D11*
X177315666Y-73679530D02*
X177291857Y-73703340D01*
X177291857Y-73703340D02*
X177220428Y-73727149D01*
X177220428Y-73727149D02*
X177172809Y-73727149D01*
X177172809Y-73727149D02*
X177101381Y-73703340D01*
X177101381Y-73703340D02*
X177053762Y-73655720D01*
X177053762Y-73655720D02*
X177029952Y-73608101D01*
X177029952Y-73608101D02*
X177006143Y-73512863D01*
X177006143Y-73512863D02*
X177006143Y-73441435D01*
X177006143Y-73441435D02*
X177029952Y-73346197D01*
X177029952Y-73346197D02*
X177053762Y-73298578D01*
X177053762Y-73298578D02*
X177101381Y-73250959D01*
X177101381Y-73250959D02*
X177172809Y-73227149D01*
X177172809Y-73227149D02*
X177220428Y-73227149D01*
X177220428Y-73227149D02*
X177291857Y-73250959D01*
X177291857Y-73250959D02*
X177315666Y-73274768D01*
X177768047Y-73227149D02*
X177529952Y-73227149D01*
X177529952Y-73227149D02*
X177506143Y-73465244D01*
X177506143Y-73465244D02*
X177529952Y-73441435D01*
X177529952Y-73441435D02*
X177577571Y-73417625D01*
X177577571Y-73417625D02*
X177696619Y-73417625D01*
X177696619Y-73417625D02*
X177744238Y-73441435D01*
X177744238Y-73441435D02*
X177768047Y-73465244D01*
X177768047Y-73465244D02*
X177791857Y-73512863D01*
X177791857Y-73512863D02*
X177791857Y-73631911D01*
X177791857Y-73631911D02*
X177768047Y-73679530D01*
X177768047Y-73679530D02*
X177744238Y-73703340D01*
X177744238Y-73703340D02*
X177696619Y-73727149D01*
X177696619Y-73727149D02*
X177577571Y-73727149D01*
X177577571Y-73727149D02*
X177529952Y-73703340D01*
X177529952Y-73703340D02*
X177506143Y-73679530D01*
D10*
X145204819Y-69183333D02*
X145919104Y-69183333D01*
X145919104Y-69183333D02*
X146061961Y-69230952D01*
X146061961Y-69230952D02*
X146157200Y-69326190D01*
X146157200Y-69326190D02*
X146204819Y-69469047D01*
X146204819Y-69469047D02*
X146204819Y-69564285D01*
X145204819Y-68278571D02*
X145204819Y-68469047D01*
X145204819Y-68469047D02*
X145252438Y-68564285D01*
X145252438Y-68564285D02*
X145300057Y-68611904D01*
X145300057Y-68611904D02*
X145442914Y-68707142D01*
X145442914Y-68707142D02*
X145633390Y-68754761D01*
X145633390Y-68754761D02*
X146014342Y-68754761D01*
X146014342Y-68754761D02*
X146109580Y-68707142D01*
X146109580Y-68707142D02*
X146157200Y-68659523D01*
X146157200Y-68659523D02*
X146204819Y-68564285D01*
X146204819Y-68564285D02*
X146204819Y-68373809D01*
X146204819Y-68373809D02*
X146157200Y-68278571D01*
X146157200Y-68278571D02*
X146109580Y-68230952D01*
X146109580Y-68230952D02*
X146014342Y-68183333D01*
X146014342Y-68183333D02*
X145776247Y-68183333D01*
X145776247Y-68183333D02*
X145681009Y-68230952D01*
X145681009Y-68230952D02*
X145633390Y-68278571D01*
X145633390Y-68278571D02*
X145585771Y-68373809D01*
X145585771Y-68373809D02*
X145585771Y-68564285D01*
X145585771Y-68564285D02*
X145633390Y-68659523D01*
X145633390Y-68659523D02*
X145681009Y-68707142D01*
X145681009Y-68707142D02*
X145776247Y-68754761D01*
X162963152Y-79690476D02*
X163629819Y-79690476D01*
X162582200Y-79928571D02*
X163296485Y-80166666D01*
X163296485Y-80166666D02*
X163296485Y-79547619D01*
X163629819Y-79166666D02*
X162629819Y-79166666D01*
X163248866Y-79071428D02*
X163629819Y-78785714D01*
X162963152Y-78785714D02*
X163344104Y-79166666D01*
X162629819Y-78452380D02*
X162629819Y-77785714D01*
X162629819Y-77785714D02*
X163629819Y-78214285D01*
D11*
X163227149Y-76321428D02*
X162989054Y-76488094D01*
X163227149Y-76607142D02*
X162727149Y-76607142D01*
X162727149Y-76607142D02*
X162727149Y-76416666D01*
X162727149Y-76416666D02*
X162750959Y-76369047D01*
X162750959Y-76369047D02*
X162774768Y-76345237D01*
X162774768Y-76345237D02*
X162822387Y-76321428D01*
X162822387Y-76321428D02*
X162893816Y-76321428D01*
X162893816Y-76321428D02*
X162941435Y-76345237D01*
X162941435Y-76345237D02*
X162965244Y-76369047D01*
X162965244Y-76369047D02*
X162989054Y-76416666D01*
X162989054Y-76416666D02*
X162989054Y-76607142D01*
X163227149Y-75845237D02*
X163227149Y-76130951D01*
X163227149Y-75988094D02*
X162727149Y-75988094D01*
X162727149Y-75988094D02*
X162798578Y-76035713D01*
X162798578Y-76035713D02*
X162846197Y-76083332D01*
X162846197Y-76083332D02*
X162870006Y-76130951D01*
X162893816Y-75416666D02*
X163227149Y-75416666D01*
X162703340Y-75535714D02*
X163060482Y-75654761D01*
X163060482Y-75654761D02*
X163060482Y-75345238D01*
D10*
X159214286Y-62954819D02*
X159833333Y-62954819D01*
X159833333Y-62954819D02*
X159500000Y-63335771D01*
X159500000Y-63335771D02*
X159642857Y-63335771D01*
X159642857Y-63335771D02*
X159738095Y-63383390D01*
X159738095Y-63383390D02*
X159785714Y-63431009D01*
X159785714Y-63431009D02*
X159833333Y-63526247D01*
X159833333Y-63526247D02*
X159833333Y-63764342D01*
X159833333Y-63764342D02*
X159785714Y-63859580D01*
X159785714Y-63859580D02*
X159738095Y-63907200D01*
X159738095Y-63907200D02*
X159642857Y-63954819D01*
X159642857Y-63954819D02*
X159357143Y-63954819D01*
X159357143Y-63954819D02*
X159261905Y-63907200D01*
X159261905Y-63907200D02*
X159214286Y-63859580D01*
X160166667Y-62954819D02*
X160785714Y-62954819D01*
X160785714Y-62954819D02*
X160452381Y-63335771D01*
X160452381Y-63335771D02*
X160595238Y-63335771D01*
X160595238Y-63335771D02*
X160690476Y-63383390D01*
X160690476Y-63383390D02*
X160738095Y-63431009D01*
X160738095Y-63431009D02*
X160785714Y-63526247D01*
X160785714Y-63526247D02*
X160785714Y-63764342D01*
X160785714Y-63764342D02*
X160738095Y-63859580D01*
X160738095Y-63859580D02*
X160690476Y-63907200D01*
X160690476Y-63907200D02*
X160595238Y-63954819D01*
X160595238Y-63954819D02*
X160309524Y-63954819D01*
X160309524Y-63954819D02*
X160214286Y-63907200D01*
X160214286Y-63907200D02*
X160166667Y-63859580D01*
X161404762Y-62954819D02*
X161500000Y-62954819D01*
X161500000Y-62954819D02*
X161595238Y-63002438D01*
X161595238Y-63002438D02*
X161642857Y-63050057D01*
X161642857Y-63050057D02*
X161690476Y-63145295D01*
X161690476Y-63145295D02*
X161738095Y-63335771D01*
X161738095Y-63335771D02*
X161738095Y-63573866D01*
X161738095Y-63573866D02*
X161690476Y-63764342D01*
X161690476Y-63764342D02*
X161642857Y-63859580D01*
X161642857Y-63859580D02*
X161595238Y-63907200D01*
X161595238Y-63907200D02*
X161500000Y-63954819D01*
X161500000Y-63954819D02*
X161404762Y-63954819D01*
X161404762Y-63954819D02*
X161309524Y-63907200D01*
X161309524Y-63907200D02*
X161261905Y-63859580D01*
X161261905Y-63859580D02*
X161214286Y-63764342D01*
X161214286Y-63764342D02*
X161166667Y-63573866D01*
X161166667Y-63573866D02*
X161166667Y-63335771D01*
X161166667Y-63335771D02*
X161214286Y-63145295D01*
X161214286Y-63145295D02*
X161261905Y-63050057D01*
X161261905Y-63050057D02*
X161309524Y-63002438D01*
X161309524Y-63002438D02*
X161404762Y-62954819D01*
D11*
X163191666Y-66187149D02*
X163025000Y-65949054D01*
X162905952Y-66187149D02*
X162905952Y-65687149D01*
X162905952Y-65687149D02*
X163096428Y-65687149D01*
X163096428Y-65687149D02*
X163144047Y-65710959D01*
X163144047Y-65710959D02*
X163167857Y-65734768D01*
X163167857Y-65734768D02*
X163191666Y-65782387D01*
X163191666Y-65782387D02*
X163191666Y-65853816D01*
X163191666Y-65853816D02*
X163167857Y-65901435D01*
X163167857Y-65901435D02*
X163144047Y-65925244D01*
X163144047Y-65925244D02*
X163096428Y-65949054D01*
X163096428Y-65949054D02*
X162905952Y-65949054D01*
X163667857Y-66187149D02*
X163382143Y-66187149D01*
X163525000Y-66187149D02*
X163525000Y-65687149D01*
X163525000Y-65687149D02*
X163477381Y-65758578D01*
X163477381Y-65758578D02*
X163429762Y-65806197D01*
X163429762Y-65806197D02*
X163382143Y-65830006D01*
D10*
X182431009Y-104875952D02*
X182478628Y-104733095D01*
X182478628Y-104733095D02*
X182526247Y-104685476D01*
X182526247Y-104685476D02*
X182621485Y-104637857D01*
X182621485Y-104637857D02*
X182764342Y-104637857D01*
X182764342Y-104637857D02*
X182859580Y-104685476D01*
X182859580Y-104685476D02*
X182907200Y-104733095D01*
X182907200Y-104733095D02*
X182954819Y-104828333D01*
X182954819Y-104828333D02*
X182954819Y-105209285D01*
X182954819Y-105209285D02*
X181954819Y-105209285D01*
X181954819Y-105209285D02*
X181954819Y-104875952D01*
X181954819Y-104875952D02*
X182002438Y-104780714D01*
X182002438Y-104780714D02*
X182050057Y-104733095D01*
X182050057Y-104733095D02*
X182145295Y-104685476D01*
X182145295Y-104685476D02*
X182240533Y-104685476D01*
X182240533Y-104685476D02*
X182335771Y-104733095D01*
X182335771Y-104733095D02*
X182383390Y-104780714D01*
X182383390Y-104780714D02*
X182431009Y-104875952D01*
X182431009Y-104875952D02*
X182431009Y-105209285D01*
X181954819Y-104304523D02*
X181954819Y-103637857D01*
X181954819Y-103637857D02*
X182954819Y-104304523D01*
X182954819Y-104304523D02*
X182954819Y-103637857D01*
X182954819Y-102733095D02*
X182954819Y-103304523D01*
X182954819Y-103018809D02*
X181954819Y-103018809D01*
X181954819Y-103018809D02*
X182097676Y-103114047D01*
X182097676Y-103114047D02*
X182192914Y-103209285D01*
X182192914Y-103209285D02*
X182240533Y-103304523D01*
%TO.C,J8*%
D13*
X140700000Y-53750000D02*
X146500000Y-53750000D01*
X140700000Y-53800000D02*
X140700000Y-53750000D01*
X140700000Y-60100000D02*
X141700000Y-60100000D01*
X140700000Y-63850000D02*
X140700000Y-53800000D01*
X141700000Y-55000000D02*
X140700000Y-55000000D01*
X141700000Y-60100000D02*
X141700000Y-55000000D01*
X146500000Y-53750000D02*
X146500000Y-59400000D01*
X146500000Y-60750000D02*
X146500000Y-63850000D01*
X146500000Y-63850000D02*
X140700000Y-63850000D01*
%TO.C,R4*%
X169275000Y-65375000D02*
X171275000Y-65375000D01*
X171275000Y-66625000D01*
X169275000Y-66625000D01*
X169275000Y-65375000D01*
%TO.C,R30*%
X182000000Y-66875000D02*
X184000000Y-66875000D01*
X184000000Y-68125000D01*
X182000000Y-68125000D01*
X182000000Y-66875000D01*
%TO.C,J2*%
X149730000Y-55845000D02*
X154810000Y-55845000D01*
X149730000Y-57750000D02*
X149730000Y-55845000D01*
X150365000Y-58385000D02*
X149730000Y-57750000D01*
X150680000Y-60205000D02*
X150680000Y-58385000D01*
X150680000Y-60205000D02*
X151320000Y-60205000D01*
X151320000Y-60205000D02*
X151320000Y-58385000D01*
X153220000Y-60205000D02*
X153220000Y-58385000D01*
X153220000Y-60205000D02*
X153860000Y-60205000D01*
X153860000Y-60205000D02*
X153860000Y-58385000D01*
X154810000Y-55845000D02*
X154810000Y-58385000D01*
X154810000Y-58385000D02*
X150365000Y-58385000D01*
%TO.C,J4*%
X167730000Y-55845000D02*
X172810000Y-55845000D01*
X167730000Y-57750000D02*
X167730000Y-55845000D01*
X168365000Y-58385000D02*
X167730000Y-57750000D01*
X168680000Y-60205000D02*
X168680000Y-58385000D01*
X168680000Y-60205000D02*
X169320000Y-60205000D01*
X169320000Y-60205000D02*
X169320000Y-58385000D01*
X171220000Y-60205000D02*
X171220000Y-58385000D01*
X171220000Y-60205000D02*
X171860000Y-60205000D01*
X171860000Y-60205000D02*
X171860000Y-58385000D01*
X172810000Y-55845000D02*
X172810000Y-58385000D01*
X172810000Y-58385000D02*
X168365000Y-58385000D01*
%TO.C,J9*%
X173955000Y-112230000D02*
X179035000Y-112230000D01*
X173955000Y-114135000D02*
X173955000Y-112230000D01*
X174590000Y-114770000D02*
X173955000Y-114135000D01*
X179035000Y-112230000D02*
X179035000Y-114770000D01*
X179035000Y-114770000D02*
X174590000Y-114770000D01*
%TO.C,R20*%
X182000000Y-64375000D02*
X184000000Y-64375000D01*
X184000000Y-65625000D01*
X182000000Y-65625000D01*
X182000000Y-64375000D01*
%TO.C,U2*%
X175999000Y-68781250D02*
X177199000Y-68781250D01*
X177199000Y-71681250D01*
X175599000Y-71681250D01*
X175599000Y-69181250D01*
X175999000Y-68781250D01*
%TO.C,R3*%
X176312500Y-65375000D02*
X178312500Y-65375000D01*
X178312500Y-66625000D01*
X176312500Y-66625000D01*
X176312500Y-65375000D01*
%TO.C,C2*%
X176312500Y-62875000D02*
X178312500Y-62875000D01*
X178312500Y-64125000D01*
X176312500Y-64125000D01*
X176312500Y-62875000D01*
%TO.C,R27*%
X176500000Y-102375000D02*
X178500000Y-102375000D01*
X178500000Y-103625000D01*
X176500000Y-103625000D01*
X176500000Y-102375000D01*
%TO.C,R10*%
X153706920Y-71279587D02*
X154956920Y-71279587D01*
X154956920Y-73279587D01*
X153706920Y-73279587D01*
X153706920Y-71279587D01*
%TO.C,C6*%
X171774000Y-69231250D02*
X173024000Y-69231250D01*
X173024000Y-71231250D01*
X171774000Y-71231250D01*
X171774000Y-69231250D01*
%TO.C,Q3*%
X176050000Y-99900000D02*
X176050000Y-98700000D01*
X178950000Y-98700000D01*
X178950000Y-100300000D01*
X176450000Y-100300000D01*
X176050000Y-99900000D01*
%TO.C,R5*%
X165150000Y-59000000D02*
X166400000Y-59000000D01*
X166400000Y-61000000D01*
X165150000Y-61000000D01*
X165150000Y-59000000D01*
%TO.C,C4*%
X162275000Y-62835000D02*
X164275000Y-62835000D01*
X164275000Y-64085000D01*
X162275000Y-64085000D01*
X162275000Y-62835000D01*
%TO.C,C8*%
X151206920Y-71204587D02*
X152456920Y-71204587D01*
X152456920Y-73204587D01*
X151206920Y-73204587D01*
X151206920Y-71204587D01*
%TO.C,R7*%
X183150000Y-59000000D02*
X184400000Y-59000000D01*
X184400000Y-61000000D01*
X183150000Y-61000000D01*
X183150000Y-59000000D01*
%TO.C,J10*%
X181230000Y-110365000D02*
X181865000Y-109730000D01*
X181230000Y-114810000D02*
X181230000Y-110365000D01*
X181865000Y-109730000D02*
X183770000Y-109730000D01*
X183770000Y-109730000D02*
X183770000Y-114810000D01*
X183770000Y-114810000D02*
X181230000Y-114810000D01*
%TO.C,J7*%
X140700000Y-89750000D02*
X146500000Y-89750000D01*
X140700000Y-89800000D02*
X140700000Y-89750000D01*
X140700000Y-96100000D02*
X141700000Y-96100000D01*
X140700000Y-99850000D02*
X140700000Y-89800000D01*
X141700000Y-91000000D02*
X140700000Y-91000000D01*
X141700000Y-96100000D02*
X141700000Y-91000000D01*
X146500000Y-89750000D02*
X146500000Y-95400000D01*
X146500000Y-96750000D02*
X146500000Y-99850000D01*
X146500000Y-99850000D02*
X140700000Y-99850000D01*
%TO.C,C7*%
X148706920Y-71242087D02*
X149956920Y-71242087D01*
X149956920Y-73242087D01*
X148706920Y-73242087D01*
X148706920Y-71242087D01*
%TO.C,U4*%
D14*
X163550000Y-68400000D02*
X163789649Y-68400000D01*
X163550000Y-68628600D02*
X163550000Y-68400000D01*
X163550000Y-68628600D02*
X163789649Y-68628600D01*
X163550000Y-68899872D02*
X163789649Y-68899872D01*
X163550000Y-69128472D02*
X163550000Y-68899872D01*
X163550000Y-69128472D02*
X163789649Y-69128472D01*
X163550000Y-69399744D02*
X163789649Y-69399744D01*
X163550000Y-69628344D02*
X163550000Y-69399744D01*
X163550000Y-69628344D02*
X163789649Y-69628344D01*
X163550000Y-69899616D02*
X163789649Y-69899616D01*
X163550000Y-70128216D02*
X163550000Y-69899616D01*
X163550000Y-70128216D02*
X163789649Y-70128216D01*
X163550000Y-70399488D02*
X163789649Y-70399488D01*
X163550000Y-70628088D02*
X163550000Y-70399488D01*
X163550000Y-70628088D02*
X163789649Y-70628088D01*
X163789649Y-68400000D02*
X163909511Y-68400000D01*
X163789649Y-68628600D02*
X163909511Y-68628600D01*
X163789649Y-68899872D02*
X163909511Y-68899872D01*
X163789649Y-69128472D02*
X163909511Y-69128472D01*
X163789649Y-69399744D02*
X163909511Y-69399744D01*
X163789649Y-69628344D02*
X163909511Y-69628344D01*
X163789649Y-69899616D02*
X163909511Y-69899616D01*
X163789649Y-70128216D02*
X163909511Y-70128216D01*
X163789649Y-70399488D02*
X163909511Y-70399488D01*
X163789649Y-70628088D02*
X163909511Y-70628088D01*
X163909511Y-68400000D02*
X163912813Y-68400000D01*
X163909511Y-68628600D02*
X163912813Y-68628600D01*
X163909511Y-68899872D02*
X163912813Y-68899872D01*
X163909511Y-69128472D02*
X163912813Y-69128472D01*
X163909511Y-69399744D02*
X163912813Y-69399744D01*
X163909511Y-69628344D02*
X163912813Y-69628344D01*
X163909511Y-69899616D02*
X163912813Y-69899616D01*
X163909511Y-70128216D02*
X163912813Y-70128216D01*
X163909511Y-70399488D02*
X163912813Y-70399488D01*
X163909511Y-70628088D02*
X163912813Y-70628088D01*
X163912813Y-68400000D02*
X164216445Y-68400000D01*
X163912813Y-68628600D02*
X164216445Y-68628600D01*
X163912813Y-68899872D02*
X164216445Y-68899872D01*
X163912813Y-69128472D02*
X164216445Y-69128472D01*
X163912813Y-69399744D02*
X164216445Y-69399744D01*
X163912813Y-69628344D02*
X164216445Y-69628344D01*
X163912813Y-69899616D02*
X164216445Y-69899616D01*
X163912813Y-70128216D02*
X164216445Y-70128216D01*
X163912813Y-70399488D02*
X164216445Y-70399488D01*
X163912813Y-70628088D02*
X164216445Y-70628088D01*
X164216445Y-68400000D02*
X164502500Y-68400000D01*
X164216445Y-68628600D02*
X164502500Y-68628600D01*
X164216445Y-68899872D02*
X164502500Y-68899872D01*
X164216445Y-69128472D02*
X164502500Y-69128472D01*
X164216445Y-69399744D02*
X164502500Y-69399744D01*
X164216445Y-69628344D02*
X164502500Y-69628344D01*
X164216445Y-69899616D02*
X164502500Y-69899616D01*
X164216445Y-70128216D02*
X164502500Y-70128216D01*
X164216445Y-70399488D02*
X164502500Y-70399488D01*
X164216445Y-70628088D02*
X164502500Y-70628088D01*
X164502500Y-68142444D02*
X164502551Y-68139700D01*
X164502500Y-68628600D02*
X164502500Y-68400000D01*
X164502500Y-69128472D02*
X164502500Y-68899872D01*
X164502500Y-69628344D02*
X164502500Y-69399744D01*
X164502500Y-70128216D02*
X164502500Y-69899616D01*
X164502500Y-70628088D02*
X164502500Y-70399488D01*
X164502500Y-70885644D02*
X164502500Y-68142444D01*
X164502500Y-70885644D02*
X164502551Y-70888387D01*
X164626757Y-68015469D02*
X164629500Y-68015444D01*
X164626757Y-71012618D02*
X164629500Y-71012644D01*
X164629500Y-68015444D02*
X167372700Y-68015444D01*
X164629500Y-71012644D02*
X167372700Y-71012644D01*
X164680300Y-68548844D02*
X165391500Y-68548844D01*
X167372700Y-68015444D02*
X167375443Y-68015469D01*
X167372700Y-71012644D02*
X167375443Y-71012618D01*
X167499674Y-68139700D02*
X167499700Y-68142444D01*
X167499674Y-70888387D02*
X167499700Y-70885644D01*
X167499700Y-68400000D02*
X167785780Y-68400000D01*
X167499700Y-68628600D02*
X167499700Y-68400000D01*
X167499700Y-68628600D02*
X167785780Y-68628600D01*
X167499700Y-68899872D02*
X167785780Y-68899872D01*
X167499700Y-69128472D02*
X167499700Y-68899872D01*
X167499700Y-69128472D02*
X167785780Y-69128472D01*
X167499700Y-69399744D02*
X167785780Y-69399744D01*
X167499700Y-69628344D02*
X167499700Y-69399744D01*
X167499700Y-69628344D02*
X167785780Y-69628344D01*
X167499700Y-69899616D02*
X167785780Y-69899616D01*
X167499700Y-70128216D02*
X167499700Y-69899616D01*
X167499700Y-70128216D02*
X167785780Y-70128216D01*
X167499700Y-70399488D02*
X167785780Y-70399488D01*
X167499700Y-70628088D02*
X167499700Y-70399488D01*
X167499700Y-70628088D02*
X167785780Y-70628088D01*
X167499700Y-70885644D02*
X167499700Y-68142444D01*
X167785780Y-68400000D02*
X168089412Y-68400000D01*
X167785780Y-68628600D02*
X168089412Y-68628600D01*
X167785780Y-68899872D02*
X168089412Y-68899872D01*
X167785780Y-69128472D02*
X168089412Y-69128472D01*
X167785780Y-69399744D02*
X168089412Y-69399744D01*
X167785780Y-69628344D02*
X168089412Y-69628344D01*
X167785780Y-69899616D02*
X168089412Y-69899616D01*
X167785780Y-70128216D02*
X168089412Y-70128216D01*
X167785780Y-70399488D02*
X168089412Y-70399488D01*
X167785780Y-70628088D02*
X168089412Y-70628088D01*
X168089412Y-68400000D02*
X168092714Y-68400000D01*
X168089412Y-68628600D02*
X168092714Y-68628600D01*
X168089412Y-68899872D02*
X168092714Y-68899872D01*
X168089412Y-69128472D02*
X168092714Y-69128472D01*
X168089412Y-69399744D02*
X168092714Y-69399744D01*
X168089412Y-69628344D02*
X168092714Y-69628344D01*
X168089412Y-69899616D02*
X168092714Y-69899616D01*
X168089412Y-70128216D02*
X168092714Y-70128216D01*
X168089412Y-70399488D02*
X168092714Y-70399488D01*
X168089412Y-70628088D02*
X168092714Y-70628088D01*
X168092714Y-68400000D02*
X168212576Y-68400000D01*
X168092714Y-68628600D02*
X168212576Y-68628600D01*
X168092714Y-68899872D02*
X168212576Y-68899872D01*
X168092714Y-69128472D02*
X168212576Y-69128472D01*
X168092714Y-69399744D02*
X168212576Y-69399744D01*
X168092714Y-69628344D02*
X168212576Y-69628344D01*
X168092714Y-69899616D02*
X168212576Y-69899616D01*
X168092714Y-70128216D02*
X168212576Y-70128216D01*
X168092714Y-70399488D02*
X168212576Y-70399488D01*
X168092714Y-70628088D02*
X168212576Y-70628088D01*
X168212576Y-68400000D02*
X168452200Y-68400000D01*
X168212576Y-68628600D02*
X168452200Y-68628600D01*
X168212576Y-68899872D02*
X168452200Y-68899872D01*
X168212576Y-69128472D02*
X168452200Y-69128472D01*
X168212576Y-69399744D02*
X168452200Y-69399744D01*
X168212576Y-69628344D02*
X168452200Y-69628344D01*
X168212576Y-69899616D02*
X168452200Y-69899616D01*
X168212576Y-70128216D02*
X168452200Y-70128216D01*
X168212576Y-70399488D02*
X168452200Y-70399488D01*
X168212576Y-70628088D02*
X168452200Y-70628088D01*
X168452200Y-68628600D02*
X168452200Y-68400000D01*
X168452200Y-69128472D02*
X168452200Y-68899872D01*
X168452200Y-69628344D02*
X168452200Y-69399744D01*
X168452200Y-70128216D02*
X168452200Y-69899616D01*
X168452200Y-70628088D02*
X168452200Y-70399488D01*
X164502550Y-68139701D02*
G75*
G02*
X164626757Y-68015469I126965J-2732D01*
G01*
X164626757Y-71012619D02*
G75*
G02*
X164502550Y-70888386I2758J126964D01*
G01*
X164680300Y-68548844D02*
G75*
G02*
X165391500Y-68548844I355600J0D01*
G01*
X167375443Y-68015468D02*
G75*
G02*
X167499633Y-68139702I-2743J-126932D01*
G01*
X167499675Y-70888387D02*
G75*
G02*
X167375443Y-71012615I-126975J2747D01*
G01*
%TO.C,J5*%
D13*
X140700000Y-77750000D02*
X146500000Y-77750000D01*
X140700000Y-77800000D02*
X140700000Y-77750000D01*
X140700000Y-84100000D02*
X141700000Y-84100000D01*
X140700000Y-87850000D02*
X140700000Y-77800000D01*
X141700000Y-79000000D02*
X140700000Y-79000000D01*
X141700000Y-84100000D02*
X141700000Y-79000000D01*
X146500000Y-77750000D02*
X146500000Y-83400000D01*
X146500000Y-84750000D02*
X146500000Y-87850000D01*
X146500000Y-87850000D02*
X140700000Y-87850000D01*
%TO.C,R15*%
X178375000Y-108500000D02*
X179625000Y-108500000D01*
X179625000Y-110500000D01*
X178375000Y-110500000D01*
X178375000Y-108500000D01*
%TO.C,U1*%
X165899000Y-76231250D02*
X165899000Y-94231250D01*
X165899000Y-94231250D02*
X185899000Y-94231250D01*
X178299000Y-76231250D02*
X165899000Y-76231250D01*
X178799000Y-76731250D02*
X178299000Y-76231250D01*
X179299000Y-76231250D02*
X178799000Y-76731250D01*
X185899000Y-76231250D02*
X179299000Y-76231250D01*
X185899000Y-76231250D02*
X185899000Y-94231250D01*
%TO.C,C3*%
X155275000Y-62875000D02*
X157275000Y-62875000D01*
X157275000Y-64125000D01*
X155275000Y-64125000D01*
X155275000Y-62875000D01*
%TO.C,C1*%
X169275000Y-62875000D02*
X171275000Y-62875000D01*
X171275000Y-64125000D01*
X169275000Y-64125000D01*
X169275000Y-62875000D01*
%TO.C,R2*%
X155275000Y-65375000D02*
X157275000Y-65375000D01*
X157275000Y-66625000D01*
X155275000Y-66625000D01*
X155275000Y-65375000D01*
%TO.C,R8*%
X174150000Y-59000000D02*
X175400000Y-59000000D01*
X175400000Y-61000000D01*
X174150000Y-61000000D01*
X174150000Y-59000000D01*
%TO.C,J3*%
X176730000Y-55845000D02*
X181810000Y-55845000D01*
X176730000Y-57750000D02*
X176730000Y-55845000D01*
X177365000Y-58385000D02*
X176730000Y-57750000D01*
X177680000Y-60205000D02*
X177680000Y-58385000D01*
X177680000Y-60205000D02*
X178320000Y-60205000D01*
X178320000Y-60205000D02*
X178320000Y-58385000D01*
X180220000Y-60205000D02*
X180220000Y-58385000D01*
X180220000Y-60205000D02*
X180860000Y-60205000D01*
X180860000Y-60205000D02*
X180860000Y-58385000D01*
X181810000Y-55845000D02*
X181810000Y-58385000D01*
X181810000Y-58385000D02*
X177365000Y-58385000D01*
%TO.C,U3*%
D10*
X155831920Y-70779587D02*
X155831920Y-73779587D01*
X155831920Y-70779587D02*
X158831920Y-70779587D01*
X155831920Y-73779587D02*
X158831920Y-73779587D01*
X158831920Y-70779587D02*
X158831920Y-73779587D01*
%TO.C,D1*%
D13*
X175900000Y-108500000D02*
X175900000Y-110200000D01*
X175900000Y-110200000D02*
X176200000Y-110500000D01*
X176200000Y-110500000D02*
X177100000Y-110500000D01*
X177100000Y-108500000D02*
X175900000Y-108500000D01*
X177100000Y-110500000D02*
X177100000Y-108500000D01*
%TO.C,J1*%
X158730000Y-55845000D02*
X163810000Y-55845000D01*
X158730000Y-57750000D02*
X158730000Y-55845000D01*
X159365000Y-58385000D02*
X158730000Y-57750000D01*
X159680000Y-60205000D02*
X159680000Y-58385000D01*
X159680000Y-60205000D02*
X160320000Y-60205000D01*
X160320000Y-60205000D02*
X160320000Y-58385000D01*
X162220000Y-60205000D02*
X162220000Y-58385000D01*
X162220000Y-60205000D02*
X162860000Y-60205000D01*
X162860000Y-60205000D02*
X162860000Y-58385000D01*
X163810000Y-55845000D02*
X163810000Y-58385000D01*
X163810000Y-58385000D02*
X159365000Y-58385000D01*
%TO.C,R6*%
X156150000Y-59000000D02*
X157400000Y-59000000D01*
X157400000Y-61000000D01*
X156150000Y-61000000D01*
X156150000Y-59000000D01*
%TO.C,R26*%
X176500000Y-104875000D02*
X178500000Y-104875000D01*
X178500000Y-106125000D01*
X176500000Y-106125000D01*
X176500000Y-104875000D01*
%TO.C,R16*%
X173375000Y-108500000D02*
X174625000Y-108500000D01*
X174625000Y-110500000D01*
X173375000Y-110500000D01*
X173375000Y-108500000D01*
%TO.C,C5*%
X176399000Y-72875000D02*
X178399000Y-72875000D01*
X178399000Y-74125000D01*
X176399000Y-74125000D01*
X176399000Y-72875000D01*
%TO.C,J6*%
X140700000Y-65750000D02*
X146500000Y-65750000D01*
X140700000Y-65800000D02*
X140700000Y-65750000D01*
X140700000Y-72100000D02*
X141700000Y-72100000D01*
X140700000Y-75850000D02*
X140700000Y-65800000D01*
X141700000Y-67000000D02*
X140700000Y-67000000D01*
X141700000Y-72100000D02*
X141700000Y-67000000D01*
X146500000Y-65750000D02*
X146500000Y-71400000D01*
X146500000Y-72750000D02*
X146500000Y-75850000D01*
X146500000Y-75850000D02*
X140700000Y-75850000D01*
%TO.C,R14*%
X162375000Y-75000000D02*
X163625000Y-75000000D01*
X163625000Y-77000000D01*
X162375000Y-77000000D01*
X162375000Y-75000000D01*
%TO.C,R1*%
X162275000Y-65335000D02*
X164275000Y-65335000D01*
X164275000Y-66585000D01*
X162275000Y-66585000D01*
X162275000Y-65335000D01*
%TO.C,BZ1*%
X181230000Y-102090000D02*
X181865000Y-101455000D01*
X181230000Y-106535000D02*
X181230000Y-102090000D01*
X181865000Y-101455000D02*
X183770000Y-101455000D01*
X183770000Y-101455000D02*
X183770000Y-106535000D01*
X183770000Y-106535000D02*
X181230000Y-106535000D01*
%TD*%
M02*
