%TF.GenerationSoftware,KiCad,Pcbnew,10.0.3*%
%TF.CreationDate,2026-06-15T13:46:07+02:00*%
%TF.ProjectId,main,6d61696e-2e6b-4696-9361-645f70636258,rev?*%
%TF.SameCoordinates,Original*%
%TF.FileFunction,Legend,Bot*%
%TF.FilePolarity,Positive*%
%FSLAX46Y46*%
G04 Gerber Fmt 4.6, Leading zero omitted, Abs format (unit mm)*
G04 Created by KiCad (PCBNEW 10.0.3) date 2026-06-15 13:46:07*
%MOMM*%
%LPD*%
G01*
G04 APERTURE LIST*
%ADD10C,0.100000*%
%ADD11C,0.150000*%
%ADD12C,0.120000*%
G04 APERTURE END LIST*
D10*
X172500000Y-111500000D02*
X180000000Y-111500000D01*
X180000000Y-115500000D01*
X172500000Y-115500000D01*
X172500000Y-111500000D01*
D11*
X174987030Y-109702485D02*
X175101316Y-109645342D01*
X175101316Y-109645342D02*
X175272744Y-109645342D01*
X175272744Y-109645342D02*
X175444173Y-109702485D01*
X175444173Y-109702485D02*
X175558458Y-109816771D01*
X175558458Y-109816771D02*
X175615601Y-109931057D01*
X175615601Y-109931057D02*
X175672744Y-110159628D01*
X175672744Y-110159628D02*
X175672744Y-110331057D01*
X175672744Y-110331057D02*
X175615601Y-110559628D01*
X175615601Y-110559628D02*
X175558458Y-110673914D01*
X175558458Y-110673914D02*
X175444173Y-110788200D01*
X175444173Y-110788200D02*
X175272744Y-110845342D01*
X175272744Y-110845342D02*
X175158458Y-110845342D01*
X175158458Y-110845342D02*
X174987030Y-110788200D01*
X174987030Y-110788200D02*
X174929887Y-110731057D01*
X174929887Y-110731057D02*
X174929887Y-110331057D01*
X174929887Y-110331057D02*
X175158458Y-110331057D01*
X174415601Y-110845342D02*
X174415601Y-109645342D01*
X174415601Y-109645342D02*
X173729887Y-110845342D01*
X173729887Y-110845342D02*
X173729887Y-109645342D01*
X173158458Y-110845342D02*
X173158458Y-109645342D01*
X173158458Y-109645342D02*
X172872744Y-109645342D01*
X172872744Y-109645342D02*
X172701315Y-109702485D01*
X172701315Y-109702485D02*
X172587030Y-109816771D01*
X172587030Y-109816771D02*
X172529887Y-109931057D01*
X172529887Y-109931057D02*
X172472744Y-110159628D01*
X172472744Y-110159628D02*
X172472744Y-110331057D01*
X172472744Y-110331057D02*
X172529887Y-110559628D01*
X172529887Y-110559628D02*
X172587030Y-110673914D01*
X172587030Y-110673914D02*
X172701315Y-110788200D01*
X172701315Y-110788200D02*
X172872744Y-110845342D01*
X172872744Y-110845342D02*
X173158458Y-110845342D01*
X180615601Y-110388200D02*
X179701316Y-110388200D01*
X180158458Y-110845342D02*
X180158458Y-109931057D01*
X179244173Y-109645342D02*
X178501316Y-109645342D01*
X178501316Y-109645342D02*
X178901316Y-110102485D01*
X178901316Y-110102485D02*
X178729887Y-110102485D01*
X178729887Y-110102485D02*
X178615602Y-110159628D01*
X178615602Y-110159628D02*
X178558459Y-110216771D01*
X178558459Y-110216771D02*
X178501316Y-110331057D01*
X178501316Y-110331057D02*
X178501316Y-110616771D01*
X178501316Y-110616771D02*
X178558459Y-110731057D01*
X178558459Y-110731057D02*
X178615602Y-110788200D01*
X178615602Y-110788200D02*
X178729887Y-110845342D01*
X178729887Y-110845342D02*
X179072744Y-110845342D01*
X179072744Y-110845342D02*
X179187030Y-110788200D01*
X179187030Y-110788200D02*
X179244173Y-110731057D01*
X177987030Y-110731057D02*
X177929887Y-110788200D01*
X177929887Y-110788200D02*
X177987030Y-110845342D01*
X177987030Y-110845342D02*
X178044173Y-110788200D01*
X178044173Y-110788200D02*
X177987030Y-110731057D01*
X177987030Y-110731057D02*
X177987030Y-110845342D01*
X177529887Y-109645342D02*
X176787030Y-109645342D01*
X176787030Y-109645342D02*
X177187030Y-110102485D01*
X177187030Y-110102485D02*
X177015601Y-110102485D01*
X177015601Y-110102485D02*
X176901316Y-110159628D01*
X176901316Y-110159628D02*
X176844173Y-110216771D01*
X176844173Y-110216771D02*
X176787030Y-110331057D01*
X176787030Y-110331057D02*
X176787030Y-110616771D01*
X176787030Y-110616771D02*
X176844173Y-110731057D01*
X176844173Y-110731057D02*
X176901316Y-110788200D01*
X176901316Y-110788200D02*
X177015601Y-110845342D01*
X177015601Y-110845342D02*
X177358458Y-110845342D01*
X177358458Y-110845342D02*
X177472744Y-110788200D01*
X177472744Y-110788200D02*
X177529887Y-110731057D01*
%TO.C,D3*%
D12*
X159687500Y-91490000D02*
X159687500Y-94750000D01*
X159687500Y-91490000D02*
X161387500Y-91490000D01*
X161387500Y-91490000D02*
X161387500Y-94750000D01*
%TO.C,C24*%
X150276248Y-84745000D02*
X150798752Y-84745000D01*
X150276248Y-86215000D02*
X150798752Y-86215000D01*
%TO.C,C20*%
X161302500Y-88723752D02*
X161302500Y-88201248D01*
X162772500Y-88723752D02*
X162772500Y-88201248D01*
%TO.C,C9*%
X157265000Y-64738748D02*
X157265000Y-65261252D01*
X158735000Y-64738748D02*
X158735000Y-65261252D01*
%TO.C,R24*%
X169227064Y-80765000D02*
X168772936Y-80765000D01*
X169227064Y-82235000D02*
X168772936Y-82235000D01*
%TO.C,U5*%
X157477500Y-87590000D02*
X157477500Y-89410000D01*
X157477500Y-89410000D02*
X157527500Y-89410000D01*
X157527500Y-87590000D02*
X157477500Y-87590000D01*
X160547500Y-89410000D02*
X160597500Y-89410000D01*
X160597500Y-87590000D02*
X160547500Y-87590000D01*
X160597500Y-89410000D02*
X160597500Y-87590000D01*
X160547500Y-89950000D02*
X160877500Y-90190000D01*
X160877500Y-89710000D01*
X160547500Y-89950000D01*
G36*
X160877500Y-90190000D02*
G01*
X160547500Y-89950000D01*
X160877500Y-89710000D01*
X160877500Y-90190000D01*
G37*
%TO.C,U6*%
X162190000Y-63890000D02*
X162190000Y-64090000D01*
X162190000Y-66910000D02*
X162190000Y-67110000D01*
X162190000Y-67110000D02*
X165410000Y-67110000D01*
X165410000Y-63890000D02*
X162190000Y-63890000D01*
X165410000Y-64090000D02*
X165410000Y-63890000D01*
X165410000Y-67110000D02*
X165410000Y-66910000D01*
X166000000Y-64090000D02*
X166240000Y-63760000D01*
X165760000Y-63760000D01*
X166000000Y-64090000D01*
G36*
X166000000Y-64090000D02*
G01*
X165760000Y-63760000D01*
X166240000Y-63760000D01*
X166000000Y-64090000D01*
G37*
%TO.C,R28*%
X156752500Y-95772936D02*
X156752500Y-96227064D01*
X158222500Y-95772936D02*
X158222500Y-96227064D01*
%TO.C,R36*%
X156727064Y-109015000D02*
X156272936Y-109015000D01*
X156727064Y-110485000D02*
X156272936Y-110485000D01*
%TO.C,Q1*%
X154890000Y-105202500D02*
X154890000Y-107022500D01*
X154890000Y-107022500D02*
X154940000Y-107022500D01*
X155890000Y-105202500D02*
X154890000Y-105202500D01*
X156060000Y-107022500D02*
X156840000Y-107022500D01*
X157960000Y-107022500D02*
X158010000Y-107022500D01*
X158010000Y-105202500D02*
X157010000Y-105202500D01*
X158010000Y-107022500D02*
X158010000Y-105202500D01*
X156830000Y-107562500D02*
X156500000Y-107322500D01*
X156500000Y-107802500D01*
X156830000Y-107562500D01*
G36*
X156830000Y-107562500D02*
G01*
X156500000Y-107802500D01*
X156500000Y-107322500D01*
X156830000Y-107562500D01*
G37*
%TO.C,R21*%
X160810436Y-80765000D02*
X161264564Y-80765000D01*
X160810436Y-82235000D02*
X161264564Y-82235000D01*
%TO.C,Q2*%
X149940000Y-105202500D02*
X149940000Y-107022500D01*
X149940000Y-107022500D02*
X149990000Y-107022500D01*
X150940000Y-105202500D02*
X149940000Y-105202500D01*
X151110000Y-107022500D02*
X151890000Y-107022500D01*
X153010000Y-107022500D02*
X153060000Y-107022500D01*
X153060000Y-105202500D02*
X152060000Y-105202500D01*
X153060000Y-107022500D02*
X153060000Y-105202500D01*
X151880000Y-107562500D02*
X151550000Y-107322500D01*
X151550000Y-107802500D01*
X151880000Y-107562500D01*
G36*
X151880000Y-107562500D02*
G01*
X151550000Y-107802500D01*
X151550000Y-107322500D01*
X151880000Y-107562500D01*
G37*
%TO.C,C25*%
X151752500Y-96261252D02*
X151752500Y-95738748D01*
X153222500Y-96261252D02*
X153222500Y-95738748D01*
%TO.C,R11*%
X175265000Y-89772936D02*
X175265000Y-90227064D01*
X176735000Y-89772936D02*
X176735000Y-90227064D01*
%TO.C,R23*%
X135265000Y-58772936D02*
X135265000Y-59227064D01*
X136735000Y-58772936D02*
X136735000Y-59227064D01*
%TO.C,R12*%
X134765000Y-70772936D02*
X134765000Y-71227064D01*
X136235000Y-70772936D02*
X136235000Y-71227064D01*
%TO.C,R29*%
X154302500Y-96227064D02*
X154302500Y-95772936D01*
X155772500Y-96227064D02*
X155772500Y-95772936D01*
%TO.C,R33*%
X166765000Y-70727064D02*
X166765000Y-70272936D01*
X168235000Y-70727064D02*
X168235000Y-70272936D01*
%TO.C,R19*%
X134765000Y-94772936D02*
X134765000Y-95227064D01*
X136235000Y-94772936D02*
X136235000Y-95227064D01*
%TO.C,R31*%
X154227064Y-62765000D02*
X153772936Y-62765000D01*
X154227064Y-64235000D02*
X153772936Y-64235000D01*
%TO.C,R9*%
X177272936Y-78765000D02*
X177727064Y-78765000D01*
X177272936Y-80235000D02*
X177727064Y-80235000D01*
%TO.C,C17*%
X155298752Y-84755000D02*
X154776248Y-84755000D01*
X155298752Y-86225000D02*
X154776248Y-86225000D01*
%TO.C,R22*%
X160810436Y-83265000D02*
X161264564Y-83265000D01*
X160810436Y-84735000D02*
X161264564Y-84735000D01*
%TO.C,C18*%
X155298752Y-87765000D02*
X154776248Y-87765000D01*
X155298752Y-89235000D02*
X154776248Y-89235000D01*
%TO.C,C22*%
X150276248Y-90765000D02*
X150798752Y-90765000D01*
X150276248Y-92235000D02*
X150798752Y-92235000D01*
%TO.C,R35*%
X153272936Y-112015000D02*
X153727064Y-112015000D01*
X153272936Y-113485000D02*
X153727064Y-113485000D01*
%TO.C,C19*%
X155298752Y-90775000D02*
X154776248Y-90775000D01*
X155298752Y-92245000D02*
X154776248Y-92245000D01*
%TO.C,Q4*%
X171090000Y-88440000D02*
X171090000Y-89440000D01*
X171090000Y-90560000D02*
X171090000Y-91560000D01*
X171090000Y-91560000D02*
X172910000Y-91560000D01*
X172910000Y-88440000D02*
X171090000Y-88440000D01*
X172910000Y-88490000D02*
X172910000Y-88440000D01*
X172910000Y-90390000D02*
X172910000Y-89610000D01*
X172910000Y-91560000D02*
X172910000Y-91510000D01*
X173450000Y-89620000D02*
X173210000Y-89950000D01*
X173690000Y-89950000D01*
X173450000Y-89620000D01*
G36*
X173690000Y-89950000D02*
G01*
X173210000Y-89950000D01*
X173450000Y-89620000D01*
X173690000Y-89950000D01*
G37*
%TO.C,R34*%
X151272936Y-109015000D02*
X151727064Y-109015000D01*
X151272936Y-110485000D02*
X151727064Y-110485000D01*
%TO.C,D2*%
X154837500Y-82500000D02*
X157437500Y-82500000D01*
X157437500Y-80500000D02*
X154837500Y-80500000D01*
%TO.C,R13*%
X166765000Y-85227064D02*
X166765000Y-84772936D01*
X168235000Y-85227064D02*
X168235000Y-84772936D01*
%TO.C,C23*%
X150276248Y-87755000D02*
X150798752Y-87755000D01*
X150276248Y-89225000D02*
X150798752Y-89225000D01*
%TO.C,R32*%
X154227064Y-65265000D02*
X153772936Y-65265000D01*
X154227064Y-66735000D02*
X153772936Y-66735000D01*
%TO.C,R25*%
X169227064Y-78265000D02*
X168772936Y-78265000D01*
X169227064Y-79735000D02*
X168772936Y-79735000D01*
%TO.C,R17*%
X147790000Y-68177064D02*
X147790000Y-63822936D01*
X151210000Y-68177064D02*
X151210000Y-63822936D01*
%TO.C,R18*%
X134765000Y-82772936D02*
X134765000Y-83227064D01*
X136235000Y-82772936D02*
X136235000Y-83227064D01*
%TO.C,C21*%
X161298752Y-78265000D02*
X160776248Y-78265000D01*
X161298752Y-79735000D02*
X160776248Y-79735000D01*
%TD*%
M02*
