%TF.GenerationSoftware,KiCad,Pcbnew,10.0.3*%
%TF.CreationDate,2026-06-15T13:46:08+02:00*%
%TF.ProjectId,main,6d61696e-2e6b-4696-9361-645f70636258,rev?*%
%TF.SameCoordinates,Original*%
%TF.FileFunction,Other,User*%
%FSLAX46Y46*%
G04 Gerber Fmt 4.6, Leading zero omitted, Abs format (unit mm)*
G04 Created by KiCad (PCBNEW 10.0.3) date 2026-06-15 13:46:08*
%MOMM*%
%LPD*%
G01*
G04 APERTURE LIST*
%ADD10C,0.050000*%
%ADD11C,0.100000*%
G04 APERTURE END LIST*
%TO.C,SW3*%
D10*
X162971668Y-98360626D02*
X168028333Y-98360626D01*
X168028333Y-106608542D01*
X162971668Y-106608542D01*
X162971668Y-98360626D01*
%TO.C,J8*%
X140200000Y-53250000D02*
X140200000Y-64350000D01*
X140200000Y-53250000D02*
X147200000Y-53250000D01*
X147200000Y-64350000D02*
X140200000Y-64350000D01*
X147200000Y-64350000D02*
X147200000Y-53250000D01*
%TO.C,R4*%
X168425000Y-65050000D02*
X172125000Y-65050000D01*
X172125000Y-66950000D01*
X168425000Y-66950000D01*
X168425000Y-65050000D01*
%TO.C,R30*%
X181150000Y-66550000D02*
X184850000Y-66550000D01*
X184850000Y-68450000D01*
X181150000Y-68450000D01*
X181150000Y-66550000D01*
%TO.C,J2*%
X149230000Y-55460000D02*
X155320000Y-55460000D01*
X155320000Y-61655000D01*
X149230000Y-61655000D01*
X149230000Y-55460000D01*
%TO.C,J4*%
X167230000Y-55460000D02*
X173320000Y-55460000D01*
X173320000Y-61655000D01*
X167230000Y-61655000D01*
X167230000Y-55460000D01*
%TO.C,J9*%
X173455000Y-111730000D02*
X179545000Y-111730000D01*
X179545000Y-115270000D01*
X173455000Y-115270000D01*
X173455000Y-111730000D01*
%TO.C,R20*%
X181150000Y-64050000D02*
X184850000Y-64050000D01*
X184850000Y-65950000D01*
X181150000Y-65950000D01*
X181150000Y-64050000D01*
%TO.C,L1*%
X148750000Y-78062079D02*
X161250000Y-78062079D01*
X161250000Y-92062079D01*
X148750000Y-92062079D01*
X148750000Y-78062079D01*
%TO.C,U2*%
X174349000Y-68731250D02*
X175349000Y-68731250D01*
X174349000Y-71731250D02*
X174349000Y-68731250D01*
X175349000Y-68531250D02*
X177449000Y-68531250D01*
X175349000Y-68731250D02*
X175349000Y-68531250D01*
X175349000Y-71731250D02*
X174349000Y-71731250D01*
X175349000Y-71931250D02*
X175349000Y-71731250D01*
X177449000Y-68531250D02*
X177449000Y-68731250D01*
X177449000Y-68731250D02*
X178449000Y-68731250D01*
X177449000Y-69841250D02*
X177449000Y-70621250D01*
X177449000Y-70621250D02*
X178449000Y-70621250D01*
X177449000Y-71731250D02*
X177449000Y-71931250D01*
X177449000Y-71931250D02*
X175349000Y-71931250D01*
X178449000Y-68731250D02*
X178449000Y-69841250D01*
X178449000Y-69841250D02*
X177449000Y-69841250D01*
X178449000Y-70621250D02*
X178449000Y-71731250D01*
X178449000Y-71731250D02*
X177449000Y-71731250D01*
%TO.C,SW2*%
X163376042Y-109971668D02*
X171623958Y-109971668D01*
X171623958Y-115028333D01*
X163376042Y-115028333D01*
X163376042Y-109971668D01*
%TO.C,R3*%
X175462500Y-65050000D02*
X179162500Y-65050000D01*
X179162500Y-66950000D01*
X175462500Y-66950000D01*
X175462500Y-65050000D01*
%TO.C,C2*%
X175432500Y-62520000D02*
X179192500Y-62520000D01*
X179192500Y-64480000D01*
X175432500Y-64480000D01*
X175432500Y-62520000D01*
%TO.C,R27*%
X175650000Y-102050000D02*
X179350000Y-102050000D01*
X179350000Y-103950000D01*
X175650000Y-103950000D01*
X175650000Y-102050000D01*
%TO.C,R10*%
X153381920Y-70429587D02*
X155281920Y-70429587D01*
X155281920Y-74129587D01*
X153381920Y-74129587D01*
X153381920Y-70429587D01*
%TO.C,C6*%
X171419000Y-68351250D02*
X173379000Y-68351250D01*
X173379000Y-72111250D01*
X171419000Y-72111250D01*
X171419000Y-68351250D01*
%TO.C,Q3*%
X175800000Y-98450000D02*
X176950000Y-98450000D01*
X175800000Y-100550000D02*
X175800000Y-98450000D01*
X176000000Y-100550000D02*
X175800000Y-100550000D01*
X176000000Y-101550000D02*
X176000000Y-100550000D01*
X176950000Y-97450000D02*
X178050000Y-97450000D01*
X176950000Y-98450000D02*
X176950000Y-97450000D01*
X177110000Y-100550000D02*
X177110000Y-101550000D01*
X177110000Y-101550000D02*
X176000000Y-101550000D01*
X177890000Y-100550000D02*
X177110000Y-100550000D01*
X177890000Y-101550000D02*
X177890000Y-100550000D01*
X178050000Y-97450000D02*
X178050000Y-98450000D01*
X178050000Y-98450000D02*
X179200000Y-98450000D01*
X179000000Y-100550000D02*
X179000000Y-101550000D01*
X179000000Y-101550000D02*
X177890000Y-101550000D01*
X179200000Y-98450000D02*
X179200000Y-100550000D01*
X179200000Y-100550000D02*
X179000000Y-100550000D01*
%TO.C,R5*%
X164825000Y-58150000D02*
X166725000Y-58150000D01*
X166725000Y-61850000D01*
X164825000Y-61850000D01*
X164825000Y-58150000D01*
%TO.C,C4*%
X161395000Y-62480000D02*
X165155000Y-62480000D01*
X165155000Y-64440000D01*
X161395000Y-64440000D01*
X161395000Y-62480000D01*
%TO.C,C8*%
X150851920Y-70324587D02*
X152811920Y-70324587D01*
X152811920Y-74084587D01*
X150851920Y-74084587D01*
X150851920Y-70324587D01*
%TO.C,R7*%
X182825000Y-58150000D02*
X184725000Y-58150000D01*
X184725000Y-61850000D01*
X182825000Y-61850000D01*
X182825000Y-58150000D01*
%TO.C,J10*%
X180730000Y-109230000D02*
X184270000Y-109230000D01*
X184270000Y-115320000D01*
X180730000Y-115320000D01*
X180730000Y-109230000D01*
%TO.C,J7*%
X140200000Y-89250000D02*
X140200000Y-100350000D01*
X140200000Y-89250000D02*
X147200000Y-89250000D01*
X147200000Y-100350000D02*
X140200000Y-100350000D01*
X147200000Y-100350000D02*
X147200000Y-89250000D01*
%TO.C,C7*%
X148351920Y-70362087D02*
X150311920Y-70362087D01*
X150311920Y-74122087D01*
X148351920Y-74122087D01*
X148351920Y-70362087D01*
%TO.C,U4*%
X162849999Y-67699999D02*
X169149999Y-67699999D01*
X162849999Y-71299999D02*
X162849999Y-67699999D01*
X162849999Y-71299999D02*
X169149999Y-71299999D01*
D11*
X165499998Y-69500000D02*
X166499999Y-69500000D01*
X165999997Y-69999999D02*
X165999997Y-68999998D01*
D10*
X169149999Y-71299999D02*
X169149999Y-67699999D01*
%TO.C,J5*%
X140200000Y-77250000D02*
X140200000Y-88350000D01*
X140200000Y-77250000D02*
X147200000Y-77250000D01*
X147200000Y-88350000D02*
X140200000Y-88350000D01*
X147200000Y-88350000D02*
X147200000Y-77250000D01*
%TO.C,R15*%
X178050000Y-107650000D02*
X179950000Y-107650000D01*
X179950000Y-111350000D01*
X178050000Y-111350000D01*
X178050000Y-107650000D01*
%TO.C,U1*%
X165649000Y-75481250D02*
X165649000Y-94981250D01*
X165649000Y-75481250D02*
X179649000Y-75481250D01*
X179649000Y-70981250D02*
X179649000Y-75481250D01*
X179649000Y-94981250D02*
X165649000Y-94981250D01*
X179649000Y-94981250D02*
X179649000Y-99481250D01*
X191149000Y-70981250D02*
X179649000Y-70981250D01*
X191149000Y-70981250D02*
X191149000Y-99481250D01*
X191149000Y-99481250D02*
X179649000Y-99481250D01*
%TO.C,C3*%
X154395000Y-62520000D02*
X158155000Y-62520000D01*
X158155000Y-64480000D01*
X154395000Y-64480000D01*
X154395000Y-62520000D01*
%TO.C,C1*%
X168395000Y-62520000D02*
X172155000Y-62520000D01*
X172155000Y-64480000D01*
X168395000Y-64480000D01*
X168395000Y-62520000D01*
%TO.C,R2*%
X154425000Y-65050000D02*
X158125000Y-65050000D01*
X158125000Y-66950000D01*
X154425000Y-66950000D01*
X154425000Y-65050000D01*
%TO.C,R8*%
X173825000Y-58150000D02*
X175725000Y-58150000D01*
X175725000Y-61850000D01*
X173825000Y-61850000D01*
X173825000Y-58150000D01*
%TO.C,J3*%
X176230000Y-55615000D02*
X182320000Y-55615000D01*
X182320000Y-61655000D01*
X176230000Y-61655000D01*
X176230000Y-55615000D01*
%TO.C,D1*%
X175550000Y-107650000D02*
X177450000Y-107650000D01*
X177450000Y-111350000D01*
X175550000Y-111350000D01*
X175550000Y-107650000D01*
%TO.C,J1*%
X158230000Y-55460000D02*
X164320000Y-55460000D01*
X164320000Y-61655000D01*
X158230000Y-61655000D01*
X158230000Y-55460000D01*
%TO.C,SW1*%
X168471668Y-98376042D02*
X173528333Y-98376042D01*
X173528333Y-106623958D01*
X168471668Y-106623958D01*
X168471668Y-98376042D01*
%TO.C,R6*%
X155825000Y-58150000D02*
X157725000Y-58150000D01*
X157725000Y-61850000D01*
X155825000Y-61850000D01*
X155825000Y-58150000D01*
%TO.C,R26*%
X175650000Y-104550000D02*
X179350000Y-104550000D01*
X179350000Y-106450000D01*
X175650000Y-106450000D01*
X175650000Y-104550000D01*
%TO.C,R16*%
X173050000Y-107650000D02*
X174950000Y-107650000D01*
X174950000Y-111350000D01*
X173050000Y-111350000D01*
X173050000Y-107650000D01*
%TO.C,C5*%
X175519000Y-72520000D02*
X179279000Y-72520000D01*
X179279000Y-74480000D01*
X175519000Y-74480000D01*
X175519000Y-72520000D01*
%TO.C,J6*%
X140200000Y-65250000D02*
X140200000Y-76350000D01*
X140200000Y-65250000D02*
X147200000Y-65250000D01*
X147200000Y-76350000D02*
X140200000Y-76350000D01*
X147200000Y-76350000D02*
X147200000Y-65250000D01*
%TO.C,R14*%
X162050000Y-74150000D02*
X163950000Y-74150000D01*
X163950000Y-77850000D01*
X162050000Y-77850000D01*
X162050000Y-74150000D01*
%TO.C,R1*%
X161425000Y-65010000D02*
X165125000Y-65010000D01*
X165125000Y-66910000D01*
X161425000Y-66910000D01*
X161425000Y-65010000D01*
%TO.C,BZ1*%
X180730000Y-100955000D02*
X184270000Y-100955000D01*
X184270000Y-107045000D01*
X180730000Y-107045000D01*
X180730000Y-100955000D01*
%TD*%
M02*
