%TF.GenerationSoftware,KiCad,Pcbnew,10.0.3*%
%TF.CreationDate,2026-06-13T22:55:20+02:00*%
%TF.ProjectId,main,6d61696e-2e6b-4696-9361-645f70636258,rev?*%
%TF.SameCoordinates,Original*%
%TF.FileFunction,Other,Comment*%
%FSLAX46Y46*%
G04 Gerber Fmt 4.6, Leading zero omitted, Abs format (unit mm)*
G04 Created by KiCad (PCBNEW 10.0.3) date 2026-06-13 22:55:20*
%MOMM*%
%LPD*%
G01*
G04 APERTURE LIST*
%ADD10C,0.150000*%
%ADD11C,0.100000*%
G04 APERTURE END LIST*
D10*
X182968104Y-87993154D02*
X182968104Y-87516964D01*
X183253819Y-88088392D02*
X182253819Y-87755059D01*
X182253819Y-87755059D02*
X183253819Y-87421726D01*
X182587152Y-87088392D02*
X183253819Y-87088392D01*
X182682390Y-87088392D02*
X182634771Y-87040773D01*
X182634771Y-87040773D02*
X182587152Y-86945535D01*
X182587152Y-86945535D02*
X182587152Y-86802678D01*
X182587152Y-86802678D02*
X182634771Y-86707440D01*
X182634771Y-86707440D02*
X182730009Y-86659821D01*
X182730009Y-86659821D02*
X183253819Y-86659821D01*
X182587152Y-86326487D02*
X182587152Y-85945535D01*
X182253819Y-86183630D02*
X183110961Y-86183630D01*
X183110961Y-86183630D02*
X183206200Y-86136011D01*
X183206200Y-86136011D02*
X183253819Y-86040773D01*
X183253819Y-86040773D02*
X183253819Y-85945535D01*
X183206200Y-85231249D02*
X183253819Y-85326487D01*
X183253819Y-85326487D02*
X183253819Y-85516963D01*
X183253819Y-85516963D02*
X183206200Y-85612201D01*
X183206200Y-85612201D02*
X183110961Y-85659820D01*
X183110961Y-85659820D02*
X182730009Y-85659820D01*
X182730009Y-85659820D02*
X182634771Y-85612201D01*
X182634771Y-85612201D02*
X182587152Y-85516963D01*
X182587152Y-85516963D02*
X182587152Y-85326487D01*
X182587152Y-85326487D02*
X182634771Y-85231249D01*
X182634771Y-85231249D02*
X182730009Y-85183630D01*
X182730009Y-85183630D02*
X182825247Y-85183630D01*
X182825247Y-85183630D02*
X182920485Y-85659820D01*
X182587152Y-84755058D02*
X183253819Y-84755058D01*
X182682390Y-84755058D02*
X182634771Y-84707439D01*
X182634771Y-84707439D02*
X182587152Y-84612201D01*
X182587152Y-84612201D02*
X182587152Y-84469344D01*
X182587152Y-84469344D02*
X182634771Y-84374106D01*
X182634771Y-84374106D02*
X182730009Y-84326487D01*
X182730009Y-84326487D02*
X183253819Y-84326487D01*
X182587152Y-83850296D02*
X183253819Y-83850296D01*
X182682390Y-83850296D02*
X182634771Y-83802677D01*
X182634771Y-83802677D02*
X182587152Y-83707439D01*
X182587152Y-83707439D02*
X182587152Y-83564582D01*
X182587152Y-83564582D02*
X182634771Y-83469344D01*
X182634771Y-83469344D02*
X182730009Y-83421725D01*
X182730009Y-83421725D02*
X183253819Y-83421725D01*
X183253819Y-82516963D02*
X182730009Y-82516963D01*
X182730009Y-82516963D02*
X182634771Y-82564582D01*
X182634771Y-82564582D02*
X182587152Y-82659820D01*
X182587152Y-82659820D02*
X182587152Y-82850296D01*
X182587152Y-82850296D02*
X182634771Y-82945534D01*
X183206200Y-82516963D02*
X183253819Y-82612201D01*
X183253819Y-82612201D02*
X183253819Y-82850296D01*
X183253819Y-82850296D02*
X183206200Y-82945534D01*
X183206200Y-82945534D02*
X183110961Y-82993153D01*
X183110961Y-82993153D02*
X183015723Y-82993153D01*
X183015723Y-82993153D02*
X182920485Y-82945534D01*
X182920485Y-82945534D02*
X182872866Y-82850296D01*
X182872866Y-82850296D02*
X182872866Y-82612201D01*
X182872866Y-82612201D02*
X182825247Y-82516963D01*
D11*
X183725109Y-97769345D02*
X183725109Y-98007440D01*
X183725109Y-98007440D02*
X183963204Y-98031249D01*
X183963204Y-98031249D02*
X183939395Y-98007440D01*
X183939395Y-98007440D02*
X183915585Y-97959821D01*
X183915585Y-97959821D02*
X183915585Y-97840773D01*
X183915585Y-97840773D02*
X183939395Y-97793154D01*
X183939395Y-97793154D02*
X183963204Y-97769345D01*
X183963204Y-97769345D02*
X184010823Y-97745535D01*
X184010823Y-97745535D02*
X184129871Y-97745535D01*
X184129871Y-97745535D02*
X184177490Y-97769345D01*
X184177490Y-97769345D02*
X184201300Y-97793154D01*
X184201300Y-97793154D02*
X184225109Y-97840773D01*
X184225109Y-97840773D02*
X184225109Y-97959821D01*
X184225109Y-97959821D02*
X184201300Y-98007440D01*
X184201300Y-98007440D02*
X184177490Y-98031249D01*
X184225109Y-97150298D02*
X183891776Y-97150298D01*
X183939395Y-97150298D02*
X183915585Y-97126488D01*
X183915585Y-97126488D02*
X183891776Y-97078869D01*
X183891776Y-97078869D02*
X183891776Y-97007441D01*
X183891776Y-97007441D02*
X183915585Y-96959822D01*
X183915585Y-96959822D02*
X183963204Y-96936012D01*
X183963204Y-96936012D02*
X184225109Y-96936012D01*
X183963204Y-96936012D02*
X183915585Y-96912203D01*
X183915585Y-96912203D02*
X183891776Y-96864584D01*
X183891776Y-96864584D02*
X183891776Y-96793155D01*
X183891776Y-96793155D02*
X183915585Y-96745536D01*
X183915585Y-96745536D02*
X183963204Y-96721726D01*
X183963204Y-96721726D02*
X184225109Y-96721726D01*
X184225109Y-96483631D02*
X183891776Y-96483631D01*
X183939395Y-96483631D02*
X183915585Y-96459821D01*
X183915585Y-96459821D02*
X183891776Y-96412202D01*
X183891776Y-96412202D02*
X183891776Y-96340774D01*
X183891776Y-96340774D02*
X183915585Y-96293155D01*
X183915585Y-96293155D02*
X183963204Y-96269345D01*
X183963204Y-96269345D02*
X184225109Y-96269345D01*
X183963204Y-96269345D02*
X183915585Y-96245536D01*
X183915585Y-96245536D02*
X183891776Y-96197917D01*
X183891776Y-96197917D02*
X183891776Y-96126488D01*
X183891776Y-96126488D02*
X183915585Y-96078869D01*
X183915585Y-96078869D02*
X183963204Y-96055059D01*
X183963204Y-96055059D02*
X184225109Y-96055059D01*
X187960904Y-92757359D02*
X187722809Y-92757359D01*
X187722809Y-92757359D02*
X187699000Y-92995454D01*
X187699000Y-92995454D02*
X187722809Y-92971645D01*
X187722809Y-92971645D02*
X187770428Y-92947835D01*
X187770428Y-92947835D02*
X187889476Y-92947835D01*
X187889476Y-92947835D02*
X187937095Y-92971645D01*
X187937095Y-92971645D02*
X187960904Y-92995454D01*
X187960904Y-92995454D02*
X187984714Y-93043073D01*
X187984714Y-93043073D02*
X187984714Y-93162121D01*
X187984714Y-93162121D02*
X187960904Y-93209740D01*
X187960904Y-93209740D02*
X187937095Y-93233550D01*
X187937095Y-93233550D02*
X187889476Y-93257359D01*
X187889476Y-93257359D02*
X187770428Y-93257359D01*
X187770428Y-93257359D02*
X187722809Y-93233550D01*
X187722809Y-93233550D02*
X187699000Y-93209740D01*
X188579951Y-93257359D02*
X188579951Y-92924026D01*
X188579951Y-92971645D02*
X188603761Y-92947835D01*
X188603761Y-92947835D02*
X188651380Y-92924026D01*
X188651380Y-92924026D02*
X188722808Y-92924026D01*
X188722808Y-92924026D02*
X188770427Y-92947835D01*
X188770427Y-92947835D02*
X188794237Y-92995454D01*
X188794237Y-92995454D02*
X188794237Y-93257359D01*
X188794237Y-92995454D02*
X188818046Y-92947835D01*
X188818046Y-92947835D02*
X188865665Y-92924026D01*
X188865665Y-92924026D02*
X188937094Y-92924026D01*
X188937094Y-92924026D02*
X188984713Y-92947835D01*
X188984713Y-92947835D02*
X189008523Y-92995454D01*
X189008523Y-92995454D02*
X189008523Y-93257359D01*
X189246618Y-93257359D02*
X189246618Y-92924026D01*
X189246618Y-92971645D02*
X189270428Y-92947835D01*
X189270428Y-92947835D02*
X189318047Y-92924026D01*
X189318047Y-92924026D02*
X189389475Y-92924026D01*
X189389475Y-92924026D02*
X189437094Y-92947835D01*
X189437094Y-92947835D02*
X189460904Y-92995454D01*
X189460904Y-92995454D02*
X189460904Y-93257359D01*
X189460904Y-92995454D02*
X189484713Y-92947835D01*
X189484713Y-92947835D02*
X189532332Y-92924026D01*
X189532332Y-92924026D02*
X189603761Y-92924026D01*
X189603761Y-92924026D02*
X189651380Y-92947835D01*
X189651380Y-92947835D02*
X189675190Y-92995454D01*
X189675190Y-92995454D02*
X189675190Y-93257359D01*
D10*
X189253819Y-91302678D02*
X188253819Y-91302678D01*
X189253819Y-90731250D02*
X188682390Y-91159821D01*
X188253819Y-90731250D02*
X188825247Y-91302678D01*
X188730009Y-90302678D02*
X188730009Y-89969345D01*
X189253819Y-89826488D02*
X189253819Y-90302678D01*
X189253819Y-90302678D02*
X188253819Y-90302678D01*
X188253819Y-90302678D02*
X188253819Y-89826488D01*
X188730009Y-89397916D02*
X188730009Y-89064583D01*
X189253819Y-88921726D02*
X189253819Y-89397916D01*
X189253819Y-89397916D02*
X188253819Y-89397916D01*
X188253819Y-89397916D02*
X188253819Y-88921726D01*
X189253819Y-88493154D02*
X188253819Y-88493154D01*
X188253819Y-88493154D02*
X188253819Y-88112202D01*
X188253819Y-88112202D02*
X188301438Y-88016964D01*
X188301438Y-88016964D02*
X188349057Y-87969345D01*
X188349057Y-87969345D02*
X188444295Y-87921726D01*
X188444295Y-87921726D02*
X188587152Y-87921726D01*
X188587152Y-87921726D02*
X188682390Y-87969345D01*
X188682390Y-87969345D02*
X188730009Y-88016964D01*
X188730009Y-88016964D02*
X188777628Y-88112202D01*
X188777628Y-88112202D02*
X188777628Y-88493154D01*
X188872866Y-87493154D02*
X188872866Y-86731250D01*
X188253819Y-86064583D02*
X188253819Y-85874107D01*
X188253819Y-85874107D02*
X188301438Y-85778869D01*
X188301438Y-85778869D02*
X188396676Y-85683631D01*
X188396676Y-85683631D02*
X188587152Y-85636012D01*
X188587152Y-85636012D02*
X188920485Y-85636012D01*
X188920485Y-85636012D02*
X189110961Y-85683631D01*
X189110961Y-85683631D02*
X189206200Y-85778869D01*
X189206200Y-85778869D02*
X189253819Y-85874107D01*
X189253819Y-85874107D02*
X189253819Y-86064583D01*
X189253819Y-86064583D02*
X189206200Y-86159821D01*
X189206200Y-86159821D02*
X189110961Y-86255059D01*
X189110961Y-86255059D02*
X188920485Y-86302678D01*
X188920485Y-86302678D02*
X188587152Y-86302678D01*
X188587152Y-86302678D02*
X188396676Y-86255059D01*
X188396676Y-86255059D02*
X188301438Y-86159821D01*
X188301438Y-86159821D02*
X188253819Y-86064583D01*
X188253819Y-85207440D02*
X189063342Y-85207440D01*
X189063342Y-85207440D02*
X189158580Y-85159821D01*
X189158580Y-85159821D02*
X189206200Y-85112202D01*
X189206200Y-85112202D02*
X189253819Y-85016964D01*
X189253819Y-85016964D02*
X189253819Y-84826488D01*
X189253819Y-84826488D02*
X189206200Y-84731250D01*
X189206200Y-84731250D02*
X189158580Y-84683631D01*
X189158580Y-84683631D02*
X189063342Y-84636012D01*
X189063342Y-84636012D02*
X188253819Y-84636012D01*
X188253819Y-84302678D02*
X188253819Y-83731250D01*
X189253819Y-84016964D02*
X188253819Y-84016964D01*
X188253819Y-82731249D02*
X188253819Y-82064583D01*
X188253819Y-82064583D02*
X189253819Y-82731249D01*
X189253819Y-82731249D02*
X189253819Y-82064583D01*
X188253819Y-81493154D02*
X188253819Y-81302678D01*
X188253819Y-81302678D02*
X188301438Y-81207440D01*
X188301438Y-81207440D02*
X188396676Y-81112202D01*
X188396676Y-81112202D02*
X188587152Y-81064583D01*
X188587152Y-81064583D02*
X188920485Y-81064583D01*
X188920485Y-81064583D02*
X189110961Y-81112202D01*
X189110961Y-81112202D02*
X189206200Y-81207440D01*
X189206200Y-81207440D02*
X189253819Y-81302678D01*
X189253819Y-81302678D02*
X189253819Y-81493154D01*
X189253819Y-81493154D02*
X189206200Y-81588392D01*
X189206200Y-81588392D02*
X189110961Y-81683630D01*
X189110961Y-81683630D02*
X188920485Y-81731249D01*
X188920485Y-81731249D02*
X188587152Y-81731249D01*
X188587152Y-81731249D02*
X188396676Y-81683630D01*
X188396676Y-81683630D02*
X188301438Y-81588392D01*
X188301438Y-81588392D02*
X188253819Y-81493154D01*
X189253819Y-80636011D02*
X188253819Y-80636011D01*
X188253819Y-80636011D02*
X189253819Y-80064583D01*
X189253819Y-80064583D02*
X188253819Y-80064583D01*
X188730009Y-79588392D02*
X188730009Y-79255059D01*
X189253819Y-79112202D02*
X189253819Y-79588392D01*
X189253819Y-79588392D02*
X188253819Y-79588392D01*
X188253819Y-79588392D02*
X188253819Y-79112202D01*
%TO.C,U1*%
D11*
X183499000Y-71431250D02*
X183299000Y-71631250D01*
X183499000Y-71431250D02*
X183499000Y-76031250D01*
X183499000Y-71431250D02*
X183699000Y-71631250D01*
X183499000Y-76031250D02*
X183299000Y-75831250D01*
X183499000Y-76031250D02*
X183699000Y-75831250D01*
X183499000Y-94431250D02*
X183299000Y-94631250D01*
X183499000Y-94431250D02*
X183499000Y-99031250D01*
X183499000Y-94431250D02*
X183699000Y-94631250D01*
X183499000Y-99031250D02*
X183299000Y-98831250D01*
X183499000Y-99031250D02*
X183699000Y-98831250D01*
X186099000Y-93531250D02*
X186299000Y-93331250D01*
X186099000Y-93531250D02*
X186299000Y-93731250D01*
X186099000Y-93531250D02*
X190699000Y-93531250D01*
X190699000Y-93531250D02*
X190499000Y-93331250D01*
X190699000Y-93531250D02*
X190499000Y-93731250D01*
%TD*%
M02*
