%TF.GenerationSoftware,KiCad,Pcbnew,10.0.3*%
%TF.CreationDate,2026-06-13T22:55:19+02:00*%
%TF.ProjectId,main,6d61696e-2e6b-4696-9361-645f70636258,rev?*%
%TF.SameCoordinates,Original*%
%TF.FileFunction,Paste,Top*%
%TF.FilePolarity,Positive*%
%FSLAX46Y46*%
G04 Gerber Fmt 4.6, Leading zero omitted, Abs format (unit mm)*
G04 Created by KiCad (PCBNEW 10.0.3) date 2026-06-13 22:55:19*
%MOMM*%
%LPD*%
G01*
G04 APERTURE LIST*
G04 Aperture macros list*
%AMRoundRect*
0 Rectangle with rounded corners*
0 $1 Rounding radius*
0 $2 $3 $4 $5 $6 $7 $8 $9 X,Y pos of 4 corners*
0 Add a 4 corners polygon primitive as box body*
4,1,4,$2,$3,$4,$5,$6,$7,$8,$9,$2,$3,0*
0 Add four circle primitives for the rounded corners*
1,1,$1+$1,$2,$3*
1,1,$1+$1,$4,$5*
1,1,$1+$1,$6,$7*
1,1,$1+$1,$8,$9*
0 Add four rect primitives between the rounded corners*
20,1,$1+$1,$2,$3,$4,$5,0*
20,1,$1+$1,$4,$5,$6,$7,0*
20,1,$1+$1,$6,$7,$8,$9,0*
20,1,$1+$1,$8,$9,$2,$3,0*%
G04 Aperture macros list end*
%ADD10RoundRect,0.150000X0.350000X-0.700000X0.350000X0.700000X-0.350000X0.700000X-0.350000X-0.700000X0*%
%ADD11RoundRect,0.250000X0.350000X0.450000X-0.350000X0.450000X-0.350000X-0.450000X0.350000X-0.450000X0*%
%ADD12RoundRect,0.250000X-0.350000X-0.450000X0.350000X-0.450000X0.350000X0.450000X-0.350000X0.450000X0*%
%ADD13R,5.500000X3.850000*%
%ADD14RoundRect,0.150000X-0.512500X-0.150000X0.512500X-0.150000X0.512500X0.150000X-0.512500X0.150000X0*%
%ADD15RoundRect,0.150000X-0.700000X-0.350000X0.700000X-0.350000X0.700000X0.350000X-0.700000X0.350000X0*%
%ADD16RoundRect,0.250000X-0.337500X-0.475000X0.337500X-0.475000X0.337500X0.475000X-0.337500X0.475000X0*%
%ADD17RoundRect,0.250000X0.450000X-0.350000X0.450000X0.350000X-0.450000X0.350000X-0.450000X-0.350000X0*%
%ADD18RoundRect,0.250000X0.475000X-0.337500X0.475000X0.337500X-0.475000X0.337500X-0.475000X-0.337500X0*%
%ADD19RoundRect,0.150000X0.150000X-0.512500X0.150000X0.512500X-0.150000X0.512500X-0.150000X-0.512500X0*%
%ADD20RoundRect,0.250000X-0.475000X0.337500X-0.475000X-0.337500X0.475000X-0.337500X0.475000X0.337500X0*%
%ADD21O,1.350000X0.299999*%
%ADD22RoundRect,0.250000X-0.450000X0.350000X-0.450000X-0.350000X0.450000X-0.350000X0.450000X0.350000X0*%
%ADD23R,0.900000X1.500000*%
%ADD24R,0.312473X1.256505*%
%ADD25R,0.750000X5.000000*%
%ADD26R,3.000000X1.000000*%
%ADD27R,2.500000X1.000000*%
%ADD28R,0.750000X3.000000*%
%ADD29RoundRect,0.250000X0.450000X-0.325000X0.450000X0.325000X-0.450000X0.325000X-0.450000X-0.325000X0*%
%ADD30RoundRect,0.150000X-0.350000X0.700000X-0.350000X-0.700000X0.350000X-0.700000X0.350000X0.700000X0*%
G04 APERTURE END LIST*
D10*
%TO.C,SW3*%
X163630834Y-105642292D03*
X163630834Y-99342292D03*
X167430834Y-105642292D03*
X167430834Y-99342292D03*
%TD*%
D11*
%TO.C,R4*%
X171275000Y-66000000D03*
X169275000Y-66000000D03*
%TD*%
D12*
%TO.C,R30*%
X182000000Y-67500000D03*
X184000000Y-67500000D03*
%TD*%
%TO.C,R20*%
X182000000Y-65000000D03*
X184000000Y-65000000D03*
%TD*%
D13*
%TO.C,L1*%
X155000000Y-89950000D03*
X155000000Y-80050000D03*
%TD*%
D14*
%TO.C,U2*%
X175261500Y-69281250D03*
X175261500Y-70231250D03*
X175261500Y-71181250D03*
X177536500Y-71181250D03*
X177536500Y-69281250D03*
%TD*%
D15*
%TO.C,SW2*%
X164342292Y-110630834D03*
X170642292Y-110630834D03*
X164342292Y-114430834D03*
X170642292Y-114430834D03*
%TD*%
D11*
%TO.C,R3*%
X178312500Y-66000000D03*
X176312500Y-66000000D03*
%TD*%
D16*
%TO.C,C2*%
X176275000Y-63500000D03*
X178350000Y-63500000D03*
%TD*%
D11*
%TO.C,R27*%
X178500000Y-103000000D03*
X176500000Y-103000000D03*
%TD*%
D17*
%TO.C,R10*%
X154331920Y-73279587D03*
X154331920Y-71279587D03*
%TD*%
D18*
%TO.C,C6*%
X172399000Y-71268750D03*
X172399000Y-69193750D03*
%TD*%
D19*
%TO.C,Q3*%
X176550000Y-100637500D03*
X178450000Y-100637500D03*
X177500000Y-98362500D03*
%TD*%
D17*
%TO.C,R5*%
X165775000Y-61000000D03*
X165775000Y-59000000D03*
%TD*%
D16*
%TO.C,C4*%
X162237500Y-63460000D03*
X164312500Y-63460000D03*
%TD*%
D20*
%TO.C,C8*%
X151831920Y-71167087D03*
X151831920Y-73242087D03*
%TD*%
D17*
%TO.C,R7*%
X183775000Y-61000000D03*
X183775000Y-59000000D03*
%TD*%
D20*
%TO.C,C7*%
X149331920Y-71204587D03*
X149331920Y-73279587D03*
%TD*%
D21*
%TO.C,U4*%
X163775001Y-68499999D03*
X163775001Y-68999998D03*
X163775001Y-69500000D03*
X163775001Y-69999999D03*
X163775001Y-70500001D03*
X168225002Y-70500001D03*
X168225002Y-69999999D03*
X168225002Y-69500000D03*
X168225002Y-68999998D03*
X168225002Y-68499999D03*
%TD*%
D22*
%TO.C,R15*%
X179000000Y-108500000D03*
X179000000Y-110500000D03*
%TD*%
D23*
%TO.C,U1*%
X178799000Y-76481250D03*
X177299000Y-76481250D03*
X175799000Y-76481250D03*
X174299000Y-76481250D03*
X172799000Y-76481250D03*
X171299000Y-76481250D03*
X169799000Y-76481250D03*
X168299000Y-76481250D03*
X166799000Y-76481250D03*
X166799000Y-93981250D03*
X168299000Y-93981250D03*
X169799000Y-93981250D03*
X171299000Y-93981250D03*
X172799000Y-93981250D03*
X174299000Y-93981250D03*
X175799000Y-93981250D03*
X177299000Y-93981250D03*
X178799000Y-93981250D03*
%TD*%
D16*
%TO.C,C3*%
X155237500Y-63500000D03*
X157312500Y-63500000D03*
%TD*%
%TO.C,C1*%
X169237500Y-63500000D03*
X171312500Y-63500000D03*
%TD*%
D11*
%TO.C,R2*%
X157275000Y-66000000D03*
X155275000Y-66000000D03*
%TD*%
D17*
%TO.C,R8*%
X174775000Y-61000000D03*
X174775000Y-59000000D03*
%TD*%
D24*
%TO.C,U3*%
X158331921Y-70228730D03*
X157831919Y-70228730D03*
X157331920Y-70228730D03*
X156831921Y-70228730D03*
X156331919Y-70228730D03*
X156331919Y-74330444D03*
X156831921Y-74330444D03*
X157331920Y-74330444D03*
X157831919Y-74330444D03*
X158331921Y-74330444D03*
%TD*%
D25*
%TO.C,J11*%
X155800000Y-104250000D03*
X154520000Y-104250000D03*
D26*
X154500000Y-106250000D03*
D25*
X153240000Y-104250000D03*
X151960000Y-104250000D03*
D27*
X150500000Y-106250000D03*
D25*
X149400000Y-104250000D03*
X148120000Y-104250000D03*
X146840000Y-104250000D03*
D26*
X146700000Y-106250000D03*
D25*
X145560000Y-104250000D03*
X144280000Y-104250000D03*
D26*
X143000000Y-106250000D03*
D25*
X143000000Y-104250000D03*
X141720000Y-104250000D03*
D28*
X150680000Y-103250000D03*
D25*
X140440000Y-104250000D03*
X139160000Y-104250000D03*
X137880000Y-104250000D03*
%TD*%
D29*
%TO.C,D1*%
X176500000Y-110525000D03*
X176500000Y-108475000D03*
%TD*%
D30*
%TO.C,SW1*%
X172869167Y-99342292D03*
X172869167Y-105642292D03*
X169069167Y-99342292D03*
X169069167Y-105642292D03*
%TD*%
D17*
%TO.C,R6*%
X156775000Y-61000000D03*
X156775000Y-59000000D03*
%TD*%
D12*
%TO.C,R26*%
X176500000Y-105500000D03*
X178500000Y-105500000D03*
%TD*%
D22*
%TO.C,R16*%
X174000000Y-108500000D03*
X174000000Y-110500000D03*
%TD*%
D16*
%TO.C,C5*%
X176361500Y-73500000D03*
X178436500Y-73500000D03*
%TD*%
D22*
%TO.C,R14*%
X163000000Y-75000000D03*
X163000000Y-77000000D03*
%TD*%
D11*
%TO.C,R1*%
X164275000Y-65960000D03*
X162275000Y-65960000D03*
%TD*%
M02*
