%TF.GenerationSoftware,KiCad,Pcbnew,10.0.3*%
%TF.CreationDate,2026-06-15T13:46:07+02:00*%
%TF.ProjectId,main,6d61696e-2e6b-4696-9361-645f70636258,rev?*%
%TF.SameCoordinates,Original*%
%TF.FileFunction,Copper,L2,Bot*%
%TF.FilePolarity,Positive*%
%FSLAX46Y46*%
G04 Gerber Fmt 4.6, Leading zero omitted, Abs format (unit mm)*
G04 Created by KiCad (PCBNEW 10.0.3) date 2026-06-15 13:46:07*
%MOMM*%
%LPD*%
G01*
G04 APERTURE LIST*
G04 Aperture macros list*
%AMRoundRect*
0 Rectangle with rounded corners*
0 $1 Rounding radius*
0 $2 $3 $4 $5 $6 $7 $8 $9 X,Y pos of 4 corners*
0 Add a 4 corners polygon primitive as box body*
4,1,4,$2,$3,$4,$5,$6,$7,$8,$9,$2,$3,0*
0 Add four circle primitives for the rounded corners*
1,1,$1+$1,$2,$3*
1,1,$1+$1,$4,$5*
1,1,$1+$1,$6,$7*
1,1,$1+$1,$8,$9*
0 Add four rect primitives between the rounded corners*
20,1,$1+$1,$2,$3,$4,$5,0*
20,1,$1+$1,$4,$5,$6,$7,0*
20,1,$1+$1,$6,$7,$8,$9,0*
20,1,$1+$1,$8,$9,$2,$3,0*%
G04 Aperture macros list end*
%TA.AperFunction,EtchedComponent*%
%ADD10C,0.000000*%
%TD*%
%TA.AperFunction,ComponentPad*%
%ADD11R,2.030000X1.730000*%
%TD*%
%TA.AperFunction,ComponentPad*%
%ADD12O,2.030000X1.730000*%
%TD*%
%TA.AperFunction,ComponentPad*%
%ADD13R,1.700000X1.700000*%
%TD*%
%TA.AperFunction,ComponentPad*%
%ADD14C,1.700000*%
%TD*%
%TA.AperFunction,ComponentPad*%
%ADD15RoundRect,0.250000X0.550000X-0.550000X0.550000X0.550000X-0.550000X0.550000X-0.550000X-0.550000X0*%
%TD*%
%TA.AperFunction,ComponentPad*%
%ADD16C,1.600000*%
%TD*%
%TA.AperFunction,SMDPad,CuDef*%
%ADD17RoundRect,0.250000X-0.250000X0.250000X-0.250000X-0.250000X0.250000X-0.250000X0.250000X0.250000X0*%
%TD*%
%TA.AperFunction,SMDPad,CuDef*%
%ADD18RoundRect,0.250000X-0.337500X-0.475000X0.337500X-0.475000X0.337500X0.475000X-0.337500X0.475000X0*%
%TD*%
%TA.AperFunction,SMDPad,CuDef*%
%ADD19RoundRect,0.250000X0.475000X-0.337500X0.475000X0.337500X-0.475000X0.337500X-0.475000X-0.337500X0*%
%TD*%
%TA.AperFunction,SMDPad,CuDef*%
%ADD20RoundRect,0.250000X-0.475000X0.337500X-0.475000X-0.337500X0.475000X-0.337500X0.475000X0.337500X0*%
%TD*%
%TA.AperFunction,SMDPad,CuDef*%
%ADD21RoundRect,0.250000X0.350000X0.450000X-0.350000X0.450000X-0.350000X-0.450000X0.350000X-0.450000X0*%
%TD*%
%TA.AperFunction,SMDPad,CuDef*%
%ADD22RoundRect,0.150000X0.150000X-0.512500X0.150000X0.512500X-0.150000X0.512500X-0.150000X-0.512500X0*%
%TD*%
%TA.AperFunction,SMDPad,CuDef*%
%ADD23RoundRect,0.075000X0.650000X0.075000X-0.650000X0.075000X-0.650000X-0.075000X0.650000X-0.075000X0*%
%TD*%
%TA.AperFunction,SMDPad,CuDef*%
%ADD24RoundRect,0.250000X-0.450000X0.350000X-0.450000X-0.350000X0.450000X-0.350000X0.450000X0.350000X0*%
%TD*%
%TA.AperFunction,SMDPad,CuDef*%
%ADD25C,0.500000*%
%TD*%
%TA.AperFunction,SMDPad,CuDef*%
%ADD26RoundRect,0.250000X-0.350000X-0.450000X0.350000X-0.450000X0.350000X0.450000X-0.350000X0.450000X0*%
%TD*%
%TA.AperFunction,SMDPad,CuDef*%
%ADD27RoundRect,0.250000X0.450000X-0.350000X0.450000X0.350000X-0.450000X0.350000X-0.450000X-0.350000X0*%
%TD*%
%TA.AperFunction,SMDPad,CuDef*%
%ADD28RoundRect,0.250000X0.337500X0.475000X-0.337500X0.475000X-0.337500X-0.475000X0.337500X-0.475000X0*%
%TD*%
%TA.AperFunction,SMDPad,CuDef*%
%ADD29RoundRect,0.150000X0.512500X0.150000X-0.512500X0.150000X-0.512500X-0.150000X0.512500X-0.150000X0*%
%TD*%
%TA.AperFunction,SMDPad,CuDef*%
%ADD30R,1.800000X1.300000*%
%TD*%
%TA.AperFunction,SMDPad,CuDef*%
%ADD31RoundRect,0.249999X1.425001X-0.450001X1.425001X0.450001X-1.425001X0.450001X-1.425001X-0.450001X0*%
%TD*%
%TA.AperFunction,ViaPad*%
%ADD32C,0.600000*%
%TD*%
%TA.AperFunction,Conductor*%
%ADD33C,0.200000*%
%TD*%
G04 APERTURE END LIST*
D10*
%TA.AperFunction,EtchedComponent*%
%TO.C,NT1*%
G36*
X151756658Y-100961259D02*
G01*
X150256658Y-100961259D01*
X150256658Y-100461259D01*
X151756658Y-100461259D01*
X151756658Y-100961259D01*
G37*
%TD.AperFunction*%
%TD*%
D11*
%TO.P,J8,1,GND_1*%
%TO.N,GND*%
X144000000Y-55000000D03*
D12*
%TO.P,J8,2,VCC_2*%
%TO.N,/fans/INA/BusOut*%
X144000000Y-57540000D03*
%TO.P,J8,3,TAHO_3*%
%TO.N,Net-(J8-TAHO)*%
X144000000Y-60080000D03*
%TO.P,J8,4,PMW_4*%
%TO.N,Net-(J5-PMW)*%
X144000000Y-62620000D03*
%TD*%
D13*
%TO.P,J2,1,Pin_1_1*%
%TO.N,3.3*%
X151000000Y-59885000D03*
D14*
%TO.P,J2,2,Pin_2_2*%
%TO.N,Net-(J2-Pin_2)*%
X153540000Y-59885000D03*
%TD*%
D13*
%TO.P,J4,1,Pin_1_1*%
%TO.N,3.3*%
X169000000Y-59885000D03*
D14*
%TO.P,J4,2,Pin_2_2*%
%TO.N,Net-(J4-Pin_2)*%
X171540000Y-59885000D03*
%TD*%
D13*
%TO.P,J9,1,Pin_1_1*%
%TO.N,AGND*%
X175225000Y-113500000D03*
D14*
%TO.P,J9,2,Pin_2_2*%
%TO.N,3.3*%
X177765000Y-113500000D03*
%TD*%
D13*
%TO.P,J10,1,Pin_1_1*%
%TO.N,/esp/TXD*%
X182500000Y-111000000D03*
D14*
%TO.P,J10,2,Pin_2_2*%
%TO.N,/esp/RXD*%
X182500000Y-113540000D03*
%TD*%
D11*
%TO.P,J7,1,GND_1*%
%TO.N,GND*%
X144000000Y-91000000D03*
D12*
%TO.P,J7,2,VCC_2*%
%TO.N,/fans/INA/BusOut*%
X144000000Y-93540000D03*
%TO.P,J7,3,TAHO_3*%
%TO.N,Net-(J7-TAHO)*%
X144000000Y-96080000D03*
%TO.P,J7,4,PMW_4*%
%TO.N,Net-(J5-PMW)*%
X144000000Y-98620000D03*
%TD*%
D11*
%TO.P,J5,1,GND_1*%
%TO.N,GND*%
X144000000Y-79000000D03*
D12*
%TO.P,J5,2,VCC_2*%
%TO.N,/fans/INA/BusOut*%
X144000000Y-81540000D03*
%TO.P,J5,3,TAHO_3*%
%TO.N,Net-(J5-TAHO)*%
X144000000Y-84080000D03*
%TO.P,J5,4,PMW_4*%
%TO.N,Net-(J5-PMW)*%
X144000000Y-86620000D03*
%TD*%
D13*
%TO.P,J3,1,Pin_1_1*%
%TO.N,3.3*%
X178000000Y-59885000D03*
D14*
%TO.P,J3,2,Pin_2_2*%
%TO.N,Net-(J3-Pin_2)*%
X180540000Y-59885000D03*
%TD*%
D13*
%TO.P,J1,1,Pin_1_1*%
%TO.N,3.3*%
X160000000Y-59885000D03*
D14*
%TO.P,J1,2,Pin_2_2*%
%TO.N,Net-(J1-Pin_2)*%
X162540000Y-59885000D03*
%TD*%
D15*
%TO.P,C10,1*%
%TO.N,GND*%
X148500000Y-97500000D03*
D16*
%TO.P,C10,2*%
%TO.N,/fans/INA/BusOut*%
X148500000Y-94000000D03*
%TD*%
D11*
%TO.P,J6,1,GND_1*%
%TO.N,GND*%
X144000000Y-67000000D03*
D12*
%TO.P,J6,2,VCC_2*%
%TO.N,/fans/INA/BusOut*%
X144000000Y-69540000D03*
%TO.P,J6,3,TAHO_3*%
%TO.N,Net-(J6-TAHO)*%
X144000000Y-72080000D03*
%TO.P,J6,4,PMW_4*%
%TO.N,Net-(J5-PMW)*%
X144000000Y-74620000D03*
%TD*%
D13*
%TO.P,BZ1,1,+_1*%
%TO.N,3.3*%
X182500000Y-102725000D03*
D14*
%TO.P,BZ1,2,-_2*%
%TO.N,Net-(BZ1--)*%
X182500000Y-105265000D03*
%TD*%
D17*
%TO.P,D3,1,K_1*%
%TO.N,Net-(D3-K)*%
X160537500Y-92250000D03*
%TO.P,D3,2,A_2*%
%TO.N,+5*%
X160537500Y-94750000D03*
%TD*%
D18*
%TO.P,C24,1*%
%TO.N,/fans/INA/BusIn*%
X149500000Y-85480000D03*
%TO.P,C24,2*%
%TO.N,GND*%
X151575000Y-85480000D03*
%TD*%
D19*
%TO.P,C20,1*%
%TO.N,Net-(D3-K)*%
X162037500Y-89500000D03*
%TO.P,C20,2*%
%TO.N,Net-(D2-K)*%
X162037500Y-87425000D03*
%TD*%
D20*
%TO.P,C9,1*%
%TO.N,Net-(U6-Vin+)*%
X158000000Y-63962500D03*
%TO.P,C9,2*%
%TO.N,Net-(U6-Vbus)*%
X158000000Y-66037500D03*
%TD*%
D21*
%TO.P,R24,1*%
%TO.N,/esp/INA_a*%
X170000000Y-81500000D03*
%TO.P,R24,2*%
%TO.N,3.3*%
X168000000Y-81500000D03*
%TD*%
D22*
%TO.P,U5,1,BOOST_1*%
%TO.N,Net-(D3-K)*%
X159987500Y-89637500D03*
%TO.P,U5,2,GND_2*%
%TO.N,GND*%
X159037500Y-89637500D03*
%TO.P,U5,3,V_{FB}_3*%
%TO.N,Net-(U5-V_{FB})*%
X158087500Y-89637500D03*
%TO.P,U5,4,EN_4*%
%TO.N,unconnected-(U5-EN-Pad4)*%
X158087500Y-87362500D03*
%TO.P,U5,5,V_{IN}_5*%
%TO.N,Net-(Q1-D)*%
X159037500Y-87362500D03*
%TO.P,U5,6,SW_6*%
%TO.N,Net-(D2-K)*%
X159987500Y-87362500D03*
%TD*%
D23*
%TO.P,U6,1,A1_1*%
%TO.N,unconnected-(U6-A1-Pad1)*%
X166000000Y-64500000D03*
%TO.P,U6,2,A0_2*%
%TO.N,unconnected-(U6-A0-Pad2)*%
X166000000Y-65000000D03*
%TO.P,U6,3,~{Alert}_3*%
%TO.N,Net-(U6-~{Alert})*%
X166000000Y-65500000D03*
%TO.P,U6,4,SDA_4*%
%TO.N,SDA*%
X166000000Y-66000000D03*
%TO.P,U6,5,SCL_5*%
%TO.N,SCL*%
X166000000Y-66500000D03*
%TO.P,U6,6,VS_6*%
%TO.N,3.3*%
X161600000Y-66500000D03*
%TO.P,U6,7,GND_7*%
%TO.N,AGND*%
X161600000Y-66000000D03*
%TO.P,U6,8,Vbus_8*%
%TO.N,Net-(U6-Vbus)*%
X161600000Y-65500000D03*
%TO.P,U6,9,Vin-_9*%
X161600000Y-65000000D03*
%TO.P,U6,10,Vin+_10*%
%TO.N,Net-(U6-Vin+)*%
X161600000Y-64500000D03*
%TD*%
D24*
%TO.P,R28,1*%
%TO.N,/esp/PMW_2*%
X157487500Y-95000000D03*
%TO.P,R28,2*%
%TO.N,Net-(C25-Pad1)*%
X157487500Y-97000000D03*
%TD*%
D25*
%TO.P,NT1,1,1_1*%
%TO.N,AGND*%
X151756658Y-100711259D03*
%TO.P,NT1,2,2_2*%
%TO.N,GND*%
X150256658Y-100711259D03*
%TD*%
D21*
%TO.P,R36,1*%
%TO.N,Net-(Q1-G)*%
X157500000Y-109750000D03*
%TO.P,R36,2*%
%TO.N,+12*%
X155500000Y-109750000D03*
%TD*%
D22*
%TO.P,Q1,1,G_1*%
%TO.N,Net-(Q1-G)*%
X157400000Y-107250000D03*
%TO.P,Q1,2,S_2*%
%TO.N,+12*%
X155500000Y-107250000D03*
%TO.P,Q1,3,D_3*%
%TO.N,Net-(Q1-D)*%
X156450000Y-104975000D03*
%TD*%
D26*
%TO.P,R21,1*%
%TO.N,/fans/INA/BusIn*%
X160037500Y-81500000D03*
%TO.P,R21,2*%
%TO.N,Net-(U5-V_{FB})*%
X162037500Y-81500000D03*
%TD*%
D22*
%TO.P,Q2,1,G_1*%
%TO.N,Net-(Q2-G)*%
X152450000Y-107250000D03*
%TO.P,Q2,2,S_2*%
%TO.N,GND*%
X150550000Y-107250000D03*
%TO.P,Q2,3,D_3*%
%TO.N,Net-(Q1-G)*%
X151500000Y-104975000D03*
%TD*%
D19*
%TO.P,C25,1*%
%TO.N,Net-(C25-Pad1)*%
X152487500Y-97037500D03*
%TO.P,C25,2*%
%TO.N,GND*%
X152487500Y-94962500D03*
%TD*%
D24*
%TO.P,R11,1*%
%TO.N,Net-(Q4-B)*%
X176000000Y-89000000D03*
%TO.P,R11,2*%
%TO.N,/esp/PMW_4*%
X176000000Y-91000000D03*
%TD*%
%TO.P,R23,1*%
%TO.N,GND*%
X136000000Y-58000000D03*
%TO.P,R23,2*%
%TO.N,Net-(J8-TAHO)*%
X136000000Y-60000000D03*
%TD*%
%TO.P,R12,1*%
%TO.N,GND*%
X135500000Y-70000000D03*
%TO.P,R12,2*%
%TO.N,Net-(J6-TAHO)*%
X135500000Y-72000000D03*
%TD*%
D27*
%TO.P,R29,1*%
%TO.N,Net-(C25-Pad1)*%
X155037500Y-97000000D03*
%TO.P,R29,2*%
%TO.N,Net-(U5-V_{FB})*%
X155037500Y-95000000D03*
%TD*%
%TO.P,R33,1*%
%TO.N,/esp/INA_a*%
X167500000Y-71500000D03*
%TO.P,R33,2*%
%TO.N,Net-(U6-~{Alert})*%
X167500000Y-69500000D03*
%TD*%
D24*
%TO.P,R19,1*%
%TO.N,GND*%
X135500000Y-94000000D03*
%TO.P,R19,2*%
%TO.N,Net-(J7-TAHO)*%
X135500000Y-96000000D03*
%TD*%
D21*
%TO.P,R31,1*%
%TO.N,Net-(U6-Vin+)*%
X155000000Y-63500000D03*
%TO.P,R31,2*%
%TO.N,/fans/INA/BusIn*%
X153000000Y-63500000D03*
%TD*%
D26*
%TO.P,R9,1*%
%TO.N,Net-(U1-EN)*%
X176500000Y-79500000D03*
%TO.P,R9,2*%
%TO.N,3.3*%
X178500000Y-79500000D03*
%TD*%
D28*
%TO.P,C17,1*%
%TO.N,Net-(Q1-D)*%
X156075000Y-85490000D03*
%TO.P,C17,2*%
%TO.N,GND*%
X154000000Y-85490000D03*
%TD*%
D26*
%TO.P,R22,1*%
%TO.N,GND*%
X160037500Y-84000000D03*
%TO.P,R22,2*%
%TO.N,Net-(U5-V_{FB})*%
X162037500Y-84000000D03*
%TD*%
D28*
%TO.P,C18,1*%
%TO.N,Net-(Q1-D)*%
X156075000Y-88500000D03*
%TO.P,C18,2*%
%TO.N,GND*%
X154000000Y-88500000D03*
%TD*%
D18*
%TO.P,C22,1*%
%TO.N,/fans/INA/BusIn*%
X149500000Y-91500000D03*
%TO.P,C22,2*%
%TO.N,GND*%
X151575000Y-91500000D03*
%TD*%
D26*
%TO.P,R35,1*%
%TO.N,Net-(Q2-G)*%
X152500000Y-112750000D03*
%TO.P,R35,2*%
%TO.N,/esp/fan_on*%
X154500000Y-112750000D03*
%TD*%
D28*
%TO.P,C19,1*%
%TO.N,Net-(Q1-D)*%
X156075000Y-91510000D03*
%TO.P,C19,2*%
%TO.N,GND*%
X154000000Y-91510000D03*
%TD*%
D29*
%TO.P,Q4,1,B_1*%
%TO.N,Net-(Q4-B)*%
X173137500Y-89050000D03*
%TO.P,Q4,2,E_2*%
%TO.N,AGND*%
X173137500Y-90950000D03*
%TO.P,Q4,3,C_3*%
%TO.N,Net-(J5-PMW)*%
X170862500Y-90000000D03*
%TD*%
D26*
%TO.P,R34,1*%
%TO.N,GND*%
X150500000Y-109750000D03*
%TO.P,R34,2*%
%TO.N,Net-(Q2-G)*%
X152500000Y-109750000D03*
%TD*%
D30*
%TO.P,D2,1,K_1*%
%TO.N,Net-(D2-K)*%
X157287500Y-81500000D03*
%TO.P,D2,2,A_2*%
%TO.N,GND*%
X154987500Y-81500000D03*
%TD*%
D27*
%TO.P,R13,1*%
%TO.N,/esp/SPEED*%
X167500000Y-86000000D03*
%TO.P,R13,2*%
%TO.N,Net-(U3-D)*%
X167500000Y-84000000D03*
%TD*%
D18*
%TO.P,C23,1*%
%TO.N,/fans/INA/BusIn*%
X149500000Y-88490000D03*
%TO.P,C23,2*%
%TO.N,GND*%
X151575000Y-88490000D03*
%TD*%
D21*
%TO.P,R32,1*%
%TO.N,Net-(U6-Vbus)*%
X155000000Y-66000000D03*
%TO.P,R32,2*%
%TO.N,/fans/INA/BusOut*%
X153000000Y-66000000D03*
%TD*%
%TO.P,R25,1*%
%TO.N,Net-(U1-IO9)*%
X170000000Y-79000000D03*
%TO.P,R25,2*%
%TO.N,3.3*%
X168000000Y-79000000D03*
%TD*%
D31*
%TO.P,R17,1*%
%TO.N,/fans/INA/BusIn*%
X149500000Y-69050000D03*
%TO.P,R17,2*%
%TO.N,/fans/INA/BusOut*%
X149500000Y-62950000D03*
%TD*%
D24*
%TO.P,R18,1*%
%TO.N,GND*%
X135500000Y-82000000D03*
%TO.P,R18,2*%
%TO.N,Net-(J5-TAHO)*%
X135500000Y-84000000D03*
%TD*%
D28*
%TO.P,C21,1*%
%TO.N,Net-(U5-V_{FB})*%
X162075000Y-79000000D03*
%TO.P,C21,2*%
%TO.N,/fans/INA/BusIn*%
X160000000Y-79000000D03*
%TD*%
D32*
%TO.N,Net-(U1-IO9)*%
X162792185Y-95792185D03*
X167000000Y-88000000D03*
X163399000Y-88500000D03*
X172000000Y-80500000D03*
X169500000Y-87500000D03*
X164015628Y-97400000D03*
X168000000Y-75000000D03*
X171400000Y-79000000D03*
%TO.N,AGND*%
X161500000Y-69399999D03*
X153500000Y-67279587D03*
X166500000Y-98000000D03*
X170000000Y-74399000D03*
X170400000Y-104500000D03*
X179943235Y-103556765D03*
X151400000Y-98900000D03*
X158812500Y-62000000D03*
X166500000Y-75000000D03*
X162000000Y-96500000D03*
X169100000Y-92500000D03*
X173815125Y-72684875D03*
X152000000Y-100700000D03*
X174500000Y-103000000D03*
X167000000Y-92500000D03*
X174500000Y-106500000D03*
X164875735Y-73775735D03*
X154000000Y-62000000D03*
X164000000Y-93500000D03*
X154500000Y-69798337D03*
%TO.N,GND*%
X150000000Y-100700000D03*
X135500000Y-80500000D03*
X153971250Y-84083750D03*
X135500000Y-92000000D03*
X158575000Y-83980000D03*
X135500000Y-68500000D03*
X136000000Y-56500000D03*
%TO.N,/fans/INA/BusOut*%
X146500000Y-64000000D03*
X146427103Y-71072897D03*
X146500000Y-84000000D03*
X146500000Y-92000000D03*
%TO.N,Net-(J5-PMW)*%
X148900000Y-100100000D03*
X166500000Y-96300003D03*
X167900000Y-90000000D03*
X145500000Y-85500000D03*
X146500000Y-82500000D03*
X169500000Y-90000000D03*
%TO.N,Net-(U4-AIN3)*%
X169773638Y-70472568D03*
X170000000Y-67899999D03*
%TO.N,Net-(J4-Pin_2)*%
X167000000Y-63500000D03*
%TO.N,SCL*%
X179299000Y-68000000D03*
X175000000Y-74500000D03*
X180500000Y-68000000D03*
%TO.N,3.3*%
X158503944Y-76507534D03*
X171667848Y-68146578D03*
X163598000Y-79557470D03*
X162000000Y-73600000D03*
X183500000Y-63500000D03*
X168807178Y-71900000D03*
X163000000Y-71900000D03*
X169825734Y-69674264D03*
X156934060Y-77004073D03*
X162207815Y-99207815D03*
X178799000Y-75000000D03*
X166000000Y-107400000D03*
X163999000Y-92500000D03*
X165500000Y-71900000D03*
X182000000Y-62000000D03*
%TO.N,SDA*%
X173500000Y-75000000D03*
X180500000Y-65000000D03*
%TO.N,Net-(D2-K)*%
X161000000Y-85500000D03*
%TO.N,/fans/INA/BusIn*%
X152000000Y-62000000D03*
X150000000Y-83500000D03*
X149500000Y-67000000D03*
X153500000Y-77500000D03*
X158500000Y-79000000D03*
%TO.N,+5*%
X174000000Y-69281250D03*
X174000000Y-71500000D03*
X150600000Y-99500000D03*
X169375735Y-73724265D03*
%TO.N,Net-(U1-EN)*%
X173500000Y-97500000D03*
X177500000Y-75000000D03*
%TO.N,Net-(U4-AIN2)*%
X169500000Y-71500000D03*
X172500000Y-67546578D03*
%TO.N,Net-(J3-Pin_2)*%
X174500000Y-63500000D03*
%TO.N,Net-(J1-Pin_2)*%
X160500000Y-63000000D03*
%TO.N,/esp/TXD*%
X170000000Y-96000000D03*
%TO.N,/esp/RXD*%
X168500000Y-96000000D03*
%TO.N,Net-(J7-TAHO)*%
X158132919Y-75798772D03*
X154434313Y-75600000D03*
%TO.N,Net-(J5-TAHO)*%
X155000000Y-75000000D03*
X156931919Y-75779587D03*
%TO.N,/esp/INA_a*%
X169384610Y-75115390D03*
%TO.N,/esp/PMW_2*%
X163000000Y-94500000D03*
X166000000Y-95500000D03*
X159500000Y-96500000D03*
%TO.N,/esp/SPEED*%
X171000000Y-96000000D03*
%TO.N,Net-(U1-IO19)*%
X172500000Y-96000000D03*
X174000000Y-102000000D03*
%TO.N,/esp/fan_on*%
X167500000Y-97000000D03*
%TO.N,/esp/PMW_4*%
X175500000Y-95500000D03*
%TO.N,Net-(U1-IO0)*%
X179000000Y-96000000D03*
X180000000Y-105000000D03*
%TO.N,Net-(J6-TAHO)*%
X155681920Y-68879587D03*
X153916677Y-68859521D03*
%TO.N,Net-(U3-D)*%
X163999000Y-82500000D03*
%TO.N,+12*%
X154000000Y-107500000D03*
%TO.N,Net-(U5-V_{FB})*%
X157537500Y-92500000D03*
X162037500Y-85500000D03*
X155575000Y-93580000D03*
%TO.N,Net-(Q1-D)*%
X160500000Y-98000000D03*
X155000000Y-87000000D03*
%TO.N,Net-(U6-~{Alert})*%
X167500000Y-67500000D03*
X167500000Y-65400000D03*
%TO.N,Net-(Q1-G)*%
X148000000Y-111000000D03*
X159000000Y-108250000D03*
%TD*%
%TO.N,Net-(U1-IO9)*%
D33*
X172000000Y-85000000D02*
X169500000Y-87500000D01*
X164015628Y-97015628D02*
X162792185Y-95792185D01*
X170000000Y-79000000D02*
X170000000Y-77000000D01*
X163399000Y-88500000D02*
X166500000Y-88500000D01*
X166500000Y-88500000D02*
X167000000Y-88000000D01*
X170000000Y-77000000D02*
X168000000Y-75000000D01*
X164015628Y-97400000D02*
X164015628Y-97015628D01*
X170000000Y-79000000D02*
X171400000Y-79000000D01*
X172000000Y-80500000D02*
X172000000Y-85000000D01*
%TO.N,AGND*%
X166000000Y-93500000D02*
X167000000Y-92500000D01*
X159899999Y-71000000D02*
X161500000Y-69399999D01*
X175225000Y-108225000D02*
X175225000Y-113500000D01*
X163000000Y-98000000D02*
X166500000Y-98000000D01*
X160349943Y-66000000D02*
X159500000Y-66849943D01*
X162000000Y-97000000D02*
X163000000Y-98000000D01*
X155701663Y-71000000D02*
X159899999Y-71000000D01*
X174500000Y-103000000D02*
X175000000Y-103500000D01*
X160100001Y-68000000D02*
X161500000Y-69399999D01*
X159500000Y-66849943D02*
X159500000Y-67899999D01*
X164875735Y-72775734D02*
X161500000Y-69399999D01*
X153315677Y-67463910D02*
X153500000Y-67279587D01*
X154500000Y-69798337D02*
X154005550Y-69798337D01*
X151400000Y-100100000D02*
X152000000Y-100700000D01*
X164000000Y-93500000D02*
X166000000Y-93500000D01*
X165275735Y-73775735D02*
X164875735Y-73775735D01*
X172500000Y-104500000D02*
X174500000Y-106500000D01*
X154000000Y-62000000D02*
X158812500Y-62000000D01*
X166500000Y-75000000D02*
X165275735Y-73775735D01*
X174500000Y-106500000D02*
X175000000Y-107000000D01*
X179886470Y-103500000D02*
X179943235Y-103556765D01*
X175000000Y-103500000D02*
X179886470Y-103500000D01*
X159600001Y-68000000D02*
X160100001Y-68000000D01*
X159500000Y-67899999D02*
X159600001Y-68000000D01*
X154005550Y-69798337D02*
X153315677Y-69108464D01*
X175000000Y-107000000D02*
X175000000Y-108000000D01*
X161600000Y-66000000D02*
X160349943Y-66000000D01*
X162000000Y-96500000D02*
X162000000Y-97000000D01*
X154500000Y-69798337D02*
X155701663Y-71000000D01*
X171587500Y-92500000D02*
X173137500Y-90950000D01*
X172101000Y-74399000D02*
X173815125Y-72684875D01*
X151400000Y-98900000D02*
X151400000Y-100100000D01*
X164875735Y-73775735D02*
X164875735Y-72775734D01*
X170400000Y-104500000D02*
X172500000Y-104500000D01*
X170000000Y-74399000D02*
X172101000Y-74399000D01*
X175000000Y-108000000D02*
X175225000Y-108225000D01*
X169100000Y-92500000D02*
X171587500Y-92500000D01*
X153315677Y-69108464D02*
X153315677Y-67463910D01*
X152000000Y-100700000D02*
X151800000Y-100700000D01*
%TO.N,GND*%
X135500000Y-82000000D02*
X135500000Y-80500000D01*
X152109032Y-105690968D02*
X150550000Y-107250000D01*
X157537500Y-93500000D02*
X157095000Y-93500000D01*
X152487500Y-92412500D02*
X151575000Y-91500000D01*
X160037500Y-84000000D02*
X158595000Y-84000000D01*
X154000000Y-85490000D02*
X154000000Y-84112500D01*
X152487500Y-94962500D02*
X152487500Y-93022500D01*
X154000000Y-92047500D02*
X154000000Y-91510000D01*
X154932500Y-92980000D02*
X154000000Y-92047500D01*
X152487500Y-93022500D02*
X154000000Y-91510000D01*
X157095000Y-93500000D02*
X156575000Y-92980000D01*
X151575000Y-91500000D02*
X151575000Y-85480000D01*
X150550000Y-109700000D02*
X150500000Y-109750000D01*
X150000000Y-97450000D02*
X150000000Y-100700000D01*
X154987500Y-83067500D02*
X153971250Y-84083750D01*
X150000000Y-100700000D02*
X152109032Y-102809032D01*
X152109032Y-102809032D02*
X152109032Y-105690968D01*
X156575000Y-92980000D02*
X154932500Y-92980000D01*
X150550000Y-107250000D02*
X150550000Y-109700000D01*
X136000000Y-58000000D02*
X136000000Y-56500000D01*
X135500000Y-94000000D02*
X135500000Y-92000000D01*
X154987500Y-81500000D02*
X154987500Y-83067500D01*
X159037500Y-92000000D02*
X157537500Y-93500000D01*
X152487500Y-94962500D02*
X152487500Y-92412500D01*
X159037500Y-89637500D02*
X159037500Y-92000000D01*
X154000000Y-85490000D02*
X154000000Y-91510000D01*
X154000000Y-84112500D02*
X153971250Y-84083750D01*
X152487500Y-94962500D02*
X150000000Y-97450000D01*
X135500000Y-70000000D02*
X135500000Y-68500000D01*
X158595000Y-84000000D02*
X158575000Y-83980000D01*
%TO.N,/fans/INA/BusOut*%
X152550000Y-66000000D02*
X153000000Y-66000000D01*
X153000000Y-66000000D02*
X152500000Y-66500000D01*
X146500000Y-92000000D02*
X148500000Y-94000000D01*
X146500000Y-84000000D02*
X146460000Y-84000000D01*
X146500000Y-64000000D02*
X148450000Y-64000000D01*
X147061000Y-60511000D02*
X147061000Y-59386000D01*
X149500000Y-62950000D02*
X152550000Y-66000000D01*
X146460000Y-84000000D02*
X144000000Y-81540000D01*
X144000000Y-57540000D02*
X145215000Y-57540000D01*
X146427103Y-71072897D02*
X144894206Y-69540000D01*
X144894206Y-69540000D02*
X144000000Y-69540000D01*
X145215000Y-57540000D02*
X147061000Y-59386000D01*
X148450000Y-64000000D02*
X149500000Y-62950000D01*
X153000000Y-65500000D02*
X153500000Y-65500000D01*
X149500000Y-62950000D02*
X147061000Y-60511000D01*
%TO.N,Net-(J8-TAHO)*%
X143920000Y-60000000D02*
X144000000Y-60080000D01*
X136000000Y-60000000D02*
X143920000Y-60000000D01*
%TO.N,Net-(J5-PMW)*%
X144000000Y-86620000D02*
X145899000Y-88519000D01*
X167900000Y-94949943D02*
X166549940Y-96300003D01*
X145899000Y-88519000D02*
X145899000Y-96721000D01*
X147028103Y-71591897D02*
X147028103Y-65648103D01*
X166549940Y-96300003D02*
X166500000Y-96300003D01*
X146500000Y-82500000D02*
X146500000Y-77120000D01*
X144000000Y-98620000D02*
X145480000Y-100100000D01*
X167900000Y-90000000D02*
X167900000Y-94949943D01*
X144000000Y-74620000D02*
X147028103Y-71591897D01*
X145480000Y-100100000D02*
X148900000Y-100100000D01*
X145899000Y-96721000D02*
X144000000Y-98620000D01*
X146500000Y-77120000D02*
X144000000Y-74620000D01*
X147028103Y-65648103D02*
X144000000Y-62620000D01*
X170862500Y-90000000D02*
X169500000Y-90000000D01*
X144380000Y-86620000D02*
X145500000Y-85500000D01*
X144000000Y-86620000D02*
X144380000Y-86620000D01*
%TO.N,Net-(U4-AIN3)*%
X169773753Y-70470812D02*
X169225734Y-69922793D01*
X169225734Y-69922793D02*
X169225734Y-68674265D01*
X169225734Y-68674265D02*
X170000000Y-67899999D01*
X169773753Y-70472453D02*
X169773753Y-70470812D01*
X169773638Y-70472568D02*
X169773753Y-70472453D01*
%TO.N,Net-(J4-Pin_2)*%
X171540000Y-59885000D02*
X167925000Y-63500000D01*
X167925000Y-63500000D02*
X167000000Y-63500000D01*
%TO.N,SCL*%
X180500000Y-68000000D02*
X180500000Y-69000000D01*
X179299000Y-68000000D02*
X177799000Y-66500000D01*
X180500000Y-69000000D02*
X175000000Y-74500000D01*
X177799000Y-66500000D02*
X166000000Y-66500000D01*
%TO.N,3.3*%
X173500000Y-108500000D02*
X173500000Y-115000000D01*
X175866000Y-115399000D02*
X183601000Y-115399000D01*
X163891024Y-92500000D02*
X161399000Y-94992024D01*
X160417043Y-66500000D02*
X161600000Y-66500000D01*
X171353420Y-68146578D02*
X171667848Y-68146578D01*
X161399000Y-98399000D02*
X162207815Y-99207815D01*
X166000000Y-107400000D02*
X166100000Y-107500000D01*
X170374638Y-70223168D02*
X169825734Y-69674264D01*
X184500000Y-114500000D02*
X184500000Y-104725000D01*
X168000000Y-79000000D02*
X164155470Y-79000000D01*
X165500000Y-71900000D02*
X161266450Y-67666450D01*
X169748943Y-72101000D02*
X170374638Y-71475305D01*
X183500000Y-63500000D02*
X182000000Y-62000000D01*
X169825734Y-69674264D02*
X171353420Y-68146578D01*
X160000000Y-67332899D02*
X160000000Y-66917043D01*
X164155470Y-79000000D02*
X163598000Y-79557470D01*
X163999000Y-92500000D02*
X163891024Y-92500000D01*
X158007405Y-77004073D02*
X158503944Y-76507534D01*
X178500000Y-75299000D02*
X178500000Y-79500000D01*
X178000000Y-59885000D02*
X177266471Y-59885000D01*
X166100000Y-107500000D02*
X172500000Y-107500000D01*
X175866000Y-115399000D02*
X177765000Y-113500000D01*
X163598000Y-75198000D02*
X163598000Y-79557470D01*
X156934060Y-77004073D02*
X158007405Y-77004073D01*
X173500000Y-115000000D02*
X173899000Y-115399000D01*
X161399000Y-94992024D02*
X161399000Y-98399000D01*
X169008178Y-72101000D02*
X169748943Y-72101000D01*
X160333551Y-67666450D02*
X160000000Y-67332899D01*
X172500000Y-107500000D02*
X173500000Y-108500000D01*
X183601000Y-115399000D02*
X184500000Y-114500000D01*
X162000000Y-73600000D02*
X163598000Y-75198000D01*
X160000000Y-66917043D02*
X160417043Y-66500000D01*
X184500000Y-104725000D02*
X182500000Y-102725000D01*
X170374638Y-71475305D02*
X170374638Y-70223168D01*
X168807178Y-71900000D02*
X169008178Y-72101000D01*
X162000000Y-73600000D02*
X162000000Y-72900000D01*
X178799000Y-75000000D02*
X178500000Y-75299000D01*
X161266450Y-67666450D02*
X160333551Y-67666450D01*
X162000000Y-72900000D02*
X163000000Y-71900000D01*
X168000000Y-81500000D02*
X168000000Y-79000000D01*
X173899000Y-115399000D02*
X175866000Y-115399000D01*
%TO.N,SDA*%
X179899000Y-69033900D02*
X178966450Y-69966450D01*
X180500000Y-65000000D02*
X179899000Y-65601000D01*
X179899000Y-65601000D02*
X179899000Y-69033900D01*
X178966450Y-69966450D02*
X178533550Y-69966450D01*
X180500000Y-65000000D02*
X179500000Y-66000000D01*
X179500000Y-66000000D02*
X166000000Y-66000000D01*
X178533550Y-69966450D02*
X173500000Y-75000000D01*
%TO.N,Net-(D2-K)*%
X161000000Y-85500000D02*
X159190386Y-85500000D01*
X159987500Y-86297115D02*
X159987500Y-87362500D01*
X158595193Y-84904807D02*
X159987500Y-86297115D01*
X157287500Y-81500000D02*
X157287500Y-83597115D01*
X159190386Y-85500000D02*
X158595193Y-84904807D01*
X160050000Y-87425000D02*
X159987500Y-87362500D01*
X159987500Y-87362500D02*
X161975000Y-87362500D01*
X157287500Y-83597115D02*
X158595193Y-84904807D01*
X161975000Y-87362500D02*
X162037500Y-87425000D01*
%TO.N,/fans/INA/BusIn*%
X149353117Y-69414677D02*
X150464677Y-69414677D01*
X150500000Y-69450000D02*
X149950000Y-69450000D01*
X149500000Y-85480000D02*
X149500000Y-84000000D01*
X152000000Y-62000000D02*
X152000000Y-62500000D01*
X159900000Y-78900000D02*
X160000000Y-79000000D01*
X150464677Y-69414677D02*
X150500000Y-69450000D01*
X149500000Y-91500000D02*
X149500000Y-85480000D01*
X160000000Y-79000000D02*
X160000000Y-81462500D01*
X153500000Y-77500000D02*
X153500000Y-73050000D01*
X160000000Y-81462500D02*
X160037500Y-81500000D01*
X149500000Y-84000000D02*
X150000000Y-83500000D01*
X149500000Y-69050000D02*
X149500000Y-67000000D01*
X152000000Y-62500000D02*
X153000000Y-63500000D01*
X153000000Y-63500000D02*
X152500000Y-63500000D01*
X158500000Y-79000000D02*
X160000000Y-79000000D01*
X153500000Y-73050000D02*
X149500000Y-69050000D01*
%TO.N,+5*%
X160537500Y-96462500D02*
X158701000Y-98299000D01*
X169375735Y-73724265D02*
X171775735Y-73724265D01*
X151151057Y-98299000D02*
X150600000Y-98850057D01*
X158701000Y-98299000D02*
X151151057Y-98299000D01*
X150600000Y-98850057D02*
X150600000Y-99500000D01*
X174000000Y-71500000D02*
X174000000Y-69281250D01*
X160537500Y-94750000D02*
X160537500Y-96462500D01*
X171775735Y-73724265D02*
X174000000Y-71500000D01*
%TO.N,Net-(U1-EN)*%
X176500000Y-83000000D02*
X176500000Y-79500000D01*
X173500000Y-97500000D02*
X175000000Y-97500000D01*
X177500000Y-75000000D02*
X176500000Y-76000000D01*
X175000000Y-97500000D02*
X178000000Y-94500000D01*
X178000000Y-94500000D02*
X178000000Y-84500000D01*
X176500000Y-76000000D02*
X176500000Y-79500000D01*
X178000000Y-84500000D02*
X176500000Y-83000000D01*
%TO.N,Net-(U4-AIN2)*%
X168825734Y-70825734D02*
X168825734Y-68174266D01*
X169700001Y-67299999D02*
X172253421Y-67299999D01*
X168825734Y-68174266D02*
X169700001Y-67299999D01*
X169500000Y-71500000D02*
X168825734Y-70825734D01*
X172253421Y-67299999D02*
X172500000Y-67546578D01*
%TO.N,Net-(J3-Pin_2)*%
X180540000Y-59885000D02*
X176925000Y-63500000D01*
X176925000Y-63500000D02*
X174500000Y-63500000D01*
%TO.N,Net-(J1-Pin_2)*%
X162540000Y-59885000D02*
X160500000Y-61925000D01*
X160500000Y-61925000D02*
X160500000Y-63000000D01*
%TO.N,/esp/TXD*%
X182500000Y-111000000D02*
X181500000Y-111000000D01*
X181500000Y-111000000D02*
X170000000Y-99500000D01*
X170000000Y-99500000D02*
X170000000Y-96000000D01*
%TO.N,/esp/RXD*%
X168500000Y-96000000D02*
X168500000Y-98567100D01*
X168500000Y-98567100D02*
X179966450Y-110033550D01*
X179966450Y-111006450D02*
X182500000Y-113540000D01*
X179966450Y-110033550D02*
X179966450Y-111006450D01*
%TO.N,Net-(J7-TAHO)*%
X155214900Y-76380587D02*
X154434313Y-75600000D01*
X158132919Y-75798772D02*
X157551104Y-76380587D01*
X135500000Y-96000000D02*
X143920000Y-96000000D01*
X157551104Y-76380587D02*
X155214900Y-76380587D01*
X143920000Y-96000000D02*
X144000000Y-96080000D01*
%TO.N,Net-(J5-TAHO)*%
X156152332Y-75000000D02*
X155000000Y-75000000D01*
X143920000Y-84000000D02*
X144000000Y-84080000D01*
X135500000Y-84000000D02*
X143920000Y-84000000D01*
X156931919Y-75779587D02*
X156152332Y-75000000D01*
%TO.N,/esp/INA_a*%
X172000000Y-79500000D02*
X172000000Y-77730780D01*
X167500000Y-73230780D02*
X169384610Y-75115390D01*
X170000000Y-81500000D02*
X172000000Y-79500000D01*
X172000000Y-77730780D02*
X169384610Y-75115390D01*
X167500000Y-71500000D02*
X167500000Y-73230780D01*
%TO.N,/esp/PMW_2*%
X158987500Y-96500000D02*
X159500000Y-96500000D01*
X163000000Y-94500000D02*
X164000000Y-95500000D01*
X157487500Y-95000000D02*
X158987500Y-96500000D01*
X164000000Y-95500000D02*
X166000000Y-95500000D01*
%TO.N,/esp/SPEED*%
X168500000Y-87000000D02*
X168500000Y-93500000D01*
X168500000Y-93500000D02*
X171000000Y-96000000D01*
X167500000Y-86000000D02*
X168500000Y-87000000D01*
%TO.N,Net-(U1-IO19)*%
X172399000Y-100399000D02*
X174000000Y-102000000D01*
X172500000Y-96000000D02*
X172399000Y-96101000D01*
X172399000Y-96101000D02*
X172399000Y-100399000D01*
%TO.N,/esp/fan_on*%
X156084744Y-112750000D02*
X167500000Y-101334744D01*
X154500000Y-112750000D02*
X156084744Y-112750000D01*
X167500000Y-101334744D02*
X167500000Y-97000000D01*
%TO.N,/esp/PMW_4*%
X176000000Y-95000000D02*
X175500000Y-95500000D01*
X176000000Y-91000000D02*
X176000000Y-95000000D01*
%TO.N,Net-(U1-IO0)*%
X180000000Y-105000000D02*
X180544235Y-104455765D01*
X179000000Y-98475086D02*
X179000000Y-96000000D01*
X180544235Y-104455765D02*
X180544235Y-100019321D01*
X180544235Y-100019321D02*
X179000000Y-98475086D01*
%TO.N,Net-(J6-TAHO)*%
X135500000Y-72000000D02*
X143920000Y-72000000D01*
X153936743Y-68879587D02*
X155681920Y-68879587D01*
X153916677Y-68859521D02*
X153936743Y-68879587D01*
X143920000Y-72000000D02*
X144000000Y-72080000D01*
%TO.N,Net-(U3-D)*%
X165499000Y-84000000D02*
X163999000Y-82500000D01*
X167500000Y-84000000D02*
X165499000Y-84000000D01*
%TO.N,+12*%
X155500000Y-107250000D02*
X154250000Y-107250000D01*
X155500000Y-107250000D02*
X155500000Y-109750000D01*
X154250000Y-107250000D02*
X154000000Y-107500000D01*
%TO.N,Net-(D3-K)*%
X161900000Y-89637500D02*
X162037500Y-89500000D01*
X160037500Y-89687500D02*
X159987500Y-89637500D01*
X159987500Y-91700000D02*
X160537500Y-92250000D01*
X159987500Y-89637500D02*
X159987500Y-91700000D01*
X160125000Y-89500000D02*
X159987500Y-89637500D01*
X159987500Y-89637500D02*
X161900000Y-89637500D01*
%TO.N,Net-(U6-Vin+)*%
X158000000Y-63962500D02*
X158462500Y-63962500D01*
X159000000Y-64500000D02*
X161600000Y-64500000D01*
X158462500Y-63962500D02*
X159000000Y-64500000D01*
X158000000Y-63962500D02*
X155462500Y-63962500D01*
X155462500Y-63962500D02*
X155000000Y-63500000D01*
%TO.N,Net-(U6-Vbus)*%
X155537500Y-66037500D02*
X158000000Y-66037500D01*
X161600000Y-65500000D02*
X158537500Y-65500000D01*
X159037500Y-65000000D02*
X158000000Y-66037500D01*
X161600000Y-65000000D02*
X159037500Y-65000000D01*
X155000000Y-66000000D02*
X155500000Y-66000000D01*
X155500000Y-66000000D02*
X155537500Y-66037500D01*
X158537500Y-65500000D02*
X158000000Y-66037500D01*
%TO.N,Net-(U5-V_{FB})*%
X157537500Y-92500000D02*
X158087500Y-91950000D01*
X162037500Y-84000000D02*
X162037500Y-85500000D01*
X155575000Y-93580000D02*
X155457500Y-93580000D01*
X155457500Y-93580000D02*
X155037500Y-94000000D01*
X162037500Y-84000000D02*
X162037500Y-79037500D01*
X158087500Y-91950000D02*
X158087500Y-89637500D01*
X155037500Y-94000000D02*
X155037500Y-95000000D01*
X162037500Y-79037500D02*
X162075000Y-79000000D01*
%TO.N,Net-(Q1-D)*%
X156075000Y-85490000D02*
X158613285Y-85490000D01*
X160500000Y-98000000D02*
X156450000Y-102050000D01*
X158613285Y-85490000D02*
X159037500Y-85914215D01*
X156075000Y-85490000D02*
X156075000Y-91510000D01*
X156075000Y-85490000D02*
X156075000Y-85925000D01*
X159037500Y-85914215D02*
X159037500Y-87362500D01*
X156075000Y-85925000D02*
X155000000Y-87000000D01*
X156450000Y-102050000D02*
X156450000Y-104975000D01*
%TO.N,Net-(U6-~{Alert})*%
X166000000Y-65500000D02*
X167400000Y-65500000D01*
X167400000Y-65500000D02*
X167500000Y-65400000D01*
X167500000Y-67500000D02*
X167500000Y-69500000D01*
%TO.N,Net-(C25-Pad1)*%
X152487500Y-97037500D02*
X157450000Y-97037500D01*
X157450000Y-97037500D02*
X157487500Y-97000000D01*
%TO.N,Net-(Q1-G)*%
X159000000Y-108250000D02*
X157500000Y-109750000D01*
X157500000Y-107350000D02*
X157400000Y-107250000D01*
X157500000Y-109750000D02*
X157500000Y-107350000D01*
X157400000Y-107250000D02*
X157400000Y-107750000D01*
X148000000Y-111000000D02*
X148000000Y-108000000D01*
X148000000Y-108000000D02*
X151025000Y-104975000D01*
X151025000Y-104975000D02*
X151500000Y-104975000D01*
%TO.N,Net-(Q2-G)*%
X152450000Y-107250000D02*
X152450000Y-112700000D01*
X152450000Y-112700000D02*
X152500000Y-112750000D01*
%TO.N,Net-(Q4-B)*%
X173137500Y-89050000D02*
X175950000Y-89050000D01*
X175950000Y-89050000D02*
X176000000Y-89000000D01*
%TD*%
M02*
