%TF.GenerationSoftware,KiCad,Pcbnew,10.0.3*%
%TF.CreationDate,2026-06-13T22:55:19+02:00*%
%TF.ProjectId,main,6d61696e-2e6b-4696-9361-645f70636258,rev?*%
%TF.SameCoordinates,Original*%
%TF.FileFunction,Legend,Top*%
%TF.FilePolarity,Positive*%
%FSLAX46Y46*%
G04 Gerber Fmt 4.6, Leading zero omitted, Abs format (unit mm)*
G04 Created by KiCad (PCBNEW 10.0.3) date 2026-06-13 22:55:19*
%MOMM*%
%LPD*%
G01*
G04 APERTURE LIST*
%ADD10C,0.100000*%
%ADD11C,0.150000*%
%ADD12C,0.162500*%
%ADD13C,0.120000*%
%ADD14C,0.200000*%
%ADD15C,0.250000*%
G04 APERTURE END LIST*
D10*
X177822873Y-107369620D02*
X180151255Y-107369620D01*
X180151255Y-111560707D01*
X177822873Y-111560707D01*
X177822873Y-107369620D01*
X180500000Y-63500000D02*
X185500000Y-63500000D01*
X185500000Y-69000000D01*
X180500000Y-69000000D01*
X180500000Y-63500000D01*
D11*
X145384398Y-108388200D02*
X146298684Y-108388200D01*
X145841541Y-108845342D02*
X145841541Y-107931057D01*
X147441540Y-107645342D02*
X146870112Y-107645342D01*
X146870112Y-107645342D02*
X146812969Y-108216771D01*
X146812969Y-108216771D02*
X146870112Y-108159628D01*
X146870112Y-108159628D02*
X146984398Y-108102485D01*
X146984398Y-108102485D02*
X147270112Y-108102485D01*
X147270112Y-108102485D02*
X147384398Y-108159628D01*
X147384398Y-108159628D02*
X147441540Y-108216771D01*
X147441540Y-108216771D02*
X147498683Y-108331057D01*
X147498683Y-108331057D02*
X147498683Y-108616771D01*
X147498683Y-108616771D02*
X147441540Y-108731057D01*
X147441540Y-108731057D02*
X147384398Y-108788200D01*
X147384398Y-108788200D02*
X147270112Y-108845342D01*
X147270112Y-108845342D02*
X146984398Y-108845342D01*
X146984398Y-108845342D02*
X146870112Y-108788200D01*
X146870112Y-108788200D02*
X146812969Y-108731057D01*
X152884398Y-108388200D02*
X153798684Y-108388200D01*
X153341541Y-108845342D02*
X153341541Y-107931057D01*
X154998683Y-108845342D02*
X154312969Y-108845342D01*
X154655826Y-108845342D02*
X154655826Y-107645342D01*
X154655826Y-107645342D02*
X154541540Y-107816771D01*
X154541540Y-107816771D02*
X154427255Y-107931057D01*
X154427255Y-107931057D02*
X154312969Y-107988200D01*
X155455826Y-107759628D02*
X155512969Y-107702485D01*
X155512969Y-107702485D02*
X155627255Y-107645342D01*
X155627255Y-107645342D02*
X155912969Y-107645342D01*
X155912969Y-107645342D02*
X156027255Y-107702485D01*
X156027255Y-107702485D02*
X156084397Y-107759628D01*
X156084397Y-107759628D02*
X156141540Y-107873914D01*
X156141540Y-107873914D02*
X156141540Y-107988200D01*
X156141540Y-107988200D02*
X156084397Y-108159628D01*
X156084397Y-108159628D02*
X155398683Y-108845342D01*
X155398683Y-108845342D02*
X156141540Y-108845342D01*
X163784398Y-107716771D02*
X163955826Y-107773914D01*
X163955826Y-107773914D02*
X164012969Y-107831057D01*
X164012969Y-107831057D02*
X164070112Y-107945342D01*
X164070112Y-107945342D02*
X164070112Y-108116771D01*
X164070112Y-108116771D02*
X164012969Y-108231057D01*
X164012969Y-108231057D02*
X163955826Y-108288200D01*
X163955826Y-108288200D02*
X163841541Y-108345342D01*
X163841541Y-108345342D02*
X163384398Y-108345342D01*
X163384398Y-108345342D02*
X163384398Y-107145342D01*
X163384398Y-107145342D02*
X163784398Y-107145342D01*
X163784398Y-107145342D02*
X163898684Y-107202485D01*
X163898684Y-107202485D02*
X163955826Y-107259628D01*
X163955826Y-107259628D02*
X164012969Y-107373914D01*
X164012969Y-107373914D02*
X164012969Y-107488200D01*
X164012969Y-107488200D02*
X163955826Y-107602485D01*
X163955826Y-107602485D02*
X163898684Y-107659628D01*
X163898684Y-107659628D02*
X163784398Y-107716771D01*
X163784398Y-107716771D02*
X163384398Y-107716771D01*
X164812969Y-107145342D02*
X165041541Y-107145342D01*
X165041541Y-107145342D02*
X165155826Y-107202485D01*
X165155826Y-107202485D02*
X165270112Y-107316771D01*
X165270112Y-107316771D02*
X165327255Y-107545342D01*
X165327255Y-107545342D02*
X165327255Y-107945342D01*
X165327255Y-107945342D02*
X165270112Y-108173914D01*
X165270112Y-108173914D02*
X165155826Y-108288200D01*
X165155826Y-108288200D02*
X165041541Y-108345342D01*
X165041541Y-108345342D02*
X164812969Y-108345342D01*
X164812969Y-108345342D02*
X164698684Y-108288200D01*
X164698684Y-108288200D02*
X164584398Y-108173914D01*
X164584398Y-108173914D02*
X164527255Y-107945342D01*
X164527255Y-107945342D02*
X164527255Y-107545342D01*
X164527255Y-107545342D02*
X164584398Y-107316771D01*
X164584398Y-107316771D02*
X164698684Y-107202485D01*
X164698684Y-107202485D02*
X164812969Y-107145342D01*
X166070112Y-107145342D02*
X166298684Y-107145342D01*
X166298684Y-107145342D02*
X166412969Y-107202485D01*
X166412969Y-107202485D02*
X166527255Y-107316771D01*
X166527255Y-107316771D02*
X166584398Y-107545342D01*
X166584398Y-107545342D02*
X166584398Y-107945342D01*
X166584398Y-107945342D02*
X166527255Y-108173914D01*
X166527255Y-108173914D02*
X166412969Y-108288200D01*
X166412969Y-108288200D02*
X166298684Y-108345342D01*
X166298684Y-108345342D02*
X166070112Y-108345342D01*
X166070112Y-108345342D02*
X165955827Y-108288200D01*
X165955827Y-108288200D02*
X165841541Y-108173914D01*
X165841541Y-108173914D02*
X165784398Y-107945342D01*
X165784398Y-107945342D02*
X165784398Y-107545342D01*
X165784398Y-107545342D02*
X165841541Y-107316771D01*
X165841541Y-107316771D02*
X165955827Y-107202485D01*
X165955827Y-107202485D02*
X166070112Y-107145342D01*
X166927255Y-107145342D02*
X167612970Y-107145342D01*
X167270112Y-108345342D02*
X167270112Y-107145342D01*
X169070112Y-109345342D02*
X168670112Y-108773914D01*
X168384398Y-109345342D02*
X168384398Y-108145342D01*
X168384398Y-108145342D02*
X168841541Y-108145342D01*
X168841541Y-108145342D02*
X168955826Y-108202485D01*
X168955826Y-108202485D02*
X169012969Y-108259628D01*
X169012969Y-108259628D02*
X169070112Y-108373914D01*
X169070112Y-108373914D02*
X169070112Y-108545342D01*
X169070112Y-108545342D02*
X169012969Y-108659628D01*
X169012969Y-108659628D02*
X168955826Y-108716771D01*
X168955826Y-108716771D02*
X168841541Y-108773914D01*
X168841541Y-108773914D02*
X168384398Y-108773914D01*
X169527255Y-109288200D02*
X169698684Y-109345342D01*
X169698684Y-109345342D02*
X169984398Y-109345342D01*
X169984398Y-109345342D02*
X170098684Y-109288200D01*
X170098684Y-109288200D02*
X170155826Y-109231057D01*
X170155826Y-109231057D02*
X170212969Y-109116771D01*
X170212969Y-109116771D02*
X170212969Y-109002485D01*
X170212969Y-109002485D02*
X170155826Y-108888200D01*
X170155826Y-108888200D02*
X170098684Y-108831057D01*
X170098684Y-108831057D02*
X169984398Y-108773914D01*
X169984398Y-108773914D02*
X169755826Y-108716771D01*
X169755826Y-108716771D02*
X169641541Y-108659628D01*
X169641541Y-108659628D02*
X169584398Y-108602485D01*
X169584398Y-108602485D02*
X169527255Y-108488200D01*
X169527255Y-108488200D02*
X169527255Y-108373914D01*
X169527255Y-108373914D02*
X169584398Y-108259628D01*
X169584398Y-108259628D02*
X169641541Y-108202485D01*
X169641541Y-108202485D02*
X169755826Y-108145342D01*
X169755826Y-108145342D02*
X170041541Y-108145342D01*
X170041541Y-108145342D02*
X170212969Y-108202485D01*
X170555826Y-108145342D02*
X171241541Y-108145342D01*
X170898683Y-109345342D02*
X170898683Y-108145342D01*
X180398684Y-106845342D02*
X180398684Y-105645342D01*
X180398684Y-106788200D02*
X180284398Y-106845342D01*
X180284398Y-106845342D02*
X180055826Y-106845342D01*
X180055826Y-106845342D02*
X179941541Y-106788200D01*
X179941541Y-106788200D02*
X179884398Y-106731057D01*
X179884398Y-106731057D02*
X179827255Y-106616771D01*
X179827255Y-106616771D02*
X179827255Y-106273914D01*
X179827255Y-106273914D02*
X179884398Y-106159628D01*
X179884398Y-106159628D02*
X179941541Y-106102485D01*
X179941541Y-106102485D02*
X180055826Y-106045342D01*
X180055826Y-106045342D02*
X180284398Y-106045342D01*
X180284398Y-106045342D02*
X180398684Y-106102485D01*
X181221367Y-108636389D02*
X180821367Y-108064961D01*
X180535653Y-108636389D02*
X180535653Y-107436389D01*
X180535653Y-107436389D02*
X180992796Y-107436389D01*
X180992796Y-107436389D02*
X181107081Y-107493532D01*
X181107081Y-107493532D02*
X181164224Y-107550675D01*
X181164224Y-107550675D02*
X181221367Y-107664961D01*
X181221367Y-107664961D02*
X181221367Y-107836389D01*
X181221367Y-107836389D02*
X181164224Y-107950675D01*
X181164224Y-107950675D02*
X181107081Y-108007818D01*
X181107081Y-108007818D02*
X180992796Y-108064961D01*
X180992796Y-108064961D02*
X180535653Y-108064961D01*
X181621367Y-107436389D02*
X182421367Y-108636389D01*
X182421367Y-107436389D02*
X181621367Y-108636389D01*
X183735653Y-107379247D02*
X182707081Y-108922104D01*
X183964224Y-107436389D02*
X184649939Y-107436389D01*
X184307081Y-108636389D02*
X184307081Y-107436389D01*
X184935653Y-107436389D02*
X185735653Y-108636389D01*
X185735653Y-107436389D02*
X184935653Y-108636389D01*
X181505807Y-99716771D02*
X181677235Y-99773914D01*
X181677235Y-99773914D02*
X181734378Y-99831057D01*
X181734378Y-99831057D02*
X181791521Y-99945342D01*
X181791521Y-99945342D02*
X181791521Y-100116771D01*
X181791521Y-100116771D02*
X181734378Y-100231057D01*
X181734378Y-100231057D02*
X181677235Y-100288200D01*
X181677235Y-100288200D02*
X181562950Y-100345342D01*
X181562950Y-100345342D02*
X181105807Y-100345342D01*
X181105807Y-100345342D02*
X181105807Y-99145342D01*
X181105807Y-99145342D02*
X181505807Y-99145342D01*
X181505807Y-99145342D02*
X181620093Y-99202485D01*
X181620093Y-99202485D02*
X181677235Y-99259628D01*
X181677235Y-99259628D02*
X181734378Y-99373914D01*
X181734378Y-99373914D02*
X181734378Y-99488200D01*
X181734378Y-99488200D02*
X181677235Y-99602485D01*
X181677235Y-99602485D02*
X181620093Y-99659628D01*
X181620093Y-99659628D02*
X181505807Y-99716771D01*
X181505807Y-99716771D02*
X181105807Y-99716771D01*
X182191521Y-99145342D02*
X182991521Y-99145342D01*
X182991521Y-99145342D02*
X182191521Y-100345342D01*
X182191521Y-100345342D02*
X182991521Y-100345342D01*
X184134378Y-100345342D02*
X183734378Y-99773914D01*
X183448664Y-100345342D02*
X183448664Y-99145342D01*
X183448664Y-99145342D02*
X183905807Y-99145342D01*
X183905807Y-99145342D02*
X184020092Y-99202485D01*
X184020092Y-99202485D02*
X184077235Y-99259628D01*
X184077235Y-99259628D02*
X184134378Y-99373914D01*
X184134378Y-99373914D02*
X184134378Y-99545342D01*
X184134378Y-99545342D02*
X184077235Y-99659628D01*
X184077235Y-99659628D02*
X184020092Y-99716771D01*
X184020092Y-99716771D02*
X183905807Y-99773914D01*
X183905807Y-99773914D02*
X183448664Y-99773914D01*
X181884398Y-70845342D02*
X181884398Y-69645342D01*
X182398684Y-69759628D02*
X182455827Y-69702485D01*
X182455827Y-69702485D02*
X182570113Y-69645342D01*
X182570113Y-69645342D02*
X182855827Y-69645342D01*
X182855827Y-69645342D02*
X182970113Y-69702485D01*
X182970113Y-69702485D02*
X183027255Y-69759628D01*
X183027255Y-69759628D02*
X183084398Y-69873914D01*
X183084398Y-69873914D02*
X183084398Y-69988200D01*
X183084398Y-69988200D02*
X183027255Y-70159628D01*
X183027255Y-70159628D02*
X182341541Y-70845342D01*
X182341541Y-70845342D02*
X183084398Y-70845342D01*
X184284398Y-70731057D02*
X184227255Y-70788200D01*
X184227255Y-70788200D02*
X184055827Y-70845342D01*
X184055827Y-70845342D02*
X183941541Y-70845342D01*
X183941541Y-70845342D02*
X183770112Y-70788200D01*
X183770112Y-70788200D02*
X183655827Y-70673914D01*
X183655827Y-70673914D02*
X183598684Y-70559628D01*
X183598684Y-70559628D02*
X183541541Y-70331057D01*
X183541541Y-70331057D02*
X183541541Y-70159628D01*
X183541541Y-70159628D02*
X183598684Y-69931057D01*
X183598684Y-69931057D02*
X183655827Y-69816771D01*
X183655827Y-69816771D02*
X183770112Y-69702485D01*
X183770112Y-69702485D02*
X183941541Y-69645342D01*
X183941541Y-69645342D02*
X184055827Y-69645342D01*
X184055827Y-69645342D02*
X184227255Y-69702485D01*
X184227255Y-69702485D02*
X184284398Y-69759628D01*
D12*
X136664049Y-98032454D02*
X136787859Y-98032454D01*
X136787859Y-98032454D02*
X136911668Y-98094359D01*
X136911668Y-98094359D02*
X136973573Y-98156264D01*
X136973573Y-98156264D02*
X137035478Y-98280073D01*
X137035478Y-98280073D02*
X137097383Y-98527692D01*
X137097383Y-98527692D02*
X137097383Y-98837216D01*
X137097383Y-98837216D02*
X137035478Y-99084835D01*
X137035478Y-99084835D02*
X136973573Y-99208645D01*
X136973573Y-99208645D02*
X136911668Y-99270550D01*
X136911668Y-99270550D02*
X136787859Y-99332454D01*
X136787859Y-99332454D02*
X136664049Y-99332454D01*
X136664049Y-99332454D02*
X136540240Y-99270550D01*
X136540240Y-99270550D02*
X136478335Y-99208645D01*
X136478335Y-99208645D02*
X136416430Y-99084835D01*
X136416430Y-99084835D02*
X136354526Y-98837216D01*
X136354526Y-98837216D02*
X136354526Y-98527692D01*
X136354526Y-98527692D02*
X136416430Y-98280073D01*
X136416430Y-98280073D02*
X136478335Y-98156264D01*
X136478335Y-98156264D02*
X136540240Y-98094359D01*
X136540240Y-98094359D02*
X136664049Y-98032454D01*
X137654525Y-99208645D02*
X137716430Y-99270550D01*
X137716430Y-99270550D02*
X137654525Y-99332454D01*
X137654525Y-99332454D02*
X137592621Y-99270550D01*
X137592621Y-99270550D02*
X137654525Y-99208645D01*
X137654525Y-99208645D02*
X137654525Y-99332454D01*
X138335478Y-99332454D02*
X138583097Y-99332454D01*
X138583097Y-99332454D02*
X138706907Y-99270550D01*
X138706907Y-99270550D02*
X138768811Y-99208645D01*
X138768811Y-99208645D02*
X138892621Y-99022930D01*
X138892621Y-99022930D02*
X138954526Y-98775311D01*
X138954526Y-98775311D02*
X138954526Y-98280073D01*
X138954526Y-98280073D02*
X138892621Y-98156264D01*
X138892621Y-98156264D02*
X138830716Y-98094359D01*
X138830716Y-98094359D02*
X138706907Y-98032454D01*
X138706907Y-98032454D02*
X138459288Y-98032454D01*
X138459288Y-98032454D02*
X138335478Y-98094359D01*
X138335478Y-98094359D02*
X138273573Y-98156264D01*
X138273573Y-98156264D02*
X138211669Y-98280073D01*
X138211669Y-98280073D02*
X138211669Y-98589597D01*
X138211669Y-98589597D02*
X138273573Y-98713407D01*
X138273573Y-98713407D02*
X138335478Y-98775311D01*
X138335478Y-98775311D02*
X138459288Y-98837216D01*
X138459288Y-98837216D02*
X138706907Y-98837216D01*
X138706907Y-98837216D02*
X138830716Y-98775311D01*
X138830716Y-98775311D02*
X138892621Y-98713407D01*
X138892621Y-98713407D02*
X138954526Y-98589597D01*
%TO.C,J8*%
D13*
X140600000Y-53650000D02*
X146600000Y-53650000D01*
X140600000Y-63950000D02*
X140600000Y-53650000D01*
X140700000Y-55000000D02*
X141710000Y-55000000D01*
X141710000Y-55000000D02*
X141710000Y-60080000D01*
X141710000Y-60080000D02*
X140700000Y-60080000D01*
X146550000Y-60750000D02*
X146550000Y-63950000D01*
X146550000Y-63950000D02*
X140600000Y-63950000D01*
X146600000Y-53650000D02*
X146600000Y-59400000D01*
%TO.C,R4*%
X170502064Y-65265000D02*
X170047936Y-65265000D01*
X170502064Y-66735000D02*
X170047936Y-66735000D01*
%TO.C,R30*%
X182772936Y-66765000D02*
X183227064Y-66765000D01*
X182772936Y-68235000D02*
X183227064Y-68235000D01*
%TO.C,J2*%
X149730000Y-61155000D02*
X149730000Y-59885000D01*
X150570000Y-58725000D02*
X150570000Y-58495000D01*
X151000000Y-61155000D02*
X149730000Y-61155000D01*
X151430000Y-58725000D02*
X151430000Y-58495000D01*
X152270000Y-58495000D02*
X152270000Y-55735000D01*
X153110000Y-58807642D02*
X153110000Y-58495000D01*
X153970000Y-58807642D02*
X153970000Y-58495000D01*
X149620000Y-55735000D02*
X154920000Y-55735000D01*
X154920000Y-58495000D01*
X149620000Y-58495000D01*
X149620000Y-55735000D01*
%TO.C,J4*%
X167730000Y-61155000D02*
X167730000Y-59885000D01*
X168570000Y-58725000D02*
X168570000Y-58495000D01*
X169000000Y-61155000D02*
X167730000Y-61155000D01*
X169430000Y-58725000D02*
X169430000Y-58495000D01*
X170270000Y-58495000D02*
X170270000Y-55735000D01*
X171110000Y-58807642D02*
X171110000Y-58495000D01*
X171970000Y-58807642D02*
X171970000Y-58495000D01*
X167620000Y-55735000D02*
X172920000Y-55735000D01*
X172920000Y-58495000D01*
X167620000Y-58495000D01*
X167620000Y-55735000D01*
%TO.C,J9*%
X173845000Y-114880000D02*
X173845000Y-113500000D01*
X175225000Y-114880000D02*
X173845000Y-114880000D01*
X176495000Y-112120000D02*
X179145000Y-112120000D01*
X176495000Y-114880000D02*
X176495000Y-112120000D01*
X176495000Y-114880000D02*
X179145000Y-114880000D01*
X179145000Y-114880000D02*
X179145000Y-112120000D01*
%TO.C,R20*%
X182772936Y-64265000D02*
X183227064Y-64265000D01*
X182772936Y-65735000D02*
X183227064Y-65735000D01*
%TO.C,U2*%
X175489000Y-68671250D02*
X177309000Y-68671250D01*
X175489000Y-68721250D02*
X175489000Y-68671250D01*
X175489000Y-71791250D02*
X175489000Y-71741250D01*
X177309000Y-68671250D02*
X177309000Y-68721250D01*
X177309000Y-69841250D02*
X177309000Y-70621250D01*
X177309000Y-71741250D02*
X177309000Y-71791250D01*
X177309000Y-71791250D02*
X175489000Y-71791250D01*
X174949000Y-68721250D02*
X174709000Y-68391250D01*
X175189000Y-68391250D01*
X174949000Y-68721250D01*
G36*
X174949000Y-68721250D02*
G01*
X174709000Y-68391250D01*
X175189000Y-68391250D01*
X174949000Y-68721250D01*
G37*
%TO.C,R3*%
X177539564Y-65265000D02*
X177085436Y-65265000D01*
X177539564Y-66735000D02*
X177085436Y-66735000D01*
%TO.C,C2*%
X177051248Y-62765000D02*
X177573752Y-62765000D01*
X177051248Y-64235000D02*
X177573752Y-64235000D01*
%TO.C,R27*%
X177727064Y-102265000D02*
X177272936Y-102265000D01*
X177727064Y-103735000D02*
X177272936Y-103735000D01*
%TO.C,R10*%
X153596920Y-72506651D02*
X153596920Y-72052523D01*
X155066920Y-72506651D02*
X155066920Y-72052523D01*
%TO.C,C6*%
X171664000Y-70492502D02*
X171664000Y-69969998D01*
X173134000Y-70492502D02*
X173134000Y-69969998D01*
%TO.C,Q3*%
X175940000Y-98590000D02*
X176940000Y-98590000D01*
X175940000Y-100410000D02*
X175940000Y-98590000D01*
X175990000Y-100410000D02*
X175940000Y-100410000D01*
X177890000Y-100410000D02*
X177110000Y-100410000D01*
X178060000Y-98590000D02*
X179060000Y-98590000D01*
X179060000Y-98590000D02*
X179060000Y-100410000D01*
X179060000Y-100410000D02*
X179010000Y-100410000D01*
X177120000Y-100950000D02*
X177450000Y-100710000D01*
X177450000Y-101190000D01*
X177120000Y-100950000D01*
G36*
X177450000Y-101190000D02*
G01*
X177120000Y-100950000D01*
X177450000Y-100710000D01*
X177450000Y-101190000D01*
G37*
%TO.C,R5*%
X165040000Y-60227064D02*
X165040000Y-59772936D01*
X166510000Y-60227064D02*
X166510000Y-59772936D01*
%TO.C,C4*%
X163013748Y-62725000D02*
X163536252Y-62725000D01*
X163013748Y-64195000D02*
X163536252Y-64195000D01*
%TO.C,C8*%
X151096920Y-71943335D02*
X151096920Y-72465839D01*
X152566920Y-71943335D02*
X152566920Y-72465839D01*
%TO.C,R7*%
X183040000Y-60227064D02*
X183040000Y-59772936D01*
X184510000Y-60227064D02*
X184510000Y-59772936D01*
%TO.C,J10*%
X181120000Y-109620000D02*
X182500000Y-109620000D01*
X181120000Y-111000000D02*
X181120000Y-109620000D01*
X181120000Y-112270000D02*
X181120000Y-114920000D01*
X181120000Y-112270000D02*
X183880000Y-112270000D01*
X181120000Y-114920000D02*
X183880000Y-114920000D01*
X183880000Y-112270000D02*
X183880000Y-114920000D01*
%TO.C,J7*%
X140600000Y-89650000D02*
X146600000Y-89650000D01*
X140600000Y-99950000D02*
X140600000Y-89650000D01*
X140700000Y-91000000D02*
X141710000Y-91000000D01*
X141710000Y-91000000D02*
X141710000Y-96080000D01*
X141710000Y-96080000D02*
X140700000Y-96080000D01*
X146550000Y-96750000D02*
X146550000Y-99950000D01*
X146550000Y-99950000D02*
X140600000Y-99950000D01*
X146600000Y-89650000D02*
X146600000Y-95400000D01*
%TO.C,C7*%
X148596920Y-71980835D02*
X148596920Y-72503339D01*
X150066920Y-71980835D02*
X150066920Y-72503339D01*
%TO.C,U4*%
D14*
X163250000Y-67950001D02*
X166900001Y-67950001D01*
X165099999Y-71049999D02*
X166900001Y-71049999D01*
%TO.C,J5*%
D13*
X140600000Y-77650000D02*
X146600000Y-77650000D01*
X140600000Y-87950000D02*
X140600000Y-77650000D01*
X140700000Y-79000000D02*
X141710000Y-79000000D01*
X141710000Y-79000000D02*
X141710000Y-84080000D01*
X141710000Y-84080000D02*
X140700000Y-84080000D01*
X146550000Y-84750000D02*
X146550000Y-87950000D01*
X146550000Y-87950000D02*
X140600000Y-87950000D01*
X146600000Y-77650000D02*
X146600000Y-83400000D01*
%TO.C,R15*%
X178265000Y-109272936D02*
X178265000Y-109727064D01*
X179735000Y-109272936D02*
X179735000Y-109727064D01*
%TO.C,U1*%
X165789000Y-76121250D02*
X165789000Y-94341250D01*
X166089000Y-76121250D02*
X165789000Y-76121250D01*
X166089000Y-94341250D02*
X165789000Y-94341250D01*
X186009000Y-76121250D02*
X180199000Y-76121250D01*
X186009000Y-76121250D02*
X186009000Y-94341250D01*
X186009000Y-94341250D02*
X179509000Y-94341250D01*
X179499000Y-76131250D02*
X179499000Y-75631250D01*
X179999000Y-76131250D01*
X179499000Y-76131250D01*
G36*
X179999000Y-76131250D02*
G01*
X179499000Y-76131250D01*
X179499000Y-75631250D01*
X179999000Y-76131250D01*
G37*
%TO.C,C3*%
X156013748Y-62765000D02*
X156536252Y-62765000D01*
X156013748Y-64235000D02*
X156536252Y-64235000D01*
%TO.C,C1*%
X170013748Y-62765000D02*
X170536252Y-62765000D01*
X170013748Y-64235000D02*
X170536252Y-64235000D01*
%TO.C,R2*%
X156502064Y-65265000D02*
X156047936Y-65265000D01*
X156502064Y-66735000D02*
X156047936Y-66735000D01*
%TO.C,R8*%
X174040000Y-60227064D02*
X174040000Y-59772936D01*
X175510000Y-60227064D02*
X175510000Y-59772936D01*
%TO.C,J3*%
X176730000Y-61155000D02*
X176730000Y-59885000D01*
X177570000Y-58725000D02*
X177570000Y-58495000D01*
X178000000Y-61155000D02*
X176730000Y-61155000D01*
X178430000Y-58725000D02*
X178430000Y-58495000D01*
X179270000Y-58495000D02*
X179270000Y-55735000D01*
X180110000Y-58807642D02*
X180110000Y-58495000D01*
X180970000Y-58807642D02*
X180970000Y-58495000D01*
X176620000Y-55735000D02*
X181920000Y-55735000D01*
X181920000Y-58495000D01*
X176620000Y-58495000D01*
X176620000Y-55735000D01*
%TO.C,U3*%
D11*
X155831920Y-71356983D02*
X155831920Y-73202191D01*
X155831920Y-71356983D02*
X158831920Y-71356983D01*
X155831920Y-73202191D02*
X158831920Y-73202191D01*
X158831920Y-71356983D02*
X158831920Y-73202191D01*
D15*
X158456922Y-69025479D02*
G75*
G02*
X158206920Y-69025479I-125001J0D01*
G01*
X158206920Y-69025479D02*
G75*
G02*
X158456922Y-69025479I125001J0D01*
G01*
%TO.C,J11*%
D10*
X131000000Y-101250000D02*
X162000000Y-101250000D01*
X162000000Y-115750000D01*
X131000000Y-115750000D01*
X131000000Y-101250000D01*
%TO.C,D1*%
D13*
X175540000Y-108500000D02*
X175540000Y-111360000D01*
X175540000Y-111360000D02*
X177460000Y-111360000D01*
X177460000Y-111360000D02*
X177460000Y-108500000D01*
%TO.C,J1*%
X158730000Y-61155000D02*
X158730000Y-59885000D01*
X159570000Y-58725000D02*
X159570000Y-58495000D01*
X160000000Y-61155000D02*
X158730000Y-61155000D01*
X160430000Y-58725000D02*
X160430000Y-58495000D01*
X161270000Y-58495000D02*
X161270000Y-55735000D01*
X162110000Y-58807642D02*
X162110000Y-58495000D01*
X162970000Y-58807642D02*
X162970000Y-58495000D01*
X158620000Y-55735000D02*
X163920000Y-55735000D01*
X163920000Y-58495000D01*
X158620000Y-58495000D01*
X158620000Y-55735000D01*
%TO.C,R6*%
X156040000Y-60227064D02*
X156040000Y-59772936D01*
X157510000Y-60227064D02*
X157510000Y-59772936D01*
%TO.C,R26*%
X177272936Y-104765000D02*
X177727064Y-104765000D01*
X177272936Y-106235000D02*
X177727064Y-106235000D01*
%TO.C,R16*%
X173265000Y-109272936D02*
X173265000Y-109727064D01*
X174735000Y-109272936D02*
X174735000Y-109727064D01*
%TO.C,C5*%
X177137748Y-72765000D02*
X177660252Y-72765000D01*
X177137748Y-74235000D02*
X177660252Y-74235000D01*
%TO.C,J6*%
X140600000Y-65650000D02*
X146600000Y-65650000D01*
X140600000Y-75950000D02*
X140600000Y-65650000D01*
X140700000Y-67000000D02*
X141710000Y-67000000D01*
X141710000Y-67000000D02*
X141710000Y-72080000D01*
X141710000Y-72080000D02*
X140700000Y-72080000D01*
X146550000Y-72750000D02*
X146550000Y-75950000D01*
X146550000Y-75950000D02*
X140600000Y-75950000D01*
X146600000Y-65650000D02*
X146600000Y-71400000D01*
%TO.C,R14*%
X162265000Y-75772936D02*
X162265000Y-76227064D01*
X163735000Y-75772936D02*
X163735000Y-76227064D01*
%TO.C,R1*%
X163502064Y-65225000D02*
X163047936Y-65225000D01*
X163502064Y-66695000D02*
X163047936Y-66695000D01*
%TO.C,BZ1*%
X181120000Y-101345000D02*
X182500000Y-101345000D01*
X181120000Y-102725000D02*
X181120000Y-101345000D01*
X181120000Y-103995000D02*
X181120000Y-106645000D01*
X181120000Y-103995000D02*
X183880000Y-103995000D01*
X181120000Y-106645000D02*
X183880000Y-106645000D01*
X183880000Y-103995000D02*
X183880000Y-106645000D01*
%TD*%
M02*
